%TF.GenerationSoftware,KiCad,Pcbnew,8.0.8-8.0.8-0~ubuntu24.04.1*%
%TF.CreationDate,2025-02-16T19:13:56-08:00*%
%TF.ProjectId,simple-counter,73696d70-6c65-42d6-936f-756e7465722e,V1.0*%
%TF.SameCoordinates,Original*%
%TF.FileFunction,Legend,Top*%
%TF.FilePolarity,Positive*%
%FSLAX46Y46*%
G04 Gerber Fmt 4.6, Leading zero omitted, Abs format (unit mm)*
G04 Created by KiCad (PCBNEW 8.0.8-8.0.8-0~ubuntu24.04.1) date 2025-02-16 19:13:56*
%MOMM*%
%LPD*%
G01*
G04 APERTURE LIST*
%ADD10C,0.200000*%
%ADD11C,0.120000*%
%ADD12C,0.254000*%
%ADD13C,0.010000*%
%ADD14C,1.600000*%
%ADD15O,1.727200X1.727200*%
%ADD16O,2.400000X1.600000*%
%ADD17R,2.400000X1.600000*%
%ADD18R,1.600000X2.400000*%
%ADD19O,1.600000X2.400000*%
%ADD20C,3.200000*%
%ADD21R,1.727200X1.727200*%
G04 APERTURE END LIST*
D10*
X183593482Y-63014838D02*
X183498244Y-62967219D01*
X183498244Y-62967219D02*
X183355387Y-62967219D01*
X183355387Y-62967219D02*
X183212530Y-63014838D01*
X183212530Y-63014838D02*
X183117292Y-63110076D01*
X183117292Y-63110076D02*
X183069673Y-63205314D01*
X183069673Y-63205314D02*
X183022054Y-63395790D01*
X183022054Y-63395790D02*
X183022054Y-63538647D01*
X183022054Y-63538647D02*
X183069673Y-63729123D01*
X183069673Y-63729123D02*
X183117292Y-63824361D01*
X183117292Y-63824361D02*
X183212530Y-63919600D01*
X183212530Y-63919600D02*
X183355387Y-63967219D01*
X183355387Y-63967219D02*
X183450625Y-63967219D01*
X183450625Y-63967219D02*
X183593482Y-63919600D01*
X183593482Y-63919600D02*
X183641101Y-63871980D01*
X183641101Y-63871980D02*
X183641101Y-63538647D01*
X183641101Y-63538647D02*
X183450625Y-63538647D01*
X184069673Y-63967219D02*
X184069673Y-62967219D01*
X184069673Y-62967219D02*
X184641101Y-63967219D01*
X184641101Y-63967219D02*
X184641101Y-62967219D01*
X185117292Y-63967219D02*
X185117292Y-62967219D01*
X185117292Y-62967219D02*
X185355387Y-62967219D01*
X185355387Y-62967219D02*
X185498244Y-63014838D01*
X185498244Y-63014838D02*
X185593482Y-63110076D01*
X185593482Y-63110076D02*
X185641101Y-63205314D01*
X185641101Y-63205314D02*
X185688720Y-63395790D01*
X185688720Y-63395790D02*
X185688720Y-63538647D01*
X185688720Y-63538647D02*
X185641101Y-63729123D01*
X185641101Y-63729123D02*
X185593482Y-63824361D01*
X185593482Y-63824361D02*
X185498244Y-63919600D01*
X185498244Y-63919600D02*
X185355387Y-63967219D01*
X185355387Y-63967219D02*
X185117292Y-63967219D01*
X187169673Y-63586266D02*
X187931578Y-63586266D01*
X187550625Y-63967219D02*
X187550625Y-63205314D01*
X188883958Y-62967219D02*
X188407768Y-62967219D01*
X188407768Y-62967219D02*
X188360149Y-63443409D01*
X188360149Y-63443409D02*
X188407768Y-63395790D01*
X188407768Y-63395790D02*
X188503006Y-63348171D01*
X188503006Y-63348171D02*
X188741101Y-63348171D01*
X188741101Y-63348171D02*
X188836339Y-63395790D01*
X188836339Y-63395790D02*
X188883958Y-63443409D01*
X188883958Y-63443409D02*
X188931577Y-63538647D01*
X188931577Y-63538647D02*
X188931577Y-63776742D01*
X188931577Y-63776742D02*
X188883958Y-63871980D01*
X188883958Y-63871980D02*
X188836339Y-63919600D01*
X188836339Y-63919600D02*
X188741101Y-63967219D01*
X188741101Y-63967219D02*
X188503006Y-63967219D01*
X188503006Y-63967219D02*
X188407768Y-63919600D01*
X188407768Y-63919600D02*
X188360149Y-63871980D01*
X189217292Y-62967219D02*
X189550625Y-63967219D01*
X189550625Y-63967219D02*
X189883958Y-62967219D01*
X202581133Y-91811980D02*
X202533514Y-91859600D01*
X202533514Y-91859600D02*
X202390657Y-91907219D01*
X202390657Y-91907219D02*
X202295419Y-91907219D01*
X202295419Y-91907219D02*
X202152562Y-91859600D01*
X202152562Y-91859600D02*
X202057324Y-91764361D01*
X202057324Y-91764361D02*
X202009705Y-91669123D01*
X202009705Y-91669123D02*
X201962086Y-91478647D01*
X201962086Y-91478647D02*
X201962086Y-91335790D01*
X201962086Y-91335790D02*
X202009705Y-91145314D01*
X202009705Y-91145314D02*
X202057324Y-91050076D01*
X202057324Y-91050076D02*
X202152562Y-90954838D01*
X202152562Y-90954838D02*
X202295419Y-90907219D01*
X202295419Y-90907219D02*
X202390657Y-90907219D01*
X202390657Y-90907219D02*
X202533514Y-90954838D01*
X202533514Y-90954838D02*
X202581133Y-91002457D01*
X203533514Y-91907219D02*
X202962086Y-91907219D01*
X203247800Y-91907219D02*
X203247800Y-90907219D01*
X203247800Y-90907219D02*
X203152562Y-91050076D01*
X203152562Y-91050076D02*
X203057324Y-91145314D01*
X203057324Y-91145314D02*
X202962086Y-91192933D01*
X202600180Y-97007219D02*
X202028752Y-97007219D01*
X202314466Y-97007219D02*
X202314466Y-96007219D01*
X202314466Y-96007219D02*
X202219228Y-96150076D01*
X202219228Y-96150076D02*
X202123990Y-96245314D01*
X202123990Y-96245314D02*
X202028752Y-96292933D01*
X203219228Y-96007219D02*
X203314466Y-96007219D01*
X203314466Y-96007219D02*
X203409704Y-96054838D01*
X203409704Y-96054838D02*
X203457323Y-96102457D01*
X203457323Y-96102457D02*
X203504942Y-96197695D01*
X203504942Y-96197695D02*
X203552561Y-96388171D01*
X203552561Y-96388171D02*
X203552561Y-96626266D01*
X203552561Y-96626266D02*
X203504942Y-96816742D01*
X203504942Y-96816742D02*
X203457323Y-96911980D01*
X203457323Y-96911980D02*
X203409704Y-96959600D01*
X203409704Y-96959600D02*
X203314466Y-97007219D01*
X203314466Y-97007219D02*
X203219228Y-97007219D01*
X203219228Y-97007219D02*
X203123990Y-96959600D01*
X203123990Y-96959600D02*
X203076371Y-96911980D01*
X203076371Y-96911980D02*
X203028752Y-96816742D01*
X203028752Y-96816742D02*
X202981133Y-96626266D01*
X202981133Y-96626266D02*
X202981133Y-96388171D01*
X202981133Y-96388171D02*
X203028752Y-96197695D01*
X203028752Y-96197695D02*
X203076371Y-96102457D01*
X203076371Y-96102457D02*
X203123990Y-96054838D01*
X203123990Y-96054838D02*
X203219228Y-96007219D01*
X204171609Y-96007219D02*
X204266847Y-96007219D01*
X204266847Y-96007219D02*
X204362085Y-96054838D01*
X204362085Y-96054838D02*
X204409704Y-96102457D01*
X204409704Y-96102457D02*
X204457323Y-96197695D01*
X204457323Y-96197695D02*
X204504942Y-96388171D01*
X204504942Y-96388171D02*
X204504942Y-96626266D01*
X204504942Y-96626266D02*
X204457323Y-96816742D01*
X204457323Y-96816742D02*
X204409704Y-96911980D01*
X204409704Y-96911980D02*
X204362085Y-96959600D01*
X204362085Y-96959600D02*
X204266847Y-97007219D01*
X204266847Y-97007219D02*
X204171609Y-97007219D01*
X204171609Y-97007219D02*
X204076371Y-96959600D01*
X204076371Y-96959600D02*
X204028752Y-96911980D01*
X204028752Y-96911980D02*
X203981133Y-96816742D01*
X203981133Y-96816742D02*
X203933514Y-96626266D01*
X203933514Y-96626266D02*
X203933514Y-96388171D01*
X203933514Y-96388171D02*
X203981133Y-96197695D01*
X203981133Y-96197695D02*
X204028752Y-96102457D01*
X204028752Y-96102457D02*
X204076371Y-96054838D01*
X204076371Y-96054838D02*
X204171609Y-96007219D01*
X204933514Y-96340552D02*
X204933514Y-97007219D01*
X204933514Y-96435790D02*
X204981133Y-96388171D01*
X204981133Y-96388171D02*
X205076371Y-96340552D01*
X205076371Y-96340552D02*
X205219228Y-96340552D01*
X205219228Y-96340552D02*
X205314466Y-96388171D01*
X205314466Y-96388171D02*
X205362085Y-96483409D01*
X205362085Y-96483409D02*
X205362085Y-97007219D01*
X206171609Y-96483409D02*
X205838276Y-96483409D01*
X205838276Y-97007219D02*
X205838276Y-96007219D01*
X205838276Y-96007219D02*
X206314466Y-96007219D01*
X168748333Y-95061980D02*
X168700714Y-95109600D01*
X168700714Y-95109600D02*
X168557857Y-95157219D01*
X168557857Y-95157219D02*
X168462619Y-95157219D01*
X168462619Y-95157219D02*
X168319762Y-95109600D01*
X168319762Y-95109600D02*
X168224524Y-95014361D01*
X168224524Y-95014361D02*
X168176905Y-94919123D01*
X168176905Y-94919123D02*
X168129286Y-94728647D01*
X168129286Y-94728647D02*
X168129286Y-94585790D01*
X168129286Y-94585790D02*
X168176905Y-94395314D01*
X168176905Y-94395314D02*
X168224524Y-94300076D01*
X168224524Y-94300076D02*
X168319762Y-94204838D01*
X168319762Y-94204838D02*
X168462619Y-94157219D01*
X168462619Y-94157219D02*
X168557857Y-94157219D01*
X168557857Y-94157219D02*
X168700714Y-94204838D01*
X168700714Y-94204838D02*
X168748333Y-94252457D01*
X169129286Y-94252457D02*
X169176905Y-94204838D01*
X169176905Y-94204838D02*
X169272143Y-94157219D01*
X169272143Y-94157219D02*
X169510238Y-94157219D01*
X169510238Y-94157219D02*
X169605476Y-94204838D01*
X169605476Y-94204838D02*
X169653095Y-94252457D01*
X169653095Y-94252457D02*
X169700714Y-94347695D01*
X169700714Y-94347695D02*
X169700714Y-94442933D01*
X169700714Y-94442933D02*
X169653095Y-94585790D01*
X169653095Y-94585790D02*
X169081667Y-95157219D01*
X169081667Y-95157219D02*
X169700714Y-95157219D01*
X168667380Y-102757219D02*
X168095952Y-102757219D01*
X168381666Y-102757219D02*
X168381666Y-101757219D01*
X168381666Y-101757219D02*
X168286428Y-101900076D01*
X168286428Y-101900076D02*
X168191190Y-101995314D01*
X168191190Y-101995314D02*
X168095952Y-102042933D01*
X169286428Y-101757219D02*
X169381666Y-101757219D01*
X169381666Y-101757219D02*
X169476904Y-101804838D01*
X169476904Y-101804838D02*
X169524523Y-101852457D01*
X169524523Y-101852457D02*
X169572142Y-101947695D01*
X169572142Y-101947695D02*
X169619761Y-102138171D01*
X169619761Y-102138171D02*
X169619761Y-102376266D01*
X169619761Y-102376266D02*
X169572142Y-102566742D01*
X169572142Y-102566742D02*
X169524523Y-102661980D01*
X169524523Y-102661980D02*
X169476904Y-102709600D01*
X169476904Y-102709600D02*
X169381666Y-102757219D01*
X169381666Y-102757219D02*
X169286428Y-102757219D01*
X169286428Y-102757219D02*
X169191190Y-102709600D01*
X169191190Y-102709600D02*
X169143571Y-102661980D01*
X169143571Y-102661980D02*
X169095952Y-102566742D01*
X169095952Y-102566742D02*
X169048333Y-102376266D01*
X169048333Y-102376266D02*
X169048333Y-102138171D01*
X169048333Y-102138171D02*
X169095952Y-101947695D01*
X169095952Y-101947695D02*
X169143571Y-101852457D01*
X169143571Y-101852457D02*
X169191190Y-101804838D01*
X169191190Y-101804838D02*
X169286428Y-101757219D01*
X170238809Y-101757219D02*
X170334047Y-101757219D01*
X170334047Y-101757219D02*
X170429285Y-101804838D01*
X170429285Y-101804838D02*
X170476904Y-101852457D01*
X170476904Y-101852457D02*
X170524523Y-101947695D01*
X170524523Y-101947695D02*
X170572142Y-102138171D01*
X170572142Y-102138171D02*
X170572142Y-102376266D01*
X170572142Y-102376266D02*
X170524523Y-102566742D01*
X170524523Y-102566742D02*
X170476904Y-102661980D01*
X170476904Y-102661980D02*
X170429285Y-102709600D01*
X170429285Y-102709600D02*
X170334047Y-102757219D01*
X170334047Y-102757219D02*
X170238809Y-102757219D01*
X170238809Y-102757219D02*
X170143571Y-102709600D01*
X170143571Y-102709600D02*
X170095952Y-102661980D01*
X170095952Y-102661980D02*
X170048333Y-102566742D01*
X170048333Y-102566742D02*
X170000714Y-102376266D01*
X170000714Y-102376266D02*
X170000714Y-102138171D01*
X170000714Y-102138171D02*
X170048333Y-101947695D01*
X170048333Y-101947695D02*
X170095952Y-101852457D01*
X170095952Y-101852457D02*
X170143571Y-101804838D01*
X170143571Y-101804838D02*
X170238809Y-101757219D01*
X171000714Y-102090552D02*
X171000714Y-102757219D01*
X171000714Y-102185790D02*
X171048333Y-102138171D01*
X171048333Y-102138171D02*
X171143571Y-102090552D01*
X171143571Y-102090552D02*
X171286428Y-102090552D01*
X171286428Y-102090552D02*
X171381666Y-102138171D01*
X171381666Y-102138171D02*
X171429285Y-102233409D01*
X171429285Y-102233409D02*
X171429285Y-102757219D01*
X172238809Y-102233409D02*
X171905476Y-102233409D01*
X171905476Y-102757219D02*
X171905476Y-101757219D01*
X171905476Y-101757219D02*
X172381666Y-101757219D01*
X169122856Y-69914126D02*
X169122856Y-68644126D01*
X169122856Y-68644126D02*
X169425237Y-68644126D01*
X169425237Y-68644126D02*
X169606666Y-68704602D01*
X169606666Y-68704602D02*
X169727618Y-68825554D01*
X169727618Y-68825554D02*
X169788095Y-68946507D01*
X169788095Y-68946507D02*
X169848571Y-69188411D01*
X169848571Y-69188411D02*
X169848571Y-69369840D01*
X169848571Y-69369840D02*
X169788095Y-69611745D01*
X169788095Y-69611745D02*
X169727618Y-69732697D01*
X169727618Y-69732697D02*
X169606666Y-69853650D01*
X169606666Y-69853650D02*
X169425237Y-69914126D01*
X169425237Y-69914126D02*
X169122856Y-69914126D01*
X170332380Y-69853650D02*
X170513809Y-69914126D01*
X170513809Y-69914126D02*
X170816190Y-69914126D01*
X170816190Y-69914126D02*
X170937142Y-69853650D01*
X170937142Y-69853650D02*
X170997618Y-69793173D01*
X170997618Y-69793173D02*
X171058095Y-69672221D01*
X171058095Y-69672221D02*
X171058095Y-69551269D01*
X171058095Y-69551269D02*
X170997618Y-69430316D01*
X170997618Y-69430316D02*
X170937142Y-69369840D01*
X170937142Y-69369840D02*
X170816190Y-69309364D01*
X170816190Y-69309364D02*
X170574285Y-69248888D01*
X170574285Y-69248888D02*
X170453333Y-69188411D01*
X170453333Y-69188411D02*
X170392856Y-69127935D01*
X170392856Y-69127935D02*
X170332380Y-69006983D01*
X170332380Y-69006983D02*
X170332380Y-68886030D01*
X170332380Y-68886030D02*
X170392856Y-68765078D01*
X170392856Y-68765078D02*
X170453333Y-68704602D01*
X170453333Y-68704602D02*
X170574285Y-68644126D01*
X170574285Y-68644126D02*
X170876666Y-68644126D01*
X170876666Y-68644126D02*
X171058095Y-68704602D01*
X172267619Y-69914126D02*
X171541904Y-69914126D01*
X171904761Y-69914126D02*
X171904761Y-68644126D01*
X171904761Y-68644126D02*
X171783809Y-68825554D01*
X171783809Y-68825554D02*
X171662857Y-68946507D01*
X171662857Y-68946507D02*
X171541904Y-69006983D01*
X168154047Y-85404126D02*
X169000714Y-85404126D01*
X169000714Y-85404126D02*
X168456428Y-86674126D01*
X170391666Y-86613650D02*
X170573095Y-86674126D01*
X170573095Y-86674126D02*
X170875476Y-86674126D01*
X170875476Y-86674126D02*
X170996428Y-86613650D01*
X170996428Y-86613650D02*
X171056904Y-86553173D01*
X171056904Y-86553173D02*
X171117381Y-86432221D01*
X171117381Y-86432221D02*
X171117381Y-86311269D01*
X171117381Y-86311269D02*
X171056904Y-86190316D01*
X171056904Y-86190316D02*
X170996428Y-86129840D01*
X170996428Y-86129840D02*
X170875476Y-86069364D01*
X170875476Y-86069364D02*
X170633571Y-86008888D01*
X170633571Y-86008888D02*
X170512619Y-85948411D01*
X170512619Y-85948411D02*
X170452142Y-85887935D01*
X170452142Y-85887935D02*
X170391666Y-85766983D01*
X170391666Y-85766983D02*
X170391666Y-85646030D01*
X170391666Y-85646030D02*
X170452142Y-85525078D01*
X170452142Y-85525078D02*
X170512619Y-85464602D01*
X170512619Y-85464602D02*
X170633571Y-85404126D01*
X170633571Y-85404126D02*
X170935952Y-85404126D01*
X170935952Y-85404126D02*
X171117381Y-85464602D01*
X172145476Y-86613650D02*
X172024524Y-86674126D01*
X172024524Y-86674126D02*
X171782619Y-86674126D01*
X171782619Y-86674126D02*
X171661666Y-86613650D01*
X171661666Y-86613650D02*
X171601190Y-86492697D01*
X171601190Y-86492697D02*
X171601190Y-86008888D01*
X171601190Y-86008888D02*
X171661666Y-85887935D01*
X171661666Y-85887935D02*
X171782619Y-85827459D01*
X171782619Y-85827459D02*
X172024524Y-85827459D01*
X172024524Y-85827459D02*
X172145476Y-85887935D01*
X172145476Y-85887935D02*
X172205952Y-86008888D01*
X172205952Y-86008888D02*
X172205952Y-86129840D01*
X172205952Y-86129840D02*
X171601190Y-86250792D01*
X173294523Y-85827459D02*
X173294523Y-86855554D01*
X173294523Y-86855554D02*
X173234047Y-86976507D01*
X173234047Y-86976507D02*
X173173571Y-87036983D01*
X173173571Y-87036983D02*
X173052618Y-87097459D01*
X173052618Y-87097459D02*
X172871190Y-87097459D01*
X172871190Y-87097459D02*
X172750237Y-87036983D01*
X173294523Y-86613650D02*
X173173571Y-86674126D01*
X173173571Y-86674126D02*
X172931666Y-86674126D01*
X172931666Y-86674126D02*
X172810714Y-86613650D01*
X172810714Y-86613650D02*
X172750237Y-86553173D01*
X172750237Y-86553173D02*
X172689761Y-86432221D01*
X172689761Y-86432221D02*
X172689761Y-86069364D01*
X172689761Y-86069364D02*
X172750237Y-85948411D01*
X172750237Y-85948411D02*
X172810714Y-85887935D01*
X172810714Y-85887935D02*
X172931666Y-85827459D01*
X172931666Y-85827459D02*
X173173571Y-85827459D01*
X173173571Y-85827459D02*
X173294523Y-85887935D01*
X173899285Y-86674126D02*
X173899285Y-85827459D01*
X173899285Y-85948411D02*
X173959762Y-85887935D01*
X173959762Y-85887935D02*
X174080714Y-85827459D01*
X174080714Y-85827459D02*
X174262143Y-85827459D01*
X174262143Y-85827459D02*
X174383095Y-85887935D01*
X174383095Y-85887935D02*
X174443571Y-86008888D01*
X174443571Y-86008888D02*
X174443571Y-86674126D01*
X174443571Y-86008888D02*
X174504047Y-85887935D01*
X174504047Y-85887935D02*
X174625000Y-85827459D01*
X174625000Y-85827459D02*
X174806428Y-85827459D01*
X174806428Y-85827459D02*
X174927381Y-85887935D01*
X174927381Y-85887935D02*
X174987857Y-86008888D01*
X174987857Y-86008888D02*
X174987857Y-86674126D01*
X176076428Y-86613650D02*
X175955476Y-86674126D01*
X175955476Y-86674126D02*
X175713571Y-86674126D01*
X175713571Y-86674126D02*
X175592618Y-86613650D01*
X175592618Y-86613650D02*
X175532142Y-86492697D01*
X175532142Y-86492697D02*
X175532142Y-86008888D01*
X175532142Y-86008888D02*
X175592618Y-85887935D01*
X175592618Y-85887935D02*
X175713571Y-85827459D01*
X175713571Y-85827459D02*
X175955476Y-85827459D01*
X175955476Y-85827459D02*
X176076428Y-85887935D01*
X176076428Y-85887935D02*
X176136904Y-86008888D01*
X176136904Y-86008888D02*
X176136904Y-86129840D01*
X176136904Y-86129840D02*
X175532142Y-86250792D01*
X176681189Y-85827459D02*
X176681189Y-86674126D01*
X176681189Y-85948411D02*
X176741666Y-85887935D01*
X176741666Y-85887935D02*
X176862618Y-85827459D01*
X176862618Y-85827459D02*
X177044047Y-85827459D01*
X177044047Y-85827459D02*
X177164999Y-85887935D01*
X177164999Y-85887935D02*
X177225475Y-86008888D01*
X177225475Y-86008888D02*
X177225475Y-86674126D01*
X177648809Y-85827459D02*
X178132618Y-85827459D01*
X177830237Y-85404126D02*
X177830237Y-86492697D01*
X177830237Y-86492697D02*
X177890714Y-86613650D01*
X177890714Y-86613650D02*
X178011666Y-86674126D01*
X178011666Y-86674126D02*
X178132618Y-86674126D01*
X180128332Y-86674126D02*
X179523570Y-86674126D01*
X179523570Y-86674126D02*
X179523570Y-85404126D01*
X180551665Y-86008888D02*
X180974999Y-86008888D01*
X181156427Y-86674126D02*
X180551665Y-86674126D01*
X180551665Y-86674126D02*
X180551665Y-85404126D01*
X180551665Y-85404126D02*
X181156427Y-85404126D01*
X181700713Y-86674126D02*
X181700713Y-85404126D01*
X181700713Y-85404126D02*
X182003094Y-85404126D01*
X182003094Y-85404126D02*
X182184523Y-85464602D01*
X182184523Y-85464602D02*
X182305475Y-85585554D01*
X182305475Y-85585554D02*
X182365952Y-85706507D01*
X182365952Y-85706507D02*
X182426428Y-85948411D01*
X182426428Y-85948411D02*
X182426428Y-86129840D01*
X182426428Y-86129840D02*
X182365952Y-86371745D01*
X182365952Y-86371745D02*
X182305475Y-86492697D01*
X182305475Y-86492697D02*
X182184523Y-86613650D01*
X182184523Y-86613650D02*
X182003094Y-86674126D01*
X182003094Y-86674126D02*
X181700713Y-86674126D01*
X183817380Y-85404126D02*
X184603571Y-85404126D01*
X184603571Y-85404126D02*
X184180237Y-85887935D01*
X184180237Y-85887935D02*
X184361666Y-85887935D01*
X184361666Y-85887935D02*
X184482618Y-85948411D01*
X184482618Y-85948411D02*
X184543094Y-86008888D01*
X184543094Y-86008888D02*
X184603571Y-86129840D01*
X184603571Y-86129840D02*
X184603571Y-86432221D01*
X184603571Y-86432221D02*
X184543094Y-86553173D01*
X184543094Y-86553173D02*
X184482618Y-86613650D01*
X184482618Y-86613650D02*
X184361666Y-86674126D01*
X184361666Y-86674126D02*
X183998809Y-86674126D01*
X183998809Y-86674126D02*
X183877856Y-86613650D01*
X183877856Y-86613650D02*
X183817380Y-86553173D01*
X185692142Y-85404126D02*
X185450237Y-85404126D01*
X185450237Y-85404126D02*
X185329285Y-85464602D01*
X185329285Y-85464602D02*
X185268809Y-85525078D01*
X185268809Y-85525078D02*
X185147856Y-85706507D01*
X185147856Y-85706507D02*
X185087380Y-85948411D01*
X185087380Y-85948411D02*
X185087380Y-86432221D01*
X185087380Y-86432221D02*
X185147856Y-86553173D01*
X185147856Y-86553173D02*
X185208333Y-86613650D01*
X185208333Y-86613650D02*
X185329285Y-86674126D01*
X185329285Y-86674126D02*
X185571190Y-86674126D01*
X185571190Y-86674126D02*
X185692142Y-86613650D01*
X185692142Y-86613650D02*
X185752618Y-86553173D01*
X185752618Y-86553173D02*
X185813095Y-86432221D01*
X185813095Y-86432221D02*
X185813095Y-86129840D01*
X185813095Y-86129840D02*
X185752618Y-86008888D01*
X185752618Y-86008888D02*
X185692142Y-85948411D01*
X185692142Y-85948411D02*
X185571190Y-85887935D01*
X185571190Y-85887935D02*
X185329285Y-85887935D01*
X185329285Y-85887935D02*
X185208333Y-85948411D01*
X185208333Y-85948411D02*
X185147856Y-86008888D01*
X185147856Y-86008888D02*
X185087380Y-86129840D01*
X186901666Y-85827459D02*
X186901666Y-86674126D01*
X186599285Y-85343650D02*
X186296904Y-86250792D01*
X186296904Y-86250792D02*
X187083095Y-86250792D01*
X188232143Y-86674126D02*
X187506428Y-86674126D01*
X187869285Y-86674126D02*
X187869285Y-85404126D01*
X187869285Y-85404126D02*
X187748333Y-85585554D01*
X187748333Y-85585554D02*
X187627381Y-85706507D01*
X187627381Y-85706507D02*
X187506428Y-85766983D01*
X189199762Y-86008888D02*
X189381190Y-86069364D01*
X189381190Y-86069364D02*
X189441667Y-86129840D01*
X189441667Y-86129840D02*
X189502143Y-86250792D01*
X189502143Y-86250792D02*
X189502143Y-86432221D01*
X189502143Y-86432221D02*
X189441667Y-86553173D01*
X189441667Y-86553173D02*
X189381190Y-86613650D01*
X189381190Y-86613650D02*
X189260238Y-86674126D01*
X189260238Y-86674126D02*
X188776428Y-86674126D01*
X188776428Y-86674126D02*
X188776428Y-85404126D01*
X188776428Y-85404126D02*
X189199762Y-85404126D01*
X189199762Y-85404126D02*
X189320714Y-85464602D01*
X189320714Y-85464602D02*
X189381190Y-85525078D01*
X189381190Y-85525078D02*
X189441667Y-85646030D01*
X189441667Y-85646030D02*
X189441667Y-85766983D01*
X189441667Y-85766983D02*
X189381190Y-85887935D01*
X189381190Y-85887935D02*
X189320714Y-85948411D01*
X189320714Y-85948411D02*
X189199762Y-86008888D01*
X189199762Y-86008888D02*
X188776428Y-86008888D01*
X190046428Y-86674126D02*
X190046428Y-85404126D01*
X190046428Y-86008888D02*
X190772143Y-86008888D01*
X190772143Y-86674126D02*
X190772143Y-85404126D01*
X192707381Y-87157935D02*
X192646904Y-87097459D01*
X192646904Y-87097459D02*
X192525952Y-86916030D01*
X192525952Y-86916030D02*
X192465476Y-86795078D01*
X192465476Y-86795078D02*
X192405000Y-86613650D01*
X192405000Y-86613650D02*
X192344523Y-86311269D01*
X192344523Y-86311269D02*
X192344523Y-86069364D01*
X192344523Y-86069364D02*
X192405000Y-85766983D01*
X192405000Y-85766983D02*
X192465476Y-85585554D01*
X192465476Y-85585554D02*
X192525952Y-85464602D01*
X192525952Y-85464602D02*
X192646904Y-85283173D01*
X192646904Y-85283173D02*
X192707381Y-85222697D01*
X193735476Y-85827459D02*
X193735476Y-86674126D01*
X193433095Y-85343650D02*
X193130714Y-86250792D01*
X193130714Y-86250792D02*
X193916905Y-86250792D01*
X194400714Y-86674126D02*
X194400714Y-85404126D01*
X194400714Y-85404126D02*
X194703095Y-85404126D01*
X194703095Y-85404126D02*
X194884524Y-85464602D01*
X194884524Y-85464602D02*
X195005476Y-85585554D01*
X195005476Y-85585554D02*
X195065953Y-85706507D01*
X195065953Y-85706507D02*
X195126429Y-85948411D01*
X195126429Y-85948411D02*
X195126429Y-86129840D01*
X195126429Y-86129840D02*
X195065953Y-86371745D01*
X195065953Y-86371745D02*
X195005476Y-86492697D01*
X195005476Y-86492697D02*
X194884524Y-86613650D01*
X194884524Y-86613650D02*
X194703095Y-86674126D01*
X194703095Y-86674126D02*
X194400714Y-86674126D01*
X195670714Y-86674126D02*
X195670714Y-85827459D01*
X195670714Y-85404126D02*
X195610238Y-85464602D01*
X195610238Y-85464602D02*
X195670714Y-85525078D01*
X195670714Y-85525078D02*
X195731191Y-85464602D01*
X195731191Y-85464602D02*
X195670714Y-85404126D01*
X195670714Y-85404126D02*
X195670714Y-85525078D01*
X196819762Y-85827459D02*
X196819762Y-86855554D01*
X196819762Y-86855554D02*
X196759286Y-86976507D01*
X196759286Y-86976507D02*
X196698810Y-87036983D01*
X196698810Y-87036983D02*
X196577857Y-87097459D01*
X196577857Y-87097459D02*
X196396429Y-87097459D01*
X196396429Y-87097459D02*
X196275476Y-87036983D01*
X196819762Y-86613650D02*
X196698810Y-86674126D01*
X196698810Y-86674126D02*
X196456905Y-86674126D01*
X196456905Y-86674126D02*
X196335953Y-86613650D01*
X196335953Y-86613650D02*
X196275476Y-86553173D01*
X196275476Y-86553173D02*
X196215000Y-86432221D01*
X196215000Y-86432221D02*
X196215000Y-86069364D01*
X196215000Y-86069364D02*
X196275476Y-85948411D01*
X196275476Y-85948411D02*
X196335953Y-85887935D01*
X196335953Y-85887935D02*
X196456905Y-85827459D01*
X196456905Y-85827459D02*
X196698810Y-85827459D01*
X196698810Y-85827459D02*
X196819762Y-85887935D01*
X197424524Y-86674126D02*
X197424524Y-85827459D01*
X197424524Y-85404126D02*
X197364048Y-85464602D01*
X197364048Y-85464602D02*
X197424524Y-85525078D01*
X197424524Y-85525078D02*
X197485001Y-85464602D01*
X197485001Y-85464602D02*
X197424524Y-85404126D01*
X197424524Y-85404126D02*
X197424524Y-85525078D01*
X197847858Y-85827459D02*
X198331667Y-85827459D01*
X198029286Y-85404126D02*
X198029286Y-86492697D01*
X198029286Y-86492697D02*
X198089763Y-86613650D01*
X198089763Y-86613650D02*
X198210715Y-86674126D01*
X198210715Y-86674126D02*
X198331667Y-86674126D01*
X198694524Y-86613650D02*
X198815477Y-86674126D01*
X198815477Y-86674126D02*
X199057381Y-86674126D01*
X199057381Y-86674126D02*
X199178334Y-86613650D01*
X199178334Y-86613650D02*
X199238810Y-86492697D01*
X199238810Y-86492697D02*
X199238810Y-86432221D01*
X199238810Y-86432221D02*
X199178334Y-86311269D01*
X199178334Y-86311269D02*
X199057381Y-86250792D01*
X199057381Y-86250792D02*
X198875953Y-86250792D01*
X198875953Y-86250792D02*
X198755000Y-86190316D01*
X198755000Y-86190316D02*
X198694524Y-86069364D01*
X198694524Y-86069364D02*
X198694524Y-86008888D01*
X198694524Y-86008888D02*
X198755000Y-85887935D01*
X198755000Y-85887935D02*
X198875953Y-85827459D01*
X198875953Y-85827459D02*
X199057381Y-85827459D01*
X199057381Y-85827459D02*
X199178334Y-85887935D01*
X199662143Y-87157935D02*
X199722619Y-87097459D01*
X199722619Y-87097459D02*
X199843572Y-86916030D01*
X199843572Y-86916030D02*
X199904048Y-86795078D01*
X199904048Y-86795078D02*
X199964524Y-86613650D01*
X199964524Y-86613650D02*
X200025000Y-86311269D01*
X200025000Y-86311269D02*
X200025000Y-86069364D01*
X200025000Y-86069364D02*
X199964524Y-85766983D01*
X199964524Y-85766983D02*
X199904048Y-85585554D01*
X199904048Y-85585554D02*
X199843572Y-85464602D01*
X199843572Y-85464602D02*
X199722619Y-85283173D01*
X199722619Y-85283173D02*
X199662143Y-85222697D01*
X202005895Y-66772219D02*
X202005895Y-67581742D01*
X202005895Y-67581742D02*
X202053514Y-67676980D01*
X202053514Y-67676980D02*
X202101133Y-67724600D01*
X202101133Y-67724600D02*
X202196371Y-67772219D01*
X202196371Y-67772219D02*
X202386847Y-67772219D01*
X202386847Y-67772219D02*
X202482085Y-67724600D01*
X202482085Y-67724600D02*
X202529704Y-67676980D01*
X202529704Y-67676980D02*
X202577323Y-67581742D01*
X202577323Y-67581742D02*
X202577323Y-66772219D01*
X203577323Y-67772219D02*
X203005895Y-67772219D01*
X203291609Y-67772219D02*
X203291609Y-66772219D01*
X203291609Y-66772219D02*
X203196371Y-66915076D01*
X203196371Y-66915076D02*
X203101133Y-67010314D01*
X203101133Y-67010314D02*
X203005895Y-67057933D01*
X205905895Y-89672219D02*
X206572561Y-89672219D01*
X206572561Y-89672219D02*
X206143990Y-90672219D01*
X207382085Y-90005552D02*
X207382085Y-90672219D01*
X207143990Y-89624600D02*
X206905895Y-90338885D01*
X206905895Y-90338885D02*
X207524942Y-90338885D01*
X207905895Y-90672219D02*
X207905895Y-89672219D01*
X207905895Y-90148409D02*
X208477323Y-90148409D01*
X208477323Y-90672219D02*
X208477323Y-89672219D01*
X209524942Y-90576980D02*
X209477323Y-90624600D01*
X209477323Y-90624600D02*
X209334466Y-90672219D01*
X209334466Y-90672219D02*
X209239228Y-90672219D01*
X209239228Y-90672219D02*
X209096371Y-90624600D01*
X209096371Y-90624600D02*
X209001133Y-90529361D01*
X209001133Y-90529361D02*
X208953514Y-90434123D01*
X208953514Y-90434123D02*
X208905895Y-90243647D01*
X208905895Y-90243647D02*
X208905895Y-90100790D01*
X208905895Y-90100790D02*
X208953514Y-89910314D01*
X208953514Y-89910314D02*
X209001133Y-89815076D01*
X209001133Y-89815076D02*
X209096371Y-89719838D01*
X209096371Y-89719838D02*
X209239228Y-89672219D01*
X209239228Y-89672219D02*
X209334466Y-89672219D01*
X209334466Y-89672219D02*
X209477323Y-89719838D01*
X209477323Y-89719838D02*
X209524942Y-89767457D01*
X210429704Y-89672219D02*
X209953514Y-89672219D01*
X209953514Y-89672219D02*
X209905895Y-90148409D01*
X209905895Y-90148409D02*
X209953514Y-90100790D01*
X209953514Y-90100790D02*
X210048752Y-90053171D01*
X210048752Y-90053171D02*
X210286847Y-90053171D01*
X210286847Y-90053171D02*
X210382085Y-90100790D01*
X210382085Y-90100790D02*
X210429704Y-90148409D01*
X210429704Y-90148409D02*
X210477323Y-90243647D01*
X210477323Y-90243647D02*
X210477323Y-90481742D01*
X210477323Y-90481742D02*
X210429704Y-90576980D01*
X210429704Y-90576980D02*
X210382085Y-90624600D01*
X210382085Y-90624600D02*
X210286847Y-90672219D01*
X210286847Y-90672219D02*
X210048752Y-90672219D01*
X210048752Y-90672219D02*
X209953514Y-90624600D01*
X209953514Y-90624600D02*
X209905895Y-90576980D01*
X210953514Y-90672219D02*
X211143990Y-90672219D01*
X211143990Y-90672219D02*
X211239228Y-90624600D01*
X211239228Y-90624600D02*
X211286847Y-90576980D01*
X211286847Y-90576980D02*
X211382085Y-90434123D01*
X211382085Y-90434123D02*
X211429704Y-90243647D01*
X211429704Y-90243647D02*
X211429704Y-89862695D01*
X211429704Y-89862695D02*
X211382085Y-89767457D01*
X211382085Y-89767457D02*
X211334466Y-89719838D01*
X211334466Y-89719838D02*
X211239228Y-89672219D01*
X211239228Y-89672219D02*
X211048752Y-89672219D01*
X211048752Y-89672219D02*
X210953514Y-89719838D01*
X210953514Y-89719838D02*
X210905895Y-89767457D01*
X210905895Y-89767457D02*
X210858276Y-89862695D01*
X210858276Y-89862695D02*
X210858276Y-90100790D01*
X210858276Y-90100790D02*
X210905895Y-90196028D01*
X210905895Y-90196028D02*
X210953514Y-90243647D01*
X210953514Y-90243647D02*
X211048752Y-90291266D01*
X211048752Y-90291266D02*
X211239228Y-90291266D01*
X211239228Y-90291266D02*
X211334466Y-90243647D01*
X211334466Y-90243647D02*
X211382085Y-90196028D01*
X211382085Y-90196028D02*
X211429704Y-90100790D01*
X212334466Y-89672219D02*
X211858276Y-89672219D01*
X211858276Y-89672219D02*
X211810657Y-90148409D01*
X211810657Y-90148409D02*
X211858276Y-90100790D01*
X211858276Y-90100790D02*
X211953514Y-90053171D01*
X211953514Y-90053171D02*
X212191609Y-90053171D01*
X212191609Y-90053171D02*
X212286847Y-90100790D01*
X212286847Y-90100790D02*
X212334466Y-90148409D01*
X212334466Y-90148409D02*
X212382085Y-90243647D01*
X212382085Y-90243647D02*
X212382085Y-90481742D01*
X212382085Y-90481742D02*
X212334466Y-90576980D01*
X212334466Y-90576980D02*
X212286847Y-90624600D01*
X212286847Y-90624600D02*
X212191609Y-90672219D01*
X212191609Y-90672219D02*
X211953514Y-90672219D01*
X211953514Y-90672219D02*
X211858276Y-90624600D01*
X211858276Y-90624600D02*
X211810657Y-90576980D01*
X173838095Y-89652219D02*
X173838095Y-90461742D01*
X173838095Y-90461742D02*
X173885714Y-90556980D01*
X173885714Y-90556980D02*
X173933333Y-90604600D01*
X173933333Y-90604600D02*
X174028571Y-90652219D01*
X174028571Y-90652219D02*
X174219047Y-90652219D01*
X174219047Y-90652219D02*
X174314285Y-90604600D01*
X174314285Y-90604600D02*
X174361904Y-90556980D01*
X174361904Y-90556980D02*
X174409523Y-90461742D01*
X174409523Y-90461742D02*
X174409523Y-89652219D01*
X174838095Y-89747457D02*
X174885714Y-89699838D01*
X174885714Y-89699838D02*
X174980952Y-89652219D01*
X174980952Y-89652219D02*
X175219047Y-89652219D01*
X175219047Y-89652219D02*
X175314285Y-89699838D01*
X175314285Y-89699838D02*
X175361904Y-89747457D01*
X175361904Y-89747457D02*
X175409523Y-89842695D01*
X175409523Y-89842695D02*
X175409523Y-89937933D01*
X175409523Y-89937933D02*
X175361904Y-90080790D01*
X175361904Y-90080790D02*
X174790476Y-90652219D01*
X174790476Y-90652219D02*
X175409523Y-90652219D01*
X187938095Y-102352219D02*
X188604761Y-102352219D01*
X188604761Y-102352219D02*
X188176190Y-103352219D01*
X189414285Y-102685552D02*
X189414285Y-103352219D01*
X189176190Y-102304600D02*
X188938095Y-103018885D01*
X188938095Y-103018885D02*
X189557142Y-103018885D01*
X189938095Y-103352219D02*
X189938095Y-102352219D01*
X189938095Y-102828409D02*
X190509523Y-102828409D01*
X190509523Y-103352219D02*
X190509523Y-102352219D01*
X191557142Y-103256980D02*
X191509523Y-103304600D01*
X191509523Y-103304600D02*
X191366666Y-103352219D01*
X191366666Y-103352219D02*
X191271428Y-103352219D01*
X191271428Y-103352219D02*
X191128571Y-103304600D01*
X191128571Y-103304600D02*
X191033333Y-103209361D01*
X191033333Y-103209361D02*
X190985714Y-103114123D01*
X190985714Y-103114123D02*
X190938095Y-102923647D01*
X190938095Y-102923647D02*
X190938095Y-102780790D01*
X190938095Y-102780790D02*
X190985714Y-102590314D01*
X190985714Y-102590314D02*
X191033333Y-102495076D01*
X191033333Y-102495076D02*
X191128571Y-102399838D01*
X191128571Y-102399838D02*
X191271428Y-102352219D01*
X191271428Y-102352219D02*
X191366666Y-102352219D01*
X191366666Y-102352219D02*
X191509523Y-102399838D01*
X191509523Y-102399838D02*
X191557142Y-102447457D01*
X192461904Y-102352219D02*
X191985714Y-102352219D01*
X191985714Y-102352219D02*
X191938095Y-102828409D01*
X191938095Y-102828409D02*
X191985714Y-102780790D01*
X191985714Y-102780790D02*
X192080952Y-102733171D01*
X192080952Y-102733171D02*
X192319047Y-102733171D01*
X192319047Y-102733171D02*
X192414285Y-102780790D01*
X192414285Y-102780790D02*
X192461904Y-102828409D01*
X192461904Y-102828409D02*
X192509523Y-102923647D01*
X192509523Y-102923647D02*
X192509523Y-103161742D01*
X192509523Y-103161742D02*
X192461904Y-103256980D01*
X192461904Y-103256980D02*
X192414285Y-103304600D01*
X192414285Y-103304600D02*
X192319047Y-103352219D01*
X192319047Y-103352219D02*
X192080952Y-103352219D01*
X192080952Y-103352219D02*
X191985714Y-103304600D01*
X191985714Y-103304600D02*
X191938095Y-103256980D01*
X192985714Y-103352219D02*
X193176190Y-103352219D01*
X193176190Y-103352219D02*
X193271428Y-103304600D01*
X193271428Y-103304600D02*
X193319047Y-103256980D01*
X193319047Y-103256980D02*
X193414285Y-103114123D01*
X193414285Y-103114123D02*
X193461904Y-102923647D01*
X193461904Y-102923647D02*
X193461904Y-102542695D01*
X193461904Y-102542695D02*
X193414285Y-102447457D01*
X193414285Y-102447457D02*
X193366666Y-102399838D01*
X193366666Y-102399838D02*
X193271428Y-102352219D01*
X193271428Y-102352219D02*
X193080952Y-102352219D01*
X193080952Y-102352219D02*
X192985714Y-102399838D01*
X192985714Y-102399838D02*
X192938095Y-102447457D01*
X192938095Y-102447457D02*
X192890476Y-102542695D01*
X192890476Y-102542695D02*
X192890476Y-102780790D01*
X192890476Y-102780790D02*
X192938095Y-102876028D01*
X192938095Y-102876028D02*
X192985714Y-102923647D01*
X192985714Y-102923647D02*
X193080952Y-102971266D01*
X193080952Y-102971266D02*
X193271428Y-102971266D01*
X193271428Y-102971266D02*
X193366666Y-102923647D01*
X193366666Y-102923647D02*
X193414285Y-102876028D01*
X193414285Y-102876028D02*
X193461904Y-102780790D01*
X194366666Y-102352219D02*
X193890476Y-102352219D01*
X193890476Y-102352219D02*
X193842857Y-102828409D01*
X193842857Y-102828409D02*
X193890476Y-102780790D01*
X193890476Y-102780790D02*
X193985714Y-102733171D01*
X193985714Y-102733171D02*
X194223809Y-102733171D01*
X194223809Y-102733171D02*
X194319047Y-102780790D01*
X194319047Y-102780790D02*
X194366666Y-102828409D01*
X194366666Y-102828409D02*
X194414285Y-102923647D01*
X194414285Y-102923647D02*
X194414285Y-103161742D01*
X194414285Y-103161742D02*
X194366666Y-103256980D01*
X194366666Y-103256980D02*
X194319047Y-103304600D01*
X194319047Y-103304600D02*
X194223809Y-103352219D01*
X194223809Y-103352219D02*
X193985714Y-103352219D01*
X193985714Y-103352219D02*
X193890476Y-103304600D01*
X193890476Y-103304600D02*
X193842857Y-103256980D01*
D11*
%TO.C,C1*%
X207267800Y-95335000D02*
X207267800Y-92595000D01*
X207267800Y-95335000D02*
X202027800Y-95335000D01*
X207267800Y-92595000D02*
X202027800Y-92595000D01*
X202027800Y-95335000D02*
X202027800Y-92595000D01*
%TO.C,C2*%
X168175000Y-95805000D02*
X170915000Y-95805000D01*
X170915000Y-101045000D02*
X170915000Y-95805000D01*
X168175000Y-101045000D02*
X168175000Y-95805000D01*
X168175000Y-101045000D02*
X170915000Y-101045000D01*
D12*
%TO.C,DS1*%
X197309700Y-79702700D02*
G75*
G02*
X197304700Y-79702700I-2500J-179500D01*
G01*
X190070700Y-79829700D02*
G75*
G02*
X190065700Y-79829700I-2500J-179500D01*
G01*
X181688700Y-79829700D02*
G75*
G02*
X181683700Y-79829700I-2500J-179500D01*
G01*
X174449700Y-79956700D02*
G75*
G02*
X174444700Y-79956700I-2500J-179500D01*
G01*
X199150000Y-84677000D02*
X169150000Y-84677000D01*
X199150000Y-82677000D02*
X199150000Y-84677000D01*
X199150000Y-72517000D02*
X199150000Y-82677000D01*
X199150000Y-70517000D02*
X199150000Y-72517000D01*
X197866000Y-75311000D02*
X197739000Y-75057000D01*
X197739000Y-75057000D02*
X197485000Y-75184000D01*
X197612000Y-74803000D02*
X197104000Y-75057000D01*
X197485000Y-75184000D02*
X197739000Y-75057000D01*
X197485000Y-75184000D02*
X196977000Y-76962000D01*
X197485000Y-74549000D02*
X197612000Y-74803000D01*
X197358000Y-77089000D02*
X197866000Y-75311000D01*
X197104000Y-77851000D02*
X196977000Y-77597000D01*
X197104000Y-77216000D02*
X197358000Y-77089000D01*
X197104000Y-75057000D02*
X195707000Y-75057000D01*
X196977000Y-77597000D02*
X196723000Y-77724000D01*
X196977000Y-76962000D02*
X197104000Y-77216000D01*
X196850000Y-77343000D02*
X196342000Y-77597000D01*
X196723000Y-77724000D02*
X196215000Y-79502000D01*
X196723000Y-77089000D02*
X196850000Y-77343000D01*
X196596000Y-79629000D02*
X197104000Y-77851000D01*
X196342000Y-79756000D02*
X196596000Y-79629000D01*
X196342000Y-77597000D02*
X194945000Y-77597000D01*
X196215000Y-79502000D02*
X196342000Y-79756000D01*
X196088000Y-79883000D02*
X195580000Y-80137000D01*
X195961000Y-79629000D02*
X196088000Y-79883000D01*
X195961000Y-74549000D02*
X197485000Y-74549000D01*
X195707000Y-75057000D02*
X195580000Y-74803000D01*
X195580000Y-80137000D02*
X194183000Y-80137000D01*
X195580000Y-74803000D02*
X195961000Y-74549000D01*
X195326000Y-75184000D02*
X195199000Y-74930000D01*
X195326000Y-75184000D02*
X195199000Y-74930000D01*
X195199000Y-77089000D02*
X196723000Y-77089000D01*
X195199000Y-74930000D02*
X194945000Y-75057000D01*
X195199000Y-74930000D02*
X194945000Y-75057000D01*
X194945000Y-77597000D02*
X194818000Y-77343000D01*
X194945000Y-75057000D02*
X194437000Y-76835000D01*
X194818000Y-77343000D02*
X195199000Y-77089000D01*
X194818000Y-76962000D02*
X195326000Y-75184000D01*
X194564000Y-77724000D02*
X194437000Y-77470000D01*
X194564000Y-77089000D02*
X194818000Y-76962000D01*
X194437000Y-79629000D02*
X195961000Y-79629000D01*
X194437000Y-77470000D02*
X194183000Y-77597000D01*
X194437000Y-76835000D02*
X194564000Y-77089000D01*
X194183000Y-80137000D02*
X194056000Y-79883000D01*
X194183000Y-77597000D02*
X193675000Y-79375000D01*
X194056000Y-79883000D02*
X194437000Y-79629000D01*
X194056000Y-79502000D02*
X194564000Y-77724000D01*
X193802000Y-79629000D02*
X194056000Y-79502000D01*
X193802000Y-79629000D02*
X194056000Y-79502000D01*
X193675000Y-79375000D02*
X193802000Y-79629000D01*
X190627000Y-75438000D02*
X190119000Y-77216000D01*
X190500000Y-75184000D02*
X190627000Y-75438000D01*
X190500000Y-75184000D02*
X190246000Y-75311000D01*
X190373000Y-74930000D02*
X189865000Y-75184000D01*
X190246000Y-75311000D02*
X190500000Y-75184000D01*
X190246000Y-74676000D02*
X190373000Y-74930000D01*
X190119000Y-77216000D02*
X189865000Y-77343000D01*
X189865000Y-77978000D02*
X189738000Y-77724000D01*
X189865000Y-77343000D02*
X189738000Y-77089000D01*
X189865000Y-75184000D02*
X188468000Y-75184000D01*
X189738000Y-77724000D02*
X189484000Y-77851000D01*
X189738000Y-77089000D02*
X190246000Y-75311000D01*
X189611000Y-77470000D02*
X189103000Y-77724000D01*
X189484000Y-77851000D02*
X188976000Y-79629000D01*
X189484000Y-77216000D02*
X189611000Y-77470000D01*
X189357000Y-79756000D02*
X189865000Y-77978000D01*
X189103000Y-79883000D02*
X189357000Y-79756000D01*
X189103000Y-77724000D02*
X187706000Y-77724000D01*
X188976000Y-79629000D02*
X189103000Y-79883000D01*
X188849000Y-80010000D02*
X188341000Y-80264000D01*
X188722000Y-79756000D02*
X188849000Y-80010000D01*
X188722000Y-74676000D02*
X190246000Y-74676000D01*
X188468000Y-75184000D02*
X188341000Y-74930000D01*
X188341000Y-80264000D02*
X186944000Y-80264000D01*
X188341000Y-74930000D02*
X188722000Y-74676000D01*
X188087000Y-75311000D02*
X187960000Y-75057000D01*
X187960000Y-77216000D02*
X189484000Y-77216000D01*
X187960000Y-75057000D02*
X188087000Y-75311000D01*
X187960000Y-75057000D02*
X187706000Y-75184000D01*
X187706000Y-77724000D02*
X187579000Y-77470000D01*
X187706000Y-75184000D02*
X187960000Y-75057000D01*
X187706000Y-75184000D02*
X187198000Y-76962000D01*
X187579000Y-77470000D02*
X187960000Y-77216000D01*
X187579000Y-77089000D02*
X188087000Y-75311000D01*
X187325000Y-77851000D02*
X187198000Y-77597000D01*
X187325000Y-77216000D02*
X187579000Y-77089000D01*
X187198000Y-79756000D02*
X188722000Y-79756000D01*
X187198000Y-77597000D02*
X186944000Y-77724000D01*
X187198000Y-76962000D02*
X187325000Y-77216000D01*
X186944000Y-80264000D02*
X186817000Y-80010000D01*
X186944000Y-77724000D02*
X186436000Y-79502000D01*
X186817000Y-80010000D02*
X187198000Y-79756000D01*
X186817000Y-79629000D02*
X187325000Y-77851000D01*
X186563000Y-79756000D02*
X186817000Y-79629000D01*
X186563000Y-79756000D02*
X186817000Y-79629000D01*
X186436000Y-79502000D02*
X186563000Y-79756000D01*
X182245000Y-75438000D02*
X182118000Y-75184000D01*
X182118000Y-75184000D02*
X181864000Y-75311000D01*
X181991000Y-74930000D02*
X181483000Y-75184000D01*
X181864000Y-75311000D02*
X182118000Y-75184000D01*
X181864000Y-75311000D02*
X181356000Y-77089000D01*
X181864000Y-74676000D02*
X181991000Y-74930000D01*
X181737000Y-77216000D02*
X182245000Y-75438000D01*
X181483000Y-77978000D02*
X181356000Y-77724000D01*
X181483000Y-77343000D02*
X181737000Y-77216000D01*
X181483000Y-75184000D02*
X180086000Y-75184000D01*
X181356000Y-77724000D02*
X181102000Y-77851000D01*
X181356000Y-77089000D02*
X181483000Y-77343000D01*
X181229000Y-77470000D02*
X180721000Y-77724000D01*
X181102000Y-77851000D02*
X180594000Y-79629000D01*
X181102000Y-77216000D02*
X181229000Y-77470000D01*
X180975000Y-79756000D02*
X181483000Y-77978000D01*
X180721000Y-79883000D02*
X180975000Y-79756000D01*
X180721000Y-77724000D02*
X179324000Y-77724000D01*
X180594000Y-79629000D02*
X180721000Y-79883000D01*
X180467000Y-80010000D02*
X179959000Y-80264000D01*
X180340000Y-79756000D02*
X180467000Y-80010000D01*
X180340000Y-74676000D02*
X181864000Y-74676000D01*
X180086000Y-75184000D02*
X179959000Y-74930000D01*
X179959000Y-80264000D02*
X178562000Y-80264000D01*
X179959000Y-74930000D02*
X180340000Y-74676000D01*
X179705000Y-75311000D02*
X179578000Y-75057000D01*
X179705000Y-75311000D02*
X179578000Y-75057000D01*
X179578000Y-77216000D02*
X181102000Y-77216000D01*
X179578000Y-75057000D02*
X179324000Y-75184000D01*
X179578000Y-75057000D02*
X179324000Y-75184000D01*
X179324000Y-77724000D02*
X179197000Y-77470000D01*
X179324000Y-75184000D02*
X178816000Y-76962000D01*
X179197000Y-77470000D02*
X179578000Y-77216000D01*
X179197000Y-77089000D02*
X179705000Y-75311000D01*
X178943000Y-77851000D02*
X178816000Y-77597000D01*
X178943000Y-77216000D02*
X179197000Y-77089000D01*
X178816000Y-79756000D02*
X180340000Y-79756000D01*
X178816000Y-77597000D02*
X178562000Y-77724000D01*
X178816000Y-76962000D02*
X178943000Y-77216000D01*
X178562000Y-80264000D02*
X178435000Y-80010000D01*
X178562000Y-77724000D02*
X178054000Y-79502000D01*
X178435000Y-80010000D02*
X178816000Y-79756000D01*
X178435000Y-79629000D02*
X178943000Y-77851000D01*
X178181000Y-79756000D02*
X178435000Y-79629000D01*
X178181000Y-79756000D02*
X178435000Y-79629000D01*
X178054000Y-79502000D02*
X178181000Y-79756000D01*
X175006000Y-75565000D02*
X174498000Y-77343000D01*
X174879000Y-75311000D02*
X175006000Y-75565000D01*
X174879000Y-75311000D02*
X174625000Y-75438000D01*
X174752000Y-75057000D02*
X174244000Y-75311000D01*
X174625000Y-75438000D02*
X174879000Y-75311000D01*
X174625000Y-74803000D02*
X174752000Y-75057000D01*
X174498000Y-77343000D02*
X174244000Y-77470000D01*
X174244000Y-78105000D02*
X174117000Y-77851000D01*
X174244000Y-77470000D02*
X174117000Y-77216000D01*
X174244000Y-75311000D02*
X172847000Y-75311000D01*
X174117000Y-77851000D02*
X173863000Y-77978000D01*
X174117000Y-77216000D02*
X174625000Y-75438000D01*
X173990000Y-77597000D02*
X173482000Y-77851000D01*
X173863000Y-77978000D02*
X173355000Y-79756000D01*
X173863000Y-77343000D02*
X173990000Y-77597000D01*
X173736000Y-79883000D02*
X174244000Y-78105000D01*
X173482000Y-80010000D02*
X173736000Y-79883000D01*
X173482000Y-77851000D02*
X172085000Y-77851000D01*
X173355000Y-79756000D02*
X173482000Y-80010000D01*
X173228000Y-80137000D02*
X172720000Y-80391000D01*
X173101000Y-79883000D02*
X173228000Y-80137000D01*
X173101000Y-74803000D02*
X174625000Y-74803000D01*
X172847000Y-75311000D02*
X172720000Y-75057000D01*
X172720000Y-80391000D02*
X171323000Y-80391000D01*
X172720000Y-75057000D02*
X173101000Y-74803000D01*
X172466000Y-75438000D02*
X172339000Y-75184000D01*
X172339000Y-77343000D02*
X173863000Y-77343000D01*
X172339000Y-75184000D02*
X172466000Y-75438000D01*
X172339000Y-75184000D02*
X172085000Y-75311000D01*
X172085000Y-77851000D02*
X171958000Y-77597000D01*
X172085000Y-75311000D02*
X172339000Y-75184000D01*
X172085000Y-75311000D02*
X171577000Y-77089000D01*
X171958000Y-77597000D02*
X172339000Y-77343000D01*
X171958000Y-77216000D02*
X172466000Y-75438000D01*
X171704000Y-77978000D02*
X171577000Y-77724000D01*
X171704000Y-77343000D02*
X171958000Y-77216000D01*
X171577000Y-79883000D02*
X173101000Y-79883000D01*
X171577000Y-77724000D02*
X171323000Y-77851000D01*
X171577000Y-77089000D02*
X171704000Y-77343000D01*
X171323000Y-80391000D02*
X171196000Y-80137000D01*
X171323000Y-77851000D02*
X170815000Y-79629000D01*
X171196000Y-80137000D02*
X171577000Y-79883000D01*
X171196000Y-79756000D02*
X171704000Y-77978000D01*
X170942000Y-79883000D02*
X171196000Y-79756000D01*
X170942000Y-79883000D02*
X171196000Y-79756000D01*
X170815000Y-79629000D02*
X170942000Y-79883000D01*
X169150000Y-84677000D02*
X169150000Y-82677000D01*
X169150000Y-82677000D02*
X169150000Y-72517000D01*
X169150000Y-72517000D02*
X169150000Y-70517000D01*
X169150000Y-70517000D02*
X199150000Y-70517000D01*
D11*
%TO.C,U1*%
X208172800Y-68520000D02*
G75*
G02*
X206172800Y-68520000I-1000000J0D01*
G01*
X209422800Y-88960000D02*
X209422800Y-68520000D01*
X209422800Y-68520000D02*
X208172800Y-68520000D01*
X206172800Y-68520000D02*
X204922800Y-68520000D01*
X204922800Y-88960000D02*
X209422800Y-88960000D01*
X204922800Y-68520000D02*
X204922800Y-88960000D01*
%TO.C,U2*%
X194355000Y-94255000D02*
X173915000Y-94255000D01*
X173915000Y-94255000D02*
X173915000Y-98755000D01*
X194355000Y-95505000D02*
X194355000Y-94255000D01*
X194355000Y-98755000D02*
X194355000Y-97505000D01*
X173915000Y-98755000D02*
X194355000Y-98755000D01*
X194355000Y-97505000D02*
G75*
G02*
X194355000Y-95505000I0J1000000D01*
G01*
D13*
%TO.C,Graphic_KiCad*%
X221167830Y-97996107D02*
X221241932Y-97996471D01*
X221298704Y-97997276D01*
X221340768Y-97998687D01*
X221370748Y-98000867D01*
X221391267Y-98003979D01*
X221404949Y-98008186D01*
X221414416Y-98013652D01*
X221419082Y-98017528D01*
X221439575Y-98048966D01*
X221438739Y-98084767D01*
X221421264Y-98116127D01*
X221399684Y-98142778D01*
X220752227Y-98142778D01*
X220730647Y-98116127D01*
X220714949Y-98090406D01*
X220709067Y-98069400D01*
X220715877Y-98046386D01*
X220730647Y-98022673D01*
X220752227Y-97996022D01*
X221073773Y-97996022D01*
X221167830Y-97996107D01*
G36*
X221167830Y-97996107D02*
G01*
X221241932Y-97996471D01*
X221298704Y-97997276D01*
X221340768Y-97998687D01*
X221370748Y-98000867D01*
X221391267Y-98003979D01*
X221404949Y-98008186D01*
X221414416Y-98013652D01*
X221419082Y-98017528D01*
X221439575Y-98048966D01*
X221438739Y-98084767D01*
X221421264Y-98116127D01*
X221399684Y-98142778D01*
X220752227Y-98142778D01*
X220730647Y-98116127D01*
X220714949Y-98090406D01*
X220709067Y-98069400D01*
X220715877Y-98046386D01*
X220730647Y-98022673D01*
X220752227Y-97996022D01*
X221073773Y-97996022D01*
X221167830Y-97996107D01*
G37*
X221169802Y-105136314D02*
X221243689Y-105136638D01*
X221300232Y-105137386D01*
X221342049Y-105138732D01*
X221371757Y-105140846D01*
X221391973Y-105143900D01*
X221405314Y-105148066D01*
X221414398Y-105153516D01*
X221420267Y-105158822D01*
X221439947Y-105191826D01*
X221438181Y-105226991D01*
X221416717Y-105258455D01*
X221408337Y-105265684D01*
X221398614Y-105271334D01*
X221384861Y-105275599D01*
X221364389Y-105278673D01*
X221334512Y-105280752D01*
X221292541Y-105282030D01*
X221235789Y-105282701D01*
X221161567Y-105282959D01*
X221077537Y-105283000D01*
X220764485Y-105283000D01*
X220736776Y-105255291D01*
X220713463Y-105221137D01*
X220712623Y-105188006D01*
X220731645Y-105158822D01*
X220739218Y-105152242D01*
X220748987Y-105147079D01*
X220763571Y-105143164D01*
X220785585Y-105140324D01*
X220817648Y-105138387D01*
X220862375Y-105137183D01*
X220922385Y-105136539D01*
X221000294Y-105136284D01*
X221075956Y-105136245D01*
X221169802Y-105136314D01*
G36*
X221169802Y-105136314D02*
G01*
X221243689Y-105136638D01*
X221300232Y-105137386D01*
X221342049Y-105138732D01*
X221371757Y-105140846D01*
X221391973Y-105143900D01*
X221405314Y-105148066D01*
X221414398Y-105153516D01*
X221420267Y-105158822D01*
X221439947Y-105191826D01*
X221438181Y-105226991D01*
X221416717Y-105258455D01*
X221408337Y-105265684D01*
X221398614Y-105271334D01*
X221384861Y-105275599D01*
X221364389Y-105278673D01*
X221334512Y-105280752D01*
X221292541Y-105282030D01*
X221235789Y-105282701D01*
X221161567Y-105282959D01*
X221077537Y-105283000D01*
X220764485Y-105283000D01*
X220736776Y-105255291D01*
X220713463Y-105221137D01*
X220712623Y-105188006D01*
X220731645Y-105158822D01*
X220739218Y-105152242D01*
X220748987Y-105147079D01*
X220763571Y-105143164D01*
X220785585Y-105140324D01*
X220817648Y-105138387D01*
X220862375Y-105137183D01*
X220922385Y-105136539D01*
X221000294Y-105136284D01*
X221075956Y-105136245D01*
X221169802Y-105136314D01*
G37*
X216044654Y-104127140D02*
X216132511Y-104160840D01*
X216211770Y-104211528D01*
X216279836Y-104277345D01*
X216334112Y-104356434D01*
X216372002Y-104446934D01*
X216384426Y-104498200D01*
X216391947Y-104542698D01*
X216394919Y-104576999D01*
X216393094Y-104609960D01*
X216386225Y-104650434D01*
X216379250Y-104683531D01*
X216347741Y-104776947D01*
X216296617Y-104860619D01*
X216227429Y-104932665D01*
X216141728Y-104991200D01*
X216114489Y-105005148D01*
X216078122Y-105021586D01*
X216047582Y-105031894D01*
X216015450Y-105037460D01*
X215974307Y-105039669D01*
X215928222Y-105039948D01*
X215843865Y-105035861D01*
X215774586Y-105022446D01*
X215713961Y-104997256D01*
X215655567Y-104957846D01*
X215611302Y-104919298D01*
X215545484Y-104847406D01*
X215500053Y-104772313D01*
X215472850Y-104689562D01*
X215462576Y-104611928D01*
X215466571Y-104508043D01*
X215490809Y-104411768D01*
X215533641Y-104325184D01*
X215593419Y-104250373D01*
X215668494Y-104189418D01*
X215757220Y-104144399D01*
X215853530Y-104118136D01*
X215950795Y-104112286D01*
X216044654Y-104127140D01*
G36*
X216044654Y-104127140D02*
G01*
X216132511Y-104160840D01*
X216211770Y-104211528D01*
X216279836Y-104277345D01*
X216334112Y-104356434D01*
X216372002Y-104446934D01*
X216384426Y-104498200D01*
X216391947Y-104542698D01*
X216394919Y-104576999D01*
X216393094Y-104609960D01*
X216386225Y-104650434D01*
X216379250Y-104683531D01*
X216347741Y-104776947D01*
X216296617Y-104860619D01*
X216227429Y-104932665D01*
X216141728Y-104991200D01*
X216114489Y-105005148D01*
X216078122Y-105021586D01*
X216047582Y-105031894D01*
X216015450Y-105037460D01*
X215974307Y-105039669D01*
X215928222Y-105039948D01*
X215843865Y-105035861D01*
X215774586Y-105022446D01*
X215713961Y-104997256D01*
X215655567Y-104957846D01*
X215611302Y-104919298D01*
X215545484Y-104847406D01*
X215500053Y-104772313D01*
X215472850Y-104689562D01*
X215462576Y-104611928D01*
X215466571Y-104508043D01*
X215490809Y-104411768D01*
X215533641Y-104325184D01*
X215593419Y-104250373D01*
X215668494Y-104189418D01*
X215757220Y-104144399D01*
X215853530Y-104118136D01*
X215950795Y-104112286D01*
X216044654Y-104127140D01*
G37*
X220825826Y-96986289D02*
X220838089Y-96996652D01*
X220846450Y-97007804D01*
X220851657Y-97023965D01*
X220854457Y-97049358D01*
X220855596Y-97088202D01*
X220855821Y-97144720D01*
X220855822Y-97155820D01*
X220855822Y-97301756D01*
X221126756Y-97301756D01*
X221212154Y-97301852D01*
X221277864Y-97302289D01*
X221326774Y-97303288D01*
X221361773Y-97305072D01*
X221385749Y-97307863D01*
X221401593Y-97311883D01*
X221412191Y-97317355D01*
X221420267Y-97324334D01*
X221440112Y-97357266D01*
X221438548Y-97391646D01*
X221415906Y-97422824D01*
X221413100Y-97425114D01*
X221402492Y-97432571D01*
X221390081Y-97438253D01*
X221372850Y-97442399D01*
X221347784Y-97445250D01*
X221311867Y-97447046D01*
X221262083Y-97448028D01*
X221195417Y-97448436D01*
X221119589Y-97448511D01*
X220855822Y-97448511D01*
X220855822Y-97587873D01*
X220855418Y-97647678D01*
X220853840Y-97689082D01*
X220850547Y-97716252D01*
X220844992Y-97733354D01*
X220836631Y-97744557D01*
X220835178Y-97745917D01*
X220801939Y-97762275D01*
X220764362Y-97760828D01*
X220731645Y-97742022D01*
X220725298Y-97734750D01*
X220720266Y-97725373D01*
X220716396Y-97711391D01*
X220713537Y-97690304D01*
X220711535Y-97659611D01*
X220710239Y-97616811D01*
X220709498Y-97559405D01*
X220709158Y-97484890D01*
X220709068Y-97390767D01*
X220709067Y-97370740D01*
X220709163Y-97271935D01*
X220709542Y-97193228D01*
X220710333Y-97132137D01*
X220711670Y-97086183D01*
X220713683Y-97052886D01*
X220716506Y-97029764D01*
X220720269Y-97014338D01*
X220725105Y-97004129D01*
X220728822Y-96999187D01*
X220761358Y-96973543D01*
X220795138Y-96970441D01*
X220825826Y-96986289D01*
G36*
X220825826Y-96986289D02*
G01*
X220838089Y-96996652D01*
X220846450Y-97007804D01*
X220851657Y-97023965D01*
X220854457Y-97049358D01*
X220855596Y-97088202D01*
X220855821Y-97144720D01*
X220855822Y-97155820D01*
X220855822Y-97301756D01*
X221126756Y-97301756D01*
X221212154Y-97301852D01*
X221277864Y-97302289D01*
X221326774Y-97303288D01*
X221361773Y-97305072D01*
X221385749Y-97307863D01*
X221401593Y-97311883D01*
X221412191Y-97317355D01*
X221420267Y-97324334D01*
X221440112Y-97357266D01*
X221438548Y-97391646D01*
X221415906Y-97422824D01*
X221413100Y-97425114D01*
X221402492Y-97432571D01*
X221390081Y-97438253D01*
X221372850Y-97442399D01*
X221347784Y-97445250D01*
X221311867Y-97447046D01*
X221262083Y-97448028D01*
X221195417Y-97448436D01*
X221119589Y-97448511D01*
X220855822Y-97448511D01*
X220855822Y-97587873D01*
X220855418Y-97647678D01*
X220853840Y-97689082D01*
X220850547Y-97716252D01*
X220844992Y-97733354D01*
X220836631Y-97744557D01*
X220835178Y-97745917D01*
X220801939Y-97762275D01*
X220764362Y-97760828D01*
X220731645Y-97742022D01*
X220725298Y-97734750D01*
X220720266Y-97725373D01*
X220716396Y-97711391D01*
X220713537Y-97690304D01*
X220711535Y-97659611D01*
X220710239Y-97616811D01*
X220709498Y-97559405D01*
X220709158Y-97484890D01*
X220709068Y-97390767D01*
X220709067Y-97370740D01*
X220709163Y-97271935D01*
X220709542Y-97193228D01*
X220710333Y-97132137D01*
X220711670Y-97086183D01*
X220713683Y-97052886D01*
X220716506Y-97029764D01*
X220720269Y-97014338D01*
X220725105Y-97004129D01*
X220728822Y-96999187D01*
X220761358Y-96973543D01*
X220795138Y-96970441D01*
X220825826Y-96986289D01*
G37*
X221165799Y-95947162D02*
X221237840Y-95947505D01*
X221292780Y-95948308D01*
X221333360Y-95949759D01*
X221362317Y-95952048D01*
X221382391Y-95955364D01*
X221396321Y-95959895D01*
X221406845Y-95965831D01*
X221413100Y-95970486D01*
X221437673Y-96001217D01*
X221440341Y-96036504D01*
X221425271Y-96068755D01*
X221416374Y-96079412D01*
X221404557Y-96086536D01*
X221385526Y-96090833D01*
X221354992Y-96093009D01*
X221308662Y-96093772D01*
X221272871Y-96093845D01*
X221138045Y-96093845D01*
X221138045Y-96590556D01*
X221260700Y-96590556D01*
X221316787Y-96591069D01*
X221355333Y-96593124D01*
X221381361Y-96597492D01*
X221399897Y-96604944D01*
X221413100Y-96613953D01*
X221437604Y-96644856D01*
X221440506Y-96679804D01*
X221423089Y-96713262D01*
X221413959Y-96722396D01*
X221401855Y-96728848D01*
X221383001Y-96733103D01*
X221353620Y-96735648D01*
X221309937Y-96736971D01*
X221248175Y-96737557D01*
X221234000Y-96737625D01*
X221117631Y-96738109D01*
X221021727Y-96738359D01*
X220944177Y-96738277D01*
X220882869Y-96737769D01*
X220835690Y-96736738D01*
X220800530Y-96735087D01*
X220775276Y-96732721D01*
X220757817Y-96729543D01*
X220746041Y-96725456D01*
X220737835Y-96720366D01*
X220731645Y-96714734D01*
X220711844Y-96682872D01*
X220714533Y-96649643D01*
X220736776Y-96618265D01*
X220751126Y-96605567D01*
X220766978Y-96597474D01*
X220789554Y-96592958D01*
X220824078Y-96590994D01*
X220875776Y-96590556D01*
X220991289Y-96590556D01*
X220991289Y-96093845D01*
X220872756Y-96093845D01*
X220818148Y-96093338D01*
X220781275Y-96091302D01*
X220757307Y-96086965D01*
X220741415Y-96079553D01*
X220731645Y-96071267D01*
X220711844Y-96039406D01*
X220714533Y-96006177D01*
X220736776Y-95974798D01*
X220764485Y-95947089D01*
X221073920Y-95947089D01*
X221165799Y-95947162D01*
G36*
X221165799Y-95947162D02*
G01*
X221237840Y-95947505D01*
X221292780Y-95948308D01*
X221333360Y-95949759D01*
X221362317Y-95952048D01*
X221382391Y-95955364D01*
X221396321Y-95959895D01*
X221406845Y-95965831D01*
X221413100Y-95970486D01*
X221437673Y-96001217D01*
X221440341Y-96036504D01*
X221425271Y-96068755D01*
X221416374Y-96079412D01*
X221404557Y-96086536D01*
X221385526Y-96090833D01*
X221354992Y-96093009D01*
X221308662Y-96093772D01*
X221272871Y-96093845D01*
X221138045Y-96093845D01*
X221138045Y-96590556D01*
X221260700Y-96590556D01*
X221316787Y-96591069D01*
X221355333Y-96593124D01*
X221381361Y-96597492D01*
X221399897Y-96604944D01*
X221413100Y-96613953D01*
X221437604Y-96644856D01*
X221440506Y-96679804D01*
X221423089Y-96713262D01*
X221413959Y-96722396D01*
X221401855Y-96728848D01*
X221383001Y-96733103D01*
X221353620Y-96735648D01*
X221309937Y-96736971D01*
X221248175Y-96737557D01*
X221234000Y-96737625D01*
X221117631Y-96738109D01*
X221021727Y-96738359D01*
X220944177Y-96738277D01*
X220882869Y-96737769D01*
X220835690Y-96736738D01*
X220800530Y-96735087D01*
X220775276Y-96732721D01*
X220757817Y-96729543D01*
X220746041Y-96725456D01*
X220737835Y-96720366D01*
X220731645Y-96714734D01*
X220711844Y-96682872D01*
X220714533Y-96649643D01*
X220736776Y-96618265D01*
X220751126Y-96605567D01*
X220766978Y-96597474D01*
X220789554Y-96592958D01*
X220824078Y-96590994D01*
X220875776Y-96590556D01*
X220991289Y-96590556D01*
X220991289Y-96093845D01*
X220872756Y-96093845D01*
X220818148Y-96093338D01*
X220781275Y-96091302D01*
X220757307Y-96086965D01*
X220741415Y-96079553D01*
X220731645Y-96071267D01*
X220711844Y-96039406D01*
X220714533Y-96006177D01*
X220736776Y-95974798D01*
X220764485Y-95947089D01*
X221073920Y-95947089D01*
X221165799Y-95947162D01*
G37*
X221127887Y-100628769D02*
X221191073Y-100651346D01*
X221200689Y-100655628D01*
X221256966Y-100684828D01*
X221300451Y-100717644D01*
X221337417Y-100759998D01*
X221374135Y-100817810D01*
X221376052Y-100821169D01*
X221400227Y-100871496D01*
X221418282Y-100928379D01*
X221430839Y-100995473D01*
X221438522Y-101076435D01*
X221441953Y-101174918D01*
X221442251Y-101209714D01*
X221442845Y-101375406D01*
X221413100Y-101398803D01*
X221403319Y-101405743D01*
X221391897Y-101411158D01*
X221376095Y-101415235D01*
X221353175Y-101418163D01*
X221320396Y-101420133D01*
X221296089Y-101420775D01*
X221275021Y-101421332D01*
X221214311Y-101421950D01*
X221135526Y-101422175D01*
X221073920Y-101422200D01*
X220764485Y-101422200D01*
X220736776Y-101394491D01*
X220725544Y-101382194D01*
X220717853Y-101368897D01*
X220713040Y-101350328D01*
X220710446Y-101322214D01*
X220709410Y-101280283D01*
X220709372Y-101264156D01*
X220855822Y-101264156D01*
X221296089Y-101264156D01*
X221296089Y-101170274D01*
X221294483Y-101115336D01*
X221290255Y-101058940D01*
X221284292Y-101012655D01*
X221283790Y-101009861D01*
X221261736Y-100927652D01*
X221228600Y-100863886D01*
X221182847Y-100816548D01*
X221122939Y-100783618D01*
X221107061Y-100777892D01*
X221082333Y-100772279D01*
X221057902Y-100774709D01*
X221025400Y-100786533D01*
X221009434Y-100793660D01*
X220967006Y-100817000D01*
X220937240Y-100845120D01*
X220916511Y-100876060D01*
X220889537Y-100938034D01*
X220869998Y-101017349D01*
X220858746Y-101109747D01*
X220856270Y-101176667D01*
X220855822Y-101264156D01*
X220709372Y-101264156D01*
X220709270Y-101220263D01*
X220709275Y-101216691D01*
X220713636Y-101087712D01*
X220726861Y-100978009D01*
X220749741Y-100885774D01*
X220783070Y-100809198D01*
X220827638Y-100746473D01*
X220884236Y-100695788D01*
X220953658Y-100655337D01*
X220955351Y-100654541D01*
X221017483Y-100630399D01*
X221072509Y-100621797D01*
X221127887Y-100628769D01*
G36*
X221127887Y-100628769D02*
G01*
X221191073Y-100651346D01*
X221200689Y-100655628D01*
X221256966Y-100684828D01*
X221300451Y-100717644D01*
X221337417Y-100759998D01*
X221374135Y-100817810D01*
X221376052Y-100821169D01*
X221400227Y-100871496D01*
X221418282Y-100928379D01*
X221430839Y-100995473D01*
X221438522Y-101076435D01*
X221441953Y-101174918D01*
X221442251Y-101209714D01*
X221442845Y-101375406D01*
X221413100Y-101398803D01*
X221403319Y-101405743D01*
X221391897Y-101411158D01*
X221376095Y-101415235D01*
X221353175Y-101418163D01*
X221320396Y-101420133D01*
X221296089Y-101420775D01*
X221275021Y-101421332D01*
X221214311Y-101421950D01*
X221135526Y-101422175D01*
X221073920Y-101422200D01*
X220764485Y-101422200D01*
X220736776Y-101394491D01*
X220725544Y-101382194D01*
X220717853Y-101368897D01*
X220713040Y-101350328D01*
X220710446Y-101322214D01*
X220709410Y-101280283D01*
X220709372Y-101264156D01*
X220855822Y-101264156D01*
X221296089Y-101264156D01*
X221296089Y-101170274D01*
X221294483Y-101115336D01*
X221290255Y-101058940D01*
X221284292Y-101012655D01*
X221283790Y-101009861D01*
X221261736Y-100927652D01*
X221228600Y-100863886D01*
X221182847Y-100816548D01*
X221122939Y-100783618D01*
X221107061Y-100777892D01*
X221082333Y-100772279D01*
X221057902Y-100774709D01*
X221025400Y-100786533D01*
X221009434Y-100793660D01*
X220967006Y-100817000D01*
X220937240Y-100845120D01*
X220916511Y-100876060D01*
X220889537Y-100938034D01*
X220869998Y-101017349D01*
X220858746Y-101109747D01*
X220856270Y-101176667D01*
X220855822Y-101264156D01*
X220709372Y-101264156D01*
X220709270Y-101220263D01*
X220709275Y-101216691D01*
X220713636Y-101087712D01*
X220726861Y-100978009D01*
X220749741Y-100885774D01*
X220783070Y-100809198D01*
X220827638Y-100746473D01*
X220884236Y-100695788D01*
X220953658Y-100655337D01*
X220955351Y-100654541D01*
X221017483Y-100630399D01*
X221072509Y-100621797D01*
X221127887Y-100628769D01*
G37*
X221134769Y-107729417D02*
X221199013Y-107750899D01*
X221259821Y-107781999D01*
X221308330Y-107818866D01*
X221314182Y-107824854D01*
X221355321Y-107875579D01*
X221387435Y-107931125D01*
X221411365Y-107994696D01*
X221427953Y-108069494D01*
X221438041Y-108158722D01*
X221442469Y-108265582D01*
X221442845Y-108314528D01*
X221442545Y-108376762D01*
X221441292Y-108420528D01*
X221438554Y-108449931D01*
X221433801Y-108469079D01*
X221426501Y-108482077D01*
X221420267Y-108489045D01*
X221412694Y-108495626D01*
X221402924Y-108500788D01*
X221388340Y-108504703D01*
X221366326Y-108507543D01*
X221334264Y-108509480D01*
X221289536Y-108510684D01*
X221229526Y-108511328D01*
X221151617Y-108511583D01*
X221075956Y-108511622D01*
X220975041Y-108511870D01*
X220894427Y-108511817D01*
X220855822Y-108510857D01*
X220831851Y-108510260D01*
X220785055Y-108505998D01*
X220751778Y-108497830D01*
X220729759Y-108484556D01*
X220716739Y-108464974D01*
X220710457Y-108437883D01*
X220708653Y-108402082D01*
X220709066Y-108356371D01*
X220709467Y-108316889D01*
X220710148Y-108288667D01*
X220855808Y-108288667D01*
X220855822Y-108364867D01*
X221296089Y-108364867D01*
X221296004Y-108271734D01*
X221294396Y-108215693D01*
X221290256Y-108156999D01*
X221284464Y-108108028D01*
X221284226Y-108106538D01*
X221265090Y-108027392D01*
X221235287Y-107966002D01*
X221192878Y-107919305D01*
X221146961Y-107889635D01*
X221096026Y-107871353D01*
X221048200Y-107872771D01*
X220996933Y-107893988D01*
X220943899Y-107935489D01*
X220904600Y-107992998D01*
X220878331Y-108067750D01*
X220869035Y-108117708D01*
X220862507Y-108174416D01*
X220857782Y-108234519D01*
X220855817Y-108285639D01*
X220855808Y-108288667D01*
X220710148Y-108288667D01*
X220712259Y-108201200D01*
X220720550Y-108104311D01*
X220735232Y-108022919D01*
X220757193Y-107953723D01*
X220787322Y-107893420D01*
X220826510Y-107838708D01*
X220843532Y-107819167D01*
X220883363Y-107786750D01*
X220937413Y-107757520D01*
X220997323Y-107734991D01*
X221054739Y-107722679D01*
X221075956Y-107721400D01*
X221134769Y-107729417D01*
G36*
X221134769Y-107729417D02*
G01*
X221199013Y-107750899D01*
X221259821Y-107781999D01*
X221308330Y-107818866D01*
X221314182Y-107824854D01*
X221355321Y-107875579D01*
X221387435Y-107931125D01*
X221411365Y-107994696D01*
X221427953Y-108069494D01*
X221438041Y-108158722D01*
X221442469Y-108265582D01*
X221442845Y-108314528D01*
X221442545Y-108376762D01*
X221441292Y-108420528D01*
X221438554Y-108449931D01*
X221433801Y-108469079D01*
X221426501Y-108482077D01*
X221420267Y-108489045D01*
X221412694Y-108495626D01*
X221402924Y-108500788D01*
X221388340Y-108504703D01*
X221366326Y-108507543D01*
X221334264Y-108509480D01*
X221289536Y-108510684D01*
X221229526Y-108511328D01*
X221151617Y-108511583D01*
X221075956Y-108511622D01*
X220975041Y-108511870D01*
X220894427Y-108511817D01*
X220855822Y-108510857D01*
X220831851Y-108510260D01*
X220785055Y-108505998D01*
X220751778Y-108497830D01*
X220729759Y-108484556D01*
X220716739Y-108464974D01*
X220710457Y-108437883D01*
X220708653Y-108402082D01*
X220709066Y-108356371D01*
X220709467Y-108316889D01*
X220710148Y-108288667D01*
X220855808Y-108288667D01*
X220855822Y-108364867D01*
X221296089Y-108364867D01*
X221296004Y-108271734D01*
X221294396Y-108215693D01*
X221290256Y-108156999D01*
X221284464Y-108108028D01*
X221284226Y-108106538D01*
X221265090Y-108027392D01*
X221235287Y-107966002D01*
X221192878Y-107919305D01*
X221146961Y-107889635D01*
X221096026Y-107871353D01*
X221048200Y-107872771D01*
X220996933Y-107893988D01*
X220943899Y-107935489D01*
X220904600Y-107992998D01*
X220878331Y-108067750D01*
X220869035Y-108117708D01*
X220862507Y-108174416D01*
X220857782Y-108234519D01*
X220855817Y-108285639D01*
X220855808Y-108288667D01*
X220710148Y-108288667D01*
X220712259Y-108201200D01*
X220720550Y-108104311D01*
X220735232Y-108022919D01*
X220757193Y-107953723D01*
X220787322Y-107893420D01*
X220826510Y-107838708D01*
X220843532Y-107819167D01*
X220883363Y-107786750D01*
X220937413Y-107757520D01*
X220997323Y-107734991D01*
X221054739Y-107722679D01*
X221075956Y-107721400D01*
X221134769Y-107729417D01*
G37*
X221288161Y-102823113D02*
X221329342Y-102824032D01*
X221358803Y-102825887D01*
X221379255Y-102828839D01*
X221393413Y-102833050D01*
X221403991Y-102838682D01*
X221412474Y-102844927D01*
X221428207Y-102858439D01*
X221438636Y-102871883D01*
X221442639Y-102887124D01*
X221439094Y-102906026D01*
X221426879Y-102930455D01*
X221404871Y-102962273D01*
X221371949Y-103003348D01*
X221326991Y-103055542D01*
X221268875Y-103120722D01*
X221202099Y-103194556D01*
X220961458Y-103459845D01*
X221180589Y-103465489D01*
X221256128Y-103467531D01*
X221312354Y-103469502D01*
X221352524Y-103471839D01*
X221379896Y-103474981D01*
X221397728Y-103479364D01*
X221409279Y-103485424D01*
X221417807Y-103493600D01*
X221421282Y-103497784D01*
X221440372Y-103534765D01*
X221437493Y-103569708D01*
X221413100Y-103600136D01*
X221403286Y-103607097D01*
X221391826Y-103612523D01*
X221375968Y-103616603D01*
X221352963Y-103619529D01*
X221320062Y-103621492D01*
X221274516Y-103622683D01*
X221213573Y-103623292D01*
X221134486Y-103623511D01*
X221075956Y-103623534D01*
X220984407Y-103623460D01*
X220912687Y-103623113D01*
X220858045Y-103622301D01*
X220817732Y-103620833D01*
X220788998Y-103618519D01*
X220769093Y-103615167D01*
X220755268Y-103610588D01*
X220744772Y-103604589D01*
X220738811Y-103600136D01*
X220724691Y-103588850D01*
X220714029Y-103578301D01*
X220707892Y-103566893D01*
X220707343Y-103553030D01*
X220713448Y-103535114D01*
X220727273Y-103511548D01*
X220749881Y-103480735D01*
X220782338Y-103441078D01*
X220825708Y-103390980D01*
X220881058Y-103328843D01*
X220949451Y-103253072D01*
X221028084Y-103166334D01*
X221191878Y-102985711D01*
X220972029Y-102980067D01*
X220896351Y-102978029D01*
X220839994Y-102976063D01*
X220799706Y-102973734D01*
X220772235Y-102970606D01*
X220754329Y-102966245D01*
X220742737Y-102960216D01*
X220734208Y-102952084D01*
X220730623Y-102947772D01*
X220711670Y-102913241D01*
X220714441Y-102880383D01*
X220730633Y-102854318D01*
X220752199Y-102827667D01*
X221067151Y-102824352D01*
X221159779Y-102823435D01*
X221232544Y-102822968D01*
X221288161Y-102823113D01*
G36*
X221288161Y-102823113D02*
G01*
X221329342Y-102824032D01*
X221358803Y-102825887D01*
X221379255Y-102828839D01*
X221393413Y-102833050D01*
X221403991Y-102838682D01*
X221412474Y-102844927D01*
X221428207Y-102858439D01*
X221438636Y-102871883D01*
X221442639Y-102887124D01*
X221439094Y-102906026D01*
X221426879Y-102930455D01*
X221404871Y-102962273D01*
X221371949Y-103003348D01*
X221326991Y-103055542D01*
X221268875Y-103120722D01*
X221202099Y-103194556D01*
X220961458Y-103459845D01*
X221180589Y-103465489D01*
X221256128Y-103467531D01*
X221312354Y-103469502D01*
X221352524Y-103471839D01*
X221379896Y-103474981D01*
X221397728Y-103479364D01*
X221409279Y-103485424D01*
X221417807Y-103493600D01*
X221421282Y-103497784D01*
X221440372Y-103534765D01*
X221437493Y-103569708D01*
X221413100Y-103600136D01*
X221403286Y-103607097D01*
X221391826Y-103612523D01*
X221375968Y-103616603D01*
X221352963Y-103619529D01*
X221320062Y-103621492D01*
X221274516Y-103622683D01*
X221213573Y-103623292D01*
X221134486Y-103623511D01*
X221075956Y-103623534D01*
X220984407Y-103623460D01*
X220912687Y-103623113D01*
X220858045Y-103622301D01*
X220817732Y-103620833D01*
X220788998Y-103618519D01*
X220769093Y-103615167D01*
X220755268Y-103610588D01*
X220744772Y-103604589D01*
X220738811Y-103600136D01*
X220724691Y-103588850D01*
X220714029Y-103578301D01*
X220707892Y-103566893D01*
X220707343Y-103553030D01*
X220713448Y-103535114D01*
X220727273Y-103511548D01*
X220749881Y-103480735D01*
X220782338Y-103441078D01*
X220825708Y-103390980D01*
X220881058Y-103328843D01*
X220949451Y-103253072D01*
X221028084Y-103166334D01*
X221191878Y-102985711D01*
X220972029Y-102980067D01*
X220896351Y-102978029D01*
X220839994Y-102976063D01*
X220799706Y-102973734D01*
X220772235Y-102970606D01*
X220754329Y-102966245D01*
X220742737Y-102960216D01*
X220734208Y-102952084D01*
X220730623Y-102947772D01*
X220711670Y-102913241D01*
X220714441Y-102880383D01*
X220730633Y-102854318D01*
X220752199Y-102827667D01*
X221067151Y-102824352D01*
X221159779Y-102823435D01*
X221232544Y-102822968D01*
X221288161Y-102823113D01*
G37*
X221279535Y-103963609D02*
X221326786Y-103967848D01*
X221352012Y-103974936D01*
X221353988Y-103976311D01*
X221385508Y-104015228D01*
X221410470Y-104072286D01*
X221428340Y-104143869D01*
X221438586Y-104226358D01*
X221440673Y-104316139D01*
X221434068Y-104409592D01*
X221425956Y-104464556D01*
X221401554Y-104550766D01*
X221361662Y-104630892D01*
X221309887Y-104697977D01*
X221299539Y-104708173D01*
X221256035Y-104741302D01*
X221202118Y-104771194D01*
X221145592Y-104794357D01*
X221094259Y-104807298D01*
X221074544Y-104808858D01*
X221033419Y-104802218D01*
X220982252Y-104784568D01*
X220928394Y-104759297D01*
X220879195Y-104729789D01*
X220846334Y-104703719D01*
X220797452Y-104642765D01*
X220758545Y-104563969D01*
X220730494Y-104470157D01*
X220714179Y-104364150D01*
X220710192Y-104267000D01*
X220714599Y-104185081D01*
X220726095Y-104116565D01*
X220743967Y-104063943D01*
X220767499Y-104029708D01*
X220780924Y-104020379D01*
X220812148Y-104010893D01*
X220840395Y-104017277D01*
X220867182Y-104037430D01*
X220879713Y-104068745D01*
X220878696Y-104114183D01*
X220871906Y-104149326D01*
X220858971Y-104227419D01*
X220857742Y-104307226D01*
X220868241Y-104396555D01*
X220872690Y-104421229D01*
X220896108Y-104504291D01*
X220930945Y-104569273D01*
X220976604Y-104615461D01*
X221032494Y-104642145D01*
X221061388Y-104647663D01*
X221120012Y-104644051D01*
X221171879Y-104620729D01*
X221215978Y-104579824D01*
X221251299Y-104523459D01*
X221276829Y-104453760D01*
X221291559Y-104372852D01*
X221294478Y-104282860D01*
X221284575Y-104185910D01*
X221283641Y-104180436D01*
X221276459Y-104141875D01*
X221269521Y-104120494D01*
X221259227Y-104111227D01*
X221241976Y-104109006D01*
X221232841Y-104108956D01*
X221194489Y-104108956D01*
X221194489Y-104177431D01*
X221190347Y-104237900D01*
X221177147Y-104279165D01*
X221153730Y-104303175D01*
X221118936Y-104311877D01*
X221114394Y-104311983D01*
X221084654Y-104306892D01*
X221063419Y-104289433D01*
X221049366Y-104256939D01*
X221041173Y-104206743D01*
X221038161Y-104158123D01*
X221036433Y-104087456D01*
X221039070Y-104036198D01*
X221048800Y-104001239D01*
X221068353Y-103979470D01*
X221100456Y-103967780D01*
X221147838Y-103963060D01*
X221210071Y-103962200D01*
X221279535Y-103963609D01*
G36*
X221279535Y-103963609D02*
G01*
X221326786Y-103967848D01*
X221352012Y-103974936D01*
X221353988Y-103976311D01*
X221385508Y-104015228D01*
X221410470Y-104072286D01*
X221428340Y-104143869D01*
X221438586Y-104226358D01*
X221440673Y-104316139D01*
X221434068Y-104409592D01*
X221425956Y-104464556D01*
X221401554Y-104550766D01*
X221361662Y-104630892D01*
X221309887Y-104697977D01*
X221299539Y-104708173D01*
X221256035Y-104741302D01*
X221202118Y-104771194D01*
X221145592Y-104794357D01*
X221094259Y-104807298D01*
X221074544Y-104808858D01*
X221033419Y-104802218D01*
X220982252Y-104784568D01*
X220928394Y-104759297D01*
X220879195Y-104729789D01*
X220846334Y-104703719D01*
X220797452Y-104642765D01*
X220758545Y-104563969D01*
X220730494Y-104470157D01*
X220714179Y-104364150D01*
X220710192Y-104267000D01*
X220714599Y-104185081D01*
X220726095Y-104116565D01*
X220743967Y-104063943D01*
X220767499Y-104029708D01*
X220780924Y-104020379D01*
X220812148Y-104010893D01*
X220840395Y-104017277D01*
X220867182Y-104037430D01*
X220879713Y-104068745D01*
X220878696Y-104114183D01*
X220871906Y-104149326D01*
X220858971Y-104227419D01*
X220857742Y-104307226D01*
X220868241Y-104396555D01*
X220872690Y-104421229D01*
X220896108Y-104504291D01*
X220930945Y-104569273D01*
X220976604Y-104615461D01*
X221032494Y-104642145D01*
X221061388Y-104647663D01*
X221120012Y-104644051D01*
X221171879Y-104620729D01*
X221215978Y-104579824D01*
X221251299Y-104523459D01*
X221276829Y-104453760D01*
X221291559Y-104372852D01*
X221294478Y-104282860D01*
X221284575Y-104185910D01*
X221283641Y-104180436D01*
X221276459Y-104141875D01*
X221269521Y-104120494D01*
X221259227Y-104111227D01*
X221241976Y-104109006D01*
X221232841Y-104108956D01*
X221194489Y-104108956D01*
X221194489Y-104177431D01*
X221190347Y-104237900D01*
X221177147Y-104279165D01*
X221153730Y-104303175D01*
X221118936Y-104311877D01*
X221114394Y-104311983D01*
X221084654Y-104306892D01*
X221063419Y-104289433D01*
X221049366Y-104256939D01*
X221041173Y-104206743D01*
X221038161Y-104158123D01*
X221036433Y-104087456D01*
X221039070Y-104036198D01*
X221048800Y-104001239D01*
X221068353Y-103979470D01*
X221100456Y-103967780D01*
X221147838Y-103963060D01*
X221210071Y-103962200D01*
X221279535Y-103963609D01*
G37*
X220803992Y-101761869D02*
X220821503Y-101766604D01*
X220834574Y-101777667D01*
X220843913Y-101797652D01*
X220850227Y-101829154D01*
X220854222Y-101874768D01*
X220856606Y-101937087D01*
X220858086Y-102018707D01*
X220858414Y-102043723D01*
X220861467Y-102285800D01*
X220926378Y-102289186D01*
X220991289Y-102292571D01*
X220991289Y-102124424D01*
X220991531Y-102058734D01*
X220992556Y-102011828D01*
X220994811Y-101979917D01*
X220998742Y-101959209D01*
X221004798Y-101945916D01*
X221013424Y-101936245D01*
X221013493Y-101936183D01*
X221047112Y-101918644D01*
X221083448Y-101919278D01*
X221114423Y-101937686D01*
X221117607Y-101941329D01*
X221125812Y-101954259D01*
X221131521Y-101971976D01*
X221135162Y-101998430D01*
X221137167Y-102037568D01*
X221137964Y-102093338D01*
X221138045Y-102129006D01*
X221138045Y-102291445D01*
X221296089Y-102291445D01*
X221296089Y-102044839D01*
X221296231Y-101963420D01*
X221296814Y-101901590D01*
X221298068Y-101856363D01*
X221300227Y-101824752D01*
X221303523Y-101803769D01*
X221308189Y-101790427D01*
X221314457Y-101781739D01*
X221316733Y-101779550D01*
X221348280Y-101763386D01*
X221384168Y-101762203D01*
X221415285Y-101775464D01*
X221425271Y-101785957D01*
X221430769Y-101796871D01*
X221435022Y-101813783D01*
X221438180Y-101839367D01*
X221440392Y-101876299D01*
X221441806Y-101927254D01*
X221442572Y-101994906D01*
X221442838Y-102081931D01*
X221442845Y-102101606D01*
X221442787Y-102190089D01*
X221442467Y-102258773D01*
X221441667Y-102310436D01*
X221440167Y-102347855D01*
X221437749Y-102373810D01*
X221434194Y-102391078D01*
X221429282Y-102402438D01*
X221422795Y-102410668D01*
X221418138Y-102415183D01*
X221409889Y-102421979D01*
X221399669Y-102427288D01*
X221384800Y-102431294D01*
X221362602Y-102434179D01*
X221330393Y-102436126D01*
X221285496Y-102437319D01*
X221225228Y-102437939D01*
X221146911Y-102438171D01*
X221080994Y-102438200D01*
X220988628Y-102438129D01*
X220916117Y-102437792D01*
X220860737Y-102437002D01*
X220819765Y-102435574D01*
X220790478Y-102433321D01*
X220770153Y-102430057D01*
X220756066Y-102425596D01*
X220745495Y-102419752D01*
X220738811Y-102414803D01*
X220709067Y-102391406D01*
X220709067Y-102101226D01*
X220709260Y-102004657D01*
X220710174Y-101928299D01*
X220712311Y-101869783D01*
X220716175Y-101826745D01*
X220722267Y-101796817D01*
X220731090Y-101777632D01*
X220743146Y-101766824D01*
X220758939Y-101762027D01*
X220778970Y-101760873D01*
X220781335Y-101760867D01*
X220803992Y-101761869D01*
G36*
X220803992Y-101761869D02*
G01*
X220821503Y-101766604D01*
X220834574Y-101777667D01*
X220843913Y-101797652D01*
X220850227Y-101829154D01*
X220854222Y-101874768D01*
X220856606Y-101937087D01*
X220858086Y-102018707D01*
X220858414Y-102043723D01*
X220861467Y-102285800D01*
X220926378Y-102289186D01*
X220991289Y-102292571D01*
X220991289Y-102124424D01*
X220991531Y-102058734D01*
X220992556Y-102011828D01*
X220994811Y-101979917D01*
X220998742Y-101959209D01*
X221004798Y-101945916D01*
X221013424Y-101936245D01*
X221013493Y-101936183D01*
X221047112Y-101918644D01*
X221083448Y-101919278D01*
X221114423Y-101937686D01*
X221117607Y-101941329D01*
X221125812Y-101954259D01*
X221131521Y-101971976D01*
X221135162Y-101998430D01*
X221137167Y-102037568D01*
X221137964Y-102093338D01*
X221138045Y-102129006D01*
X221138045Y-102291445D01*
X221296089Y-102291445D01*
X221296089Y-102044839D01*
X221296231Y-101963420D01*
X221296814Y-101901590D01*
X221298068Y-101856363D01*
X221300227Y-101824752D01*
X221303523Y-101803769D01*
X221308189Y-101790427D01*
X221314457Y-101781739D01*
X221316733Y-101779550D01*
X221348280Y-101763386D01*
X221384168Y-101762203D01*
X221415285Y-101775464D01*
X221425271Y-101785957D01*
X221430769Y-101796871D01*
X221435022Y-101813783D01*
X221438180Y-101839367D01*
X221440392Y-101876299D01*
X221441806Y-101927254D01*
X221442572Y-101994906D01*
X221442838Y-102081931D01*
X221442845Y-102101606D01*
X221442787Y-102190089D01*
X221442467Y-102258773D01*
X221441667Y-102310436D01*
X221440167Y-102347855D01*
X221437749Y-102373810D01*
X221434194Y-102391078D01*
X221429282Y-102402438D01*
X221422795Y-102410668D01*
X221418138Y-102415183D01*
X221409889Y-102421979D01*
X221399669Y-102427288D01*
X221384800Y-102431294D01*
X221362602Y-102434179D01*
X221330393Y-102436126D01*
X221285496Y-102437319D01*
X221225228Y-102437939D01*
X221146911Y-102438171D01*
X221080994Y-102438200D01*
X220988628Y-102438129D01*
X220916117Y-102437792D01*
X220860737Y-102437002D01*
X220819765Y-102435574D01*
X220790478Y-102433321D01*
X220770153Y-102430057D01*
X220756066Y-102425596D01*
X220745495Y-102419752D01*
X220738811Y-102414803D01*
X220709067Y-102391406D01*
X220709067Y-102101226D01*
X220709260Y-102004657D01*
X220710174Y-101928299D01*
X220712311Y-101869783D01*
X220716175Y-101826745D01*
X220722267Y-101796817D01*
X220731090Y-101777632D01*
X220743146Y-101766824D01*
X220758939Y-101762027D01*
X220778970Y-101760873D01*
X220781335Y-101760867D01*
X220803992Y-101761869D01*
G37*
X221398667Y-106701963D02*
X221420267Y-106716689D01*
X221427066Y-106724546D01*
X221432346Y-106734688D01*
X221436298Y-106749844D01*
X221439113Y-106772741D01*
X221440982Y-106806109D01*
X221442098Y-106852675D01*
X221442651Y-106915167D01*
X221442833Y-106996314D01*
X221442845Y-107038422D01*
X221442765Y-107128598D01*
X221442398Y-107198924D01*
X221441552Y-107252129D01*
X221440036Y-107290940D01*
X221437659Y-107318087D01*
X221434229Y-107336298D01*
X221429554Y-107348300D01*
X221423444Y-107356822D01*
X221420267Y-107360156D01*
X221412670Y-107366755D01*
X221402870Y-107371927D01*
X221388239Y-107375846D01*
X221366152Y-107378684D01*
X221333982Y-107380615D01*
X221289103Y-107381812D01*
X221228889Y-107382448D01*
X221150713Y-107382697D01*
X221077923Y-107382734D01*
X220984707Y-107382700D01*
X220911431Y-107382465D01*
X220855458Y-107381830D01*
X220814151Y-107380594D01*
X220784872Y-107378556D01*
X220764984Y-107375517D01*
X220751850Y-107371277D01*
X220742832Y-107365635D01*
X220735293Y-107358391D01*
X220733612Y-107356606D01*
X220726172Y-107347945D01*
X220720409Y-107337882D01*
X220716112Y-107323625D01*
X220713064Y-107302383D01*
X220711051Y-107271364D01*
X220709860Y-107227777D01*
X220709275Y-107168831D01*
X220709083Y-107091734D01*
X220709067Y-107037001D01*
X220709146Y-106947794D01*
X220709518Y-106878386D01*
X220710385Y-106825997D01*
X220711946Y-106787847D01*
X220714403Y-106761159D01*
X220717957Y-106743153D01*
X220722810Y-106731049D01*
X220729161Y-106722069D01*
X220732084Y-106718818D01*
X220763142Y-106699043D01*
X220798828Y-106695482D01*
X220830510Y-106708491D01*
X220836913Y-106714506D01*
X220843121Y-106724235D01*
X220847910Y-106739901D01*
X220851514Y-106764408D01*
X220854164Y-106800661D01*
X220856095Y-106851565D01*
X220857539Y-106920026D01*
X220858418Y-106982617D01*
X220861467Y-107230334D01*
X220926378Y-107233719D01*
X220991289Y-107237105D01*
X220991289Y-107068958D01*
X220991919Y-106995959D01*
X220994553Y-106942517D01*
X221000309Y-106905628D01*
X221010304Y-106882288D01*
X221025656Y-106869494D01*
X221047482Y-106864242D01*
X221067738Y-106863445D01*
X221092592Y-106865923D01*
X221110906Y-106875277D01*
X221123637Y-106894383D01*
X221131741Y-106926118D01*
X221136176Y-106973359D01*
X221137899Y-107038983D01*
X221138045Y-107074801D01*
X221138045Y-107235978D01*
X221296089Y-107235978D01*
X221296089Y-106987622D01*
X221296202Y-106906213D01*
X221296712Y-106844342D01*
X221297870Y-106798968D01*
X221299930Y-106767054D01*
X221303146Y-106745559D01*
X221307772Y-106731443D01*
X221314059Y-106721668D01*
X221318667Y-106716689D01*
X221345560Y-106699610D01*
X221369467Y-106694111D01*
X221398667Y-106701963D01*
G36*
X221398667Y-106701963D02*
G01*
X221420267Y-106716689D01*
X221427066Y-106724546D01*
X221432346Y-106734688D01*
X221436298Y-106749844D01*
X221439113Y-106772741D01*
X221440982Y-106806109D01*
X221442098Y-106852675D01*
X221442651Y-106915167D01*
X221442833Y-106996314D01*
X221442845Y-107038422D01*
X221442765Y-107128598D01*
X221442398Y-107198924D01*
X221441552Y-107252129D01*
X221440036Y-107290940D01*
X221437659Y-107318087D01*
X221434229Y-107336298D01*
X221429554Y-107348300D01*
X221423444Y-107356822D01*
X221420267Y-107360156D01*
X221412670Y-107366755D01*
X221402870Y-107371927D01*
X221388239Y-107375846D01*
X221366152Y-107378684D01*
X221333982Y-107380615D01*
X221289103Y-107381812D01*
X221228889Y-107382448D01*
X221150713Y-107382697D01*
X221077923Y-107382734D01*
X220984707Y-107382700D01*
X220911431Y-107382465D01*
X220855458Y-107381830D01*
X220814151Y-107380594D01*
X220784872Y-107378556D01*
X220764984Y-107375517D01*
X220751850Y-107371277D01*
X220742832Y-107365635D01*
X220735293Y-107358391D01*
X220733612Y-107356606D01*
X220726172Y-107347945D01*
X220720409Y-107337882D01*
X220716112Y-107323625D01*
X220713064Y-107302383D01*
X220711051Y-107271364D01*
X220709860Y-107227777D01*
X220709275Y-107168831D01*
X220709083Y-107091734D01*
X220709067Y-107037001D01*
X220709146Y-106947794D01*
X220709518Y-106878386D01*
X220710385Y-106825997D01*
X220711946Y-106787847D01*
X220714403Y-106761159D01*
X220717957Y-106743153D01*
X220722810Y-106731049D01*
X220729161Y-106722069D01*
X220732084Y-106718818D01*
X220763142Y-106699043D01*
X220798828Y-106695482D01*
X220830510Y-106708491D01*
X220836913Y-106714506D01*
X220843121Y-106724235D01*
X220847910Y-106739901D01*
X220851514Y-106764408D01*
X220854164Y-106800661D01*
X220856095Y-106851565D01*
X220857539Y-106920026D01*
X220858418Y-106982617D01*
X220861467Y-107230334D01*
X220926378Y-107233719D01*
X220991289Y-107237105D01*
X220991289Y-107068958D01*
X220991919Y-106995959D01*
X220994553Y-106942517D01*
X221000309Y-106905628D01*
X221010304Y-106882288D01*
X221025656Y-106869494D01*
X221047482Y-106864242D01*
X221067738Y-106863445D01*
X221092592Y-106865923D01*
X221110906Y-106875277D01*
X221123637Y-106894383D01*
X221131741Y-106926118D01*
X221136176Y-106973359D01*
X221137899Y-107038983D01*
X221138045Y-107074801D01*
X221138045Y-107235978D01*
X221296089Y-107235978D01*
X221296089Y-106987622D01*
X221296202Y-106906213D01*
X221296712Y-106844342D01*
X221297870Y-106798968D01*
X221299930Y-106767054D01*
X221303146Y-106745559D01*
X221307772Y-106731443D01*
X221314059Y-106721668D01*
X221318667Y-106716689D01*
X221345560Y-106699610D01*
X221369467Y-106694111D01*
X221398667Y-106701963D01*
G37*
X220782361Y-98426004D02*
X220800895Y-98430039D01*
X220827257Y-98438854D01*
X220863752Y-98453331D01*
X220912687Y-98474355D01*
X220976365Y-98502812D01*
X221057093Y-98539585D01*
X221101216Y-98559825D01*
X221179985Y-98596375D01*
X221252423Y-98630685D01*
X221315880Y-98661448D01*
X221367708Y-98687352D01*
X221405259Y-98707090D01*
X221425884Y-98719350D01*
X221428733Y-98721776D01*
X221441302Y-98752817D01*
X221439619Y-98787879D01*
X221424332Y-98816000D01*
X221423089Y-98817146D01*
X221406154Y-98828332D01*
X221373170Y-98847096D01*
X221328380Y-98871125D01*
X221276032Y-98898103D01*
X221256742Y-98907799D01*
X221110150Y-98980986D01*
X221269393Y-99060760D01*
X221324415Y-99089233D01*
X221372132Y-99115650D01*
X221408893Y-99137852D01*
X221431044Y-99153681D01*
X221435741Y-99159046D01*
X221442102Y-99200743D01*
X221428733Y-99235151D01*
X221414446Y-99245272D01*
X221382692Y-99262786D01*
X221336597Y-99286265D01*
X221279285Y-99314280D01*
X221213880Y-99345401D01*
X221143507Y-99378201D01*
X221071291Y-99411250D01*
X221000355Y-99443119D01*
X220933825Y-99472381D01*
X220874826Y-99497605D01*
X220826481Y-99517364D01*
X220791915Y-99530228D01*
X220774253Y-99534769D01*
X220773613Y-99534723D01*
X220751388Y-99523674D01*
X220728753Y-99501590D01*
X220727768Y-99500290D01*
X220712425Y-99473147D01*
X220712574Y-99448042D01*
X220715466Y-99438632D01*
X220721718Y-99427166D01*
X220734014Y-99414990D01*
X220754908Y-99400643D01*
X220786949Y-99382664D01*
X220832688Y-99359593D01*
X220894677Y-99329970D01*
X220951898Y-99303255D01*
X221018226Y-99272520D01*
X221077874Y-99244979D01*
X221127725Y-99222062D01*
X221164664Y-99205202D01*
X221185573Y-99195827D01*
X221188845Y-99194460D01*
X221183497Y-99188311D01*
X221161109Y-99174178D01*
X221124946Y-99153943D01*
X221078277Y-99129485D01*
X221059022Y-99119752D01*
X220994004Y-99086783D01*
X220946654Y-99061357D01*
X220914219Y-99041388D01*
X220893946Y-99024790D01*
X220883082Y-99009476D01*
X220878875Y-98993360D01*
X220878400Y-98982857D01*
X220880042Y-98964330D01*
X220886831Y-98948096D01*
X220901566Y-98931965D01*
X220927044Y-98913749D01*
X220966061Y-98891261D01*
X221021414Y-98862311D01*
X221052903Y-98846338D01*
X221103087Y-98820430D01*
X221144704Y-98797833D01*
X221174242Y-98780542D01*
X221188189Y-98770550D01*
X221188770Y-98769191D01*
X221177793Y-98762739D01*
X221149290Y-98748292D01*
X221106244Y-98727297D01*
X221051638Y-98701203D01*
X220988454Y-98671454D01*
X220957071Y-98656820D01*
X220876078Y-98618750D01*
X220813756Y-98588095D01*
X220768071Y-98563263D01*
X220736989Y-98542663D01*
X220718478Y-98524702D01*
X220710504Y-98507790D01*
X220711034Y-98490335D01*
X220718035Y-98470745D01*
X220718377Y-98469990D01*
X220738678Y-98443387D01*
X220759561Y-98428730D01*
X220769352Y-98425862D01*
X220782361Y-98426004D01*
G36*
X220782361Y-98426004D02*
G01*
X220800895Y-98430039D01*
X220827257Y-98438854D01*
X220863752Y-98453331D01*
X220912687Y-98474355D01*
X220976365Y-98502812D01*
X221057093Y-98539585D01*
X221101216Y-98559825D01*
X221179985Y-98596375D01*
X221252423Y-98630685D01*
X221315880Y-98661448D01*
X221367708Y-98687352D01*
X221405259Y-98707090D01*
X221425884Y-98719350D01*
X221428733Y-98721776D01*
X221441302Y-98752817D01*
X221439619Y-98787879D01*
X221424332Y-98816000D01*
X221423089Y-98817146D01*
X221406154Y-98828332D01*
X221373170Y-98847096D01*
X221328380Y-98871125D01*
X221276032Y-98898103D01*
X221256742Y-98907799D01*
X221110150Y-98980986D01*
X221269393Y-99060760D01*
X221324415Y-99089233D01*
X221372132Y-99115650D01*
X221408893Y-99137852D01*
X221431044Y-99153681D01*
X221435741Y-99159046D01*
X221442102Y-99200743D01*
X221428733Y-99235151D01*
X221414446Y-99245272D01*
X221382692Y-99262786D01*
X221336597Y-99286265D01*
X221279285Y-99314280D01*
X221213880Y-99345401D01*
X221143507Y-99378201D01*
X221071291Y-99411250D01*
X221000355Y-99443119D01*
X220933825Y-99472381D01*
X220874826Y-99497605D01*
X220826481Y-99517364D01*
X220791915Y-99530228D01*
X220774253Y-99534769D01*
X220773613Y-99534723D01*
X220751388Y-99523674D01*
X220728753Y-99501590D01*
X220727768Y-99500290D01*
X220712425Y-99473147D01*
X220712574Y-99448042D01*
X220715466Y-99438632D01*
X220721718Y-99427166D01*
X220734014Y-99414990D01*
X220754908Y-99400643D01*
X220786949Y-99382664D01*
X220832688Y-99359593D01*
X220894677Y-99329970D01*
X220951898Y-99303255D01*
X221018226Y-99272520D01*
X221077874Y-99244979D01*
X221127725Y-99222062D01*
X221164664Y-99205202D01*
X221185573Y-99195827D01*
X221188845Y-99194460D01*
X221183497Y-99188311D01*
X221161109Y-99174178D01*
X221124946Y-99153943D01*
X221078277Y-99129485D01*
X221059022Y-99119752D01*
X220994004Y-99086783D01*
X220946654Y-99061357D01*
X220914219Y-99041388D01*
X220893946Y-99024790D01*
X220883082Y-99009476D01*
X220878875Y-98993360D01*
X220878400Y-98982857D01*
X220880042Y-98964330D01*
X220886831Y-98948096D01*
X220901566Y-98931965D01*
X220927044Y-98913749D01*
X220966061Y-98891261D01*
X221021414Y-98862311D01*
X221052903Y-98846338D01*
X221103087Y-98820430D01*
X221144704Y-98797833D01*
X221174242Y-98780542D01*
X221188189Y-98770550D01*
X221188770Y-98769191D01*
X221177793Y-98762739D01*
X221149290Y-98748292D01*
X221106244Y-98727297D01*
X221051638Y-98701203D01*
X220988454Y-98671454D01*
X220957071Y-98656820D01*
X220876078Y-98618750D01*
X220813756Y-98588095D01*
X220768071Y-98563263D01*
X220736989Y-98542663D01*
X220718478Y-98524702D01*
X220710504Y-98507790D01*
X220711034Y-98490335D01*
X220718035Y-98470745D01*
X220718377Y-98469990D01*
X220738678Y-98443387D01*
X220759561Y-98428730D01*
X220769352Y-98425862D01*
X220782361Y-98426004D01*
G37*
X221267712Y-105624576D02*
X221297259Y-105636202D01*
X221323486Y-105656323D01*
X221363576Y-105697216D01*
X221394149Y-105742817D01*
X221416203Y-105796513D01*
X221430735Y-105861692D01*
X221438741Y-105941744D01*
X221441218Y-106040057D01*
X221441177Y-106056289D01*
X221439818Y-106121849D01*
X221436730Y-106186866D01*
X221432356Y-106244252D01*
X221427140Y-106286922D01*
X221426541Y-106290372D01*
X221416491Y-106332796D01*
X221403796Y-106368780D01*
X221392190Y-106389150D01*
X221361572Y-106408107D01*
X221325918Y-106409427D01*
X221294144Y-106393085D01*
X221290551Y-106389429D01*
X221279876Y-106374315D01*
X221275276Y-106355415D01*
X221276059Y-106326162D01*
X221280127Y-106290651D01*
X221283762Y-106250970D01*
X221286828Y-106195345D01*
X221289053Y-106130406D01*
X221290164Y-106062785D01*
X221290237Y-106045000D01*
X221289964Y-105977128D01*
X221288646Y-105927454D01*
X221285827Y-105891610D01*
X221281050Y-105865224D01*
X221273857Y-105843926D01*
X221267867Y-105831126D01*
X221251233Y-105803000D01*
X221236168Y-105785068D01*
X221231897Y-105782447D01*
X221214263Y-105787976D01*
X221197192Y-105814260D01*
X221181458Y-105859478D01*
X221167838Y-105921808D01*
X221164804Y-105940171D01*
X221149738Y-106036090D01*
X221137146Y-106112641D01*
X221126111Y-106172780D01*
X221115720Y-106219460D01*
X221105056Y-106255637D01*
X221093205Y-106284265D01*
X221079251Y-106308298D01*
X221062281Y-106330692D01*
X221041378Y-106354402D01*
X221034049Y-106362380D01*
X221006699Y-106390353D01*
X220985029Y-106405160D01*
X220960232Y-106410952D01*
X220928983Y-106411889D01*
X220867705Y-106401575D01*
X220815640Y-106370752D01*
X220772958Y-106319595D01*
X220739825Y-106248283D01*
X220724964Y-106197400D01*
X220715366Y-106142100D01*
X220709936Y-106075853D01*
X220708367Y-106002706D01*
X220710351Y-105926703D01*
X220715581Y-105851888D01*
X220723750Y-105782306D01*
X220734550Y-105722002D01*
X220747673Y-105675020D01*
X220762813Y-105645406D01*
X220767269Y-105640860D01*
X220801850Y-105625054D01*
X220837351Y-105629847D01*
X220867725Y-105654364D01*
X220868596Y-105655534D01*
X220877954Y-105669954D01*
X220882876Y-105685008D01*
X220883473Y-105706005D01*
X220879861Y-105738257D01*
X220872154Y-105787073D01*
X220871505Y-105791000D01*
X220862569Y-105863739D01*
X220858161Y-105942217D01*
X220858119Y-106020927D01*
X220862279Y-106094361D01*
X220870479Y-106157011D01*
X220882557Y-106203370D01*
X220883771Y-106206416D01*
X220902615Y-106240048D01*
X220921685Y-106251864D01*
X220940439Y-106242614D01*
X220958337Y-106213047D01*
X220974837Y-106163911D01*
X220989396Y-106095957D01*
X220996406Y-106050645D01*
X221009889Y-105956456D01*
X221022214Y-105881544D01*
X221034449Y-105822717D01*
X221047661Y-105776785D01*
X221062917Y-105740555D01*
X221081285Y-105710838D01*
X221103831Y-105684442D01*
X221125971Y-105663230D01*
X221156819Y-105638065D01*
X221183345Y-105625681D01*
X221216026Y-105621808D01*
X221227995Y-105621667D01*
X221267712Y-105624576D01*
G36*
X221267712Y-105624576D02*
G01*
X221297259Y-105636202D01*
X221323486Y-105656323D01*
X221363576Y-105697216D01*
X221394149Y-105742817D01*
X221416203Y-105796513D01*
X221430735Y-105861692D01*
X221438741Y-105941744D01*
X221441218Y-106040057D01*
X221441177Y-106056289D01*
X221439818Y-106121849D01*
X221436730Y-106186866D01*
X221432356Y-106244252D01*
X221427140Y-106286922D01*
X221426541Y-106290372D01*
X221416491Y-106332796D01*
X221403796Y-106368780D01*
X221392190Y-106389150D01*
X221361572Y-106408107D01*
X221325918Y-106409427D01*
X221294144Y-106393085D01*
X221290551Y-106389429D01*
X221279876Y-106374315D01*
X221275276Y-106355415D01*
X221276059Y-106326162D01*
X221280127Y-106290651D01*
X221283762Y-106250970D01*
X221286828Y-106195345D01*
X221289053Y-106130406D01*
X221290164Y-106062785D01*
X221290237Y-106045000D01*
X221289964Y-105977128D01*
X221288646Y-105927454D01*
X221285827Y-105891610D01*
X221281050Y-105865224D01*
X221273857Y-105843926D01*
X221267867Y-105831126D01*
X221251233Y-105803000D01*
X221236168Y-105785068D01*
X221231897Y-105782447D01*
X221214263Y-105787976D01*
X221197192Y-105814260D01*
X221181458Y-105859478D01*
X221167838Y-105921808D01*
X221164804Y-105940171D01*
X221149738Y-106036090D01*
X221137146Y-106112641D01*
X221126111Y-106172780D01*
X221115720Y-106219460D01*
X221105056Y-106255637D01*
X221093205Y-106284265D01*
X221079251Y-106308298D01*
X221062281Y-106330692D01*
X221041378Y-106354402D01*
X221034049Y-106362380D01*
X221006699Y-106390353D01*
X220985029Y-106405160D01*
X220960232Y-106410952D01*
X220928983Y-106411889D01*
X220867705Y-106401575D01*
X220815640Y-106370752D01*
X220772958Y-106319595D01*
X220739825Y-106248283D01*
X220724964Y-106197400D01*
X220715366Y-106142100D01*
X220709936Y-106075853D01*
X220708367Y-106002706D01*
X220710351Y-105926703D01*
X220715581Y-105851888D01*
X220723750Y-105782306D01*
X220734550Y-105722002D01*
X220747673Y-105675020D01*
X220762813Y-105645406D01*
X220767269Y-105640860D01*
X220801850Y-105625054D01*
X220837351Y-105629847D01*
X220867725Y-105654364D01*
X220868596Y-105655534D01*
X220877954Y-105669954D01*
X220882876Y-105685008D01*
X220883473Y-105706005D01*
X220879861Y-105738257D01*
X220872154Y-105787073D01*
X220871505Y-105791000D01*
X220862569Y-105863739D01*
X220858161Y-105942217D01*
X220858119Y-106020927D01*
X220862279Y-106094361D01*
X220870479Y-106157011D01*
X220882557Y-106203370D01*
X220883771Y-106206416D01*
X220902615Y-106240048D01*
X220921685Y-106251864D01*
X220940439Y-106242614D01*
X220958337Y-106213047D01*
X220974837Y-106163911D01*
X220989396Y-106095957D01*
X220996406Y-106050645D01*
X221009889Y-105956456D01*
X221022214Y-105881544D01*
X221034449Y-105822717D01*
X221047661Y-105776785D01*
X221062917Y-105740555D01*
X221081285Y-105710838D01*
X221103831Y-105684442D01*
X221125971Y-105663230D01*
X221156819Y-105638065D01*
X221183345Y-105625681D01*
X221216026Y-105621808D01*
X221227995Y-105621667D01*
X221267712Y-105624576D01*
G37*
X219596718Y-100976854D02*
X219613999Y-101002433D01*
X219637283Y-101042127D01*
X219664934Y-101092703D01*
X219695315Y-101150926D01*
X219726790Y-101213563D01*
X219757722Y-101277379D01*
X219786473Y-101339140D01*
X219811408Y-101395612D01*
X219830889Y-101443562D01*
X219839318Y-101467014D01*
X219877133Y-101600779D01*
X219902136Y-101738673D01*
X219915140Y-101886378D01*
X219917468Y-102013167D01*
X219916373Y-102081122D01*
X219914275Y-102146723D01*
X219911434Y-102204153D01*
X219908106Y-102247597D01*
X219906422Y-102261702D01*
X219877587Y-102400716D01*
X219832468Y-102542243D01*
X219773750Y-102679725D01*
X219704120Y-102806606D01*
X219651441Y-102884111D01*
X219543239Y-103011519D01*
X219416671Y-103129822D01*
X219274866Y-103236828D01*
X219120951Y-103330348D01*
X218958053Y-103408190D01*
X218840756Y-103452044D01*
X218657128Y-103502292D01*
X218462581Y-103535791D01*
X218261325Y-103552551D01*
X218057568Y-103552584D01*
X217855521Y-103535899D01*
X217659392Y-103502507D01*
X217473391Y-103452420D01*
X217461803Y-103448603D01*
X217299750Y-103385719D01*
X217151832Y-103308972D01*
X217013865Y-103215758D01*
X216881661Y-103103473D01*
X216836399Y-103059608D01*
X216712457Y-102923466D01*
X216609915Y-102783509D01*
X216527656Y-102637589D01*
X216464564Y-102483558D01*
X216419523Y-102319268D01*
X216402033Y-102223711D01*
X216386466Y-102064977D01*
X216389071Y-101906571D01*
X216410245Y-101746430D01*
X216450385Y-101582490D01*
X216509889Y-101412687D01*
X216589154Y-101234957D01*
X216594699Y-101223690D01*
X216622725Y-101165995D01*
X216646802Y-101114448D01*
X216665249Y-101072809D01*
X216676386Y-101044838D01*
X216678933Y-101035267D01*
X216683941Y-101016050D01*
X216688147Y-101011439D01*
X216698580Y-101016542D01*
X216724868Y-101032582D01*
X216764257Y-101057712D01*
X216813991Y-101090086D01*
X216871315Y-101127857D01*
X216933476Y-101169178D01*
X216997718Y-101212202D01*
X217061285Y-101255083D01*
X217121425Y-101295974D01*
X217175380Y-101333029D01*
X217220397Y-101364400D01*
X217253721Y-101388241D01*
X217272597Y-101402706D01*
X217274787Y-101404691D01*
X217270138Y-101414809D01*
X217252962Y-101437150D01*
X217226440Y-101467720D01*
X217211964Y-101483464D01*
X217136682Y-101579953D01*
X217081241Y-101686664D01*
X217046141Y-101802168D01*
X217031880Y-101925038D01*
X217033051Y-101994439D01*
X217050212Y-102115577D01*
X217086094Y-102224795D01*
X217140959Y-102322418D01*
X217215070Y-102408772D01*
X217308688Y-102484185D01*
X217422076Y-102548982D01*
X217508667Y-102586399D01*
X217644366Y-102630252D01*
X217791850Y-102662572D01*
X217947314Y-102683443D01*
X218106956Y-102692949D01*
X218266973Y-102691173D01*
X218423561Y-102678197D01*
X218572918Y-102654106D01*
X218711240Y-102618982D01*
X218834724Y-102572908D01*
X218868978Y-102556627D01*
X218983064Y-102488380D01*
X219079557Y-102407921D01*
X219157670Y-102316430D01*
X219216617Y-102215089D01*
X219255612Y-102105080D01*
X219273868Y-101987585D01*
X219275211Y-101946117D01*
X219264290Y-101824559D01*
X219231474Y-101704122D01*
X219177439Y-101586334D01*
X219102865Y-101472723D01*
X219024539Y-101381315D01*
X218980008Y-101334785D01*
X219277271Y-101153517D01*
X219351433Y-101108420D01*
X219419646Y-101067181D01*
X219479459Y-101031265D01*
X219528420Y-101002134D01*
X219564079Y-100981250D01*
X219583984Y-100970076D01*
X219587079Y-100968625D01*
X219596718Y-100976854D01*
G36*
X219596718Y-100976854D02*
G01*
X219613999Y-101002433D01*
X219637283Y-101042127D01*
X219664934Y-101092703D01*
X219695315Y-101150926D01*
X219726790Y-101213563D01*
X219757722Y-101277379D01*
X219786473Y-101339140D01*
X219811408Y-101395612D01*
X219830889Y-101443562D01*
X219839318Y-101467014D01*
X219877133Y-101600779D01*
X219902136Y-101738673D01*
X219915140Y-101886378D01*
X219917468Y-102013167D01*
X219916373Y-102081122D01*
X219914275Y-102146723D01*
X219911434Y-102204153D01*
X219908106Y-102247597D01*
X219906422Y-102261702D01*
X219877587Y-102400716D01*
X219832468Y-102542243D01*
X219773750Y-102679725D01*
X219704120Y-102806606D01*
X219651441Y-102884111D01*
X219543239Y-103011519D01*
X219416671Y-103129822D01*
X219274866Y-103236828D01*
X219120951Y-103330348D01*
X218958053Y-103408190D01*
X218840756Y-103452044D01*
X218657128Y-103502292D01*
X218462581Y-103535791D01*
X218261325Y-103552551D01*
X218057568Y-103552584D01*
X217855521Y-103535899D01*
X217659392Y-103502507D01*
X217473391Y-103452420D01*
X217461803Y-103448603D01*
X217299750Y-103385719D01*
X217151832Y-103308972D01*
X217013865Y-103215758D01*
X216881661Y-103103473D01*
X216836399Y-103059608D01*
X216712457Y-102923466D01*
X216609915Y-102783509D01*
X216527656Y-102637589D01*
X216464564Y-102483558D01*
X216419523Y-102319268D01*
X216402033Y-102223711D01*
X216386466Y-102064977D01*
X216389071Y-101906571D01*
X216410245Y-101746430D01*
X216450385Y-101582490D01*
X216509889Y-101412687D01*
X216589154Y-101234957D01*
X216594699Y-101223690D01*
X216622725Y-101165995D01*
X216646802Y-101114448D01*
X216665249Y-101072809D01*
X216676386Y-101044838D01*
X216678933Y-101035267D01*
X216683941Y-101016050D01*
X216688147Y-101011439D01*
X216698580Y-101016542D01*
X216724868Y-101032582D01*
X216764257Y-101057712D01*
X216813991Y-101090086D01*
X216871315Y-101127857D01*
X216933476Y-101169178D01*
X216997718Y-101212202D01*
X217061285Y-101255083D01*
X217121425Y-101295974D01*
X217175380Y-101333029D01*
X217220397Y-101364400D01*
X217253721Y-101388241D01*
X217272597Y-101402706D01*
X217274787Y-101404691D01*
X217270138Y-101414809D01*
X217252962Y-101437150D01*
X217226440Y-101467720D01*
X217211964Y-101483464D01*
X217136682Y-101579953D01*
X217081241Y-101686664D01*
X217046141Y-101802168D01*
X217031880Y-101925038D01*
X217033051Y-101994439D01*
X217050212Y-102115577D01*
X217086094Y-102224795D01*
X217140959Y-102322418D01*
X217215070Y-102408772D01*
X217308688Y-102484185D01*
X217422076Y-102548982D01*
X217508667Y-102586399D01*
X217644366Y-102630252D01*
X217791850Y-102662572D01*
X217947314Y-102683443D01*
X218106956Y-102692949D01*
X218266973Y-102691173D01*
X218423561Y-102678197D01*
X218572918Y-102654106D01*
X218711240Y-102618982D01*
X218834724Y-102572908D01*
X218868978Y-102556627D01*
X218983064Y-102488380D01*
X219079557Y-102407921D01*
X219157670Y-102316430D01*
X219216617Y-102215089D01*
X219255612Y-102105080D01*
X219273868Y-101987585D01*
X219275211Y-101946117D01*
X219264290Y-101824559D01*
X219231474Y-101704122D01*
X219177439Y-101586334D01*
X219102865Y-101472723D01*
X219024539Y-101381315D01*
X218980008Y-101334785D01*
X219277271Y-101153517D01*
X219351433Y-101108420D01*
X219419646Y-101067181D01*
X219479459Y-101031265D01*
X219528420Y-101002134D01*
X219564079Y-100981250D01*
X219583984Y-100970076D01*
X219587079Y-100968625D01*
X219596718Y-100976854D01*
G37*
X219873689Y-96805045D02*
X219777733Y-96805045D01*
X219734370Y-96805776D01*
X219701205Y-96807728D01*
X219683424Y-96810537D01*
X219681778Y-96811779D01*
X219688662Y-96823201D01*
X219706505Y-96845916D01*
X219725879Y-96868615D01*
X219766614Y-96923200D01*
X219807617Y-96992679D01*
X219845123Y-97069730D01*
X219875364Y-97147035D01*
X219885012Y-97177887D01*
X219899578Y-97246384D01*
X219909539Y-97329236D01*
X219914583Y-97418629D01*
X219914396Y-97506752D01*
X219908666Y-97585793D01*
X219902858Y-97623489D01*
X219864797Y-97761586D01*
X219807073Y-97888887D01*
X219730211Y-98004708D01*
X219634739Y-98108363D01*
X219521179Y-98199167D01*
X219410381Y-98265969D01*
X219293625Y-98320836D01*
X219174276Y-98362837D01*
X219048283Y-98392833D01*
X218911594Y-98411689D01*
X218760158Y-98420268D01*
X218682711Y-98420994D01*
X218625934Y-98418900D01*
X218469895Y-98413143D01*
X218274059Y-98391198D01*
X218095332Y-98355214D01*
X217933845Y-98305241D01*
X217789726Y-98241332D01*
X217663106Y-98163538D01*
X217554115Y-98071911D01*
X217462883Y-97966503D01*
X217431932Y-97921338D01*
X217375785Y-97820389D01*
X217336174Y-97717099D01*
X217312014Y-97607011D01*
X217302219Y-97485670D01*
X217303265Y-97393164D01*
X217314231Y-97263510D01*
X217333231Y-97165443D01*
X217887465Y-97165443D01*
X217890722Y-97246784D01*
X217909615Y-97319620D01*
X217925184Y-97351574D01*
X217968181Y-97409499D01*
X218024953Y-97458456D01*
X218097575Y-97499610D01*
X218188121Y-97534126D01*
X218298666Y-97563167D01*
X218304533Y-97564448D01*
X218366788Y-97574619D01*
X218444594Y-97582261D01*
X218532720Y-97587330D01*
X218625934Y-97589783D01*
X218719002Y-97589576D01*
X218806692Y-97586663D01*
X218883772Y-97581000D01*
X218945009Y-97572545D01*
X218957350Y-97569962D01*
X219064633Y-97538160D01*
X219151658Y-97496502D01*
X219218642Y-97444637D01*
X219265805Y-97382219D01*
X219293365Y-97308900D01*
X219301541Y-97224331D01*
X219290551Y-97128165D01*
X219274829Y-97064689D01*
X219256639Y-97015546D01*
X219230791Y-96961417D01*
X219207089Y-96920756D01*
X219160721Y-96850200D01*
X218010530Y-96850200D01*
X217966962Y-96917608D01*
X217926040Y-96996133D01*
X217899389Y-97080319D01*
X217887465Y-97165443D01*
X217333231Y-97165443D01*
X217336046Y-97150916D01*
X217369714Y-97052125D01*
X217416236Y-96963879D01*
X217450448Y-96915014D01*
X217472362Y-96885647D01*
X217487333Y-96863957D01*
X217491733Y-96855747D01*
X217480904Y-96854132D01*
X217450251Y-96852841D01*
X217402526Y-96851862D01*
X217340479Y-96851183D01*
X217266862Y-96850790D01*
X217184427Y-96850670D01*
X217095925Y-96850812D01*
X217004107Y-96851203D01*
X216911724Y-96851829D01*
X216821528Y-96852680D01*
X216736271Y-96853740D01*
X216658703Y-96854999D01*
X216591576Y-96856444D01*
X216537641Y-96858062D01*
X216499650Y-96859839D01*
X216492667Y-96860331D01*
X216422251Y-96867908D01*
X216367102Y-96879469D01*
X216319981Y-96897208D01*
X216273647Y-96923318D01*
X216264067Y-96929585D01*
X216227378Y-96954017D01*
X216227378Y-96048689D01*
X217912245Y-96048493D01*
X218146662Y-96048474D01*
X218359603Y-96048448D01*
X218552168Y-96048375D01*
X218725459Y-96048218D01*
X218880576Y-96047936D01*
X219018620Y-96047491D01*
X219140692Y-96046844D01*
X219247894Y-96045955D01*
X219341326Y-96044787D01*
X219422090Y-96043299D01*
X219491286Y-96041454D01*
X219550015Y-96039211D01*
X219599379Y-96036531D01*
X219640478Y-96033377D01*
X219674413Y-96029708D01*
X219702286Y-96025487D01*
X219725198Y-96020673D01*
X219744249Y-96015227D01*
X219760540Y-96009112D01*
X219775173Y-96002288D01*
X219789249Y-95994715D01*
X219803868Y-95986355D01*
X219812974Y-95981161D01*
X219873689Y-95946896D01*
X219873689Y-96805045D01*
G36*
X219873689Y-96805045D02*
G01*
X219777733Y-96805045D01*
X219734370Y-96805776D01*
X219701205Y-96807728D01*
X219683424Y-96810537D01*
X219681778Y-96811779D01*
X219688662Y-96823201D01*
X219706505Y-96845916D01*
X219725879Y-96868615D01*
X219766614Y-96923200D01*
X219807617Y-96992679D01*
X219845123Y-97069730D01*
X219875364Y-97147035D01*
X219885012Y-97177887D01*
X219899578Y-97246384D01*
X219909539Y-97329236D01*
X219914583Y-97418629D01*
X219914396Y-97506752D01*
X219908666Y-97585793D01*
X219902858Y-97623489D01*
X219864797Y-97761586D01*
X219807073Y-97888887D01*
X219730211Y-98004708D01*
X219634739Y-98108363D01*
X219521179Y-98199167D01*
X219410381Y-98265969D01*
X219293625Y-98320836D01*
X219174276Y-98362837D01*
X219048283Y-98392833D01*
X218911594Y-98411689D01*
X218760158Y-98420268D01*
X218682711Y-98420994D01*
X218625934Y-98418900D01*
X218469895Y-98413143D01*
X218274059Y-98391198D01*
X218095332Y-98355214D01*
X217933845Y-98305241D01*
X217789726Y-98241332D01*
X217663106Y-98163538D01*
X217554115Y-98071911D01*
X217462883Y-97966503D01*
X217431932Y-97921338D01*
X217375785Y-97820389D01*
X217336174Y-97717099D01*
X217312014Y-97607011D01*
X217302219Y-97485670D01*
X217303265Y-97393164D01*
X217314231Y-97263510D01*
X217333231Y-97165443D01*
X217887465Y-97165443D01*
X217890722Y-97246784D01*
X217909615Y-97319620D01*
X217925184Y-97351574D01*
X217968181Y-97409499D01*
X218024953Y-97458456D01*
X218097575Y-97499610D01*
X218188121Y-97534126D01*
X218298666Y-97563167D01*
X218304533Y-97564448D01*
X218366788Y-97574619D01*
X218444594Y-97582261D01*
X218532720Y-97587330D01*
X218625934Y-97589783D01*
X218719002Y-97589576D01*
X218806692Y-97586663D01*
X218883772Y-97581000D01*
X218945009Y-97572545D01*
X218957350Y-97569962D01*
X219064633Y-97538160D01*
X219151658Y-97496502D01*
X219218642Y-97444637D01*
X219265805Y-97382219D01*
X219293365Y-97308900D01*
X219301541Y-97224331D01*
X219290551Y-97128165D01*
X219274829Y-97064689D01*
X219256639Y-97015546D01*
X219230791Y-96961417D01*
X219207089Y-96920756D01*
X219160721Y-96850200D01*
X218010530Y-96850200D01*
X217966962Y-96917608D01*
X217926040Y-96996133D01*
X217899389Y-97080319D01*
X217887465Y-97165443D01*
X217333231Y-97165443D01*
X217336046Y-97150916D01*
X217369714Y-97052125D01*
X217416236Y-96963879D01*
X217450448Y-96915014D01*
X217472362Y-96885647D01*
X217487333Y-96863957D01*
X217491733Y-96855747D01*
X217480904Y-96854132D01*
X217450251Y-96852841D01*
X217402526Y-96851862D01*
X217340479Y-96851183D01*
X217266862Y-96850790D01*
X217184427Y-96850670D01*
X217095925Y-96850812D01*
X217004107Y-96851203D01*
X216911724Y-96851829D01*
X216821528Y-96852680D01*
X216736271Y-96853740D01*
X216658703Y-96854999D01*
X216591576Y-96856444D01*
X216537641Y-96858062D01*
X216499650Y-96859839D01*
X216492667Y-96860331D01*
X216422251Y-96867908D01*
X216367102Y-96879469D01*
X216319981Y-96897208D01*
X216273647Y-96923318D01*
X216264067Y-96929585D01*
X216227378Y-96954017D01*
X216227378Y-96048689D01*
X217912245Y-96048493D01*
X218146662Y-96048474D01*
X218359603Y-96048448D01*
X218552168Y-96048375D01*
X218725459Y-96048218D01*
X218880576Y-96047936D01*
X219018620Y-96047491D01*
X219140692Y-96046844D01*
X219247894Y-96045955D01*
X219341326Y-96044787D01*
X219422090Y-96043299D01*
X219491286Y-96041454D01*
X219550015Y-96039211D01*
X219599379Y-96036531D01*
X219640478Y-96033377D01*
X219674413Y-96029708D01*
X219702286Y-96025487D01*
X219725198Y-96020673D01*
X219744249Y-96015227D01*
X219760540Y-96009112D01*
X219775173Y-96002288D01*
X219789249Y-95994715D01*
X219803868Y-95986355D01*
X219812974Y-95981161D01*
X219873689Y-95946896D01*
X219873689Y-96805045D01*
G37*
X219866121Y-98633433D02*
X219868147Y-98664418D01*
X219869942Y-98713043D01*
X219871451Y-98776837D01*
X219872616Y-98853331D01*
X219873380Y-98940056D01*
X219873686Y-99034543D01*
X219873689Y-99045450D01*
X219873689Y-99468343D01*
X219777622Y-99471605D01*
X219681556Y-99474867D01*
X219732543Y-99536956D01*
X219800057Y-99634286D01*
X219854749Y-99744187D01*
X219884978Y-99830651D01*
X219899666Y-99899722D01*
X219909659Y-99983075D01*
X219914646Y-100072841D01*
X219914313Y-100161155D01*
X219908351Y-100240149D01*
X219902638Y-100276378D01*
X219864776Y-100416397D01*
X219809932Y-100542822D01*
X219738924Y-100654740D01*
X219652568Y-100751238D01*
X219551679Y-100831400D01*
X219437076Y-100894313D01*
X219310984Y-100938688D01*
X219254401Y-100951022D01*
X219192202Y-100958632D01*
X219117363Y-100962261D01*
X219083467Y-100962755D01*
X219080282Y-100962690D01*
X218989712Y-100960822D01*
X218910812Y-100952478D01*
X218839590Y-100936232D01*
X218768864Y-100910595D01*
X218716493Y-100886599D01*
X218621196Y-100827980D01*
X218533170Y-100749883D01*
X218454017Y-100654685D01*
X218385340Y-100544762D01*
X218328741Y-100422490D01*
X218285821Y-100290245D01*
X218270882Y-100225578D01*
X218248777Y-100089396D01*
X218234194Y-99940951D01*
X218227813Y-99789495D01*
X218229110Y-99688894D01*
X218751842Y-99688894D01*
X218757096Y-99809670D01*
X218773263Y-99912340D01*
X218800961Y-99998894D01*
X218840808Y-100071319D01*
X218887758Y-100126249D01*
X218945645Y-100170796D01*
X219008693Y-100195520D01*
X219080282Y-100202752D01*
X219155333Y-100193459D01*
X219219160Y-100165272D01*
X219274798Y-100116803D01*
X219279211Y-100111746D01*
X219314037Y-100063452D01*
X219336620Y-100011743D01*
X219348540Y-99951011D01*
X219351383Y-99875648D01*
X219350978Y-99857541D01*
X219348325Y-99803722D01*
X219342909Y-99763692D01*
X219332745Y-99728676D01*
X219315850Y-99689897D01*
X219310672Y-99679255D01*
X219274844Y-99618604D01*
X219232212Y-99571785D01*
X219216973Y-99559048D01*
X219160462Y-99514378D01*
X218964586Y-99514378D01*
X218885939Y-99514914D01*
X218827988Y-99516604D01*
X218788875Y-99519572D01*
X218766741Y-99523943D01*
X218760274Y-99528028D01*
X218757111Y-99543953D01*
X218754488Y-99577736D01*
X218752655Y-99624660D01*
X218751857Y-99680007D01*
X218751842Y-99688894D01*
X218229110Y-99688894D01*
X218229445Y-99662936D01*
X218236224Y-99501050D01*
X218177245Y-99508470D01*
X218078092Y-99527762D01*
X217997372Y-99558896D01*
X217934466Y-99602731D01*
X217888756Y-99660129D01*
X217859622Y-99731952D01*
X217846447Y-99819059D01*
X217848611Y-99922314D01*
X217852612Y-99960289D01*
X217877780Y-100101480D01*
X217918814Y-100238293D01*
X217956815Y-100332822D01*
X217976190Y-100377982D01*
X217991760Y-100416415D01*
X218001405Y-100442766D01*
X218003452Y-100450454D01*
X217994374Y-100460198D01*
X217965405Y-100476917D01*
X217916217Y-100500768D01*
X217846484Y-100531907D01*
X217755879Y-100570493D01*
X217740089Y-100577090D01*
X217667772Y-100607147D01*
X217602425Y-100634126D01*
X217546906Y-100656864D01*
X217504072Y-100674194D01*
X217476781Y-100684952D01*
X217467942Y-100688059D01*
X217463187Y-100678060D01*
X217457910Y-100651783D01*
X217454231Y-100623511D01*
X217449474Y-100593354D01*
X217440028Y-100545567D01*
X217426820Y-100484388D01*
X217410776Y-100414054D01*
X217392820Y-100338806D01*
X217385797Y-100310245D01*
X217360209Y-100205184D01*
X217340147Y-100117520D01*
X217324969Y-100042932D01*
X217314035Y-99977097D01*
X217306704Y-99915693D01*
X217302335Y-99854398D01*
X217300287Y-99788890D01*
X217299889Y-99730872D01*
X217306552Y-99561426D01*
X217326567Y-99409508D01*
X217360202Y-99274244D01*
X217407725Y-99154761D01*
X217469405Y-99050185D01*
X217532965Y-98972576D01*
X217607099Y-98903735D01*
X217686871Y-98849994D01*
X217779091Y-98807090D01*
X217822161Y-98791616D01*
X217861142Y-98778756D01*
X217897289Y-98767554D01*
X217932434Y-98757880D01*
X217968410Y-98749604D01*
X218007050Y-98742597D01*
X218050185Y-98736728D01*
X218099649Y-98731869D01*
X218157273Y-98727890D01*
X218224891Y-98724660D01*
X218304334Y-98722051D01*
X218397436Y-98719933D01*
X218506027Y-98718176D01*
X218631942Y-98716651D01*
X218777012Y-98715228D01*
X218919778Y-98713975D01*
X219075968Y-98712649D01*
X219211239Y-98711444D01*
X219327246Y-98710234D01*
X219425645Y-98708894D01*
X219508093Y-98707300D01*
X219576246Y-98705325D01*
X219631760Y-98702844D01*
X219676292Y-98699731D01*
X219711498Y-98695862D01*
X219739034Y-98691111D01*
X219760556Y-98685352D01*
X219777722Y-98678461D01*
X219792186Y-98670311D01*
X219805606Y-98660777D01*
X219819638Y-98649734D01*
X219825071Y-98645434D01*
X219847910Y-98629614D01*
X219863463Y-98622578D01*
X219863922Y-98622556D01*
X219866121Y-98633433D01*
G36*
X219866121Y-98633433D02*
G01*
X219868147Y-98664418D01*
X219869942Y-98713043D01*
X219871451Y-98776837D01*
X219872616Y-98853331D01*
X219873380Y-98940056D01*
X219873686Y-99034543D01*
X219873689Y-99045450D01*
X219873689Y-99468343D01*
X219777622Y-99471605D01*
X219681556Y-99474867D01*
X219732543Y-99536956D01*
X219800057Y-99634286D01*
X219854749Y-99744187D01*
X219884978Y-99830651D01*
X219899666Y-99899722D01*
X219909659Y-99983075D01*
X219914646Y-100072841D01*
X219914313Y-100161155D01*
X219908351Y-100240149D01*
X219902638Y-100276378D01*
X219864776Y-100416397D01*
X219809932Y-100542822D01*
X219738924Y-100654740D01*
X219652568Y-100751238D01*
X219551679Y-100831400D01*
X219437076Y-100894313D01*
X219310984Y-100938688D01*
X219254401Y-100951022D01*
X219192202Y-100958632D01*
X219117363Y-100962261D01*
X219083467Y-100962755D01*
X219080282Y-100962690D01*
X218989712Y-100960822D01*
X218910812Y-100952478D01*
X218839590Y-100936232D01*
X218768864Y-100910595D01*
X218716493Y-100886599D01*
X218621196Y-100827980D01*
X218533170Y-100749883D01*
X218454017Y-100654685D01*
X218385340Y-100544762D01*
X218328741Y-100422490D01*
X218285821Y-100290245D01*
X218270882Y-100225578D01*
X218248777Y-100089396D01*
X218234194Y-99940951D01*
X218227813Y-99789495D01*
X218229110Y-99688894D01*
X218751842Y-99688894D01*
X218757096Y-99809670D01*
X218773263Y-99912340D01*
X218800961Y-99998894D01*
X218840808Y-100071319D01*
X218887758Y-100126249D01*
X218945645Y-100170796D01*
X219008693Y-100195520D01*
X219080282Y-100202752D01*
X219155333Y-100193459D01*
X219219160Y-100165272D01*
X219274798Y-100116803D01*
X219279211Y-100111746D01*
X219314037Y-100063452D01*
X219336620Y-100011743D01*
X219348540Y-99951011D01*
X219351383Y-99875648D01*
X219350978Y-99857541D01*
X219348325Y-99803722D01*
X219342909Y-99763692D01*
X219332745Y-99728676D01*
X219315850Y-99689897D01*
X219310672Y-99679255D01*
X219274844Y-99618604D01*
X219232212Y-99571785D01*
X219216973Y-99559048D01*
X219160462Y-99514378D01*
X218964586Y-99514378D01*
X218885939Y-99514914D01*
X218827988Y-99516604D01*
X218788875Y-99519572D01*
X218766741Y-99523943D01*
X218760274Y-99528028D01*
X218757111Y-99543953D01*
X218754488Y-99577736D01*
X218752655Y-99624660D01*
X218751857Y-99680007D01*
X218751842Y-99688894D01*
X218229110Y-99688894D01*
X218229445Y-99662936D01*
X218236224Y-99501050D01*
X218177245Y-99508470D01*
X218078092Y-99527762D01*
X217997372Y-99558896D01*
X217934466Y-99602731D01*
X217888756Y-99660129D01*
X217859622Y-99731952D01*
X217846447Y-99819059D01*
X217848611Y-99922314D01*
X217852612Y-99960289D01*
X217877780Y-100101480D01*
X217918814Y-100238293D01*
X217956815Y-100332822D01*
X217976190Y-100377982D01*
X217991760Y-100416415D01*
X218001405Y-100442766D01*
X218003452Y-100450454D01*
X217994374Y-100460198D01*
X217965405Y-100476917D01*
X217916217Y-100500768D01*
X217846484Y-100531907D01*
X217755879Y-100570493D01*
X217740089Y-100577090D01*
X217667772Y-100607147D01*
X217602425Y-100634126D01*
X217546906Y-100656864D01*
X217504072Y-100674194D01*
X217476781Y-100684952D01*
X217467942Y-100688059D01*
X217463187Y-100678060D01*
X217457910Y-100651783D01*
X217454231Y-100623511D01*
X217449474Y-100593354D01*
X217440028Y-100545567D01*
X217426820Y-100484388D01*
X217410776Y-100414054D01*
X217392820Y-100338806D01*
X217385797Y-100310245D01*
X217360209Y-100205184D01*
X217340147Y-100117520D01*
X217324969Y-100042932D01*
X217314035Y-99977097D01*
X217306704Y-99915693D01*
X217302335Y-99854398D01*
X217300287Y-99788890D01*
X217299889Y-99730872D01*
X217306552Y-99561426D01*
X217326567Y-99409508D01*
X217360202Y-99274244D01*
X217407725Y-99154761D01*
X217469405Y-99050185D01*
X217532965Y-98972576D01*
X217607099Y-98903735D01*
X217686871Y-98849994D01*
X217779091Y-98807090D01*
X217822161Y-98791616D01*
X217861142Y-98778756D01*
X217897289Y-98767554D01*
X217932434Y-98757880D01*
X217968410Y-98749604D01*
X218007050Y-98742597D01*
X218050185Y-98736728D01*
X218099649Y-98731869D01*
X218157273Y-98727890D01*
X218224891Y-98724660D01*
X218304334Y-98722051D01*
X218397436Y-98719933D01*
X218506027Y-98718176D01*
X218631942Y-98716651D01*
X218777012Y-98715228D01*
X218919778Y-98713975D01*
X219075968Y-98712649D01*
X219211239Y-98711444D01*
X219327246Y-98710234D01*
X219425645Y-98708894D01*
X219508093Y-98707300D01*
X219576246Y-98705325D01*
X219631760Y-98702844D01*
X219676292Y-98699731D01*
X219711498Y-98695862D01*
X219739034Y-98691111D01*
X219760556Y-98685352D01*
X219777722Y-98678461D01*
X219792186Y-98670311D01*
X219805606Y-98660777D01*
X219819638Y-98649734D01*
X219825071Y-98645434D01*
X219847910Y-98629614D01*
X219863463Y-98622578D01*
X219863922Y-98622556D01*
X219866121Y-98633433D01*
G37*
X218362739Y-103792876D02*
X218603241Y-103792908D01*
X218823048Y-103792972D01*
X219023101Y-103793076D01*
X219204344Y-103793227D01*
X219367716Y-103793434D01*
X219514160Y-103793706D01*
X219644617Y-103794050D01*
X219760029Y-103794474D01*
X219861338Y-103794987D01*
X219949484Y-103795597D01*
X220025410Y-103796312D01*
X220090057Y-103797140D01*
X220144367Y-103798089D01*
X220189280Y-103799167D01*
X220225740Y-103800383D01*
X220254687Y-103801745D01*
X220277063Y-103803261D01*
X220293809Y-103804938D01*
X220305868Y-103806786D01*
X220314180Y-103808813D01*
X220319687Y-103811025D01*
X220321537Y-103812108D01*
X220328549Y-103816271D01*
X220334996Y-103819805D01*
X220340900Y-103823635D01*
X220346286Y-103828682D01*
X220351178Y-103835871D01*
X220355598Y-103846123D01*
X220359572Y-103860364D01*
X220363121Y-103879514D01*
X220366270Y-103904499D01*
X220369042Y-103936240D01*
X220371461Y-103975662D01*
X220373551Y-104023686D01*
X220375335Y-104081237D01*
X220376837Y-104149237D01*
X220378080Y-104228610D01*
X220379089Y-104320279D01*
X220379885Y-104425166D01*
X220380494Y-104544196D01*
X220380939Y-104678290D01*
X220381243Y-104828373D01*
X220381430Y-104995367D01*
X220381524Y-105180196D01*
X220381548Y-105383783D01*
X220381525Y-105607050D01*
X220381480Y-105850922D01*
X220381437Y-106116321D01*
X220381432Y-106154704D01*
X220381389Y-106421682D01*
X220381318Y-106667002D01*
X220381213Y-106891583D01*
X220381066Y-107096345D01*
X220380869Y-107282206D01*
X220380616Y-107450088D01*
X220380300Y-107600908D01*
X220379913Y-107735587D01*
X220379447Y-107855044D01*
X220378897Y-107960199D01*
X220378253Y-108051971D01*
X220377511Y-108131279D01*
X220376661Y-108199043D01*
X220375697Y-108256182D01*
X220374611Y-108303617D01*
X220373397Y-108342266D01*
X220372047Y-108373049D01*
X220370555Y-108396885D01*
X220368911Y-108414694D01*
X220367111Y-108427395D01*
X220365145Y-108435908D01*
X220363477Y-108440266D01*
X220359906Y-108448728D01*
X220357270Y-108456497D01*
X220354634Y-108463602D01*
X220351062Y-108470073D01*
X220345621Y-108475939D01*
X220337375Y-108481229D01*
X220325390Y-108485974D01*
X220308731Y-108490202D01*
X220286463Y-108493943D01*
X220257652Y-108497227D01*
X220221363Y-108500083D01*
X220176661Y-108502540D01*
X220122611Y-108504629D01*
X220058279Y-108506378D01*
X219982730Y-108507817D01*
X219895030Y-108508976D01*
X219794243Y-108509883D01*
X219679434Y-108510569D01*
X219549670Y-108511063D01*
X219404015Y-108511395D01*
X219241535Y-108511593D01*
X219061295Y-108511687D01*
X218862360Y-108511708D01*
X218643796Y-108511685D01*
X218404668Y-108511646D01*
X218144040Y-108511622D01*
X218101889Y-108511622D01*
X217838992Y-108511636D01*
X217597732Y-108511661D01*
X217377165Y-108511671D01*
X217176352Y-108511642D01*
X216994349Y-108511548D01*
X216830216Y-108511362D01*
X216683011Y-108511059D01*
X216551792Y-108510614D01*
X216441867Y-108510034D01*
X216435617Y-108510001D01*
X216333544Y-108509195D01*
X216244633Y-108508170D01*
X216167941Y-108506900D01*
X216102527Y-108505360D01*
X216047449Y-108503524D01*
X216001765Y-108501367D01*
X215964534Y-108498863D01*
X215934813Y-108495987D01*
X215911662Y-108492713D01*
X215894139Y-108489015D01*
X215881301Y-108484869D01*
X215872208Y-108480247D01*
X215865918Y-108475126D01*
X215861488Y-108469478D01*
X215857978Y-108463279D01*
X215854445Y-108456504D01*
X215850876Y-108450508D01*
X215848300Y-108445275D01*
X215845972Y-108437099D01*
X215843878Y-108424886D01*
X215842007Y-108407541D01*
X215840347Y-108383969D01*
X215838884Y-108353077D01*
X215837608Y-108313768D01*
X215836504Y-108264950D01*
X215835561Y-108205527D01*
X215834767Y-108134404D01*
X215834109Y-108050488D01*
X215833575Y-107952683D01*
X215833153Y-107839894D01*
X215832829Y-107711029D01*
X215832592Y-107564991D01*
X215832430Y-107400686D01*
X215832330Y-107217020D01*
X215832280Y-107012897D01*
X215832267Y-106801753D01*
X215832267Y-106409116D01*
X216441867Y-106409116D01*
X216489844Y-106403827D01*
X216547188Y-106407130D01*
X216615463Y-106428661D01*
X216695212Y-106468635D01*
X216767495Y-106513943D01*
X216790140Y-106530161D01*
X216827696Y-106558214D01*
X216878021Y-106596430D01*
X216938973Y-106643137D01*
X217008411Y-106696661D01*
X217084194Y-106755331D01*
X217164180Y-106817475D01*
X217246228Y-106881421D01*
X217328196Y-106945495D01*
X217407943Y-107008027D01*
X217483327Y-107067343D01*
X217552207Y-107121771D01*
X217612442Y-107169639D01*
X217661889Y-107209275D01*
X217698408Y-107239006D01*
X217719858Y-107257161D01*
X217723156Y-107260220D01*
X217715149Y-107263079D01*
X217684855Y-107265293D01*
X217632556Y-107266857D01*
X217558531Y-107267767D01*
X217463063Y-107268020D01*
X217346434Y-107267613D01*
X217226445Y-107266704D01*
X217094333Y-107265382D01*
X216982594Y-107263857D01*
X216889025Y-107261881D01*
X216811419Y-107259206D01*
X216747574Y-107255582D01*
X216695283Y-107250761D01*
X216652344Y-107244494D01*
X216616551Y-107236532D01*
X216585700Y-107226627D01*
X216557586Y-107214531D01*
X216530005Y-107199993D01*
X216504966Y-107185311D01*
X216441867Y-107147314D01*
X216441867Y-108207197D01*
X216499711Y-108167407D01*
X216515479Y-108156236D01*
X216529441Y-108146166D01*
X216542784Y-108137138D01*
X216556693Y-108129097D01*
X216572356Y-108121986D01*
X216590958Y-108115747D01*
X216613686Y-108110325D01*
X216641727Y-108105662D01*
X216676267Y-108101701D01*
X216718492Y-108098385D01*
X216769589Y-108095659D01*
X216830744Y-108093464D01*
X216903144Y-108091745D01*
X216987975Y-108090444D01*
X217086422Y-108089505D01*
X217199674Y-108088870D01*
X217328916Y-108088484D01*
X217475334Y-108088288D01*
X217640116Y-108088227D01*
X217824447Y-108088243D01*
X218029513Y-108088280D01*
X218152133Y-108088289D01*
X218369082Y-108088265D01*
X218564642Y-108088231D01*
X218739999Y-108088243D01*
X218896341Y-108088358D01*
X219034857Y-108088630D01*
X219156734Y-108089118D01*
X219263160Y-108089876D01*
X219355322Y-108090962D01*
X219434409Y-108092431D01*
X219501608Y-108094340D01*
X219558107Y-108096744D01*
X219605093Y-108099701D01*
X219643755Y-108103266D01*
X219675280Y-108107495D01*
X219700855Y-108112446D01*
X219721670Y-108118173D01*
X219738911Y-108124733D01*
X219753765Y-108132183D01*
X219767422Y-108140579D01*
X219781069Y-108149976D01*
X219795893Y-108160432D01*
X219804783Y-108166523D01*
X219862400Y-108205296D01*
X219862400Y-107673732D01*
X219862365Y-107550483D01*
X219862215Y-107447987D01*
X219861878Y-107364420D01*
X219861286Y-107297956D01*
X219860367Y-107246771D01*
X219859051Y-107209041D01*
X219857269Y-107182940D01*
X219854951Y-107166644D01*
X219852026Y-107158328D01*
X219848424Y-107156168D01*
X219844075Y-107158339D01*
X219842645Y-107159535D01*
X219805573Y-107184685D01*
X219752772Y-107210583D01*
X219690770Y-107234192D01*
X219664357Y-107242461D01*
X219646416Y-107247078D01*
X219625355Y-107250979D01*
X219599089Y-107254248D01*
X219565532Y-107256966D01*
X219522599Y-107259215D01*
X219468204Y-107261077D01*
X219400262Y-107262636D01*
X219316688Y-107263972D01*
X219215395Y-107265169D01*
X219094300Y-107266308D01*
X219049600Y-107266685D01*
X218924449Y-107267702D01*
X218820082Y-107268460D01*
X218734707Y-107268903D01*
X218666533Y-107268970D01*
X218613765Y-107268605D01*
X218574614Y-107267748D01*
X218547285Y-107266341D01*
X218529986Y-107264325D01*
X218520926Y-107261643D01*
X218518312Y-107258236D01*
X218520351Y-107254044D01*
X218524667Y-107249571D01*
X218537602Y-107239216D01*
X218566676Y-107217158D01*
X218609759Y-107184957D01*
X218664718Y-107144174D01*
X218729423Y-107096370D01*
X218801742Y-107043105D01*
X218879544Y-106985940D01*
X218960698Y-106926437D01*
X219043072Y-106866155D01*
X219124536Y-106806655D01*
X219202957Y-106749498D01*
X219276204Y-106696245D01*
X219342147Y-106648457D01*
X219398654Y-106607693D01*
X219443593Y-106575516D01*
X219474834Y-106553485D01*
X219481466Y-106548917D01*
X219518369Y-106525996D01*
X219566359Y-106499188D01*
X219615897Y-106473789D01*
X219622577Y-106470568D01*
X219670772Y-106448890D01*
X219708334Y-106436304D01*
X219744160Y-106430574D01*
X219786200Y-106429456D01*
X219862400Y-106430090D01*
X219862400Y-105275651D01*
X219768669Y-105366815D01*
X219718775Y-105413612D01*
X219662295Y-105463899D01*
X219608026Y-105509944D01*
X219582673Y-105530369D01*
X219543128Y-105560807D01*
X219489916Y-105600862D01*
X219424667Y-105649361D01*
X219349011Y-105705135D01*
X219264577Y-105767011D01*
X219172994Y-105833819D01*
X219075892Y-105904387D01*
X218974901Y-105977545D01*
X218871650Y-106052121D01*
X218767768Y-106126944D01*
X218664885Y-106200843D01*
X218564631Y-106272646D01*
X218468636Y-106341184D01*
X218378527Y-106405284D01*
X218295936Y-106463775D01*
X218222492Y-106515486D01*
X218159824Y-106559247D01*
X218109561Y-106593885D01*
X218073334Y-106618230D01*
X218052771Y-106631111D01*
X218048668Y-106632869D01*
X218037342Y-106624910D01*
X218010162Y-106604115D01*
X217968829Y-106571847D01*
X217915044Y-106529470D01*
X217850506Y-106478347D01*
X217776918Y-106419841D01*
X217695978Y-106355314D01*
X217609388Y-106286131D01*
X217518848Y-106213653D01*
X217426060Y-106139246D01*
X217351702Y-106079517D01*
X217332722Y-106064270D01*
X217240537Y-105990090D01*
X217151204Y-105918069D01*
X217066424Y-105849569D01*
X216987898Y-105785955D01*
X216917326Y-105728588D01*
X216856409Y-105678833D01*
X216806847Y-105638052D01*
X216786178Y-105620888D01*
X216685516Y-105534596D01*
X216602259Y-105457997D01*
X216534438Y-105389183D01*
X216480089Y-105326248D01*
X216472722Y-105316867D01*
X216442117Y-105277356D01*
X216441867Y-106409116D01*
X215832267Y-106409116D01*
X215832267Y-105181400D01*
X215929054Y-105181400D01*
X216042993Y-105170535D01*
X216150616Y-105138918D01*
X216249615Y-105088015D01*
X216337684Y-105019293D01*
X216412516Y-104934219D01*
X216470384Y-104837232D01*
X216510005Y-104730964D01*
X216528573Y-104623950D01*
X216527434Y-104518300D01*
X216507930Y-104416125D01*
X216471406Y-104319534D01*
X216419205Y-104230638D01*
X216374249Y-104177195D01*
X217344978Y-104177195D01*
X217344978Y-104622853D01*
X217345142Y-104720670D01*
X217345611Y-104811064D01*
X217346347Y-104891630D01*
X217347316Y-104959962D01*
X217348480Y-105013656D01*
X217349803Y-105050305D01*
X217351249Y-105067504D01*
X217351702Y-105068511D01*
X217364659Y-105062602D01*
X217386908Y-105048272D01*
X217388391Y-105047225D01*
X217418544Y-105028438D01*
X217455375Y-105008791D01*
X217463511Y-105004892D01*
X217471940Y-105001356D01*
X217482059Y-104998230D01*
X217495260Y-104995486D01*
X217512938Y-104993092D01*
X217536484Y-104991019D01*
X217567293Y-104989235D01*
X217606757Y-104987712D01*
X217656269Y-104986419D01*
X217717223Y-104985326D01*
X217791011Y-104984403D01*
X217879028Y-104983619D01*
X217982665Y-104982945D01*
X218103316Y-104982350D01*
X218242374Y-104981805D01*
X218401232Y-104981279D01*
X218580089Y-104980745D01*
X218765207Y-104980206D01*
X218929145Y-104979772D01*
X219073303Y-104979509D01*
X219199079Y-104979484D01*
X219307871Y-104979765D01*
X219401077Y-104980419D01*
X219480097Y-104981514D01*
X219546328Y-104983118D01*
X219601170Y-104985297D01*
X219646021Y-104988119D01*
X219682278Y-104991651D01*
X219711341Y-104995961D01*
X219734609Y-105001117D01*
X219753479Y-105007185D01*
X219769351Y-105014233D01*
X219783622Y-105022329D01*
X219797691Y-105031540D01*
X219810158Y-105040040D01*
X219836452Y-105057176D01*
X219854037Y-105067322D01*
X219857257Y-105068511D01*
X219858334Y-105057604D01*
X219859335Y-105026411D01*
X219860235Y-104977223D01*
X219861010Y-104912333D01*
X219861637Y-104834030D01*
X219862091Y-104744607D01*
X219862349Y-104646356D01*
X219862400Y-104577445D01*
X219862180Y-104472452D01*
X219861548Y-104375610D01*
X219860549Y-104289107D01*
X219859227Y-104215132D01*
X219857626Y-104155874D01*
X219855791Y-104113520D01*
X219853765Y-104090260D01*
X219852493Y-104086378D01*
X219837591Y-104094076D01*
X219829560Y-104102074D01*
X219812434Y-104115246D01*
X219782183Y-104132485D01*
X219757622Y-104144407D01*
X219698711Y-104171045D01*
X218521845Y-104174120D01*
X217344978Y-104177195D01*
X216374249Y-104177195D01*
X216352673Y-104151546D01*
X216273152Y-104084369D01*
X216181987Y-104031217D01*
X216080523Y-103994199D01*
X215970102Y-103975427D01*
X215920206Y-103973489D01*
X215832267Y-103973489D01*
X215832267Y-103921560D01*
X215835111Y-103885253D01*
X215846911Y-103858355D01*
X215870649Y-103831249D01*
X215909031Y-103792867D01*
X218100602Y-103792867D01*
X218362739Y-103792876D01*
G36*
X218362739Y-103792876D02*
G01*
X218603241Y-103792908D01*
X218823048Y-103792972D01*
X219023101Y-103793076D01*
X219204344Y-103793227D01*
X219367716Y-103793434D01*
X219514160Y-103793706D01*
X219644617Y-103794050D01*
X219760029Y-103794474D01*
X219861338Y-103794987D01*
X219949484Y-103795597D01*
X220025410Y-103796312D01*
X220090057Y-103797140D01*
X220144367Y-103798089D01*
X220189280Y-103799167D01*
X220225740Y-103800383D01*
X220254687Y-103801745D01*
X220277063Y-103803261D01*
X220293809Y-103804938D01*
X220305868Y-103806786D01*
X220314180Y-103808813D01*
X220319687Y-103811025D01*
X220321537Y-103812108D01*
X220328549Y-103816271D01*
X220334996Y-103819805D01*
X220340900Y-103823635D01*
X220346286Y-103828682D01*
X220351178Y-103835871D01*
X220355598Y-103846123D01*
X220359572Y-103860364D01*
X220363121Y-103879514D01*
X220366270Y-103904499D01*
X220369042Y-103936240D01*
X220371461Y-103975662D01*
X220373551Y-104023686D01*
X220375335Y-104081237D01*
X220376837Y-104149237D01*
X220378080Y-104228610D01*
X220379089Y-104320279D01*
X220379885Y-104425166D01*
X220380494Y-104544196D01*
X220380939Y-104678290D01*
X220381243Y-104828373D01*
X220381430Y-104995367D01*
X220381524Y-105180196D01*
X220381548Y-105383783D01*
X220381525Y-105607050D01*
X220381480Y-105850922D01*
X220381437Y-106116321D01*
X220381432Y-106154704D01*
X220381389Y-106421682D01*
X220381318Y-106667002D01*
X220381213Y-106891583D01*
X220381066Y-107096345D01*
X220380869Y-107282206D01*
X220380616Y-107450088D01*
X220380300Y-107600908D01*
X220379913Y-107735587D01*
X220379447Y-107855044D01*
X220378897Y-107960199D01*
X220378253Y-108051971D01*
X220377511Y-108131279D01*
X220376661Y-108199043D01*
X220375697Y-108256182D01*
X220374611Y-108303617D01*
X220373397Y-108342266D01*
X220372047Y-108373049D01*
X220370555Y-108396885D01*
X220368911Y-108414694D01*
X220367111Y-108427395D01*
X220365145Y-108435908D01*
X220363477Y-108440266D01*
X220359906Y-108448728D01*
X220357270Y-108456497D01*
X220354634Y-108463602D01*
X220351062Y-108470073D01*
X220345621Y-108475939D01*
X220337375Y-108481229D01*
X220325390Y-108485974D01*
X220308731Y-108490202D01*
X220286463Y-108493943D01*
X220257652Y-108497227D01*
X220221363Y-108500083D01*
X220176661Y-108502540D01*
X220122611Y-108504629D01*
X220058279Y-108506378D01*
X219982730Y-108507817D01*
X219895030Y-108508976D01*
X219794243Y-108509883D01*
X219679434Y-108510569D01*
X219549670Y-108511063D01*
X219404015Y-108511395D01*
X219241535Y-108511593D01*
X219061295Y-108511687D01*
X218862360Y-108511708D01*
X218643796Y-108511685D01*
X218404668Y-108511646D01*
X218144040Y-108511622D01*
X218101889Y-108511622D01*
X217838992Y-108511636D01*
X217597732Y-108511661D01*
X217377165Y-108511671D01*
X217176352Y-108511642D01*
X216994349Y-108511548D01*
X216830216Y-108511362D01*
X216683011Y-108511059D01*
X216551792Y-108510614D01*
X216441867Y-108510034D01*
X216435617Y-108510001D01*
X216333544Y-108509195D01*
X216244633Y-108508170D01*
X216167941Y-108506900D01*
X216102527Y-108505360D01*
X216047449Y-108503524D01*
X216001765Y-108501367D01*
X215964534Y-108498863D01*
X215934813Y-108495987D01*
X215911662Y-108492713D01*
X215894139Y-108489015D01*
X215881301Y-108484869D01*
X215872208Y-108480247D01*
X215865918Y-108475126D01*
X215861488Y-108469478D01*
X215857978Y-108463279D01*
X215854445Y-108456504D01*
X215850876Y-108450508D01*
X215848300Y-108445275D01*
X215845972Y-108437099D01*
X215843878Y-108424886D01*
X215842007Y-108407541D01*
X215840347Y-108383969D01*
X215838884Y-108353077D01*
X215837608Y-108313768D01*
X215836504Y-108264950D01*
X215835561Y-108205527D01*
X215834767Y-108134404D01*
X215834109Y-108050488D01*
X215833575Y-107952683D01*
X215833153Y-107839894D01*
X215832829Y-107711029D01*
X215832592Y-107564991D01*
X215832430Y-107400686D01*
X215832330Y-107217020D01*
X215832280Y-107012897D01*
X215832267Y-106801753D01*
X215832267Y-106409116D01*
X216441867Y-106409116D01*
X216489844Y-106403827D01*
X216547188Y-106407130D01*
X216615463Y-106428661D01*
X216695212Y-106468635D01*
X216767495Y-106513943D01*
X216790140Y-106530161D01*
X216827696Y-106558214D01*
X216878021Y-106596430D01*
X216938973Y-106643137D01*
X217008411Y-106696661D01*
X217084194Y-106755331D01*
X217164180Y-106817475D01*
X217246228Y-106881421D01*
X217328196Y-106945495D01*
X217407943Y-107008027D01*
X217483327Y-107067343D01*
X217552207Y-107121771D01*
X217612442Y-107169639D01*
X217661889Y-107209275D01*
X217698408Y-107239006D01*
X217719858Y-107257161D01*
X217723156Y-107260220D01*
X217715149Y-107263079D01*
X217684855Y-107265293D01*
X217632556Y-107266857D01*
X217558531Y-107267767D01*
X217463063Y-107268020D01*
X217346434Y-107267613D01*
X217226445Y-107266704D01*
X217094333Y-107265382D01*
X216982594Y-107263857D01*
X216889025Y-107261881D01*
X216811419Y-107259206D01*
X216747574Y-107255582D01*
X216695283Y-107250761D01*
X216652344Y-107244494D01*
X216616551Y-107236532D01*
X216585700Y-107226627D01*
X216557586Y-107214531D01*
X216530005Y-107199993D01*
X216504966Y-107185311D01*
X216441867Y-107147314D01*
X216441867Y-108207197D01*
X216499711Y-108167407D01*
X216515479Y-108156236D01*
X216529441Y-108146166D01*
X216542784Y-108137138D01*
X216556693Y-108129097D01*
X216572356Y-108121986D01*
X216590958Y-108115747D01*
X216613686Y-108110325D01*
X216641727Y-108105662D01*
X216676267Y-108101701D01*
X216718492Y-108098385D01*
X216769589Y-108095659D01*
X216830744Y-108093464D01*
X216903144Y-108091745D01*
X216987975Y-108090444D01*
X217086422Y-108089505D01*
X217199674Y-108088870D01*
X217328916Y-108088484D01*
X217475334Y-108088288D01*
X217640116Y-108088227D01*
X217824447Y-108088243D01*
X218029513Y-108088280D01*
X218152133Y-108088289D01*
X218369082Y-108088265D01*
X218564642Y-108088231D01*
X218739999Y-108088243D01*
X218896341Y-108088358D01*
X219034857Y-108088630D01*
X219156734Y-108089118D01*
X219263160Y-108089876D01*
X219355322Y-108090962D01*
X219434409Y-108092431D01*
X219501608Y-108094340D01*
X219558107Y-108096744D01*
X219605093Y-108099701D01*
X219643755Y-108103266D01*
X219675280Y-108107495D01*
X219700855Y-108112446D01*
X219721670Y-108118173D01*
X219738911Y-108124733D01*
X219753765Y-108132183D01*
X219767422Y-108140579D01*
X219781069Y-108149976D01*
X219795893Y-108160432D01*
X219804783Y-108166523D01*
X219862400Y-108205296D01*
X219862400Y-107673732D01*
X219862365Y-107550483D01*
X219862215Y-107447987D01*
X219861878Y-107364420D01*
X219861286Y-107297956D01*
X219860367Y-107246771D01*
X219859051Y-107209041D01*
X219857269Y-107182940D01*
X219854951Y-107166644D01*
X219852026Y-107158328D01*
X219848424Y-107156168D01*
X219844075Y-107158339D01*
X219842645Y-107159535D01*
X219805573Y-107184685D01*
X219752772Y-107210583D01*
X219690770Y-107234192D01*
X219664357Y-107242461D01*
X219646416Y-107247078D01*
X219625355Y-107250979D01*
X219599089Y-107254248D01*
X219565532Y-107256966D01*
X219522599Y-107259215D01*
X219468204Y-107261077D01*
X219400262Y-107262636D01*
X219316688Y-107263972D01*
X219215395Y-107265169D01*
X219094300Y-107266308D01*
X219049600Y-107266685D01*
X218924449Y-107267702D01*
X218820082Y-107268460D01*
X218734707Y-107268903D01*
X218666533Y-107268970D01*
X218613765Y-107268605D01*
X218574614Y-107267748D01*
X218547285Y-107266341D01*
X218529986Y-107264325D01*
X218520926Y-107261643D01*
X218518312Y-107258236D01*
X218520351Y-107254044D01*
X218524667Y-107249571D01*
X218537602Y-107239216D01*
X218566676Y-107217158D01*
X218609759Y-107184957D01*
X218664718Y-107144174D01*
X218729423Y-107096370D01*
X218801742Y-107043105D01*
X218879544Y-106985940D01*
X218960698Y-106926437D01*
X219043072Y-106866155D01*
X219124536Y-106806655D01*
X219202957Y-106749498D01*
X219276204Y-106696245D01*
X219342147Y-106648457D01*
X219398654Y-106607693D01*
X219443593Y-106575516D01*
X219474834Y-106553485D01*
X219481466Y-106548917D01*
X219518369Y-106525996D01*
X219566359Y-106499188D01*
X219615897Y-106473789D01*
X219622577Y-106470568D01*
X219670772Y-106448890D01*
X219708334Y-106436304D01*
X219744160Y-106430574D01*
X219786200Y-106429456D01*
X219862400Y-106430090D01*
X219862400Y-105275651D01*
X219768669Y-105366815D01*
X219718775Y-105413612D01*
X219662295Y-105463899D01*
X219608026Y-105509944D01*
X219582673Y-105530369D01*
X219543128Y-105560807D01*
X219489916Y-105600862D01*
X219424667Y-105649361D01*
X219349011Y-105705135D01*
X219264577Y-105767011D01*
X219172994Y-105833819D01*
X219075892Y-105904387D01*
X218974901Y-105977545D01*
X218871650Y-106052121D01*
X218767768Y-106126944D01*
X218664885Y-106200843D01*
X218564631Y-106272646D01*
X218468636Y-106341184D01*
X218378527Y-106405284D01*
X218295936Y-106463775D01*
X218222492Y-106515486D01*
X218159824Y-106559247D01*
X218109561Y-106593885D01*
X218073334Y-106618230D01*
X218052771Y-106631111D01*
X218048668Y-106632869D01*
X218037342Y-106624910D01*
X218010162Y-106604115D01*
X217968829Y-106571847D01*
X217915044Y-106529470D01*
X217850506Y-106478347D01*
X217776918Y-106419841D01*
X217695978Y-106355314D01*
X217609388Y-106286131D01*
X217518848Y-106213653D01*
X217426060Y-106139246D01*
X217351702Y-106079517D01*
X217332722Y-106064270D01*
X217240537Y-105990090D01*
X217151204Y-105918069D01*
X217066424Y-105849569D01*
X216987898Y-105785955D01*
X216917326Y-105728588D01*
X216856409Y-105678833D01*
X216806847Y-105638052D01*
X216786178Y-105620888D01*
X216685516Y-105534596D01*
X216602259Y-105457997D01*
X216534438Y-105389183D01*
X216480089Y-105326248D01*
X216472722Y-105316867D01*
X216442117Y-105277356D01*
X216441867Y-106409116D01*
X215832267Y-106409116D01*
X215832267Y-105181400D01*
X215929054Y-105181400D01*
X216042993Y-105170535D01*
X216150616Y-105138918D01*
X216249615Y-105088015D01*
X216337684Y-105019293D01*
X216412516Y-104934219D01*
X216470384Y-104837232D01*
X216510005Y-104730964D01*
X216528573Y-104623950D01*
X216527434Y-104518300D01*
X216507930Y-104416125D01*
X216471406Y-104319534D01*
X216419205Y-104230638D01*
X216374249Y-104177195D01*
X217344978Y-104177195D01*
X217344978Y-104622853D01*
X217345142Y-104720670D01*
X217345611Y-104811064D01*
X217346347Y-104891630D01*
X217347316Y-104959962D01*
X217348480Y-105013656D01*
X217349803Y-105050305D01*
X217351249Y-105067504D01*
X217351702Y-105068511D01*
X217364659Y-105062602D01*
X217386908Y-105048272D01*
X217388391Y-105047225D01*
X217418544Y-105028438D01*
X217455375Y-105008791D01*
X217463511Y-105004892D01*
X217471940Y-105001356D01*
X217482059Y-104998230D01*
X217495260Y-104995486D01*
X217512938Y-104993092D01*
X217536484Y-104991019D01*
X217567293Y-104989235D01*
X217606757Y-104987712D01*
X217656269Y-104986419D01*
X217717223Y-104985326D01*
X217791011Y-104984403D01*
X217879028Y-104983619D01*
X217982665Y-104982945D01*
X218103316Y-104982350D01*
X218242374Y-104981805D01*
X218401232Y-104981279D01*
X218580089Y-104980745D01*
X218765207Y-104980206D01*
X218929145Y-104979772D01*
X219073303Y-104979509D01*
X219199079Y-104979484D01*
X219307871Y-104979765D01*
X219401077Y-104980419D01*
X219480097Y-104981514D01*
X219546328Y-104983118D01*
X219601170Y-104985297D01*
X219646021Y-104988119D01*
X219682278Y-104991651D01*
X219711341Y-104995961D01*
X219734609Y-105001117D01*
X219753479Y-105007185D01*
X219769351Y-105014233D01*
X219783622Y-105022329D01*
X219797691Y-105031540D01*
X219810158Y-105040040D01*
X219836452Y-105057176D01*
X219854037Y-105067322D01*
X219857257Y-105068511D01*
X219858334Y-105057604D01*
X219859335Y-105026411D01*
X219860235Y-104977223D01*
X219861010Y-104912333D01*
X219861637Y-104834030D01*
X219862091Y-104744607D01*
X219862349Y-104646356D01*
X219862400Y-104577445D01*
X219862180Y-104472452D01*
X219861548Y-104375610D01*
X219860549Y-104289107D01*
X219859227Y-104215132D01*
X219857626Y-104155874D01*
X219855791Y-104113520D01*
X219853765Y-104090260D01*
X219852493Y-104086378D01*
X219837591Y-104094076D01*
X219829560Y-104102074D01*
X219812434Y-104115246D01*
X219782183Y-104132485D01*
X219757622Y-104144407D01*
X219698711Y-104171045D01*
X218521845Y-104174120D01*
X217344978Y-104177195D01*
X216374249Y-104177195D01*
X216352673Y-104151546D01*
X216273152Y-104084369D01*
X216181987Y-104031217D01*
X216080523Y-103994199D01*
X215970102Y-103975427D01*
X215920206Y-103973489D01*
X215832267Y-103973489D01*
X215832267Y-103921560D01*
X215835111Y-103885253D01*
X215846911Y-103858355D01*
X215870649Y-103831249D01*
X215909031Y-103792867D01*
X218100602Y-103792867D01*
X218362739Y-103792876D01*
G37*
%TD*%
%LPC*%
D14*
%TO.C,C1*%
X203397800Y-93965000D03*
X205897800Y-93965000D03*
%TD*%
%TO.C,C2*%
X169545000Y-99675000D03*
X169545000Y-97175000D03*
%TD*%
D15*
%TO.C,DS1*%
X177800000Y-72517000D03*
X180340000Y-72517000D03*
X182880000Y-72517000D03*
X185420000Y-72517000D03*
X187960000Y-72517000D03*
X190500000Y-72517000D03*
X190500000Y-82677000D03*
X187960000Y-82677000D03*
X185420000Y-82677000D03*
X182880000Y-82677000D03*
X180340000Y-82677000D03*
X177800000Y-82677000D03*
%TD*%
D16*
%TO.C,U1*%
X210982800Y-69850000D03*
X210982800Y-72390000D03*
X210982800Y-74930000D03*
X210982800Y-77470000D03*
X210982800Y-80010000D03*
X210982800Y-82550000D03*
X210982800Y-85090000D03*
X210982800Y-87630000D03*
X203362800Y-87630000D03*
X203362800Y-85090000D03*
X203362800Y-82550000D03*
X203362800Y-80010000D03*
X203362800Y-77470000D03*
X203362800Y-74930000D03*
X203362800Y-72390000D03*
D17*
X203362800Y-69850000D03*
%TD*%
D18*
%TO.C,U2*%
X193025000Y-92695000D03*
D19*
X190485000Y-92695000D03*
X187945000Y-92695000D03*
X185405000Y-92695000D03*
X182865000Y-92695000D03*
X180325000Y-92695000D03*
X177785000Y-92695000D03*
X175245000Y-92695000D03*
X175245000Y-100315000D03*
X177785000Y-100315000D03*
X180325000Y-100315000D03*
X182865000Y-100315000D03*
X185405000Y-100315000D03*
X187945000Y-100315000D03*
X190485000Y-100315000D03*
X193025000Y-100315000D03*
%TD*%
D20*
%TO.C,A1*%
X210963184Y-60843385D03*
X209693184Y-109103385D03*
D15*
X196993184Y-60843385D03*
D20*
X158893184Y-93863385D03*
X158893184Y-65923385D03*
D15*
X189373184Y-60843385D03*
X186833184Y-60843385D03*
X158766184Y-88783385D03*
X174133184Y-60843385D03*
X171593184Y-60843385D03*
X169053184Y-60843385D03*
X166513184Y-60843385D03*
X163973184Y-60843385D03*
X161433184Y-60843385D03*
X201057184Y-109103385D03*
X161433184Y-109103385D03*
X163973184Y-109103385D03*
X166513184Y-109103385D03*
X169053184Y-109103385D03*
X171593184Y-109103385D03*
X174133184Y-109103385D03*
X176673184Y-109103385D03*
X179213184Y-109103385D03*
X183277184Y-109103385D03*
X185817184Y-109103385D03*
X188357184Y-109103385D03*
X190897184Y-109103385D03*
X193437184Y-109103385D03*
X195977184Y-109103385D03*
D21*
X198517184Y-109103385D03*
X184293184Y-60843385D03*
X181753184Y-60843385D03*
X158766184Y-83703385D03*
D15*
X194453184Y-60843385D03*
X161306184Y-88783385D03*
X158766184Y-86243385D03*
X191913184Y-60843385D03*
X161306184Y-83703385D03*
X161306184Y-86243385D03*
X206137184Y-109103385D03*
X203597184Y-109103385D03*
X179213184Y-60843385D03*
%TD*%
%LPD*%
M02*
