%TF.GenerationSoftware,KiCad,Pcbnew,8.0.8-8.0.8-0~ubuntu24.04.1*%
%TF.CreationDate,2025-02-16T19:13:55-08:00*%
%TF.ProjectId,simple-counter,73696d70-6c65-42d6-936f-756e7465722e,V1.0*%
%TF.SameCoordinates,Original*%
%TF.FileFunction,Copper,L1,Top*%
%TF.FilePolarity,Positive*%
%FSLAX46Y46*%
G04 Gerber Fmt 4.6, Leading zero omitted, Abs format (unit mm)*
G04 Created by KiCad (PCBNEW 8.0.8-8.0.8-0~ubuntu24.04.1) date 2025-02-16 19:13:55*
%MOMM*%
%LPD*%
G01*
G04 APERTURE LIST*
%TA.AperFunction,ComponentPad*%
%ADD10C,1.600000*%
%TD*%
%TA.AperFunction,ComponentPad*%
%ADD11O,1.524000X1.524000*%
%TD*%
%TA.AperFunction,ComponentPad*%
%ADD12O,2.400000X1.600000*%
%TD*%
%TA.AperFunction,ComponentPad*%
%ADD13R,2.400000X1.600000*%
%TD*%
%TA.AperFunction,ComponentPad*%
%ADD14R,1.600000X2.400000*%
%TD*%
%TA.AperFunction,ComponentPad*%
%ADD15O,1.600000X2.400000*%
%TD*%
%TA.AperFunction,FiducialPad,Global*%
%ADD16O,1.727200X1.727200*%
%TD*%
%TA.AperFunction,ComponentPad*%
%ADD17O,1.727200X1.727200*%
%TD*%
%TA.AperFunction,ComponentPad*%
%ADD18R,1.727200X1.727200*%
%TD*%
%TA.AperFunction,ViaPad*%
%ADD19C,0.600000*%
%TD*%
%TA.AperFunction,Conductor*%
%ADD20C,0.500000*%
%TD*%
%TA.AperFunction,Conductor*%
%ADD21C,0.250000*%
%TD*%
%TA.AperFunction,Conductor*%
%ADD22C,0.200000*%
%TD*%
G04 APERTURE END LIST*
D10*
%TO.P,C1,2*%
%TO.N,GND*%
X203397800Y-93965000D03*
%TO.P,C1,1*%
%TO.N,/+5V*%
X205897800Y-93965000D03*
%TD*%
%TO.P,C2,1*%
%TO.N,/+5V*%
X169545000Y-99675000D03*
%TO.P,C2,2*%
%TO.N,GND*%
X169545000Y-97175000D03*
%TD*%
D11*
%TO.P,DS1,12,D1*%
%TO.N,/QA-D1*%
X177800000Y-72517000D03*
%TO.P,DS1,11,A*%
%TO.N,/QA-A*%
X180340000Y-72517000D03*
%TO.P,DS1,10,F*%
%TO.N,/QF-F*%
X182880000Y-72517000D03*
%TO.P,DS1,9,D2*%
%TO.N,/QB-D2*%
X185420000Y-72517000D03*
%TO.P,DS1,8,D3*%
%TO.N,/QC-D3*%
X187960000Y-72517000D03*
%TO.P,DS1,7,B*%
%TO.N,/QB-B*%
X190500000Y-72517000D03*
%TO.P,DS1,6,D4*%
%TO.N,/QD-D4*%
X190500000Y-82677000D03*
%TO.P,DS1,5,G*%
%TO.N,/QG-G*%
X187960000Y-82677000D03*
%TO.P,DS1,4,C*%
%TO.N,/QC-C*%
X185420000Y-82677000D03*
%TO.P,DS1,3,DP*%
%TO.N,/QH-DP*%
X182880000Y-82677000D03*
%TO.P,DS1,2,D*%
%TO.N,/QD-D*%
X180340000Y-82677000D03*
%TO.P,DS1,1,E*%
%TO.N,/QE-E*%
X177800000Y-82677000D03*
%TD*%
D12*
%TO.P,U1,16,VCC*%
%TO.N,/+5V*%
X210982800Y-69850000D03*
%TO.P,U1,15,QA*%
%TO.N,/QA-D1*%
X210982800Y-72390000D03*
%TO.P,U1,14,SER*%
%TO.N,Net-(U1-SER)*%
X210982800Y-74930000D03*
%TO.P,U1,13,~{OE}*%
%TO.N,GND*%
X210982800Y-77470000D03*
%TO.P,U1,12,RCLK*%
%TO.N,/RCLK*%
X210982800Y-80010000D03*
%TO.P,U1,11,SRCLK*%
%TO.N,/SRCLK*%
X210982800Y-82550000D03*
%TO.P,U1,10,~{SRCLR}*%
%TO.N,/+5V*%
X210982800Y-85090000D03*
%TO.P,U1,9,QH'*%
%TO.N,Net-(U1-QH')*%
X210982800Y-87630000D03*
%TO.P,U1,8,GND*%
%TO.N,GND*%
X203362800Y-87630000D03*
%TO.P,U1,7,QH*%
%TO.N,unconnected-(U1-QH-Pad7)*%
X203362800Y-85090000D03*
%TO.P,U1,6,QG*%
%TO.N,unconnected-(U1-QG-Pad6)*%
X203362800Y-82550000D03*
%TO.P,U1,5,QF*%
%TO.N,unconnected-(U1-QF-Pad5)*%
X203362800Y-80010000D03*
%TO.P,U1,4,QE*%
%TO.N,unconnected-(U1-QE-Pad4)*%
X203362800Y-77470000D03*
%TO.P,U1,3,QD*%
%TO.N,/QD-D4*%
X203362800Y-74930000D03*
%TO.P,U1,2,QC*%
%TO.N,/QC-D3*%
X203362800Y-72390000D03*
D13*
%TO.P,U1,1,QB*%
%TO.N,/QB-D2*%
X203362800Y-69850000D03*
%TD*%
D14*
%TO.P,U2,1,QB*%
%TO.N,/QB-B*%
X193025000Y-92695000D03*
D15*
%TO.P,U2,2,QC*%
%TO.N,/QC-C*%
X190485000Y-92695000D03*
%TO.P,U2,3,QD*%
%TO.N,/QD-D*%
X187945000Y-92695000D03*
%TO.P,U2,4,QE*%
%TO.N,/QE-E*%
X185405000Y-92695000D03*
%TO.P,U2,5,QF*%
%TO.N,/QF-F*%
X182865000Y-92695000D03*
%TO.P,U2,6,QG*%
%TO.N,/QG-G*%
X180325000Y-92695000D03*
%TO.P,U2,7,QH*%
%TO.N,/QH-DP*%
X177785000Y-92695000D03*
%TO.P,U2,8,GND*%
%TO.N,GND*%
X175245000Y-92695000D03*
%TO.P,U2,9,QH'*%
%TO.N,unconnected-(U2-QH'-Pad9)*%
X175245000Y-100315000D03*
%TO.P,U2,10,~{SRCLR}*%
%TO.N,/+5V*%
X177785000Y-100315000D03*
%TO.P,U2,11,SRCLK*%
%TO.N,/SRCLK*%
X180325000Y-100315000D03*
%TO.P,U2,12,RCLK*%
%TO.N,/RCLK*%
X182865000Y-100315000D03*
%TO.P,U2,13,~{OE}*%
%TO.N,GND*%
X185405000Y-100315000D03*
%TO.P,U2,14,SER*%
%TO.N,Net-(U1-QH')*%
X187945000Y-100315000D03*
%TO.P,U2,15,QA*%
%TO.N,/QA-A*%
X190485000Y-100315000D03*
%TO.P,U2,16,VCC*%
%TO.N,/+5V*%
X193025000Y-100315000D03*
%TD*%
D16*
%TO.P,A1,*%
%TO.N,*%
X196993184Y-60843385D03*
D17*
%TO.P,A1,3V3,3.3V*%
%TO.N,unconnected-(A1-3.3V-Pad3V3)*%
X189373184Y-60843385D03*
%TO.P,A1,5V1,5V*%
%TO.N,/+5V*%
X186833184Y-60843385D03*
%TO.P,A1,5V2,SPI_5V*%
%TO.N,unconnected-(A1-SPI_5V-Pad5V2)*%
X158766184Y-88783385D03*
%TO.P,A1,A0,A0*%
%TO.N,unconnected-(A1-PadA0)*%
X174133184Y-60843385D03*
%TO.P,A1,A1,A1*%
%TO.N,unconnected-(A1-PadA1)*%
X171593184Y-60843385D03*
%TO.P,A1,A2,A2*%
%TO.N,unconnected-(A1-PadA2)*%
X169053184Y-60843385D03*
%TO.P,A1,A3,A3*%
%TO.N,unconnected-(A1-PadA3)*%
X166513184Y-60843385D03*
%TO.P,A1,A4,A4*%
%TO.N,unconnected-(A1-PadA4)*%
X163973184Y-60843385D03*
D16*
%TO.P,A1,A5,A5*%
%TO.N,unconnected-(A1-PadA5)*%
X161433184Y-60843385D03*
D17*
%TO.P,A1,AREF,AREF*%
%TO.N,unconnected-(A1-PadAREF)*%
X201057184Y-109103385D03*
D16*
%TO.P,A1,D0,D0/RX*%
%TO.N,unconnected-(A1-D0{slash}RX-PadD0)*%
X161433184Y-109103385D03*
D17*
%TO.P,A1,D1,D1/TX*%
%TO.N,unconnected-(A1-D1{slash}TX-PadD1)*%
X163973184Y-109103385D03*
%TO.P,A1,D2,D2_INT0*%
%TO.N,unconnected-(A1-D2_INT0-PadD2)*%
X166513184Y-109103385D03*
%TO.P,A1,D3,D3_INT1*%
%TO.N,unconnected-(A1-D3_INT1-PadD3)*%
X169053184Y-109103385D03*
%TO.P,A1,D4,D4*%
%TO.N,/RCLK*%
X171593184Y-109103385D03*
%TO.P,A1,D5,D5*%
%TO.N,unconnected-(A1-PadD5)*%
X174133184Y-109103385D03*
%TO.P,A1,D6,D6*%
%TO.N,unconnected-(A1-PadD6)*%
X176673184Y-109103385D03*
%TO.P,A1,D7,D7*%
%TO.N,/SRCLK*%
X179213184Y-109103385D03*
%TO.P,A1,D8,D8*%
%TO.N,Net-(U1-SER)*%
X183277184Y-109103385D03*
%TO.P,A1,D9,D9*%
%TO.N,unconnected-(A1-PadD9)*%
X185817184Y-109103385D03*
%TO.P,A1,D10,D10_CS*%
%TO.N,unconnected-(A1-D10_CS-PadD10)*%
X188357184Y-109103385D03*
%TO.P,A1,D11,D11*%
%TO.N,unconnected-(A1-PadD11)*%
X190897184Y-109103385D03*
%TO.P,A1,D12,D12*%
%TO.N,unconnected-(A1-PadD12)*%
X193437184Y-109103385D03*
%TO.P,A1,D13,D13*%
%TO.N,unconnected-(A1-PadD13)*%
X195977184Y-109103385D03*
D18*
%TO.P,A1,GND1,GND*%
%TO.N,unconnected-(A1-GND-PadGND1)*%
X198517184Y-109103385D03*
%TO.P,A1,GND2,GND*%
%TO.N,GND*%
X184293184Y-60843385D03*
%TO.P,A1,GND3,GND*%
%TO.N,unconnected-(A1-GND-PadGND3)*%
X181753184Y-60843385D03*
%TO.P,A1,GND4,SPI_GND*%
%TO.N,unconnected-(A1-SPI_GND-PadGND4)*%
X158766184Y-83703385D03*
D17*
%TO.P,A1,IORF,IOREF*%
%TO.N,unconnected-(A1-IOREF-PadIORF)*%
X194453184Y-60843385D03*
%TO.P,A1,MISO,SPI_MISO*%
%TO.N,unconnected-(A1-SPI_MISO-PadMISO)*%
X161306184Y-88783385D03*
%TO.P,A1,MOSI,SPI_MOSI*%
%TO.N,unconnected-(A1-SPI_MOSI-PadMOSI)*%
X158766184Y-86243385D03*
%TO.P,A1,RST1,RESET*%
%TO.N,unconnected-(A1-RESET-PadRST1)*%
X191913184Y-60843385D03*
%TO.P,A1,RST2,SPI_RESET*%
%TO.N,unconnected-(A1-SPI_RESET-PadRST2)*%
X161306184Y-83703385D03*
%TO.P,A1,SCK,SPI_SCK*%
%TO.N,unconnected-(A1-SPI_SCK-PadSCK)*%
X161306184Y-86243385D03*
D16*
%TO.P,A1,SCL,SCL*%
%TO.N,unconnected-(A1-PadSCL)*%
X206137184Y-109103385D03*
D17*
%TO.P,A1,SDA,SDA*%
%TO.N,unconnected-(A1-PadSDA)*%
X203597184Y-109103385D03*
%TO.P,A1,VIN,VIN*%
%TO.N,unconnected-(A1-PadVIN)*%
X179213184Y-60843385D03*
%TD*%
D19*
%TO.N,/QA-A*%
X179705000Y-97155000D03*
%TD*%
D20*
%TO.N,/+5V*%
X186833184Y-60843385D02*
X186833184Y-62322725D01*
X186833184Y-62322725D02*
X190918059Y-66407600D01*
X190918059Y-66407600D02*
X213188060Y-66407600D01*
X213188060Y-66407600D02*
X214727100Y-67946640D01*
X214727100Y-67946640D02*
X214727100Y-89046500D01*
X214727100Y-89046500D02*
X209808600Y-93965000D01*
X209808600Y-93965000D02*
X205897800Y-93965000D01*
%TO.N,GND*%
X184293184Y-60843385D02*
X190607399Y-67157600D01*
X190607399Y-67157600D02*
X212877400Y-67157600D01*
X212877400Y-67157600D02*
X213977100Y-68257300D01*
X213977100Y-68257300D02*
X213977100Y-74475700D01*
X213977100Y-74475700D02*
X210982800Y-77470000D01*
D21*
%TO.N,/+5V*%
X172028800Y-102158800D02*
X169545000Y-99675000D01*
D20*
X168285000Y-98415000D02*
X169545000Y-99675000D01*
D21*
X172028800Y-102158800D02*
X191181200Y-102158800D01*
X168285000Y-98415000D02*
X177086600Y-98415000D01*
D20*
X184905799Y-58916000D02*
X186833184Y-60843385D01*
X175006000Y-62534800D02*
X178624800Y-58916000D01*
X167557659Y-62534800D02*
X175006000Y-62534800D01*
X166128000Y-96258000D02*
X166128000Y-63964459D01*
X168285000Y-98415000D02*
X166128000Y-96258000D01*
X166128000Y-63964459D02*
X167557659Y-62534800D01*
X178624800Y-58916000D02*
X184905799Y-58916000D01*
D21*
X191181200Y-102158800D02*
X193025000Y-100315000D01*
X177086600Y-98415000D02*
X177785000Y-99113400D01*
X177785000Y-99113400D02*
X177785000Y-100315000D01*
D20*
X214727100Y-81345700D02*
X210982800Y-85090000D01*
D21*
%TO.N,GND*%
X203362800Y-87630000D02*
X204597000Y-87630000D01*
X204597000Y-87630000D02*
X205397800Y-88430800D01*
X205397800Y-91985000D02*
X203417800Y-93965000D01*
X205397800Y-88430800D02*
X205397800Y-91985000D01*
%TO.N,/+5V*%
X210982800Y-69850000D02*
X206933800Y-69850000D01*
X206933800Y-69850000D02*
X205897800Y-70886000D01*
X205897800Y-70886000D02*
X205897800Y-93965000D01*
%TO.N,GND*%
X175245000Y-97357500D02*
X174687500Y-97915000D01*
X175245000Y-92695000D02*
X175245000Y-97357500D01*
X185405000Y-100315000D02*
X183005000Y-97915000D01*
D22*
%TO.N,/QA-A*%
X179705000Y-97155000D02*
X179905000Y-97355000D01*
X179905000Y-97355000D02*
X187525000Y-97355000D01*
X187525000Y-97355000D02*
X190485000Y-100315000D01*
D20*
%TO.N,GND*%
X184293184Y-60843385D02*
X181851769Y-63284800D01*
X181851769Y-63284800D02*
X167868319Y-63284800D01*
X167868319Y-63284800D02*
X166878000Y-64275119D01*
X166878000Y-64275119D02*
X166878000Y-95947340D01*
X166878000Y-95947340D02*
X168105660Y-97175000D01*
D21*
X169545000Y-97175000D02*
X169530000Y-97190000D01*
D20*
X168105660Y-97175000D02*
X169545000Y-97175000D01*
D21*
X183005000Y-97915000D02*
X173045400Y-97915000D01*
X173045400Y-97915000D02*
X170285000Y-97915000D01*
X170285000Y-97915000D02*
X169545000Y-97175000D01*
X205337600Y-68660200D02*
X203835000Y-67157600D01*
X205337600Y-85655200D02*
X205337600Y-68660200D01*
X203362800Y-87630000D02*
X205337600Y-85655200D01*
%TD*%
M02*
