%TF.GenerationSoftware,KiCad,Pcbnew,8.0.8-8.0.8-0~ubuntu24.04.1*%
%TF.CreationDate,2025-02-15T20:19:33-08:00*%
%TF.ProjectId,simple-counter,73696d70-6c65-42d6-936f-756e7465722e,V1.0*%
%TF.SameCoordinates,Original*%
%TF.FileFunction,Soldermask,Top*%
%TF.FilePolarity,Negative*%
%FSLAX46Y46*%
G04 Gerber Fmt 4.6, Leading zero omitted, Abs format (unit mm)*
G04 Created by KiCad (PCBNEW 8.0.8-8.0.8-0~ubuntu24.04.1) date 2025-02-15 20:19:33*
%MOMM*%
%LPD*%
G01*
G04 APERTURE LIST*
%ADD10C,1.600000*%
%ADD11O,1.727200X1.727200*%
%ADD12O,2.400000X1.600000*%
%ADD13R,2.400000X1.600000*%
%ADD14R,1.600000X2.400000*%
%ADD15O,1.600000X2.400000*%
%ADD16C,3.200000*%
%ADD17R,1.727200X1.727200*%
G04 APERTURE END LIST*
D10*
%TO.C,C1*%
X203397800Y-93965000D03*
X205897800Y-93965000D03*
%TD*%
%TO.C,C2*%
X169545000Y-99675000D03*
X169545000Y-97175000D03*
%TD*%
D11*
%TO.C,DS1*%
X177800000Y-72517000D03*
X180340000Y-72517000D03*
X182880000Y-72517000D03*
X185420000Y-72517000D03*
X187960000Y-72517000D03*
X190500000Y-72517000D03*
X190500000Y-82677000D03*
X187960000Y-82677000D03*
X185420000Y-82677000D03*
X182880000Y-82677000D03*
X180340000Y-82677000D03*
X177800000Y-82677000D03*
%TD*%
D12*
%TO.C,U1*%
X210982800Y-69850000D03*
X210982800Y-72390000D03*
X210982800Y-74930000D03*
X210982800Y-77470000D03*
X210982800Y-80010000D03*
X210982800Y-82550000D03*
X210982800Y-85090000D03*
X210982800Y-87630000D03*
X203362800Y-87630000D03*
X203362800Y-85090000D03*
X203362800Y-82550000D03*
X203362800Y-80010000D03*
X203362800Y-77470000D03*
X203362800Y-74930000D03*
X203362800Y-72390000D03*
D13*
X203362800Y-69850000D03*
%TD*%
D14*
%TO.C,U2*%
X193025000Y-92695000D03*
D15*
X190485000Y-92695000D03*
X187945000Y-92695000D03*
X185405000Y-92695000D03*
X182865000Y-92695000D03*
X180325000Y-92695000D03*
X177785000Y-92695000D03*
X175245000Y-92695000D03*
X175245000Y-100315000D03*
X177785000Y-100315000D03*
X180325000Y-100315000D03*
X182865000Y-100315000D03*
X185405000Y-100315000D03*
X187945000Y-100315000D03*
X190485000Y-100315000D03*
X193025000Y-100315000D03*
%TD*%
D16*
%TO.C,A1*%
X210963184Y-60843385D03*
X209693184Y-109103385D03*
D11*
X196993184Y-60843385D03*
D16*
X158893184Y-93863385D03*
X158893184Y-65923385D03*
D11*
X189373184Y-60843385D03*
X186833184Y-60843385D03*
X158766184Y-88783385D03*
X174133184Y-60843385D03*
X171593184Y-60843385D03*
X169053184Y-60843385D03*
X166513184Y-60843385D03*
X163973184Y-60843385D03*
X161433184Y-60843385D03*
X201057184Y-109103385D03*
X161433184Y-109103385D03*
X163973184Y-109103385D03*
X166513184Y-109103385D03*
X169053184Y-109103385D03*
X171593184Y-109103385D03*
X174133184Y-109103385D03*
X176673184Y-109103385D03*
X179213184Y-109103385D03*
X183277184Y-109103385D03*
X185817184Y-109103385D03*
X188357184Y-109103385D03*
X190897184Y-109103385D03*
X193437184Y-109103385D03*
X195977184Y-109103385D03*
D17*
X198517184Y-109103385D03*
X184293184Y-60843385D03*
X181753184Y-60843385D03*
X158766184Y-83703385D03*
D11*
X194453184Y-60843385D03*
X161306184Y-88783385D03*
X158766184Y-86243385D03*
X191913184Y-60843385D03*
X161306184Y-83703385D03*
X161306184Y-86243385D03*
X206137184Y-109103385D03*
X203597184Y-109103385D03*
X179213184Y-60843385D03*
%TD*%
M02*
