M48
; DRILL file {KiCad 8.0.8-8.0.8-0~ubuntu24.04.1} date 2025-02-15T20:19:35-0800
; FORMAT={-:-/ absolute / metric / decimal}
; #@! TF.CreationDate,2025-02-15T20:19:35-08:00
; #@! TF.GenerationSoftware,Kicad,Pcbnew,8.0.8-8.0.8-0~ubuntu24.04.1
; #@! TF.FileFunction,Plated,1,2,PTH
FMAT,2
METRIC
; #@! TA.AperFunction,Plated,PTH,ViaDrill
T1C0.300
; #@! TA.AperFunction,Plated,PTH,ComponentDrill
T2C0.762
; #@! TA.AperFunction,Plated,PTH,ComponentDrill
T3C0.800
; #@! TA.AperFunction,Plated,PTH,ComponentDrill
T4C1.016
%
G90
G05
T1
X179.705Y-97.155
T2
X177.8Y-72.517
X177.8Y-82.677
X180.34Y-72.517
X180.34Y-82.677
X182.88Y-72.517
X182.88Y-82.677
X185.42Y-72.517
X185.42Y-82.677
X187.96Y-72.517
X187.96Y-82.677
X190.5Y-72.517
X190.5Y-82.677
T3
X169.545Y-97.175
X169.545Y-99.675
X175.245Y-92.695
X175.245Y-100.315
X177.785Y-92.695
X177.785Y-100.315
X180.325Y-92.695
X180.325Y-100.315
X182.865Y-92.695
X182.865Y-100.315
X185.405Y-92.695
X185.405Y-100.315
X187.945Y-92.695
X187.945Y-100.315
X190.485Y-92.695
X190.485Y-100.315
X193.025Y-92.695
X193.025Y-100.315
X203.363Y-69.85
X203.363Y-72.39
X203.363Y-74.93
X203.363Y-77.47
X203.363Y-80.01
X203.363Y-82.55
X203.363Y-85.09
X203.363Y-87.63
X203.398Y-93.965
X205.898Y-93.965
X210.983Y-69.85
X210.983Y-72.39
X210.983Y-74.93
X210.983Y-77.47
X210.983Y-80.01
X210.983Y-82.55
X210.983Y-85.09
X210.983Y-87.63
T4
X158.766Y-83.703
X158.766Y-86.243
X158.766Y-88.783
X161.306Y-83.703
X161.306Y-86.243
X161.306Y-88.783
X161.433Y-60.843
X161.433Y-109.103
X163.973Y-60.843
X163.973Y-109.103
X166.513Y-60.843
X166.513Y-109.103
X169.053Y-60.843
X169.053Y-109.103
X171.593Y-60.843
X171.593Y-109.103
X174.133Y-60.843
X174.133Y-109.103
X176.673Y-109.103
X179.213Y-60.843
X179.213Y-109.103
X181.753Y-60.843
X183.277Y-109.103
X184.293Y-60.843
X185.817Y-109.103
X186.833Y-60.843
X188.357Y-109.103
X189.373Y-60.843
X190.897Y-109.103
X191.913Y-60.843
X193.437Y-109.103
X194.453Y-60.843
X195.977Y-109.103
X196.993Y-60.843
X198.517Y-109.103
X201.057Y-109.103
X203.597Y-109.103
X206.137Y-109.103
M30
