%TF.GenerationSoftware,KiCad,Pcbnew,8.0.8-8.0.8-0~ubuntu24.04.1*%
%TF.CreationDate,2025-02-15T20:19:32-08:00*%
%TF.ProjectId,simple-counter,73696d70-6c65-42d6-936f-756e7465722e,V1.0*%
%TF.SameCoordinates,Original*%
%TF.FileFunction,Legend,Top*%
%TF.FilePolarity,Positive*%
%FSLAX46Y46*%
G04 Gerber Fmt 4.6, Leading zero omitted, Abs format (unit mm)*
G04 Created by KiCad (PCBNEW 8.0.8-8.0.8-0~ubuntu24.04.1) date 2025-02-15 20:19:32*
%MOMM*%
%LPD*%
G01*
G04 APERTURE LIST*
%ADD10C,0.200000*%
%ADD11C,0.120000*%
%ADD12C,0.254000*%
%ADD13C,0.010000*%
%ADD14C,1.600000*%
%ADD15O,1.727200X1.727200*%
%ADD16O,2.400000X1.600000*%
%ADD17R,2.400000X1.600000*%
%ADD18R,1.600000X2.400000*%
%ADD19O,1.600000X2.400000*%
%ADD20C,3.200000*%
%ADD21R,1.727200X1.727200*%
G04 APERTURE END LIST*
D10*
X183593482Y-63014838D02*
X183498244Y-62967219D01*
X183498244Y-62967219D02*
X183355387Y-62967219D01*
X183355387Y-62967219D02*
X183212530Y-63014838D01*
X183212530Y-63014838D02*
X183117292Y-63110076D01*
X183117292Y-63110076D02*
X183069673Y-63205314D01*
X183069673Y-63205314D02*
X183022054Y-63395790D01*
X183022054Y-63395790D02*
X183022054Y-63538647D01*
X183022054Y-63538647D02*
X183069673Y-63729123D01*
X183069673Y-63729123D02*
X183117292Y-63824361D01*
X183117292Y-63824361D02*
X183212530Y-63919600D01*
X183212530Y-63919600D02*
X183355387Y-63967219D01*
X183355387Y-63967219D02*
X183450625Y-63967219D01*
X183450625Y-63967219D02*
X183593482Y-63919600D01*
X183593482Y-63919600D02*
X183641101Y-63871980D01*
X183641101Y-63871980D02*
X183641101Y-63538647D01*
X183641101Y-63538647D02*
X183450625Y-63538647D01*
X184069673Y-63967219D02*
X184069673Y-62967219D01*
X184069673Y-62967219D02*
X184641101Y-63967219D01*
X184641101Y-63967219D02*
X184641101Y-62967219D01*
X185117292Y-63967219D02*
X185117292Y-62967219D01*
X185117292Y-62967219D02*
X185355387Y-62967219D01*
X185355387Y-62967219D02*
X185498244Y-63014838D01*
X185498244Y-63014838D02*
X185593482Y-63110076D01*
X185593482Y-63110076D02*
X185641101Y-63205314D01*
X185641101Y-63205314D02*
X185688720Y-63395790D01*
X185688720Y-63395790D02*
X185688720Y-63538647D01*
X185688720Y-63538647D02*
X185641101Y-63729123D01*
X185641101Y-63729123D02*
X185593482Y-63824361D01*
X185593482Y-63824361D02*
X185498244Y-63919600D01*
X185498244Y-63919600D02*
X185355387Y-63967219D01*
X185355387Y-63967219D02*
X185117292Y-63967219D01*
X187169673Y-63586266D02*
X187931578Y-63586266D01*
X187550625Y-63967219D02*
X187550625Y-63205314D01*
X188883958Y-62967219D02*
X188407768Y-62967219D01*
X188407768Y-62967219D02*
X188360149Y-63443409D01*
X188360149Y-63443409D02*
X188407768Y-63395790D01*
X188407768Y-63395790D02*
X188503006Y-63348171D01*
X188503006Y-63348171D02*
X188741101Y-63348171D01*
X188741101Y-63348171D02*
X188836339Y-63395790D01*
X188836339Y-63395790D02*
X188883958Y-63443409D01*
X188883958Y-63443409D02*
X188931577Y-63538647D01*
X188931577Y-63538647D02*
X188931577Y-63776742D01*
X188931577Y-63776742D02*
X188883958Y-63871980D01*
X188883958Y-63871980D02*
X188836339Y-63919600D01*
X188836339Y-63919600D02*
X188741101Y-63967219D01*
X188741101Y-63967219D02*
X188503006Y-63967219D01*
X188503006Y-63967219D02*
X188407768Y-63919600D01*
X188407768Y-63919600D02*
X188360149Y-63871980D01*
X189217292Y-62967219D02*
X189550625Y-63967219D01*
X189550625Y-63967219D02*
X189883958Y-62967219D01*
X202581133Y-91811980D02*
X202533514Y-91859600D01*
X202533514Y-91859600D02*
X202390657Y-91907219D01*
X202390657Y-91907219D02*
X202295419Y-91907219D01*
X202295419Y-91907219D02*
X202152562Y-91859600D01*
X202152562Y-91859600D02*
X202057324Y-91764361D01*
X202057324Y-91764361D02*
X202009705Y-91669123D01*
X202009705Y-91669123D02*
X201962086Y-91478647D01*
X201962086Y-91478647D02*
X201962086Y-91335790D01*
X201962086Y-91335790D02*
X202009705Y-91145314D01*
X202009705Y-91145314D02*
X202057324Y-91050076D01*
X202057324Y-91050076D02*
X202152562Y-90954838D01*
X202152562Y-90954838D02*
X202295419Y-90907219D01*
X202295419Y-90907219D02*
X202390657Y-90907219D01*
X202390657Y-90907219D02*
X202533514Y-90954838D01*
X202533514Y-90954838D02*
X202581133Y-91002457D01*
X203533514Y-91907219D02*
X202962086Y-91907219D01*
X203247800Y-91907219D02*
X203247800Y-90907219D01*
X203247800Y-90907219D02*
X203152562Y-91050076D01*
X203152562Y-91050076D02*
X203057324Y-91145314D01*
X203057324Y-91145314D02*
X202962086Y-91192933D01*
X202600180Y-97007219D02*
X202028752Y-97007219D01*
X202314466Y-97007219D02*
X202314466Y-96007219D01*
X202314466Y-96007219D02*
X202219228Y-96150076D01*
X202219228Y-96150076D02*
X202123990Y-96245314D01*
X202123990Y-96245314D02*
X202028752Y-96292933D01*
X203219228Y-96007219D02*
X203314466Y-96007219D01*
X203314466Y-96007219D02*
X203409704Y-96054838D01*
X203409704Y-96054838D02*
X203457323Y-96102457D01*
X203457323Y-96102457D02*
X203504942Y-96197695D01*
X203504942Y-96197695D02*
X203552561Y-96388171D01*
X203552561Y-96388171D02*
X203552561Y-96626266D01*
X203552561Y-96626266D02*
X203504942Y-96816742D01*
X203504942Y-96816742D02*
X203457323Y-96911980D01*
X203457323Y-96911980D02*
X203409704Y-96959600D01*
X203409704Y-96959600D02*
X203314466Y-97007219D01*
X203314466Y-97007219D02*
X203219228Y-97007219D01*
X203219228Y-97007219D02*
X203123990Y-96959600D01*
X203123990Y-96959600D02*
X203076371Y-96911980D01*
X203076371Y-96911980D02*
X203028752Y-96816742D01*
X203028752Y-96816742D02*
X202981133Y-96626266D01*
X202981133Y-96626266D02*
X202981133Y-96388171D01*
X202981133Y-96388171D02*
X203028752Y-96197695D01*
X203028752Y-96197695D02*
X203076371Y-96102457D01*
X203076371Y-96102457D02*
X203123990Y-96054838D01*
X203123990Y-96054838D02*
X203219228Y-96007219D01*
X204171609Y-96007219D02*
X204266847Y-96007219D01*
X204266847Y-96007219D02*
X204362085Y-96054838D01*
X204362085Y-96054838D02*
X204409704Y-96102457D01*
X204409704Y-96102457D02*
X204457323Y-96197695D01*
X204457323Y-96197695D02*
X204504942Y-96388171D01*
X204504942Y-96388171D02*
X204504942Y-96626266D01*
X204504942Y-96626266D02*
X204457323Y-96816742D01*
X204457323Y-96816742D02*
X204409704Y-96911980D01*
X204409704Y-96911980D02*
X204362085Y-96959600D01*
X204362085Y-96959600D02*
X204266847Y-97007219D01*
X204266847Y-97007219D02*
X204171609Y-97007219D01*
X204171609Y-97007219D02*
X204076371Y-96959600D01*
X204076371Y-96959600D02*
X204028752Y-96911980D01*
X204028752Y-96911980D02*
X203981133Y-96816742D01*
X203981133Y-96816742D02*
X203933514Y-96626266D01*
X203933514Y-96626266D02*
X203933514Y-96388171D01*
X203933514Y-96388171D02*
X203981133Y-96197695D01*
X203981133Y-96197695D02*
X204028752Y-96102457D01*
X204028752Y-96102457D02*
X204076371Y-96054838D01*
X204076371Y-96054838D02*
X204171609Y-96007219D01*
X204933514Y-96340552D02*
X204933514Y-97007219D01*
X204933514Y-96435790D02*
X204981133Y-96388171D01*
X204981133Y-96388171D02*
X205076371Y-96340552D01*
X205076371Y-96340552D02*
X205219228Y-96340552D01*
X205219228Y-96340552D02*
X205314466Y-96388171D01*
X205314466Y-96388171D02*
X205362085Y-96483409D01*
X205362085Y-96483409D02*
X205362085Y-97007219D01*
X206171609Y-96483409D02*
X205838276Y-96483409D01*
X205838276Y-97007219D02*
X205838276Y-96007219D01*
X205838276Y-96007219D02*
X206314466Y-96007219D01*
X168748333Y-95061980D02*
X168700714Y-95109600D01*
X168700714Y-95109600D02*
X168557857Y-95157219D01*
X168557857Y-95157219D02*
X168462619Y-95157219D01*
X168462619Y-95157219D02*
X168319762Y-95109600D01*
X168319762Y-95109600D02*
X168224524Y-95014361D01*
X168224524Y-95014361D02*
X168176905Y-94919123D01*
X168176905Y-94919123D02*
X168129286Y-94728647D01*
X168129286Y-94728647D02*
X168129286Y-94585790D01*
X168129286Y-94585790D02*
X168176905Y-94395314D01*
X168176905Y-94395314D02*
X168224524Y-94300076D01*
X168224524Y-94300076D02*
X168319762Y-94204838D01*
X168319762Y-94204838D02*
X168462619Y-94157219D01*
X168462619Y-94157219D02*
X168557857Y-94157219D01*
X168557857Y-94157219D02*
X168700714Y-94204838D01*
X168700714Y-94204838D02*
X168748333Y-94252457D01*
X169129286Y-94252457D02*
X169176905Y-94204838D01*
X169176905Y-94204838D02*
X169272143Y-94157219D01*
X169272143Y-94157219D02*
X169510238Y-94157219D01*
X169510238Y-94157219D02*
X169605476Y-94204838D01*
X169605476Y-94204838D02*
X169653095Y-94252457D01*
X169653095Y-94252457D02*
X169700714Y-94347695D01*
X169700714Y-94347695D02*
X169700714Y-94442933D01*
X169700714Y-94442933D02*
X169653095Y-94585790D01*
X169653095Y-94585790D02*
X169081667Y-95157219D01*
X169081667Y-95157219D02*
X169700714Y-95157219D01*
X168667380Y-102757219D02*
X168095952Y-102757219D01*
X168381666Y-102757219D02*
X168381666Y-101757219D01*
X168381666Y-101757219D02*
X168286428Y-101900076D01*
X168286428Y-101900076D02*
X168191190Y-101995314D01*
X168191190Y-101995314D02*
X168095952Y-102042933D01*
X169286428Y-101757219D02*
X169381666Y-101757219D01*
X169381666Y-101757219D02*
X169476904Y-101804838D01*
X169476904Y-101804838D02*
X169524523Y-101852457D01*
X169524523Y-101852457D02*
X169572142Y-101947695D01*
X169572142Y-101947695D02*
X169619761Y-102138171D01*
X169619761Y-102138171D02*
X169619761Y-102376266D01*
X169619761Y-102376266D02*
X169572142Y-102566742D01*
X169572142Y-102566742D02*
X169524523Y-102661980D01*
X169524523Y-102661980D02*
X169476904Y-102709600D01*
X169476904Y-102709600D02*
X169381666Y-102757219D01*
X169381666Y-102757219D02*
X169286428Y-102757219D01*
X169286428Y-102757219D02*
X169191190Y-102709600D01*
X169191190Y-102709600D02*
X169143571Y-102661980D01*
X169143571Y-102661980D02*
X169095952Y-102566742D01*
X169095952Y-102566742D02*
X169048333Y-102376266D01*
X169048333Y-102376266D02*
X169048333Y-102138171D01*
X169048333Y-102138171D02*
X169095952Y-101947695D01*
X169095952Y-101947695D02*
X169143571Y-101852457D01*
X169143571Y-101852457D02*
X169191190Y-101804838D01*
X169191190Y-101804838D02*
X169286428Y-101757219D01*
X170238809Y-101757219D02*
X170334047Y-101757219D01*
X170334047Y-101757219D02*
X170429285Y-101804838D01*
X170429285Y-101804838D02*
X170476904Y-101852457D01*
X170476904Y-101852457D02*
X170524523Y-101947695D01*
X170524523Y-101947695D02*
X170572142Y-102138171D01*
X170572142Y-102138171D02*
X170572142Y-102376266D01*
X170572142Y-102376266D02*
X170524523Y-102566742D01*
X170524523Y-102566742D02*
X170476904Y-102661980D01*
X170476904Y-102661980D02*
X170429285Y-102709600D01*
X170429285Y-102709600D02*
X170334047Y-102757219D01*
X170334047Y-102757219D02*
X170238809Y-102757219D01*
X170238809Y-102757219D02*
X170143571Y-102709600D01*
X170143571Y-102709600D02*
X170095952Y-102661980D01*
X170095952Y-102661980D02*
X170048333Y-102566742D01*
X170048333Y-102566742D02*
X170000714Y-102376266D01*
X170000714Y-102376266D02*
X170000714Y-102138171D01*
X170000714Y-102138171D02*
X170048333Y-101947695D01*
X170048333Y-101947695D02*
X170095952Y-101852457D01*
X170095952Y-101852457D02*
X170143571Y-101804838D01*
X170143571Y-101804838D02*
X170238809Y-101757219D01*
X171000714Y-102090552D02*
X171000714Y-102757219D01*
X171000714Y-102185790D02*
X171048333Y-102138171D01*
X171048333Y-102138171D02*
X171143571Y-102090552D01*
X171143571Y-102090552D02*
X171286428Y-102090552D01*
X171286428Y-102090552D02*
X171381666Y-102138171D01*
X171381666Y-102138171D02*
X171429285Y-102233409D01*
X171429285Y-102233409D02*
X171429285Y-102757219D01*
X172238809Y-102233409D02*
X171905476Y-102233409D01*
X171905476Y-102757219D02*
X171905476Y-101757219D01*
X171905476Y-101757219D02*
X172381666Y-101757219D01*
X169122856Y-69914126D02*
X169122856Y-68644126D01*
X169122856Y-68644126D02*
X169425237Y-68644126D01*
X169425237Y-68644126D02*
X169606666Y-68704602D01*
X169606666Y-68704602D02*
X169727618Y-68825554D01*
X169727618Y-68825554D02*
X169788095Y-68946507D01*
X169788095Y-68946507D02*
X169848571Y-69188411D01*
X169848571Y-69188411D02*
X169848571Y-69369840D01*
X169848571Y-69369840D02*
X169788095Y-69611745D01*
X169788095Y-69611745D02*
X169727618Y-69732697D01*
X169727618Y-69732697D02*
X169606666Y-69853650D01*
X169606666Y-69853650D02*
X169425237Y-69914126D01*
X169425237Y-69914126D02*
X169122856Y-69914126D01*
X170332380Y-69853650D02*
X170513809Y-69914126D01*
X170513809Y-69914126D02*
X170816190Y-69914126D01*
X170816190Y-69914126D02*
X170937142Y-69853650D01*
X170937142Y-69853650D02*
X170997618Y-69793173D01*
X170997618Y-69793173D02*
X171058095Y-69672221D01*
X171058095Y-69672221D02*
X171058095Y-69551269D01*
X171058095Y-69551269D02*
X170997618Y-69430316D01*
X170997618Y-69430316D02*
X170937142Y-69369840D01*
X170937142Y-69369840D02*
X170816190Y-69309364D01*
X170816190Y-69309364D02*
X170574285Y-69248888D01*
X170574285Y-69248888D02*
X170453333Y-69188411D01*
X170453333Y-69188411D02*
X170392856Y-69127935D01*
X170392856Y-69127935D02*
X170332380Y-69006983D01*
X170332380Y-69006983D02*
X170332380Y-68886030D01*
X170332380Y-68886030D02*
X170392856Y-68765078D01*
X170392856Y-68765078D02*
X170453333Y-68704602D01*
X170453333Y-68704602D02*
X170574285Y-68644126D01*
X170574285Y-68644126D02*
X170876666Y-68644126D01*
X170876666Y-68644126D02*
X171058095Y-68704602D01*
X172267619Y-69914126D02*
X171541904Y-69914126D01*
X171904761Y-69914126D02*
X171904761Y-68644126D01*
X171904761Y-68644126D02*
X171783809Y-68825554D01*
X171783809Y-68825554D02*
X171662857Y-68946507D01*
X171662857Y-68946507D02*
X171541904Y-69006983D01*
X168154047Y-85404126D02*
X169000714Y-85404126D01*
X169000714Y-85404126D02*
X168456428Y-86674126D01*
X170391666Y-86613650D02*
X170573095Y-86674126D01*
X170573095Y-86674126D02*
X170875476Y-86674126D01*
X170875476Y-86674126D02*
X170996428Y-86613650D01*
X170996428Y-86613650D02*
X171056904Y-86553173D01*
X171056904Y-86553173D02*
X171117381Y-86432221D01*
X171117381Y-86432221D02*
X171117381Y-86311269D01*
X171117381Y-86311269D02*
X171056904Y-86190316D01*
X171056904Y-86190316D02*
X170996428Y-86129840D01*
X170996428Y-86129840D02*
X170875476Y-86069364D01*
X170875476Y-86069364D02*
X170633571Y-86008888D01*
X170633571Y-86008888D02*
X170512619Y-85948411D01*
X170512619Y-85948411D02*
X170452142Y-85887935D01*
X170452142Y-85887935D02*
X170391666Y-85766983D01*
X170391666Y-85766983D02*
X170391666Y-85646030D01*
X170391666Y-85646030D02*
X170452142Y-85525078D01*
X170452142Y-85525078D02*
X170512619Y-85464602D01*
X170512619Y-85464602D02*
X170633571Y-85404126D01*
X170633571Y-85404126D02*
X170935952Y-85404126D01*
X170935952Y-85404126D02*
X171117381Y-85464602D01*
X172145476Y-86613650D02*
X172024524Y-86674126D01*
X172024524Y-86674126D02*
X171782619Y-86674126D01*
X171782619Y-86674126D02*
X171661666Y-86613650D01*
X171661666Y-86613650D02*
X171601190Y-86492697D01*
X171601190Y-86492697D02*
X171601190Y-86008888D01*
X171601190Y-86008888D02*
X171661666Y-85887935D01*
X171661666Y-85887935D02*
X171782619Y-85827459D01*
X171782619Y-85827459D02*
X172024524Y-85827459D01*
X172024524Y-85827459D02*
X172145476Y-85887935D01*
X172145476Y-85887935D02*
X172205952Y-86008888D01*
X172205952Y-86008888D02*
X172205952Y-86129840D01*
X172205952Y-86129840D02*
X171601190Y-86250792D01*
X173294523Y-85827459D02*
X173294523Y-86855554D01*
X173294523Y-86855554D02*
X173234047Y-86976507D01*
X173234047Y-86976507D02*
X173173571Y-87036983D01*
X173173571Y-87036983D02*
X173052618Y-87097459D01*
X173052618Y-87097459D02*
X172871190Y-87097459D01*
X172871190Y-87097459D02*
X172750237Y-87036983D01*
X173294523Y-86613650D02*
X173173571Y-86674126D01*
X173173571Y-86674126D02*
X172931666Y-86674126D01*
X172931666Y-86674126D02*
X172810714Y-86613650D01*
X172810714Y-86613650D02*
X172750237Y-86553173D01*
X172750237Y-86553173D02*
X172689761Y-86432221D01*
X172689761Y-86432221D02*
X172689761Y-86069364D01*
X172689761Y-86069364D02*
X172750237Y-85948411D01*
X172750237Y-85948411D02*
X172810714Y-85887935D01*
X172810714Y-85887935D02*
X172931666Y-85827459D01*
X172931666Y-85827459D02*
X173173571Y-85827459D01*
X173173571Y-85827459D02*
X173294523Y-85887935D01*
X173899285Y-86674126D02*
X173899285Y-85827459D01*
X173899285Y-85948411D02*
X173959762Y-85887935D01*
X173959762Y-85887935D02*
X174080714Y-85827459D01*
X174080714Y-85827459D02*
X174262143Y-85827459D01*
X174262143Y-85827459D02*
X174383095Y-85887935D01*
X174383095Y-85887935D02*
X174443571Y-86008888D01*
X174443571Y-86008888D02*
X174443571Y-86674126D01*
X174443571Y-86008888D02*
X174504047Y-85887935D01*
X174504047Y-85887935D02*
X174625000Y-85827459D01*
X174625000Y-85827459D02*
X174806428Y-85827459D01*
X174806428Y-85827459D02*
X174927381Y-85887935D01*
X174927381Y-85887935D02*
X174987857Y-86008888D01*
X174987857Y-86008888D02*
X174987857Y-86674126D01*
X176076428Y-86613650D02*
X175955476Y-86674126D01*
X175955476Y-86674126D02*
X175713571Y-86674126D01*
X175713571Y-86674126D02*
X175592618Y-86613650D01*
X175592618Y-86613650D02*
X175532142Y-86492697D01*
X175532142Y-86492697D02*
X175532142Y-86008888D01*
X175532142Y-86008888D02*
X175592618Y-85887935D01*
X175592618Y-85887935D02*
X175713571Y-85827459D01*
X175713571Y-85827459D02*
X175955476Y-85827459D01*
X175955476Y-85827459D02*
X176076428Y-85887935D01*
X176076428Y-85887935D02*
X176136904Y-86008888D01*
X176136904Y-86008888D02*
X176136904Y-86129840D01*
X176136904Y-86129840D02*
X175532142Y-86250792D01*
X176681189Y-85827459D02*
X176681189Y-86674126D01*
X176681189Y-85948411D02*
X176741666Y-85887935D01*
X176741666Y-85887935D02*
X176862618Y-85827459D01*
X176862618Y-85827459D02*
X177044047Y-85827459D01*
X177044047Y-85827459D02*
X177164999Y-85887935D01*
X177164999Y-85887935D02*
X177225475Y-86008888D01*
X177225475Y-86008888D02*
X177225475Y-86674126D01*
X177648809Y-85827459D02*
X178132618Y-85827459D01*
X177830237Y-85404126D02*
X177830237Y-86492697D01*
X177830237Y-86492697D02*
X177890714Y-86613650D01*
X177890714Y-86613650D02*
X178011666Y-86674126D01*
X178011666Y-86674126D02*
X178132618Y-86674126D01*
X180128332Y-86674126D02*
X179523570Y-86674126D01*
X179523570Y-86674126D02*
X179523570Y-85404126D01*
X180551665Y-86008888D02*
X180974999Y-86008888D01*
X181156427Y-86674126D02*
X180551665Y-86674126D01*
X180551665Y-86674126D02*
X180551665Y-85404126D01*
X180551665Y-85404126D02*
X181156427Y-85404126D01*
X181700713Y-86674126D02*
X181700713Y-85404126D01*
X181700713Y-85404126D02*
X182003094Y-85404126D01*
X182003094Y-85404126D02*
X182184523Y-85464602D01*
X182184523Y-85464602D02*
X182305475Y-85585554D01*
X182305475Y-85585554D02*
X182365952Y-85706507D01*
X182365952Y-85706507D02*
X182426428Y-85948411D01*
X182426428Y-85948411D02*
X182426428Y-86129840D01*
X182426428Y-86129840D02*
X182365952Y-86371745D01*
X182365952Y-86371745D02*
X182305475Y-86492697D01*
X182305475Y-86492697D02*
X182184523Y-86613650D01*
X182184523Y-86613650D02*
X182003094Y-86674126D01*
X182003094Y-86674126D02*
X181700713Y-86674126D01*
X183817380Y-85404126D02*
X184603571Y-85404126D01*
X184603571Y-85404126D02*
X184180237Y-85887935D01*
X184180237Y-85887935D02*
X184361666Y-85887935D01*
X184361666Y-85887935D02*
X184482618Y-85948411D01*
X184482618Y-85948411D02*
X184543094Y-86008888D01*
X184543094Y-86008888D02*
X184603571Y-86129840D01*
X184603571Y-86129840D02*
X184603571Y-86432221D01*
X184603571Y-86432221D02*
X184543094Y-86553173D01*
X184543094Y-86553173D02*
X184482618Y-86613650D01*
X184482618Y-86613650D02*
X184361666Y-86674126D01*
X184361666Y-86674126D02*
X183998809Y-86674126D01*
X183998809Y-86674126D02*
X183877856Y-86613650D01*
X183877856Y-86613650D02*
X183817380Y-86553173D01*
X185692142Y-85404126D02*
X185450237Y-85404126D01*
X185450237Y-85404126D02*
X185329285Y-85464602D01*
X185329285Y-85464602D02*
X185268809Y-85525078D01*
X185268809Y-85525078D02*
X185147856Y-85706507D01*
X185147856Y-85706507D02*
X185087380Y-85948411D01*
X185087380Y-85948411D02*
X185087380Y-86432221D01*
X185087380Y-86432221D02*
X185147856Y-86553173D01*
X185147856Y-86553173D02*
X185208333Y-86613650D01*
X185208333Y-86613650D02*
X185329285Y-86674126D01*
X185329285Y-86674126D02*
X185571190Y-86674126D01*
X185571190Y-86674126D02*
X185692142Y-86613650D01*
X185692142Y-86613650D02*
X185752618Y-86553173D01*
X185752618Y-86553173D02*
X185813095Y-86432221D01*
X185813095Y-86432221D02*
X185813095Y-86129840D01*
X185813095Y-86129840D02*
X185752618Y-86008888D01*
X185752618Y-86008888D02*
X185692142Y-85948411D01*
X185692142Y-85948411D02*
X185571190Y-85887935D01*
X185571190Y-85887935D02*
X185329285Y-85887935D01*
X185329285Y-85887935D02*
X185208333Y-85948411D01*
X185208333Y-85948411D02*
X185147856Y-86008888D01*
X185147856Y-86008888D02*
X185087380Y-86129840D01*
X186901666Y-85827459D02*
X186901666Y-86674126D01*
X186599285Y-85343650D02*
X186296904Y-86250792D01*
X186296904Y-86250792D02*
X187083095Y-86250792D01*
X188232143Y-86674126D02*
X187506428Y-86674126D01*
X187869285Y-86674126D02*
X187869285Y-85404126D01*
X187869285Y-85404126D02*
X187748333Y-85585554D01*
X187748333Y-85585554D02*
X187627381Y-85706507D01*
X187627381Y-85706507D02*
X187506428Y-85766983D01*
X189199762Y-86008888D02*
X189381190Y-86069364D01*
X189381190Y-86069364D02*
X189441667Y-86129840D01*
X189441667Y-86129840D02*
X189502143Y-86250792D01*
X189502143Y-86250792D02*
X189502143Y-86432221D01*
X189502143Y-86432221D02*
X189441667Y-86553173D01*
X189441667Y-86553173D02*
X189381190Y-86613650D01*
X189381190Y-86613650D02*
X189260238Y-86674126D01*
X189260238Y-86674126D02*
X188776428Y-86674126D01*
X188776428Y-86674126D02*
X188776428Y-85404126D01*
X188776428Y-85404126D02*
X189199762Y-85404126D01*
X189199762Y-85404126D02*
X189320714Y-85464602D01*
X189320714Y-85464602D02*
X189381190Y-85525078D01*
X189381190Y-85525078D02*
X189441667Y-85646030D01*
X189441667Y-85646030D02*
X189441667Y-85766983D01*
X189441667Y-85766983D02*
X189381190Y-85887935D01*
X189381190Y-85887935D02*
X189320714Y-85948411D01*
X189320714Y-85948411D02*
X189199762Y-86008888D01*
X189199762Y-86008888D02*
X188776428Y-86008888D01*
X190046428Y-86674126D02*
X190046428Y-85404126D01*
X190046428Y-86008888D02*
X190772143Y-86008888D01*
X190772143Y-86674126D02*
X190772143Y-85404126D01*
X192707381Y-87157935D02*
X192646904Y-87097459D01*
X192646904Y-87097459D02*
X192525952Y-86916030D01*
X192525952Y-86916030D02*
X192465476Y-86795078D01*
X192465476Y-86795078D02*
X192405000Y-86613650D01*
X192405000Y-86613650D02*
X192344523Y-86311269D01*
X192344523Y-86311269D02*
X192344523Y-86069364D01*
X192344523Y-86069364D02*
X192405000Y-85766983D01*
X192405000Y-85766983D02*
X192465476Y-85585554D01*
X192465476Y-85585554D02*
X192525952Y-85464602D01*
X192525952Y-85464602D02*
X192646904Y-85283173D01*
X192646904Y-85283173D02*
X192707381Y-85222697D01*
X193735476Y-85827459D02*
X193735476Y-86674126D01*
X193433095Y-85343650D02*
X193130714Y-86250792D01*
X193130714Y-86250792D02*
X193916905Y-86250792D01*
X194400714Y-86674126D02*
X194400714Y-85404126D01*
X194400714Y-85404126D02*
X194703095Y-85404126D01*
X194703095Y-85404126D02*
X194884524Y-85464602D01*
X194884524Y-85464602D02*
X195005476Y-85585554D01*
X195005476Y-85585554D02*
X195065953Y-85706507D01*
X195065953Y-85706507D02*
X195126429Y-85948411D01*
X195126429Y-85948411D02*
X195126429Y-86129840D01*
X195126429Y-86129840D02*
X195065953Y-86371745D01*
X195065953Y-86371745D02*
X195005476Y-86492697D01*
X195005476Y-86492697D02*
X194884524Y-86613650D01*
X194884524Y-86613650D02*
X194703095Y-86674126D01*
X194703095Y-86674126D02*
X194400714Y-86674126D01*
X195670714Y-86674126D02*
X195670714Y-85827459D01*
X195670714Y-85404126D02*
X195610238Y-85464602D01*
X195610238Y-85464602D02*
X195670714Y-85525078D01*
X195670714Y-85525078D02*
X195731191Y-85464602D01*
X195731191Y-85464602D02*
X195670714Y-85404126D01*
X195670714Y-85404126D02*
X195670714Y-85525078D01*
X196819762Y-85827459D02*
X196819762Y-86855554D01*
X196819762Y-86855554D02*
X196759286Y-86976507D01*
X196759286Y-86976507D02*
X196698810Y-87036983D01*
X196698810Y-87036983D02*
X196577857Y-87097459D01*
X196577857Y-87097459D02*
X196396429Y-87097459D01*
X196396429Y-87097459D02*
X196275476Y-87036983D01*
X196819762Y-86613650D02*
X196698810Y-86674126D01*
X196698810Y-86674126D02*
X196456905Y-86674126D01*
X196456905Y-86674126D02*
X196335953Y-86613650D01*
X196335953Y-86613650D02*
X196275476Y-86553173D01*
X196275476Y-86553173D02*
X196215000Y-86432221D01*
X196215000Y-86432221D02*
X196215000Y-86069364D01*
X196215000Y-86069364D02*
X196275476Y-85948411D01*
X196275476Y-85948411D02*
X196335953Y-85887935D01*
X196335953Y-85887935D02*
X196456905Y-85827459D01*
X196456905Y-85827459D02*
X196698810Y-85827459D01*
X196698810Y-85827459D02*
X196819762Y-85887935D01*
X197424524Y-86674126D02*
X197424524Y-85827459D01*
X197424524Y-85404126D02*
X197364048Y-85464602D01*
X197364048Y-85464602D02*
X197424524Y-85525078D01*
X197424524Y-85525078D02*
X197485001Y-85464602D01*
X197485001Y-85464602D02*
X197424524Y-85404126D01*
X197424524Y-85404126D02*
X197424524Y-85525078D01*
X197847858Y-85827459D02*
X198331667Y-85827459D01*
X198029286Y-85404126D02*
X198029286Y-86492697D01*
X198029286Y-86492697D02*
X198089763Y-86613650D01*
X198089763Y-86613650D02*
X198210715Y-86674126D01*
X198210715Y-86674126D02*
X198331667Y-86674126D01*
X198694524Y-86613650D02*
X198815477Y-86674126D01*
X198815477Y-86674126D02*
X199057381Y-86674126D01*
X199057381Y-86674126D02*
X199178334Y-86613650D01*
X199178334Y-86613650D02*
X199238810Y-86492697D01*
X199238810Y-86492697D02*
X199238810Y-86432221D01*
X199238810Y-86432221D02*
X199178334Y-86311269D01*
X199178334Y-86311269D02*
X199057381Y-86250792D01*
X199057381Y-86250792D02*
X198875953Y-86250792D01*
X198875953Y-86250792D02*
X198755000Y-86190316D01*
X198755000Y-86190316D02*
X198694524Y-86069364D01*
X198694524Y-86069364D02*
X198694524Y-86008888D01*
X198694524Y-86008888D02*
X198755000Y-85887935D01*
X198755000Y-85887935D02*
X198875953Y-85827459D01*
X198875953Y-85827459D02*
X199057381Y-85827459D01*
X199057381Y-85827459D02*
X199178334Y-85887935D01*
X199662143Y-87157935D02*
X199722619Y-87097459D01*
X199722619Y-87097459D02*
X199843572Y-86916030D01*
X199843572Y-86916030D02*
X199904048Y-86795078D01*
X199904048Y-86795078D02*
X199964524Y-86613650D01*
X199964524Y-86613650D02*
X200025000Y-86311269D01*
X200025000Y-86311269D02*
X200025000Y-86069364D01*
X200025000Y-86069364D02*
X199964524Y-85766983D01*
X199964524Y-85766983D02*
X199904048Y-85585554D01*
X199904048Y-85585554D02*
X199843572Y-85464602D01*
X199843572Y-85464602D02*
X199722619Y-85283173D01*
X199722619Y-85283173D02*
X199662143Y-85222697D01*
X202005895Y-66772219D02*
X202005895Y-67581742D01*
X202005895Y-67581742D02*
X202053514Y-67676980D01*
X202053514Y-67676980D02*
X202101133Y-67724600D01*
X202101133Y-67724600D02*
X202196371Y-67772219D01*
X202196371Y-67772219D02*
X202386847Y-67772219D01*
X202386847Y-67772219D02*
X202482085Y-67724600D01*
X202482085Y-67724600D02*
X202529704Y-67676980D01*
X202529704Y-67676980D02*
X202577323Y-67581742D01*
X202577323Y-67581742D02*
X202577323Y-66772219D01*
X203577323Y-67772219D02*
X203005895Y-67772219D01*
X203291609Y-67772219D02*
X203291609Y-66772219D01*
X203291609Y-66772219D02*
X203196371Y-66915076D01*
X203196371Y-66915076D02*
X203101133Y-67010314D01*
X203101133Y-67010314D02*
X203005895Y-67057933D01*
X205905895Y-89672219D02*
X206572561Y-89672219D01*
X206572561Y-89672219D02*
X206143990Y-90672219D01*
X207382085Y-90005552D02*
X207382085Y-90672219D01*
X207143990Y-89624600D02*
X206905895Y-90338885D01*
X206905895Y-90338885D02*
X207524942Y-90338885D01*
X207905895Y-90672219D02*
X207905895Y-89672219D01*
X207905895Y-90148409D02*
X208477323Y-90148409D01*
X208477323Y-90672219D02*
X208477323Y-89672219D01*
X209524942Y-90576980D02*
X209477323Y-90624600D01*
X209477323Y-90624600D02*
X209334466Y-90672219D01*
X209334466Y-90672219D02*
X209239228Y-90672219D01*
X209239228Y-90672219D02*
X209096371Y-90624600D01*
X209096371Y-90624600D02*
X209001133Y-90529361D01*
X209001133Y-90529361D02*
X208953514Y-90434123D01*
X208953514Y-90434123D02*
X208905895Y-90243647D01*
X208905895Y-90243647D02*
X208905895Y-90100790D01*
X208905895Y-90100790D02*
X208953514Y-89910314D01*
X208953514Y-89910314D02*
X209001133Y-89815076D01*
X209001133Y-89815076D02*
X209096371Y-89719838D01*
X209096371Y-89719838D02*
X209239228Y-89672219D01*
X209239228Y-89672219D02*
X209334466Y-89672219D01*
X209334466Y-89672219D02*
X209477323Y-89719838D01*
X209477323Y-89719838D02*
X209524942Y-89767457D01*
X210429704Y-89672219D02*
X209953514Y-89672219D01*
X209953514Y-89672219D02*
X209905895Y-90148409D01*
X209905895Y-90148409D02*
X209953514Y-90100790D01*
X209953514Y-90100790D02*
X210048752Y-90053171D01*
X210048752Y-90053171D02*
X210286847Y-90053171D01*
X210286847Y-90053171D02*
X210382085Y-90100790D01*
X210382085Y-90100790D02*
X210429704Y-90148409D01*
X210429704Y-90148409D02*
X210477323Y-90243647D01*
X210477323Y-90243647D02*
X210477323Y-90481742D01*
X210477323Y-90481742D02*
X210429704Y-90576980D01*
X210429704Y-90576980D02*
X210382085Y-90624600D01*
X210382085Y-90624600D02*
X210286847Y-90672219D01*
X210286847Y-90672219D02*
X210048752Y-90672219D01*
X210048752Y-90672219D02*
X209953514Y-90624600D01*
X209953514Y-90624600D02*
X209905895Y-90576980D01*
X210953514Y-90672219D02*
X211143990Y-90672219D01*
X211143990Y-90672219D02*
X211239228Y-90624600D01*
X211239228Y-90624600D02*
X211286847Y-90576980D01*
X211286847Y-90576980D02*
X211382085Y-90434123D01*
X211382085Y-90434123D02*
X211429704Y-90243647D01*
X211429704Y-90243647D02*
X211429704Y-89862695D01*
X211429704Y-89862695D02*
X211382085Y-89767457D01*
X211382085Y-89767457D02*
X211334466Y-89719838D01*
X211334466Y-89719838D02*
X211239228Y-89672219D01*
X211239228Y-89672219D02*
X211048752Y-89672219D01*
X211048752Y-89672219D02*
X210953514Y-89719838D01*
X210953514Y-89719838D02*
X210905895Y-89767457D01*
X210905895Y-89767457D02*
X210858276Y-89862695D01*
X210858276Y-89862695D02*
X210858276Y-90100790D01*
X210858276Y-90100790D02*
X210905895Y-90196028D01*
X210905895Y-90196028D02*
X210953514Y-90243647D01*
X210953514Y-90243647D02*
X211048752Y-90291266D01*
X211048752Y-90291266D02*
X211239228Y-90291266D01*
X211239228Y-90291266D02*
X211334466Y-90243647D01*
X211334466Y-90243647D02*
X211382085Y-90196028D01*
X211382085Y-90196028D02*
X211429704Y-90100790D01*
X212334466Y-89672219D02*
X211858276Y-89672219D01*
X211858276Y-89672219D02*
X211810657Y-90148409D01*
X211810657Y-90148409D02*
X211858276Y-90100790D01*
X211858276Y-90100790D02*
X211953514Y-90053171D01*
X211953514Y-90053171D02*
X212191609Y-90053171D01*
X212191609Y-90053171D02*
X212286847Y-90100790D01*
X212286847Y-90100790D02*
X212334466Y-90148409D01*
X212334466Y-90148409D02*
X212382085Y-90243647D01*
X212382085Y-90243647D02*
X212382085Y-90481742D01*
X212382085Y-90481742D02*
X212334466Y-90576980D01*
X212334466Y-90576980D02*
X212286847Y-90624600D01*
X212286847Y-90624600D02*
X212191609Y-90672219D01*
X212191609Y-90672219D02*
X211953514Y-90672219D01*
X211953514Y-90672219D02*
X211858276Y-90624600D01*
X211858276Y-90624600D02*
X211810657Y-90576980D01*
X173838095Y-89652219D02*
X173838095Y-90461742D01*
X173838095Y-90461742D02*
X173885714Y-90556980D01*
X173885714Y-90556980D02*
X173933333Y-90604600D01*
X173933333Y-90604600D02*
X174028571Y-90652219D01*
X174028571Y-90652219D02*
X174219047Y-90652219D01*
X174219047Y-90652219D02*
X174314285Y-90604600D01*
X174314285Y-90604600D02*
X174361904Y-90556980D01*
X174361904Y-90556980D02*
X174409523Y-90461742D01*
X174409523Y-90461742D02*
X174409523Y-89652219D01*
X174838095Y-89747457D02*
X174885714Y-89699838D01*
X174885714Y-89699838D02*
X174980952Y-89652219D01*
X174980952Y-89652219D02*
X175219047Y-89652219D01*
X175219047Y-89652219D02*
X175314285Y-89699838D01*
X175314285Y-89699838D02*
X175361904Y-89747457D01*
X175361904Y-89747457D02*
X175409523Y-89842695D01*
X175409523Y-89842695D02*
X175409523Y-89937933D01*
X175409523Y-89937933D02*
X175361904Y-90080790D01*
X175361904Y-90080790D02*
X174790476Y-90652219D01*
X174790476Y-90652219D02*
X175409523Y-90652219D01*
X187938095Y-102352219D02*
X188604761Y-102352219D01*
X188604761Y-102352219D02*
X188176190Y-103352219D01*
X189414285Y-102685552D02*
X189414285Y-103352219D01*
X189176190Y-102304600D02*
X188938095Y-103018885D01*
X188938095Y-103018885D02*
X189557142Y-103018885D01*
X189938095Y-103352219D02*
X189938095Y-102352219D01*
X189938095Y-102828409D02*
X190509523Y-102828409D01*
X190509523Y-103352219D02*
X190509523Y-102352219D01*
X191557142Y-103256980D02*
X191509523Y-103304600D01*
X191509523Y-103304600D02*
X191366666Y-103352219D01*
X191366666Y-103352219D02*
X191271428Y-103352219D01*
X191271428Y-103352219D02*
X191128571Y-103304600D01*
X191128571Y-103304600D02*
X191033333Y-103209361D01*
X191033333Y-103209361D02*
X190985714Y-103114123D01*
X190985714Y-103114123D02*
X190938095Y-102923647D01*
X190938095Y-102923647D02*
X190938095Y-102780790D01*
X190938095Y-102780790D02*
X190985714Y-102590314D01*
X190985714Y-102590314D02*
X191033333Y-102495076D01*
X191033333Y-102495076D02*
X191128571Y-102399838D01*
X191128571Y-102399838D02*
X191271428Y-102352219D01*
X191271428Y-102352219D02*
X191366666Y-102352219D01*
X191366666Y-102352219D02*
X191509523Y-102399838D01*
X191509523Y-102399838D02*
X191557142Y-102447457D01*
X192461904Y-102352219D02*
X191985714Y-102352219D01*
X191985714Y-102352219D02*
X191938095Y-102828409D01*
X191938095Y-102828409D02*
X191985714Y-102780790D01*
X191985714Y-102780790D02*
X192080952Y-102733171D01*
X192080952Y-102733171D02*
X192319047Y-102733171D01*
X192319047Y-102733171D02*
X192414285Y-102780790D01*
X192414285Y-102780790D02*
X192461904Y-102828409D01*
X192461904Y-102828409D02*
X192509523Y-102923647D01*
X192509523Y-102923647D02*
X192509523Y-103161742D01*
X192509523Y-103161742D02*
X192461904Y-103256980D01*
X192461904Y-103256980D02*
X192414285Y-103304600D01*
X192414285Y-103304600D02*
X192319047Y-103352219D01*
X192319047Y-103352219D02*
X192080952Y-103352219D01*
X192080952Y-103352219D02*
X191985714Y-103304600D01*
X191985714Y-103304600D02*
X191938095Y-103256980D01*
X192985714Y-103352219D02*
X193176190Y-103352219D01*
X193176190Y-103352219D02*
X193271428Y-103304600D01*
X193271428Y-103304600D02*
X193319047Y-103256980D01*
X193319047Y-103256980D02*
X193414285Y-103114123D01*
X193414285Y-103114123D02*
X193461904Y-102923647D01*
X193461904Y-102923647D02*
X193461904Y-102542695D01*
X193461904Y-102542695D02*
X193414285Y-102447457D01*
X193414285Y-102447457D02*
X193366666Y-102399838D01*
X193366666Y-102399838D02*
X193271428Y-102352219D01*
X193271428Y-102352219D02*
X193080952Y-102352219D01*
X193080952Y-102352219D02*
X192985714Y-102399838D01*
X192985714Y-102399838D02*
X192938095Y-102447457D01*
X192938095Y-102447457D02*
X192890476Y-102542695D01*
X192890476Y-102542695D02*
X192890476Y-102780790D01*
X192890476Y-102780790D02*
X192938095Y-102876028D01*
X192938095Y-102876028D02*
X192985714Y-102923647D01*
X192985714Y-102923647D02*
X193080952Y-102971266D01*
X193080952Y-102971266D02*
X193271428Y-102971266D01*
X193271428Y-102971266D02*
X193366666Y-102923647D01*
X193366666Y-102923647D02*
X193414285Y-102876028D01*
X193414285Y-102876028D02*
X193461904Y-102780790D01*
X194366666Y-102352219D02*
X193890476Y-102352219D01*
X193890476Y-102352219D02*
X193842857Y-102828409D01*
X193842857Y-102828409D02*
X193890476Y-102780790D01*
X193890476Y-102780790D02*
X193985714Y-102733171D01*
X193985714Y-102733171D02*
X194223809Y-102733171D01*
X194223809Y-102733171D02*
X194319047Y-102780790D01*
X194319047Y-102780790D02*
X194366666Y-102828409D01*
X194366666Y-102828409D02*
X194414285Y-102923647D01*
X194414285Y-102923647D02*
X194414285Y-103161742D01*
X194414285Y-103161742D02*
X194366666Y-103256980D01*
X194366666Y-103256980D02*
X194319047Y-103304600D01*
X194319047Y-103304600D02*
X194223809Y-103352219D01*
X194223809Y-103352219D02*
X193985714Y-103352219D01*
X193985714Y-103352219D02*
X193890476Y-103304600D01*
X193890476Y-103304600D02*
X193842857Y-103256980D01*
D11*
%TO.C,C1*%
X207267800Y-95335000D02*
X207267800Y-92595000D01*
X207267800Y-95335000D02*
X202027800Y-95335000D01*
X207267800Y-92595000D02*
X202027800Y-92595000D01*
X202027800Y-95335000D02*
X202027800Y-92595000D01*
%TO.C,C2*%
X168175000Y-95805000D02*
X170915000Y-95805000D01*
X170915000Y-101045000D02*
X170915000Y-95805000D01*
X168175000Y-101045000D02*
X168175000Y-95805000D01*
X168175000Y-101045000D02*
X170915000Y-101045000D01*
D12*
%TO.C,DS1*%
X197309700Y-79702700D02*
G75*
G02*
X197304700Y-79702700I-2500J-179500D01*
G01*
X190070700Y-79829700D02*
G75*
G02*
X190065700Y-79829700I-2500J-179500D01*
G01*
X181688700Y-79829700D02*
G75*
G02*
X181683700Y-79829700I-2500J-179500D01*
G01*
X174449700Y-79956700D02*
G75*
G02*
X174444700Y-79956700I-2500J-179500D01*
G01*
X199150000Y-84677000D02*
X169150000Y-84677000D01*
X199150000Y-82677000D02*
X199150000Y-84677000D01*
X199150000Y-72517000D02*
X199150000Y-82677000D01*
X199150000Y-70517000D02*
X199150000Y-72517000D01*
X197866000Y-75311000D02*
X197739000Y-75057000D01*
X197739000Y-75057000D02*
X197485000Y-75184000D01*
X197612000Y-74803000D02*
X197104000Y-75057000D01*
X197485000Y-75184000D02*
X197739000Y-75057000D01*
X197485000Y-75184000D02*
X196977000Y-76962000D01*
X197485000Y-74549000D02*
X197612000Y-74803000D01*
X197358000Y-77089000D02*
X197866000Y-75311000D01*
X197104000Y-77851000D02*
X196977000Y-77597000D01*
X197104000Y-77216000D02*
X197358000Y-77089000D01*
X197104000Y-75057000D02*
X195707000Y-75057000D01*
X196977000Y-77597000D02*
X196723000Y-77724000D01*
X196977000Y-76962000D02*
X197104000Y-77216000D01*
X196850000Y-77343000D02*
X196342000Y-77597000D01*
X196723000Y-77724000D02*
X196215000Y-79502000D01*
X196723000Y-77089000D02*
X196850000Y-77343000D01*
X196596000Y-79629000D02*
X197104000Y-77851000D01*
X196342000Y-79756000D02*
X196596000Y-79629000D01*
X196342000Y-77597000D02*
X194945000Y-77597000D01*
X196215000Y-79502000D02*
X196342000Y-79756000D01*
X196088000Y-79883000D02*
X195580000Y-80137000D01*
X195961000Y-79629000D02*
X196088000Y-79883000D01*
X195961000Y-74549000D02*
X197485000Y-74549000D01*
X195707000Y-75057000D02*
X195580000Y-74803000D01*
X195580000Y-80137000D02*
X194183000Y-80137000D01*
X195580000Y-74803000D02*
X195961000Y-74549000D01*
X195326000Y-75184000D02*
X195199000Y-74930000D01*
X195326000Y-75184000D02*
X195199000Y-74930000D01*
X195199000Y-77089000D02*
X196723000Y-77089000D01*
X195199000Y-74930000D02*
X194945000Y-75057000D01*
X195199000Y-74930000D02*
X194945000Y-75057000D01*
X194945000Y-77597000D02*
X194818000Y-77343000D01*
X194945000Y-75057000D02*
X194437000Y-76835000D01*
X194818000Y-77343000D02*
X195199000Y-77089000D01*
X194818000Y-76962000D02*
X195326000Y-75184000D01*
X194564000Y-77724000D02*
X194437000Y-77470000D01*
X194564000Y-77089000D02*
X194818000Y-76962000D01*
X194437000Y-79629000D02*
X195961000Y-79629000D01*
X194437000Y-77470000D02*
X194183000Y-77597000D01*
X194437000Y-76835000D02*
X194564000Y-77089000D01*
X194183000Y-80137000D02*
X194056000Y-79883000D01*
X194183000Y-77597000D02*
X193675000Y-79375000D01*
X194056000Y-79883000D02*
X194437000Y-79629000D01*
X194056000Y-79502000D02*
X194564000Y-77724000D01*
X193802000Y-79629000D02*
X194056000Y-79502000D01*
X193802000Y-79629000D02*
X194056000Y-79502000D01*
X193675000Y-79375000D02*
X193802000Y-79629000D01*
X190627000Y-75438000D02*
X190119000Y-77216000D01*
X190500000Y-75184000D02*
X190627000Y-75438000D01*
X190500000Y-75184000D02*
X190246000Y-75311000D01*
X190373000Y-74930000D02*
X189865000Y-75184000D01*
X190246000Y-75311000D02*
X190500000Y-75184000D01*
X190246000Y-74676000D02*
X190373000Y-74930000D01*
X190119000Y-77216000D02*
X189865000Y-77343000D01*
X189865000Y-77978000D02*
X189738000Y-77724000D01*
X189865000Y-77343000D02*
X189738000Y-77089000D01*
X189865000Y-75184000D02*
X188468000Y-75184000D01*
X189738000Y-77724000D02*
X189484000Y-77851000D01*
X189738000Y-77089000D02*
X190246000Y-75311000D01*
X189611000Y-77470000D02*
X189103000Y-77724000D01*
X189484000Y-77851000D02*
X188976000Y-79629000D01*
X189484000Y-77216000D02*
X189611000Y-77470000D01*
X189357000Y-79756000D02*
X189865000Y-77978000D01*
X189103000Y-79883000D02*
X189357000Y-79756000D01*
X189103000Y-77724000D02*
X187706000Y-77724000D01*
X188976000Y-79629000D02*
X189103000Y-79883000D01*
X188849000Y-80010000D02*
X188341000Y-80264000D01*
X188722000Y-79756000D02*
X188849000Y-80010000D01*
X188722000Y-74676000D02*
X190246000Y-74676000D01*
X188468000Y-75184000D02*
X188341000Y-74930000D01*
X188341000Y-80264000D02*
X186944000Y-80264000D01*
X188341000Y-74930000D02*
X188722000Y-74676000D01*
X188087000Y-75311000D02*
X187960000Y-75057000D01*
X187960000Y-77216000D02*
X189484000Y-77216000D01*
X187960000Y-75057000D02*
X188087000Y-75311000D01*
X187960000Y-75057000D02*
X187706000Y-75184000D01*
X187706000Y-77724000D02*
X187579000Y-77470000D01*
X187706000Y-75184000D02*
X187960000Y-75057000D01*
X187706000Y-75184000D02*
X187198000Y-76962000D01*
X187579000Y-77470000D02*
X187960000Y-77216000D01*
X187579000Y-77089000D02*
X188087000Y-75311000D01*
X187325000Y-77851000D02*
X187198000Y-77597000D01*
X187325000Y-77216000D02*
X187579000Y-77089000D01*
X187198000Y-79756000D02*
X188722000Y-79756000D01*
X187198000Y-77597000D02*
X186944000Y-77724000D01*
X187198000Y-76962000D02*
X187325000Y-77216000D01*
X186944000Y-80264000D02*
X186817000Y-80010000D01*
X186944000Y-77724000D02*
X186436000Y-79502000D01*
X186817000Y-80010000D02*
X187198000Y-79756000D01*
X186817000Y-79629000D02*
X187325000Y-77851000D01*
X186563000Y-79756000D02*
X186817000Y-79629000D01*
X186563000Y-79756000D02*
X186817000Y-79629000D01*
X186436000Y-79502000D02*
X186563000Y-79756000D01*
X182245000Y-75438000D02*
X182118000Y-75184000D01*
X182118000Y-75184000D02*
X181864000Y-75311000D01*
X181991000Y-74930000D02*
X181483000Y-75184000D01*
X181864000Y-75311000D02*
X182118000Y-75184000D01*
X181864000Y-75311000D02*
X181356000Y-77089000D01*
X181864000Y-74676000D02*
X181991000Y-74930000D01*
X181737000Y-77216000D02*
X182245000Y-75438000D01*
X181483000Y-77978000D02*
X181356000Y-77724000D01*
X181483000Y-77343000D02*
X181737000Y-77216000D01*
X181483000Y-75184000D02*
X180086000Y-75184000D01*
X181356000Y-77724000D02*
X181102000Y-77851000D01*
X181356000Y-77089000D02*
X181483000Y-77343000D01*
X181229000Y-77470000D02*
X180721000Y-77724000D01*
X181102000Y-77851000D02*
X180594000Y-79629000D01*
X181102000Y-77216000D02*
X181229000Y-77470000D01*
X180975000Y-79756000D02*
X181483000Y-77978000D01*
X180721000Y-79883000D02*
X180975000Y-79756000D01*
X180721000Y-77724000D02*
X179324000Y-77724000D01*
X180594000Y-79629000D02*
X180721000Y-79883000D01*
X180467000Y-80010000D02*
X179959000Y-80264000D01*
X180340000Y-79756000D02*
X180467000Y-80010000D01*
X180340000Y-74676000D02*
X181864000Y-74676000D01*
X180086000Y-75184000D02*
X179959000Y-74930000D01*
X179959000Y-80264000D02*
X178562000Y-80264000D01*
X179959000Y-74930000D02*
X180340000Y-74676000D01*
X179705000Y-75311000D02*
X179578000Y-75057000D01*
X179705000Y-75311000D02*
X179578000Y-75057000D01*
X179578000Y-77216000D02*
X181102000Y-77216000D01*
X179578000Y-75057000D02*
X179324000Y-75184000D01*
X179578000Y-75057000D02*
X179324000Y-75184000D01*
X179324000Y-77724000D02*
X179197000Y-77470000D01*
X179324000Y-75184000D02*
X178816000Y-76962000D01*
X179197000Y-77470000D02*
X179578000Y-77216000D01*
X179197000Y-77089000D02*
X179705000Y-75311000D01*
X178943000Y-77851000D02*
X178816000Y-77597000D01*
X178943000Y-77216000D02*
X179197000Y-77089000D01*
X178816000Y-79756000D02*
X180340000Y-79756000D01*
X178816000Y-77597000D02*
X178562000Y-77724000D01*
X178816000Y-76962000D02*
X178943000Y-77216000D01*
X178562000Y-80264000D02*
X178435000Y-80010000D01*
X178562000Y-77724000D02*
X178054000Y-79502000D01*
X178435000Y-80010000D02*
X178816000Y-79756000D01*
X178435000Y-79629000D02*
X178943000Y-77851000D01*
X178181000Y-79756000D02*
X178435000Y-79629000D01*
X178181000Y-79756000D02*
X178435000Y-79629000D01*
X178054000Y-79502000D02*
X178181000Y-79756000D01*
X175006000Y-75565000D02*
X174498000Y-77343000D01*
X174879000Y-75311000D02*
X175006000Y-75565000D01*
X174879000Y-75311000D02*
X174625000Y-75438000D01*
X174752000Y-75057000D02*
X174244000Y-75311000D01*
X174625000Y-75438000D02*
X174879000Y-75311000D01*
X174625000Y-74803000D02*
X174752000Y-75057000D01*
X174498000Y-77343000D02*
X174244000Y-77470000D01*
X174244000Y-78105000D02*
X174117000Y-77851000D01*
X174244000Y-77470000D02*
X174117000Y-77216000D01*
X174244000Y-75311000D02*
X172847000Y-75311000D01*
X174117000Y-77851000D02*
X173863000Y-77978000D01*
X174117000Y-77216000D02*
X174625000Y-75438000D01*
X173990000Y-77597000D02*
X173482000Y-77851000D01*
X173863000Y-77978000D02*
X173355000Y-79756000D01*
X173863000Y-77343000D02*
X173990000Y-77597000D01*
X173736000Y-79883000D02*
X174244000Y-78105000D01*
X173482000Y-80010000D02*
X173736000Y-79883000D01*
X173482000Y-77851000D02*
X172085000Y-77851000D01*
X173355000Y-79756000D02*
X173482000Y-80010000D01*
X173228000Y-80137000D02*
X172720000Y-80391000D01*
X173101000Y-79883000D02*
X173228000Y-80137000D01*
X173101000Y-74803000D02*
X174625000Y-74803000D01*
X172847000Y-75311000D02*
X172720000Y-75057000D01*
X172720000Y-80391000D02*
X171323000Y-80391000D01*
X172720000Y-75057000D02*
X173101000Y-74803000D01*
X172466000Y-75438000D02*
X172339000Y-75184000D01*
X172339000Y-77343000D02*
X173863000Y-77343000D01*
X172339000Y-75184000D02*
X172466000Y-75438000D01*
X172339000Y-75184000D02*
X172085000Y-75311000D01*
X172085000Y-77851000D02*
X171958000Y-77597000D01*
X172085000Y-75311000D02*
X172339000Y-75184000D01*
X172085000Y-75311000D02*
X171577000Y-77089000D01*
X171958000Y-77597000D02*
X172339000Y-77343000D01*
X171958000Y-77216000D02*
X172466000Y-75438000D01*
X171704000Y-77978000D02*
X171577000Y-77724000D01*
X171704000Y-77343000D02*
X171958000Y-77216000D01*
X171577000Y-79883000D02*
X173101000Y-79883000D01*
X171577000Y-77724000D02*
X171323000Y-77851000D01*
X171577000Y-77089000D02*
X171704000Y-77343000D01*
X171323000Y-80391000D02*
X171196000Y-80137000D01*
X171323000Y-77851000D02*
X170815000Y-79629000D01*
X171196000Y-80137000D02*
X171577000Y-79883000D01*
X171196000Y-79756000D02*
X171704000Y-77978000D01*
X170942000Y-79883000D02*
X171196000Y-79756000D01*
X170942000Y-79883000D02*
X171196000Y-79756000D01*
X170815000Y-79629000D02*
X170942000Y-79883000D01*
X169150000Y-84677000D02*
X169150000Y-82677000D01*
X169150000Y-82677000D02*
X169150000Y-72517000D01*
X169150000Y-72517000D02*
X169150000Y-70517000D01*
X169150000Y-70517000D02*
X199150000Y-70517000D01*
D11*
%TO.C,U1*%
X208172800Y-68520000D02*
G75*
G02*
X206172800Y-68520000I-1000000J0D01*
G01*
X209422800Y-88960000D02*
X209422800Y-68520000D01*
X209422800Y-68520000D02*
X208172800Y-68520000D01*
X206172800Y-68520000D02*
X204922800Y-68520000D01*
X204922800Y-88960000D02*
X209422800Y-88960000D01*
X204922800Y-68520000D02*
X204922800Y-88960000D01*
%TO.C,U2*%
X194355000Y-94255000D02*
X173915000Y-94255000D01*
X173915000Y-94255000D02*
X173915000Y-98755000D01*
X194355000Y-95505000D02*
X194355000Y-94255000D01*
X194355000Y-98755000D02*
X194355000Y-97505000D01*
X173915000Y-98755000D02*
X194355000Y-98755000D01*
X194355000Y-97505000D02*
G75*
G02*
X194355000Y-95505000I0J1000000D01*
G01*
D13*
%TO.C,Graphic_KiCad*%
X208658614Y-105145877D02*
X208682327Y-105160647D01*
X208708978Y-105182227D01*
X208708978Y-105503773D01*
X208708893Y-105597830D01*
X208708529Y-105671932D01*
X208707724Y-105728704D01*
X208706313Y-105770768D01*
X208704133Y-105800748D01*
X208701021Y-105821267D01*
X208696814Y-105834949D01*
X208691348Y-105844416D01*
X208687472Y-105849082D01*
X208656034Y-105869575D01*
X208620233Y-105868739D01*
X208588873Y-105851264D01*
X208562222Y-105829684D01*
X208562222Y-105182227D01*
X208588873Y-105160647D01*
X208614594Y-105144949D01*
X208635600Y-105139067D01*
X208658614Y-105145877D01*
G36*
X208658614Y-105145877D02*
G01*
X208682327Y-105160647D01*
X208708978Y-105182227D01*
X208708978Y-105503773D01*
X208708893Y-105597830D01*
X208708529Y-105671932D01*
X208707724Y-105728704D01*
X208706313Y-105770768D01*
X208704133Y-105800748D01*
X208701021Y-105821267D01*
X208696814Y-105834949D01*
X208691348Y-105844416D01*
X208687472Y-105849082D01*
X208656034Y-105869575D01*
X208620233Y-105868739D01*
X208588873Y-105851264D01*
X208562222Y-105829684D01*
X208562222Y-105182227D01*
X208588873Y-105160647D01*
X208614594Y-105144949D01*
X208635600Y-105139067D01*
X208658614Y-105145877D01*
G37*
X201546178Y-105161645D02*
X201552758Y-105169218D01*
X201557921Y-105178987D01*
X201561836Y-105193571D01*
X201564676Y-105215585D01*
X201566613Y-105247648D01*
X201567817Y-105292375D01*
X201568461Y-105352385D01*
X201568716Y-105430294D01*
X201568755Y-105505956D01*
X201568686Y-105599802D01*
X201568362Y-105673689D01*
X201567614Y-105730232D01*
X201566268Y-105772049D01*
X201564154Y-105801757D01*
X201561100Y-105821973D01*
X201556934Y-105835314D01*
X201551484Y-105844398D01*
X201546178Y-105850267D01*
X201513174Y-105869947D01*
X201478009Y-105868181D01*
X201446545Y-105846717D01*
X201439316Y-105838337D01*
X201433666Y-105828614D01*
X201429401Y-105814861D01*
X201426327Y-105794389D01*
X201424248Y-105764512D01*
X201422970Y-105722541D01*
X201422299Y-105665789D01*
X201422041Y-105591567D01*
X201422000Y-105507537D01*
X201422000Y-105194485D01*
X201449709Y-105166776D01*
X201483863Y-105143463D01*
X201516994Y-105142623D01*
X201546178Y-105161645D01*
G36*
X201546178Y-105161645D02*
G01*
X201552758Y-105169218D01*
X201557921Y-105178987D01*
X201561836Y-105193571D01*
X201564676Y-105215585D01*
X201566613Y-105247648D01*
X201567817Y-105292375D01*
X201568461Y-105352385D01*
X201568716Y-105430294D01*
X201568755Y-105505956D01*
X201568686Y-105599802D01*
X201568362Y-105673689D01*
X201567614Y-105730232D01*
X201566268Y-105772049D01*
X201564154Y-105801757D01*
X201561100Y-105821973D01*
X201556934Y-105835314D01*
X201551484Y-105844398D01*
X201546178Y-105850267D01*
X201513174Y-105869947D01*
X201478009Y-105868181D01*
X201446545Y-105846717D01*
X201439316Y-105838337D01*
X201433666Y-105828614D01*
X201429401Y-105814861D01*
X201426327Y-105794389D01*
X201424248Y-105764512D01*
X201422970Y-105722541D01*
X201422299Y-105665789D01*
X201422041Y-105591567D01*
X201422000Y-105507537D01*
X201422000Y-105194485D01*
X201449709Y-105166776D01*
X201483863Y-105143463D01*
X201516994Y-105142623D01*
X201546178Y-105161645D01*
G37*
X202196957Y-99896571D02*
X202293232Y-99920809D01*
X202379816Y-99963641D01*
X202454627Y-100023419D01*
X202515582Y-100098494D01*
X202560601Y-100187220D01*
X202586864Y-100283530D01*
X202592714Y-100380795D01*
X202577860Y-100474654D01*
X202544160Y-100562511D01*
X202493472Y-100641770D01*
X202427655Y-100709836D01*
X202348566Y-100764112D01*
X202258066Y-100802002D01*
X202206800Y-100814426D01*
X202162302Y-100821947D01*
X202128001Y-100824919D01*
X202095040Y-100823094D01*
X202054566Y-100816225D01*
X202021469Y-100809250D01*
X201928053Y-100777741D01*
X201844381Y-100726617D01*
X201772335Y-100657429D01*
X201713800Y-100571728D01*
X201699852Y-100544489D01*
X201683414Y-100508122D01*
X201673106Y-100477582D01*
X201667540Y-100445450D01*
X201665331Y-100404307D01*
X201665052Y-100358222D01*
X201669139Y-100273865D01*
X201682554Y-100204586D01*
X201707744Y-100143961D01*
X201747154Y-100085567D01*
X201785702Y-100041302D01*
X201857594Y-99975484D01*
X201932687Y-99930053D01*
X202015438Y-99902850D01*
X202093072Y-99892576D01*
X202196957Y-99896571D01*
G36*
X202196957Y-99896571D02*
G01*
X202293232Y-99920809D01*
X202379816Y-99963641D01*
X202454627Y-100023419D01*
X202515582Y-100098494D01*
X202560601Y-100187220D01*
X202586864Y-100283530D01*
X202592714Y-100380795D01*
X202577860Y-100474654D01*
X202544160Y-100562511D01*
X202493472Y-100641770D01*
X202427655Y-100709836D01*
X202348566Y-100764112D01*
X202258066Y-100802002D01*
X202206800Y-100814426D01*
X202162302Y-100821947D01*
X202128001Y-100824919D01*
X202095040Y-100823094D01*
X202054566Y-100816225D01*
X202021469Y-100809250D01*
X201928053Y-100777741D01*
X201844381Y-100726617D01*
X201772335Y-100657429D01*
X201713800Y-100571728D01*
X201699852Y-100544489D01*
X201683414Y-100508122D01*
X201673106Y-100477582D01*
X201667540Y-100445450D01*
X201665331Y-100404307D01*
X201665052Y-100358222D01*
X201669139Y-100273865D01*
X201682554Y-100204586D01*
X201707744Y-100143961D01*
X201747154Y-100085567D01*
X201785702Y-100041302D01*
X201857594Y-99975484D01*
X201932687Y-99930053D01*
X202015438Y-99902850D01*
X202093072Y-99892576D01*
X202196957Y-99896571D01*
G37*
X209433065Y-105139163D02*
X209511772Y-105139542D01*
X209572863Y-105140333D01*
X209618817Y-105141670D01*
X209652114Y-105143683D01*
X209675236Y-105146506D01*
X209690662Y-105150269D01*
X209700871Y-105155105D01*
X209705813Y-105158822D01*
X209731457Y-105191358D01*
X209734559Y-105225138D01*
X209718711Y-105255826D01*
X209708348Y-105268089D01*
X209697196Y-105276450D01*
X209681035Y-105281657D01*
X209655642Y-105284457D01*
X209616798Y-105285596D01*
X209560280Y-105285821D01*
X209549180Y-105285822D01*
X209403244Y-105285822D01*
X209403244Y-105556756D01*
X209403148Y-105642154D01*
X209402711Y-105707864D01*
X209401712Y-105756774D01*
X209399928Y-105791773D01*
X209397137Y-105815749D01*
X209393117Y-105831593D01*
X209387645Y-105842191D01*
X209380666Y-105850267D01*
X209347734Y-105870112D01*
X209313354Y-105868548D01*
X209282176Y-105845906D01*
X209279886Y-105843100D01*
X209272429Y-105832492D01*
X209266747Y-105820081D01*
X209262601Y-105802850D01*
X209259750Y-105777784D01*
X209257954Y-105741867D01*
X209256972Y-105692083D01*
X209256564Y-105625417D01*
X209256489Y-105549589D01*
X209256489Y-105285822D01*
X209117127Y-105285822D01*
X209057322Y-105285418D01*
X209015918Y-105283840D01*
X208988748Y-105280547D01*
X208971646Y-105274992D01*
X208960443Y-105266631D01*
X208959083Y-105265178D01*
X208942725Y-105231939D01*
X208944172Y-105194362D01*
X208962978Y-105161645D01*
X208970250Y-105155298D01*
X208979627Y-105150266D01*
X208993609Y-105146396D01*
X209014696Y-105143537D01*
X209045389Y-105141535D01*
X209088189Y-105140239D01*
X209145595Y-105139498D01*
X209220110Y-105139158D01*
X209314233Y-105139068D01*
X209334260Y-105139067D01*
X209433065Y-105139163D01*
G36*
X209433065Y-105139163D02*
G01*
X209511772Y-105139542D01*
X209572863Y-105140333D01*
X209618817Y-105141670D01*
X209652114Y-105143683D01*
X209675236Y-105146506D01*
X209690662Y-105150269D01*
X209700871Y-105155105D01*
X209705813Y-105158822D01*
X209731457Y-105191358D01*
X209734559Y-105225138D01*
X209718711Y-105255826D01*
X209708348Y-105268089D01*
X209697196Y-105276450D01*
X209681035Y-105281657D01*
X209655642Y-105284457D01*
X209616798Y-105285596D01*
X209560280Y-105285821D01*
X209549180Y-105285822D01*
X209403244Y-105285822D01*
X209403244Y-105556756D01*
X209403148Y-105642154D01*
X209402711Y-105707864D01*
X209401712Y-105756774D01*
X209399928Y-105791773D01*
X209397137Y-105815749D01*
X209393117Y-105831593D01*
X209387645Y-105842191D01*
X209380666Y-105850267D01*
X209347734Y-105870112D01*
X209313354Y-105868548D01*
X209282176Y-105845906D01*
X209279886Y-105843100D01*
X209272429Y-105832492D01*
X209266747Y-105820081D01*
X209262601Y-105802850D01*
X209259750Y-105777784D01*
X209257954Y-105741867D01*
X209256972Y-105692083D01*
X209256564Y-105625417D01*
X209256489Y-105549589D01*
X209256489Y-105285822D01*
X209117127Y-105285822D01*
X209057322Y-105285418D01*
X209015918Y-105283840D01*
X208988748Y-105280547D01*
X208971646Y-105274992D01*
X208960443Y-105266631D01*
X208959083Y-105265178D01*
X208942725Y-105231939D01*
X208944172Y-105194362D01*
X208962978Y-105161645D01*
X208970250Y-105155298D01*
X208979627Y-105150266D01*
X208993609Y-105146396D01*
X209014696Y-105143537D01*
X209045389Y-105141535D01*
X209088189Y-105140239D01*
X209145595Y-105139498D01*
X209220110Y-105139158D01*
X209314233Y-105139068D01*
X209334260Y-105139067D01*
X209433065Y-105139163D01*
G37*
X210698823Y-105144533D02*
X210730202Y-105166776D01*
X210757911Y-105194485D01*
X210757911Y-105503920D01*
X210757838Y-105595799D01*
X210757495Y-105667840D01*
X210756692Y-105722780D01*
X210755241Y-105763360D01*
X210752952Y-105792317D01*
X210749636Y-105812391D01*
X210745105Y-105826321D01*
X210739169Y-105836845D01*
X210734514Y-105843100D01*
X210703783Y-105867673D01*
X210668496Y-105870341D01*
X210636245Y-105855271D01*
X210625588Y-105846374D01*
X210618464Y-105834557D01*
X210614167Y-105815526D01*
X210611991Y-105784992D01*
X210611228Y-105738662D01*
X210611155Y-105702871D01*
X210611155Y-105568045D01*
X210114444Y-105568045D01*
X210114444Y-105690700D01*
X210113931Y-105746787D01*
X210111876Y-105785333D01*
X210107508Y-105811361D01*
X210100056Y-105829897D01*
X210091047Y-105843100D01*
X210060144Y-105867604D01*
X210025196Y-105870506D01*
X209991738Y-105853089D01*
X209982604Y-105843959D01*
X209976152Y-105831855D01*
X209971897Y-105813001D01*
X209969352Y-105783620D01*
X209968029Y-105739937D01*
X209967443Y-105678175D01*
X209967375Y-105664000D01*
X209966891Y-105547631D01*
X209966641Y-105451727D01*
X209966723Y-105374177D01*
X209967231Y-105312869D01*
X209968262Y-105265690D01*
X209969913Y-105230530D01*
X209972279Y-105205276D01*
X209975457Y-105187817D01*
X209979544Y-105176041D01*
X209984634Y-105167835D01*
X209990266Y-105161645D01*
X210022128Y-105141844D01*
X210055357Y-105144533D01*
X210086735Y-105166776D01*
X210099433Y-105181126D01*
X210107526Y-105196978D01*
X210112042Y-105219554D01*
X210114006Y-105254078D01*
X210114444Y-105305776D01*
X210114444Y-105421289D01*
X210611155Y-105421289D01*
X210611155Y-105302756D01*
X210611662Y-105248148D01*
X210613698Y-105211275D01*
X210618035Y-105187307D01*
X210625447Y-105171415D01*
X210633733Y-105161645D01*
X210665594Y-105141844D01*
X210698823Y-105144533D01*
G36*
X210698823Y-105144533D02*
G01*
X210730202Y-105166776D01*
X210757911Y-105194485D01*
X210757911Y-105503920D01*
X210757838Y-105595799D01*
X210757495Y-105667840D01*
X210756692Y-105722780D01*
X210755241Y-105763360D01*
X210752952Y-105792317D01*
X210749636Y-105812391D01*
X210745105Y-105826321D01*
X210739169Y-105836845D01*
X210734514Y-105843100D01*
X210703783Y-105867673D01*
X210668496Y-105870341D01*
X210636245Y-105855271D01*
X210625588Y-105846374D01*
X210618464Y-105834557D01*
X210614167Y-105815526D01*
X210611991Y-105784992D01*
X210611228Y-105738662D01*
X210611155Y-105702871D01*
X210611155Y-105568045D01*
X210114444Y-105568045D01*
X210114444Y-105690700D01*
X210113931Y-105746787D01*
X210111876Y-105785333D01*
X210107508Y-105811361D01*
X210100056Y-105829897D01*
X210091047Y-105843100D01*
X210060144Y-105867604D01*
X210025196Y-105870506D01*
X209991738Y-105853089D01*
X209982604Y-105843959D01*
X209976152Y-105831855D01*
X209971897Y-105813001D01*
X209969352Y-105783620D01*
X209968029Y-105739937D01*
X209967443Y-105678175D01*
X209967375Y-105664000D01*
X209966891Y-105547631D01*
X209966641Y-105451727D01*
X209966723Y-105374177D01*
X209967231Y-105312869D01*
X209968262Y-105265690D01*
X209969913Y-105230530D01*
X209972279Y-105205276D01*
X209975457Y-105187817D01*
X209979544Y-105176041D01*
X209984634Y-105167835D01*
X209990266Y-105161645D01*
X210022128Y-105141844D01*
X210055357Y-105144533D01*
X210086735Y-105166776D01*
X210099433Y-105181126D01*
X210107526Y-105196978D01*
X210112042Y-105219554D01*
X210114006Y-105254078D01*
X210114444Y-105305776D01*
X210114444Y-105421289D01*
X210611155Y-105421289D01*
X210611155Y-105302756D01*
X210611662Y-105248148D01*
X210613698Y-105211275D01*
X210618035Y-105187307D01*
X210625447Y-105171415D01*
X210633733Y-105161645D01*
X210665594Y-105141844D01*
X210698823Y-105144533D01*
G37*
X205488309Y-105139275D02*
X205617288Y-105143636D01*
X205726991Y-105156861D01*
X205819226Y-105179741D01*
X205895802Y-105213070D01*
X205958527Y-105257638D01*
X206009212Y-105314236D01*
X206049663Y-105383658D01*
X206050459Y-105385351D01*
X206074601Y-105447483D01*
X206083203Y-105502509D01*
X206076231Y-105557887D01*
X206053654Y-105621073D01*
X206049372Y-105630689D01*
X206020172Y-105686966D01*
X205987356Y-105730451D01*
X205945002Y-105767417D01*
X205887190Y-105804135D01*
X205883831Y-105806052D01*
X205833504Y-105830227D01*
X205776621Y-105848282D01*
X205709527Y-105860839D01*
X205628565Y-105868522D01*
X205530082Y-105871953D01*
X205495286Y-105872251D01*
X205329594Y-105872845D01*
X205306197Y-105843100D01*
X205299257Y-105833319D01*
X205293842Y-105821897D01*
X205289765Y-105806095D01*
X205286837Y-105783175D01*
X205284867Y-105750396D01*
X205284225Y-105726089D01*
X205283668Y-105705021D01*
X205283050Y-105644311D01*
X205282825Y-105565526D01*
X205282800Y-105503920D01*
X205282800Y-105285822D01*
X205440844Y-105285822D01*
X205440844Y-105726089D01*
X205534726Y-105726089D01*
X205589664Y-105724483D01*
X205646060Y-105720255D01*
X205692345Y-105714292D01*
X205695139Y-105713790D01*
X205777348Y-105691736D01*
X205841114Y-105658600D01*
X205888452Y-105612847D01*
X205921382Y-105552939D01*
X205927108Y-105537061D01*
X205932721Y-105512333D01*
X205930291Y-105487902D01*
X205918467Y-105455400D01*
X205911340Y-105439434D01*
X205888000Y-105397006D01*
X205859880Y-105367240D01*
X205828940Y-105346511D01*
X205766966Y-105319537D01*
X205687651Y-105299998D01*
X205595253Y-105288746D01*
X205528333Y-105286270D01*
X205440844Y-105285822D01*
X205282800Y-105285822D01*
X205282800Y-105194485D01*
X205310509Y-105166776D01*
X205322806Y-105155544D01*
X205336103Y-105147853D01*
X205354672Y-105143040D01*
X205382786Y-105140446D01*
X205424717Y-105139410D01*
X205484737Y-105139270D01*
X205488309Y-105139275D01*
G36*
X205488309Y-105139275D02*
G01*
X205617288Y-105143636D01*
X205726991Y-105156861D01*
X205819226Y-105179741D01*
X205895802Y-105213070D01*
X205958527Y-105257638D01*
X206009212Y-105314236D01*
X206049663Y-105383658D01*
X206050459Y-105385351D01*
X206074601Y-105447483D01*
X206083203Y-105502509D01*
X206076231Y-105557887D01*
X206053654Y-105621073D01*
X206049372Y-105630689D01*
X206020172Y-105686966D01*
X205987356Y-105730451D01*
X205945002Y-105767417D01*
X205887190Y-105804135D01*
X205883831Y-105806052D01*
X205833504Y-105830227D01*
X205776621Y-105848282D01*
X205709527Y-105860839D01*
X205628565Y-105868522D01*
X205530082Y-105871953D01*
X205495286Y-105872251D01*
X205329594Y-105872845D01*
X205306197Y-105843100D01*
X205299257Y-105833319D01*
X205293842Y-105821897D01*
X205289765Y-105806095D01*
X205286837Y-105783175D01*
X205284867Y-105750396D01*
X205284225Y-105726089D01*
X205283668Y-105705021D01*
X205283050Y-105644311D01*
X205282825Y-105565526D01*
X205282800Y-105503920D01*
X205282800Y-105285822D01*
X205440844Y-105285822D01*
X205440844Y-105726089D01*
X205534726Y-105726089D01*
X205589664Y-105724483D01*
X205646060Y-105720255D01*
X205692345Y-105714292D01*
X205695139Y-105713790D01*
X205777348Y-105691736D01*
X205841114Y-105658600D01*
X205888452Y-105612847D01*
X205921382Y-105552939D01*
X205927108Y-105537061D01*
X205932721Y-105512333D01*
X205930291Y-105487902D01*
X205918467Y-105455400D01*
X205911340Y-105439434D01*
X205888000Y-105397006D01*
X205859880Y-105367240D01*
X205828940Y-105346511D01*
X205766966Y-105319537D01*
X205687651Y-105299998D01*
X205595253Y-105288746D01*
X205528333Y-105286270D01*
X205440844Y-105285822D01*
X205282800Y-105285822D01*
X205282800Y-105194485D01*
X205310509Y-105166776D01*
X205322806Y-105155544D01*
X205336103Y-105147853D01*
X205354672Y-105143040D01*
X205382786Y-105140446D01*
X205424717Y-105139410D01*
X205484737Y-105139270D01*
X205488309Y-105139275D01*
G37*
X198348629Y-105139066D02*
X198388111Y-105139467D01*
X198503800Y-105142259D01*
X198600689Y-105150550D01*
X198682081Y-105165232D01*
X198751277Y-105187193D01*
X198811580Y-105217322D01*
X198866292Y-105256510D01*
X198885833Y-105273532D01*
X198918250Y-105313363D01*
X198947480Y-105367413D01*
X198970009Y-105427323D01*
X198982321Y-105484739D01*
X198983600Y-105505956D01*
X198975583Y-105564769D01*
X198954101Y-105629013D01*
X198923001Y-105689821D01*
X198886134Y-105738330D01*
X198880146Y-105744182D01*
X198829421Y-105785321D01*
X198773875Y-105817435D01*
X198710304Y-105841365D01*
X198635506Y-105857953D01*
X198546278Y-105868041D01*
X198439418Y-105872469D01*
X198390472Y-105872845D01*
X198328238Y-105872545D01*
X198284472Y-105871292D01*
X198255069Y-105868554D01*
X198235921Y-105863801D01*
X198222923Y-105856501D01*
X198215955Y-105850267D01*
X198209374Y-105842694D01*
X198204212Y-105832924D01*
X198200297Y-105818340D01*
X198197457Y-105796326D01*
X198195520Y-105764264D01*
X198194492Y-105726089D01*
X198340133Y-105726089D01*
X198433266Y-105726004D01*
X198489307Y-105724396D01*
X198548001Y-105720256D01*
X198596972Y-105714464D01*
X198598462Y-105714226D01*
X198677608Y-105695090D01*
X198738998Y-105665287D01*
X198785695Y-105622878D01*
X198815365Y-105576961D01*
X198833647Y-105526026D01*
X198832229Y-105478200D01*
X198811012Y-105426933D01*
X198769511Y-105373899D01*
X198712002Y-105334600D01*
X198637250Y-105308331D01*
X198587292Y-105299035D01*
X198530584Y-105292507D01*
X198470481Y-105287782D01*
X198419361Y-105285817D01*
X198416333Y-105285808D01*
X198340133Y-105285822D01*
X198340133Y-105726089D01*
X198194492Y-105726089D01*
X198194316Y-105719536D01*
X198193672Y-105659526D01*
X198193417Y-105581617D01*
X198193378Y-105505956D01*
X198193130Y-105405041D01*
X198193183Y-105324427D01*
X198194143Y-105285822D01*
X198194740Y-105261851D01*
X198199002Y-105215055D01*
X198207170Y-105181778D01*
X198220444Y-105159759D01*
X198240026Y-105146739D01*
X198267117Y-105140457D01*
X198302918Y-105138653D01*
X198348629Y-105139066D01*
G36*
X198348629Y-105139066D02*
G01*
X198388111Y-105139467D01*
X198503800Y-105142259D01*
X198600689Y-105150550D01*
X198682081Y-105165232D01*
X198751277Y-105187193D01*
X198811580Y-105217322D01*
X198866292Y-105256510D01*
X198885833Y-105273532D01*
X198918250Y-105313363D01*
X198947480Y-105367413D01*
X198970009Y-105427323D01*
X198982321Y-105484739D01*
X198983600Y-105505956D01*
X198975583Y-105564769D01*
X198954101Y-105629013D01*
X198923001Y-105689821D01*
X198886134Y-105738330D01*
X198880146Y-105744182D01*
X198829421Y-105785321D01*
X198773875Y-105817435D01*
X198710304Y-105841365D01*
X198635506Y-105857953D01*
X198546278Y-105868041D01*
X198439418Y-105872469D01*
X198390472Y-105872845D01*
X198328238Y-105872545D01*
X198284472Y-105871292D01*
X198255069Y-105868554D01*
X198235921Y-105863801D01*
X198222923Y-105856501D01*
X198215955Y-105850267D01*
X198209374Y-105842694D01*
X198204212Y-105832924D01*
X198200297Y-105818340D01*
X198197457Y-105796326D01*
X198195520Y-105764264D01*
X198194492Y-105726089D01*
X198340133Y-105726089D01*
X198433266Y-105726004D01*
X198489307Y-105724396D01*
X198548001Y-105720256D01*
X198596972Y-105714464D01*
X198598462Y-105714226D01*
X198677608Y-105695090D01*
X198738998Y-105665287D01*
X198785695Y-105622878D01*
X198815365Y-105576961D01*
X198833647Y-105526026D01*
X198832229Y-105478200D01*
X198811012Y-105426933D01*
X198769511Y-105373899D01*
X198712002Y-105334600D01*
X198637250Y-105308331D01*
X198587292Y-105299035D01*
X198530584Y-105292507D01*
X198470481Y-105287782D01*
X198419361Y-105285817D01*
X198416333Y-105285808D01*
X198340133Y-105285822D01*
X198340133Y-105726089D01*
X198194492Y-105726089D01*
X198194316Y-105719536D01*
X198193672Y-105659526D01*
X198193417Y-105581617D01*
X198193378Y-105505956D01*
X198193130Y-105405041D01*
X198193183Y-105324427D01*
X198194143Y-105285822D01*
X198194740Y-105261851D01*
X198199002Y-105215055D01*
X198207170Y-105181778D01*
X198220444Y-105159759D01*
X198240026Y-105146739D01*
X198267117Y-105140457D01*
X198302918Y-105138653D01*
X198348629Y-105139066D01*
G37*
X203169886Y-105143448D02*
X203193452Y-105157273D01*
X203224265Y-105179881D01*
X203263922Y-105212338D01*
X203314020Y-105255708D01*
X203376157Y-105311058D01*
X203451928Y-105379451D01*
X203538666Y-105458084D01*
X203719289Y-105621878D01*
X203724933Y-105402029D01*
X203726971Y-105326351D01*
X203728937Y-105269994D01*
X203731266Y-105229706D01*
X203734394Y-105202235D01*
X203738755Y-105184329D01*
X203744784Y-105172737D01*
X203752916Y-105164208D01*
X203757228Y-105160623D01*
X203791759Y-105141670D01*
X203824617Y-105144441D01*
X203850682Y-105160633D01*
X203877333Y-105182199D01*
X203880648Y-105497151D01*
X203881565Y-105589779D01*
X203882032Y-105662544D01*
X203881887Y-105718161D01*
X203880968Y-105759342D01*
X203879113Y-105788803D01*
X203876161Y-105809255D01*
X203871950Y-105823413D01*
X203866318Y-105833991D01*
X203860073Y-105842474D01*
X203846561Y-105858207D01*
X203833117Y-105868636D01*
X203817876Y-105872639D01*
X203798974Y-105869094D01*
X203774545Y-105856879D01*
X203742727Y-105834871D01*
X203701652Y-105801949D01*
X203649458Y-105756991D01*
X203584278Y-105698875D01*
X203510444Y-105632099D01*
X203245155Y-105391458D01*
X203239511Y-105610589D01*
X203237469Y-105686128D01*
X203235498Y-105742354D01*
X203233161Y-105782524D01*
X203230019Y-105809896D01*
X203225636Y-105827728D01*
X203219576Y-105839279D01*
X203211400Y-105847807D01*
X203207216Y-105851282D01*
X203170235Y-105870372D01*
X203135292Y-105867493D01*
X203104864Y-105843100D01*
X203097903Y-105833286D01*
X203092477Y-105821826D01*
X203088397Y-105805968D01*
X203085471Y-105782963D01*
X203083508Y-105750062D01*
X203082317Y-105704516D01*
X203081708Y-105643573D01*
X203081489Y-105564486D01*
X203081466Y-105505956D01*
X203081540Y-105414407D01*
X203081887Y-105342687D01*
X203082699Y-105288045D01*
X203084167Y-105247732D01*
X203086481Y-105218998D01*
X203089833Y-105199093D01*
X203094412Y-105185268D01*
X203100411Y-105174772D01*
X203104864Y-105168811D01*
X203116150Y-105154691D01*
X203126699Y-105144029D01*
X203138107Y-105137892D01*
X203151970Y-105137343D01*
X203169886Y-105143448D01*
G36*
X203169886Y-105143448D02*
G01*
X203193452Y-105157273D01*
X203224265Y-105179881D01*
X203263922Y-105212338D01*
X203314020Y-105255708D01*
X203376157Y-105311058D01*
X203451928Y-105379451D01*
X203538666Y-105458084D01*
X203719289Y-105621878D01*
X203724933Y-105402029D01*
X203726971Y-105326351D01*
X203728937Y-105269994D01*
X203731266Y-105229706D01*
X203734394Y-105202235D01*
X203738755Y-105184329D01*
X203744784Y-105172737D01*
X203752916Y-105164208D01*
X203757228Y-105160623D01*
X203791759Y-105141670D01*
X203824617Y-105144441D01*
X203850682Y-105160633D01*
X203877333Y-105182199D01*
X203880648Y-105497151D01*
X203881565Y-105589779D01*
X203882032Y-105662544D01*
X203881887Y-105718161D01*
X203880968Y-105759342D01*
X203879113Y-105788803D01*
X203876161Y-105809255D01*
X203871950Y-105823413D01*
X203866318Y-105833991D01*
X203860073Y-105842474D01*
X203846561Y-105858207D01*
X203833117Y-105868636D01*
X203817876Y-105872639D01*
X203798974Y-105869094D01*
X203774545Y-105856879D01*
X203742727Y-105834871D01*
X203701652Y-105801949D01*
X203649458Y-105756991D01*
X203584278Y-105698875D01*
X203510444Y-105632099D01*
X203245155Y-105391458D01*
X203239511Y-105610589D01*
X203237469Y-105686128D01*
X203235498Y-105742354D01*
X203233161Y-105782524D01*
X203230019Y-105809896D01*
X203225636Y-105827728D01*
X203219576Y-105839279D01*
X203211400Y-105847807D01*
X203207216Y-105851282D01*
X203170235Y-105870372D01*
X203135292Y-105867493D01*
X203104864Y-105843100D01*
X203097903Y-105833286D01*
X203092477Y-105821826D01*
X203088397Y-105805968D01*
X203085471Y-105782963D01*
X203083508Y-105750062D01*
X203082317Y-105704516D01*
X203081708Y-105643573D01*
X203081489Y-105564486D01*
X203081466Y-105505956D01*
X203081540Y-105414407D01*
X203081887Y-105342687D01*
X203082699Y-105288045D01*
X203084167Y-105247732D01*
X203086481Y-105218998D01*
X203089833Y-105199093D01*
X203094412Y-105185268D01*
X203100411Y-105174772D01*
X203104864Y-105168811D01*
X203116150Y-105154691D01*
X203126699Y-105144029D01*
X203138107Y-105137892D01*
X203151970Y-105137343D01*
X203169886Y-105143448D01*
G37*
X202519919Y-105144599D02*
X202588435Y-105156095D01*
X202641057Y-105173967D01*
X202675292Y-105197499D01*
X202684621Y-105210924D01*
X202694107Y-105242148D01*
X202687723Y-105270395D01*
X202667570Y-105297182D01*
X202636255Y-105309713D01*
X202590817Y-105308696D01*
X202555674Y-105301906D01*
X202477581Y-105288971D01*
X202397774Y-105287742D01*
X202308445Y-105298241D01*
X202283771Y-105302690D01*
X202200709Y-105326108D01*
X202135727Y-105360945D01*
X202089539Y-105406604D01*
X202062855Y-105462494D01*
X202057337Y-105491388D01*
X202060949Y-105550012D01*
X202084271Y-105601879D01*
X202125176Y-105645978D01*
X202181541Y-105681299D01*
X202251240Y-105706829D01*
X202332148Y-105721559D01*
X202422140Y-105724478D01*
X202519090Y-105714575D01*
X202524564Y-105713641D01*
X202563125Y-105706459D01*
X202584506Y-105699521D01*
X202593773Y-105689227D01*
X202595994Y-105671976D01*
X202596044Y-105662841D01*
X202596044Y-105624489D01*
X202527569Y-105624489D01*
X202467100Y-105620347D01*
X202425835Y-105607147D01*
X202401825Y-105583730D01*
X202393123Y-105548936D01*
X202393017Y-105544394D01*
X202398108Y-105514654D01*
X202415567Y-105493419D01*
X202448061Y-105479366D01*
X202498257Y-105471173D01*
X202546877Y-105468161D01*
X202617544Y-105466433D01*
X202668802Y-105469070D01*
X202703761Y-105478800D01*
X202725530Y-105498353D01*
X202737220Y-105530456D01*
X202741940Y-105577838D01*
X202742800Y-105640071D01*
X202741391Y-105709535D01*
X202737152Y-105756786D01*
X202730064Y-105782012D01*
X202728689Y-105783988D01*
X202689772Y-105815508D01*
X202632714Y-105840470D01*
X202561131Y-105858340D01*
X202478642Y-105868586D01*
X202388861Y-105870673D01*
X202295408Y-105864068D01*
X202240444Y-105855956D01*
X202154234Y-105831554D01*
X202074108Y-105791662D01*
X202007023Y-105739887D01*
X201996827Y-105729539D01*
X201963698Y-105686035D01*
X201933806Y-105632118D01*
X201910643Y-105575592D01*
X201897702Y-105524259D01*
X201896142Y-105504544D01*
X201902782Y-105463419D01*
X201920432Y-105412252D01*
X201945703Y-105358394D01*
X201975211Y-105309195D01*
X202001281Y-105276334D01*
X202062235Y-105227452D01*
X202141031Y-105188545D01*
X202234843Y-105160494D01*
X202340850Y-105144179D01*
X202438000Y-105140192D01*
X202519919Y-105144599D01*
G36*
X202519919Y-105144599D02*
G01*
X202588435Y-105156095D01*
X202641057Y-105173967D01*
X202675292Y-105197499D01*
X202684621Y-105210924D01*
X202694107Y-105242148D01*
X202687723Y-105270395D01*
X202667570Y-105297182D01*
X202636255Y-105309713D01*
X202590817Y-105308696D01*
X202555674Y-105301906D01*
X202477581Y-105288971D01*
X202397774Y-105287742D01*
X202308445Y-105298241D01*
X202283771Y-105302690D01*
X202200709Y-105326108D01*
X202135727Y-105360945D01*
X202089539Y-105406604D01*
X202062855Y-105462494D01*
X202057337Y-105491388D01*
X202060949Y-105550012D01*
X202084271Y-105601879D01*
X202125176Y-105645978D01*
X202181541Y-105681299D01*
X202251240Y-105706829D01*
X202332148Y-105721559D01*
X202422140Y-105724478D01*
X202519090Y-105714575D01*
X202524564Y-105713641D01*
X202563125Y-105706459D01*
X202584506Y-105699521D01*
X202593773Y-105689227D01*
X202595994Y-105671976D01*
X202596044Y-105662841D01*
X202596044Y-105624489D01*
X202527569Y-105624489D01*
X202467100Y-105620347D01*
X202425835Y-105607147D01*
X202401825Y-105583730D01*
X202393123Y-105548936D01*
X202393017Y-105544394D01*
X202398108Y-105514654D01*
X202415567Y-105493419D01*
X202448061Y-105479366D01*
X202498257Y-105471173D01*
X202546877Y-105468161D01*
X202617544Y-105466433D01*
X202668802Y-105469070D01*
X202703761Y-105478800D01*
X202725530Y-105498353D01*
X202737220Y-105530456D01*
X202741940Y-105577838D01*
X202742800Y-105640071D01*
X202741391Y-105709535D01*
X202737152Y-105756786D01*
X202730064Y-105782012D01*
X202728689Y-105783988D01*
X202689772Y-105815508D01*
X202632714Y-105840470D01*
X202561131Y-105858340D01*
X202478642Y-105868586D01*
X202388861Y-105870673D01*
X202295408Y-105864068D01*
X202240444Y-105855956D01*
X202154234Y-105831554D01*
X202074108Y-105791662D01*
X202007023Y-105739887D01*
X201996827Y-105729539D01*
X201963698Y-105686035D01*
X201933806Y-105632118D01*
X201910643Y-105575592D01*
X201897702Y-105524259D01*
X201896142Y-105504544D01*
X201902782Y-105463419D01*
X201920432Y-105412252D01*
X201945703Y-105358394D01*
X201975211Y-105309195D01*
X202001281Y-105276334D01*
X202062235Y-105227452D01*
X202141031Y-105188545D01*
X202234843Y-105160494D01*
X202340850Y-105144179D01*
X202438000Y-105140192D01*
X202519919Y-105144599D01*
G37*
X204700343Y-105139260D02*
X204776701Y-105140174D01*
X204835217Y-105142311D01*
X204878255Y-105146175D01*
X204908183Y-105152267D01*
X204927368Y-105161090D01*
X204938176Y-105173146D01*
X204942973Y-105188939D01*
X204944127Y-105208970D01*
X204944133Y-105211335D01*
X204943131Y-105233992D01*
X204938396Y-105251503D01*
X204927333Y-105264574D01*
X204907348Y-105273913D01*
X204875846Y-105280227D01*
X204830232Y-105284222D01*
X204767913Y-105286606D01*
X204686293Y-105288086D01*
X204661277Y-105288414D01*
X204419200Y-105291467D01*
X204415814Y-105356378D01*
X204412429Y-105421289D01*
X204580576Y-105421289D01*
X204646266Y-105421531D01*
X204693172Y-105422556D01*
X204725083Y-105424811D01*
X204745791Y-105428742D01*
X204759084Y-105434798D01*
X204768755Y-105443424D01*
X204768817Y-105443493D01*
X204786356Y-105477112D01*
X204785722Y-105513448D01*
X204767314Y-105544423D01*
X204763671Y-105547607D01*
X204750741Y-105555812D01*
X204733024Y-105561521D01*
X204706570Y-105565162D01*
X204667432Y-105567167D01*
X204611662Y-105567964D01*
X204575994Y-105568045D01*
X204413555Y-105568045D01*
X204413555Y-105726089D01*
X204660161Y-105726089D01*
X204741580Y-105726231D01*
X204803410Y-105726814D01*
X204848637Y-105728068D01*
X204880248Y-105730227D01*
X204901231Y-105733523D01*
X204914573Y-105738189D01*
X204923261Y-105744457D01*
X204925450Y-105746733D01*
X204941614Y-105778280D01*
X204942797Y-105814168D01*
X204929536Y-105845285D01*
X204919043Y-105855271D01*
X204908129Y-105860769D01*
X204891217Y-105865022D01*
X204865633Y-105868180D01*
X204828701Y-105870392D01*
X204777746Y-105871806D01*
X204710094Y-105872572D01*
X204623069Y-105872838D01*
X204603394Y-105872845D01*
X204514911Y-105872787D01*
X204446227Y-105872467D01*
X204394564Y-105871667D01*
X204357145Y-105870167D01*
X204331190Y-105867749D01*
X204313922Y-105864194D01*
X204302562Y-105859282D01*
X204294332Y-105852795D01*
X204289817Y-105848138D01*
X204283021Y-105839889D01*
X204277712Y-105829669D01*
X204273706Y-105814800D01*
X204270821Y-105792602D01*
X204268874Y-105760393D01*
X204267681Y-105715496D01*
X204267061Y-105655228D01*
X204266829Y-105576911D01*
X204266800Y-105510994D01*
X204266871Y-105418628D01*
X204267208Y-105346117D01*
X204267998Y-105290737D01*
X204269426Y-105249765D01*
X204271679Y-105220478D01*
X204274943Y-105200153D01*
X204279404Y-105186066D01*
X204285248Y-105175495D01*
X204290197Y-105168811D01*
X204313594Y-105139067D01*
X204603774Y-105139067D01*
X204700343Y-105139260D01*
G36*
X204700343Y-105139260D02*
G01*
X204776701Y-105140174D01*
X204835217Y-105142311D01*
X204878255Y-105146175D01*
X204908183Y-105152267D01*
X204927368Y-105161090D01*
X204938176Y-105173146D01*
X204942973Y-105188939D01*
X204944127Y-105208970D01*
X204944133Y-105211335D01*
X204943131Y-105233992D01*
X204938396Y-105251503D01*
X204927333Y-105264574D01*
X204907348Y-105273913D01*
X204875846Y-105280227D01*
X204830232Y-105284222D01*
X204767913Y-105286606D01*
X204686293Y-105288086D01*
X204661277Y-105288414D01*
X204419200Y-105291467D01*
X204415814Y-105356378D01*
X204412429Y-105421289D01*
X204580576Y-105421289D01*
X204646266Y-105421531D01*
X204693172Y-105422556D01*
X204725083Y-105424811D01*
X204745791Y-105428742D01*
X204759084Y-105434798D01*
X204768755Y-105443424D01*
X204768817Y-105443493D01*
X204786356Y-105477112D01*
X204785722Y-105513448D01*
X204767314Y-105544423D01*
X204763671Y-105547607D01*
X204750741Y-105555812D01*
X204733024Y-105561521D01*
X204706570Y-105565162D01*
X204667432Y-105567167D01*
X204611662Y-105567964D01*
X204575994Y-105568045D01*
X204413555Y-105568045D01*
X204413555Y-105726089D01*
X204660161Y-105726089D01*
X204741580Y-105726231D01*
X204803410Y-105726814D01*
X204848637Y-105728068D01*
X204880248Y-105730227D01*
X204901231Y-105733523D01*
X204914573Y-105738189D01*
X204923261Y-105744457D01*
X204925450Y-105746733D01*
X204941614Y-105778280D01*
X204942797Y-105814168D01*
X204929536Y-105845285D01*
X204919043Y-105855271D01*
X204908129Y-105860769D01*
X204891217Y-105865022D01*
X204865633Y-105868180D01*
X204828701Y-105870392D01*
X204777746Y-105871806D01*
X204710094Y-105872572D01*
X204623069Y-105872838D01*
X204603394Y-105872845D01*
X204514911Y-105872787D01*
X204446227Y-105872467D01*
X204394564Y-105871667D01*
X204357145Y-105870167D01*
X204331190Y-105867749D01*
X204313922Y-105864194D01*
X204302562Y-105859282D01*
X204294332Y-105852795D01*
X204289817Y-105848138D01*
X204283021Y-105839889D01*
X204277712Y-105829669D01*
X204273706Y-105814800D01*
X204270821Y-105792602D01*
X204268874Y-105760393D01*
X204267681Y-105715496D01*
X204267061Y-105655228D01*
X204266829Y-105576911D01*
X204266800Y-105510994D01*
X204266871Y-105418628D01*
X204267208Y-105346117D01*
X204267998Y-105290737D01*
X204269426Y-105249765D01*
X204271679Y-105220478D01*
X204274943Y-105200153D01*
X204279404Y-105186066D01*
X204285248Y-105175495D01*
X204290197Y-105168811D01*
X204313594Y-105139067D01*
X204603774Y-105139067D01*
X204700343Y-105139260D01*
G37*
X199757206Y-105139146D02*
X199826614Y-105139518D01*
X199879003Y-105140385D01*
X199917153Y-105141946D01*
X199943841Y-105144403D01*
X199961847Y-105147957D01*
X199973951Y-105152810D01*
X199982931Y-105159161D01*
X199986182Y-105162084D01*
X200005957Y-105193142D01*
X200009518Y-105228828D01*
X199996509Y-105260510D01*
X199990494Y-105266913D01*
X199980765Y-105273121D01*
X199965099Y-105277910D01*
X199940592Y-105281514D01*
X199904339Y-105284164D01*
X199853435Y-105286095D01*
X199784974Y-105287539D01*
X199722383Y-105288418D01*
X199474666Y-105291467D01*
X199471281Y-105356378D01*
X199467895Y-105421289D01*
X199636042Y-105421289D01*
X199709041Y-105421919D01*
X199762483Y-105424553D01*
X199799372Y-105430309D01*
X199822712Y-105440304D01*
X199835506Y-105455656D01*
X199840758Y-105477482D01*
X199841555Y-105497738D01*
X199839077Y-105522592D01*
X199829723Y-105540906D01*
X199810617Y-105553637D01*
X199778882Y-105561741D01*
X199731641Y-105566176D01*
X199666017Y-105567899D01*
X199630199Y-105568045D01*
X199469022Y-105568045D01*
X199469022Y-105726089D01*
X199717378Y-105726089D01*
X199798787Y-105726202D01*
X199860658Y-105726712D01*
X199906032Y-105727870D01*
X199937946Y-105729930D01*
X199959441Y-105733146D01*
X199973557Y-105737772D01*
X199983332Y-105744059D01*
X199988311Y-105748667D01*
X200005390Y-105775560D01*
X200010889Y-105799467D01*
X200003037Y-105828667D01*
X199988311Y-105850267D01*
X199980454Y-105857066D01*
X199970312Y-105862346D01*
X199955156Y-105866298D01*
X199932259Y-105869113D01*
X199898891Y-105870982D01*
X199852325Y-105872098D01*
X199789833Y-105872651D01*
X199708686Y-105872833D01*
X199666578Y-105872845D01*
X199576402Y-105872765D01*
X199506076Y-105872398D01*
X199452871Y-105871552D01*
X199414060Y-105870036D01*
X199386913Y-105867659D01*
X199368702Y-105864229D01*
X199356700Y-105859554D01*
X199348178Y-105853444D01*
X199344844Y-105850267D01*
X199338245Y-105842670D01*
X199333073Y-105832870D01*
X199329154Y-105818239D01*
X199326316Y-105796152D01*
X199324385Y-105763982D01*
X199323188Y-105719103D01*
X199322552Y-105658889D01*
X199322303Y-105580713D01*
X199322266Y-105507923D01*
X199322300Y-105414707D01*
X199322535Y-105341431D01*
X199323170Y-105285458D01*
X199324406Y-105244151D01*
X199326444Y-105214872D01*
X199329483Y-105194984D01*
X199333723Y-105181850D01*
X199339365Y-105172832D01*
X199346609Y-105165293D01*
X199348394Y-105163612D01*
X199357055Y-105156172D01*
X199367118Y-105150409D01*
X199381375Y-105146112D01*
X199402617Y-105143064D01*
X199433636Y-105141051D01*
X199477223Y-105139860D01*
X199536169Y-105139275D01*
X199613266Y-105139083D01*
X199667999Y-105139067D01*
X199757206Y-105139146D01*
G36*
X199757206Y-105139146D02*
G01*
X199826614Y-105139518D01*
X199879003Y-105140385D01*
X199917153Y-105141946D01*
X199943841Y-105144403D01*
X199961847Y-105147957D01*
X199973951Y-105152810D01*
X199982931Y-105159161D01*
X199986182Y-105162084D01*
X200005957Y-105193142D01*
X200009518Y-105228828D01*
X199996509Y-105260510D01*
X199990494Y-105266913D01*
X199980765Y-105273121D01*
X199965099Y-105277910D01*
X199940592Y-105281514D01*
X199904339Y-105284164D01*
X199853435Y-105286095D01*
X199784974Y-105287539D01*
X199722383Y-105288418D01*
X199474666Y-105291467D01*
X199471281Y-105356378D01*
X199467895Y-105421289D01*
X199636042Y-105421289D01*
X199709041Y-105421919D01*
X199762483Y-105424553D01*
X199799372Y-105430309D01*
X199822712Y-105440304D01*
X199835506Y-105455656D01*
X199840758Y-105477482D01*
X199841555Y-105497738D01*
X199839077Y-105522592D01*
X199829723Y-105540906D01*
X199810617Y-105553637D01*
X199778882Y-105561741D01*
X199731641Y-105566176D01*
X199666017Y-105567899D01*
X199630199Y-105568045D01*
X199469022Y-105568045D01*
X199469022Y-105726089D01*
X199717378Y-105726089D01*
X199798787Y-105726202D01*
X199860658Y-105726712D01*
X199906032Y-105727870D01*
X199937946Y-105729930D01*
X199959441Y-105733146D01*
X199973557Y-105737772D01*
X199983332Y-105744059D01*
X199988311Y-105748667D01*
X200005390Y-105775560D01*
X200010889Y-105799467D01*
X200003037Y-105828667D01*
X199988311Y-105850267D01*
X199980454Y-105857066D01*
X199970312Y-105862346D01*
X199955156Y-105866298D01*
X199932259Y-105869113D01*
X199898891Y-105870982D01*
X199852325Y-105872098D01*
X199789833Y-105872651D01*
X199708686Y-105872833D01*
X199666578Y-105872845D01*
X199576402Y-105872765D01*
X199506076Y-105872398D01*
X199452871Y-105871552D01*
X199414060Y-105870036D01*
X199386913Y-105867659D01*
X199368702Y-105864229D01*
X199356700Y-105859554D01*
X199348178Y-105853444D01*
X199344844Y-105850267D01*
X199338245Y-105842670D01*
X199333073Y-105832870D01*
X199329154Y-105818239D01*
X199326316Y-105796152D01*
X199324385Y-105763982D01*
X199323188Y-105719103D01*
X199322552Y-105658889D01*
X199322303Y-105580713D01*
X199322266Y-105507923D01*
X199322300Y-105414707D01*
X199322535Y-105341431D01*
X199323170Y-105285458D01*
X199324406Y-105244151D01*
X199326444Y-105214872D01*
X199329483Y-105194984D01*
X199333723Y-105181850D01*
X199339365Y-105172832D01*
X199346609Y-105165293D01*
X199348394Y-105163612D01*
X199357055Y-105156172D01*
X199367118Y-105150409D01*
X199381375Y-105146112D01*
X199402617Y-105143064D01*
X199433636Y-105141051D01*
X199477223Y-105139860D01*
X199536169Y-105139275D01*
X199613266Y-105139083D01*
X199667999Y-105139067D01*
X199757206Y-105139146D01*
G37*
X208214665Y-105141034D02*
X208234255Y-105148035D01*
X208235010Y-105148377D01*
X208261613Y-105168678D01*
X208276270Y-105189561D01*
X208279138Y-105199352D01*
X208278996Y-105212361D01*
X208274961Y-105230895D01*
X208266146Y-105257257D01*
X208251669Y-105293752D01*
X208230645Y-105342687D01*
X208202188Y-105406365D01*
X208165415Y-105487093D01*
X208145175Y-105531216D01*
X208108625Y-105609985D01*
X208074315Y-105682423D01*
X208043552Y-105745880D01*
X208017648Y-105797708D01*
X207997910Y-105835259D01*
X207985650Y-105855884D01*
X207983224Y-105858733D01*
X207952183Y-105871302D01*
X207917121Y-105869619D01*
X207889000Y-105854332D01*
X207887854Y-105853089D01*
X207876668Y-105836154D01*
X207857904Y-105803170D01*
X207833875Y-105758380D01*
X207806897Y-105706032D01*
X207797201Y-105686742D01*
X207724014Y-105540150D01*
X207644240Y-105699393D01*
X207615767Y-105754415D01*
X207589350Y-105802132D01*
X207567148Y-105838893D01*
X207551319Y-105861044D01*
X207545954Y-105865741D01*
X207504257Y-105872102D01*
X207469849Y-105858733D01*
X207459728Y-105844446D01*
X207442214Y-105812692D01*
X207418735Y-105766597D01*
X207390720Y-105709285D01*
X207359599Y-105643880D01*
X207326799Y-105573507D01*
X207293750Y-105501291D01*
X207261881Y-105430355D01*
X207232619Y-105363825D01*
X207207395Y-105304826D01*
X207187636Y-105256481D01*
X207174772Y-105221915D01*
X207170231Y-105204253D01*
X207170277Y-105203613D01*
X207181326Y-105181388D01*
X207203410Y-105158753D01*
X207204710Y-105157768D01*
X207231853Y-105142425D01*
X207256958Y-105142574D01*
X207266368Y-105145466D01*
X207277834Y-105151718D01*
X207290010Y-105164014D01*
X207304357Y-105184908D01*
X207322336Y-105216949D01*
X207345407Y-105262688D01*
X207375030Y-105324677D01*
X207401745Y-105381898D01*
X207432480Y-105448226D01*
X207460021Y-105507874D01*
X207482938Y-105557725D01*
X207499798Y-105594664D01*
X207509173Y-105615573D01*
X207510540Y-105618845D01*
X207516689Y-105613497D01*
X207530822Y-105591109D01*
X207551057Y-105554946D01*
X207575515Y-105508277D01*
X207585248Y-105489022D01*
X207618217Y-105424004D01*
X207643643Y-105376654D01*
X207663612Y-105344219D01*
X207680210Y-105323946D01*
X207695524Y-105313082D01*
X207711640Y-105308875D01*
X207722143Y-105308400D01*
X207740670Y-105310042D01*
X207756904Y-105316831D01*
X207773035Y-105331566D01*
X207791251Y-105357044D01*
X207813739Y-105396061D01*
X207842689Y-105451414D01*
X207858662Y-105482903D01*
X207884570Y-105533087D01*
X207907167Y-105574704D01*
X207924458Y-105604242D01*
X207934450Y-105618189D01*
X207935809Y-105618770D01*
X207942261Y-105607793D01*
X207956708Y-105579290D01*
X207977703Y-105536244D01*
X208003797Y-105481638D01*
X208033546Y-105418454D01*
X208048180Y-105387071D01*
X208086250Y-105306078D01*
X208116905Y-105243756D01*
X208141737Y-105198071D01*
X208162337Y-105166989D01*
X208180298Y-105148478D01*
X208197210Y-105140504D01*
X208214665Y-105141034D01*
G36*
X208214665Y-105141034D02*
G01*
X208234255Y-105148035D01*
X208235010Y-105148377D01*
X208261613Y-105168678D01*
X208276270Y-105189561D01*
X208279138Y-105199352D01*
X208278996Y-105212361D01*
X208274961Y-105230895D01*
X208266146Y-105257257D01*
X208251669Y-105293752D01*
X208230645Y-105342687D01*
X208202188Y-105406365D01*
X208165415Y-105487093D01*
X208145175Y-105531216D01*
X208108625Y-105609985D01*
X208074315Y-105682423D01*
X208043552Y-105745880D01*
X208017648Y-105797708D01*
X207997910Y-105835259D01*
X207985650Y-105855884D01*
X207983224Y-105858733D01*
X207952183Y-105871302D01*
X207917121Y-105869619D01*
X207889000Y-105854332D01*
X207887854Y-105853089D01*
X207876668Y-105836154D01*
X207857904Y-105803170D01*
X207833875Y-105758380D01*
X207806897Y-105706032D01*
X207797201Y-105686742D01*
X207724014Y-105540150D01*
X207644240Y-105699393D01*
X207615767Y-105754415D01*
X207589350Y-105802132D01*
X207567148Y-105838893D01*
X207551319Y-105861044D01*
X207545954Y-105865741D01*
X207504257Y-105872102D01*
X207469849Y-105858733D01*
X207459728Y-105844446D01*
X207442214Y-105812692D01*
X207418735Y-105766597D01*
X207390720Y-105709285D01*
X207359599Y-105643880D01*
X207326799Y-105573507D01*
X207293750Y-105501291D01*
X207261881Y-105430355D01*
X207232619Y-105363825D01*
X207207395Y-105304826D01*
X207187636Y-105256481D01*
X207174772Y-105221915D01*
X207170231Y-105204253D01*
X207170277Y-105203613D01*
X207181326Y-105181388D01*
X207203410Y-105158753D01*
X207204710Y-105157768D01*
X207231853Y-105142425D01*
X207256958Y-105142574D01*
X207266368Y-105145466D01*
X207277834Y-105151718D01*
X207290010Y-105164014D01*
X207304357Y-105184908D01*
X207322336Y-105216949D01*
X207345407Y-105262688D01*
X207375030Y-105324677D01*
X207401745Y-105381898D01*
X207432480Y-105448226D01*
X207460021Y-105507874D01*
X207482938Y-105557725D01*
X207499798Y-105594664D01*
X207509173Y-105615573D01*
X207510540Y-105618845D01*
X207516689Y-105613497D01*
X207530822Y-105591109D01*
X207551057Y-105554946D01*
X207575515Y-105508277D01*
X207585248Y-105489022D01*
X207618217Y-105424004D01*
X207643643Y-105376654D01*
X207663612Y-105344219D01*
X207680210Y-105323946D01*
X207695524Y-105313082D01*
X207711640Y-105308875D01*
X207722143Y-105308400D01*
X207740670Y-105310042D01*
X207756904Y-105316831D01*
X207773035Y-105331566D01*
X207791251Y-105357044D01*
X207813739Y-105396061D01*
X207842689Y-105451414D01*
X207858662Y-105482903D01*
X207884570Y-105533087D01*
X207907167Y-105574704D01*
X207924458Y-105604242D01*
X207934450Y-105618189D01*
X207935809Y-105618770D01*
X207942261Y-105607793D01*
X207956708Y-105579290D01*
X207977703Y-105536244D01*
X208003797Y-105481638D01*
X208033546Y-105418454D01*
X208048180Y-105387071D01*
X208086250Y-105306078D01*
X208116905Y-105243756D01*
X208141737Y-105198071D01*
X208162337Y-105166989D01*
X208180298Y-105148478D01*
X208197210Y-105140504D01*
X208214665Y-105141034D01*
G37*
X200778297Y-105140351D02*
X200853112Y-105145581D01*
X200922694Y-105153750D01*
X200982998Y-105164550D01*
X201029980Y-105177673D01*
X201059594Y-105192813D01*
X201064140Y-105197269D01*
X201079946Y-105231850D01*
X201075153Y-105267351D01*
X201050636Y-105297725D01*
X201049466Y-105298596D01*
X201035046Y-105307954D01*
X201019992Y-105312876D01*
X200998995Y-105313473D01*
X200966743Y-105309861D01*
X200917927Y-105302154D01*
X200914000Y-105301505D01*
X200841261Y-105292569D01*
X200762783Y-105288161D01*
X200684073Y-105288119D01*
X200610639Y-105292279D01*
X200547989Y-105300479D01*
X200501630Y-105312557D01*
X200498584Y-105313771D01*
X200464952Y-105332615D01*
X200453136Y-105351685D01*
X200462386Y-105370439D01*
X200491953Y-105388337D01*
X200541089Y-105404837D01*
X200609043Y-105419396D01*
X200654355Y-105426406D01*
X200748544Y-105439889D01*
X200823456Y-105452214D01*
X200882283Y-105464449D01*
X200928215Y-105477661D01*
X200964445Y-105492917D01*
X200994162Y-105511285D01*
X201020558Y-105533831D01*
X201041770Y-105555971D01*
X201066935Y-105586819D01*
X201079319Y-105613345D01*
X201083192Y-105646026D01*
X201083333Y-105657995D01*
X201080424Y-105697712D01*
X201068798Y-105727259D01*
X201048677Y-105753486D01*
X201007784Y-105793576D01*
X200962183Y-105824149D01*
X200908487Y-105846203D01*
X200843308Y-105860735D01*
X200763256Y-105868741D01*
X200664943Y-105871218D01*
X200648711Y-105871177D01*
X200583151Y-105869818D01*
X200518134Y-105866730D01*
X200460748Y-105862356D01*
X200418078Y-105857140D01*
X200414628Y-105856541D01*
X200372204Y-105846491D01*
X200336220Y-105833796D01*
X200315850Y-105822190D01*
X200296893Y-105791572D01*
X200295573Y-105755918D01*
X200311915Y-105724144D01*
X200315571Y-105720551D01*
X200330685Y-105709876D01*
X200349585Y-105705276D01*
X200378838Y-105706059D01*
X200414349Y-105710127D01*
X200454030Y-105713762D01*
X200509655Y-105716828D01*
X200574594Y-105719053D01*
X200642215Y-105720164D01*
X200660000Y-105720237D01*
X200727872Y-105719964D01*
X200777546Y-105718646D01*
X200813390Y-105715827D01*
X200839776Y-105711050D01*
X200861074Y-105703857D01*
X200873874Y-105697867D01*
X200902000Y-105681233D01*
X200919932Y-105666168D01*
X200922553Y-105661897D01*
X200917024Y-105644263D01*
X200890740Y-105627192D01*
X200845522Y-105611458D01*
X200783192Y-105597838D01*
X200764829Y-105594804D01*
X200668910Y-105579738D01*
X200592359Y-105567146D01*
X200532220Y-105556111D01*
X200485540Y-105545720D01*
X200449363Y-105535056D01*
X200420735Y-105523205D01*
X200396702Y-105509251D01*
X200374308Y-105492281D01*
X200350598Y-105471378D01*
X200342620Y-105464049D01*
X200314647Y-105436699D01*
X200299840Y-105415029D01*
X200294048Y-105390232D01*
X200293111Y-105358983D01*
X200303425Y-105297705D01*
X200334248Y-105245640D01*
X200385405Y-105202958D01*
X200456717Y-105169825D01*
X200507600Y-105154964D01*
X200562900Y-105145366D01*
X200629147Y-105139936D01*
X200702294Y-105138367D01*
X200778297Y-105140351D01*
G36*
X200778297Y-105140351D02*
G01*
X200853112Y-105145581D01*
X200922694Y-105153750D01*
X200982998Y-105164550D01*
X201029980Y-105177673D01*
X201059594Y-105192813D01*
X201064140Y-105197269D01*
X201079946Y-105231850D01*
X201075153Y-105267351D01*
X201050636Y-105297725D01*
X201049466Y-105298596D01*
X201035046Y-105307954D01*
X201019992Y-105312876D01*
X200998995Y-105313473D01*
X200966743Y-105309861D01*
X200917927Y-105302154D01*
X200914000Y-105301505D01*
X200841261Y-105292569D01*
X200762783Y-105288161D01*
X200684073Y-105288119D01*
X200610639Y-105292279D01*
X200547989Y-105300479D01*
X200501630Y-105312557D01*
X200498584Y-105313771D01*
X200464952Y-105332615D01*
X200453136Y-105351685D01*
X200462386Y-105370439D01*
X200491953Y-105388337D01*
X200541089Y-105404837D01*
X200609043Y-105419396D01*
X200654355Y-105426406D01*
X200748544Y-105439889D01*
X200823456Y-105452214D01*
X200882283Y-105464449D01*
X200928215Y-105477661D01*
X200964445Y-105492917D01*
X200994162Y-105511285D01*
X201020558Y-105533831D01*
X201041770Y-105555971D01*
X201066935Y-105586819D01*
X201079319Y-105613345D01*
X201083192Y-105646026D01*
X201083333Y-105657995D01*
X201080424Y-105697712D01*
X201068798Y-105727259D01*
X201048677Y-105753486D01*
X201007784Y-105793576D01*
X200962183Y-105824149D01*
X200908487Y-105846203D01*
X200843308Y-105860735D01*
X200763256Y-105868741D01*
X200664943Y-105871218D01*
X200648711Y-105871177D01*
X200583151Y-105869818D01*
X200518134Y-105866730D01*
X200460748Y-105862356D01*
X200418078Y-105857140D01*
X200414628Y-105856541D01*
X200372204Y-105846491D01*
X200336220Y-105833796D01*
X200315850Y-105822190D01*
X200296893Y-105791572D01*
X200295573Y-105755918D01*
X200311915Y-105724144D01*
X200315571Y-105720551D01*
X200330685Y-105709876D01*
X200349585Y-105705276D01*
X200378838Y-105706059D01*
X200414349Y-105710127D01*
X200454030Y-105713762D01*
X200509655Y-105716828D01*
X200574594Y-105719053D01*
X200642215Y-105720164D01*
X200660000Y-105720237D01*
X200727872Y-105719964D01*
X200777546Y-105718646D01*
X200813390Y-105715827D01*
X200839776Y-105711050D01*
X200861074Y-105703857D01*
X200873874Y-105697867D01*
X200902000Y-105681233D01*
X200919932Y-105666168D01*
X200922553Y-105661897D01*
X200917024Y-105644263D01*
X200890740Y-105627192D01*
X200845522Y-105611458D01*
X200783192Y-105597838D01*
X200764829Y-105594804D01*
X200668910Y-105579738D01*
X200592359Y-105567146D01*
X200532220Y-105556111D01*
X200485540Y-105545720D01*
X200449363Y-105535056D01*
X200420735Y-105523205D01*
X200396702Y-105509251D01*
X200374308Y-105492281D01*
X200350598Y-105471378D01*
X200342620Y-105464049D01*
X200314647Y-105436699D01*
X200299840Y-105415029D01*
X200294048Y-105390232D01*
X200293111Y-105358983D01*
X200303425Y-105297705D01*
X200334248Y-105245640D01*
X200385405Y-105202958D01*
X200456717Y-105169825D01*
X200507600Y-105154964D01*
X200562900Y-105145366D01*
X200629147Y-105139936D01*
X200702294Y-105138367D01*
X200778297Y-105140351D01*
G37*
X204798429Y-100819071D02*
X204958570Y-100840245D01*
X205122510Y-100880385D01*
X205292313Y-100939889D01*
X205470043Y-101019154D01*
X205481310Y-101024699D01*
X205539005Y-101052725D01*
X205590552Y-101076802D01*
X205632191Y-101095249D01*
X205660162Y-101106386D01*
X205669733Y-101108933D01*
X205688950Y-101113941D01*
X205693561Y-101118147D01*
X205688458Y-101128580D01*
X205672418Y-101154868D01*
X205647288Y-101194257D01*
X205614914Y-101243991D01*
X205577143Y-101301315D01*
X205535822Y-101363476D01*
X205492798Y-101427718D01*
X205449917Y-101491285D01*
X205409026Y-101551425D01*
X205371971Y-101605380D01*
X205340600Y-101650397D01*
X205316759Y-101683721D01*
X205302294Y-101702597D01*
X205300309Y-101704787D01*
X205290191Y-101700138D01*
X205267850Y-101682962D01*
X205237280Y-101656440D01*
X205221536Y-101641964D01*
X205125047Y-101566682D01*
X205018336Y-101511241D01*
X204902832Y-101476141D01*
X204779962Y-101461880D01*
X204710561Y-101463051D01*
X204589423Y-101480212D01*
X204480205Y-101516094D01*
X204382582Y-101570959D01*
X204296228Y-101645070D01*
X204220815Y-101738688D01*
X204156018Y-101852076D01*
X204118601Y-101938667D01*
X204074748Y-102074366D01*
X204042428Y-102221850D01*
X204021557Y-102377314D01*
X204012051Y-102536956D01*
X204013827Y-102696973D01*
X204026803Y-102853561D01*
X204050894Y-103002918D01*
X204086018Y-103141240D01*
X204132092Y-103264724D01*
X204148373Y-103298978D01*
X204216620Y-103413064D01*
X204297079Y-103509557D01*
X204388570Y-103587670D01*
X204489911Y-103646617D01*
X204599920Y-103685612D01*
X204717415Y-103703868D01*
X204758883Y-103705211D01*
X204880441Y-103694290D01*
X205000878Y-103661474D01*
X205118666Y-103607439D01*
X205232277Y-103532865D01*
X205323685Y-103454539D01*
X205370215Y-103410008D01*
X205551483Y-103707271D01*
X205596580Y-103781433D01*
X205637819Y-103849646D01*
X205673735Y-103909459D01*
X205702866Y-103958420D01*
X205723750Y-103994079D01*
X205734924Y-104013984D01*
X205736375Y-104017079D01*
X205728146Y-104026718D01*
X205702567Y-104043999D01*
X205662873Y-104067283D01*
X205612297Y-104094934D01*
X205554074Y-104125315D01*
X205491437Y-104156790D01*
X205427621Y-104187722D01*
X205365860Y-104216473D01*
X205309388Y-104241408D01*
X205261438Y-104260889D01*
X205237986Y-104269318D01*
X205104221Y-104307133D01*
X204966327Y-104332136D01*
X204818622Y-104345140D01*
X204691833Y-104347468D01*
X204623878Y-104346373D01*
X204558277Y-104344275D01*
X204500847Y-104341434D01*
X204457403Y-104338106D01*
X204443298Y-104336422D01*
X204304284Y-104307587D01*
X204162757Y-104262468D01*
X204025275Y-104203750D01*
X203898394Y-104134120D01*
X203820889Y-104081441D01*
X203693481Y-103973239D01*
X203575178Y-103846671D01*
X203468172Y-103704866D01*
X203374652Y-103550951D01*
X203296810Y-103388053D01*
X203252956Y-103270756D01*
X203202708Y-103087128D01*
X203169209Y-102892581D01*
X203152449Y-102691325D01*
X203152416Y-102487568D01*
X203169101Y-102285521D01*
X203202493Y-102089392D01*
X203252580Y-101903391D01*
X203256397Y-101891803D01*
X203319281Y-101729750D01*
X203396028Y-101581832D01*
X203489242Y-101443865D01*
X203601527Y-101311661D01*
X203645392Y-101266399D01*
X203781534Y-101142457D01*
X203921491Y-101039915D01*
X204067411Y-100957656D01*
X204221442Y-100894564D01*
X204385732Y-100849523D01*
X204481289Y-100832033D01*
X204640023Y-100816466D01*
X204798429Y-100819071D01*
G36*
X204798429Y-100819071D02*
G01*
X204958570Y-100840245D01*
X205122510Y-100880385D01*
X205292313Y-100939889D01*
X205470043Y-101019154D01*
X205481310Y-101024699D01*
X205539005Y-101052725D01*
X205590552Y-101076802D01*
X205632191Y-101095249D01*
X205660162Y-101106386D01*
X205669733Y-101108933D01*
X205688950Y-101113941D01*
X205693561Y-101118147D01*
X205688458Y-101128580D01*
X205672418Y-101154868D01*
X205647288Y-101194257D01*
X205614914Y-101243991D01*
X205577143Y-101301315D01*
X205535822Y-101363476D01*
X205492798Y-101427718D01*
X205449917Y-101491285D01*
X205409026Y-101551425D01*
X205371971Y-101605380D01*
X205340600Y-101650397D01*
X205316759Y-101683721D01*
X205302294Y-101702597D01*
X205300309Y-101704787D01*
X205290191Y-101700138D01*
X205267850Y-101682962D01*
X205237280Y-101656440D01*
X205221536Y-101641964D01*
X205125047Y-101566682D01*
X205018336Y-101511241D01*
X204902832Y-101476141D01*
X204779962Y-101461880D01*
X204710561Y-101463051D01*
X204589423Y-101480212D01*
X204480205Y-101516094D01*
X204382582Y-101570959D01*
X204296228Y-101645070D01*
X204220815Y-101738688D01*
X204156018Y-101852076D01*
X204118601Y-101938667D01*
X204074748Y-102074366D01*
X204042428Y-102221850D01*
X204021557Y-102377314D01*
X204012051Y-102536956D01*
X204013827Y-102696973D01*
X204026803Y-102853561D01*
X204050894Y-103002918D01*
X204086018Y-103141240D01*
X204132092Y-103264724D01*
X204148373Y-103298978D01*
X204216620Y-103413064D01*
X204297079Y-103509557D01*
X204388570Y-103587670D01*
X204489911Y-103646617D01*
X204599920Y-103685612D01*
X204717415Y-103703868D01*
X204758883Y-103705211D01*
X204880441Y-103694290D01*
X205000878Y-103661474D01*
X205118666Y-103607439D01*
X205232277Y-103532865D01*
X205323685Y-103454539D01*
X205370215Y-103410008D01*
X205551483Y-103707271D01*
X205596580Y-103781433D01*
X205637819Y-103849646D01*
X205673735Y-103909459D01*
X205702866Y-103958420D01*
X205723750Y-103994079D01*
X205734924Y-104013984D01*
X205736375Y-104017079D01*
X205728146Y-104026718D01*
X205702567Y-104043999D01*
X205662873Y-104067283D01*
X205612297Y-104094934D01*
X205554074Y-104125315D01*
X205491437Y-104156790D01*
X205427621Y-104187722D01*
X205365860Y-104216473D01*
X205309388Y-104241408D01*
X205261438Y-104260889D01*
X205237986Y-104269318D01*
X205104221Y-104307133D01*
X204966327Y-104332136D01*
X204818622Y-104345140D01*
X204691833Y-104347468D01*
X204623878Y-104346373D01*
X204558277Y-104344275D01*
X204500847Y-104341434D01*
X204457403Y-104338106D01*
X204443298Y-104336422D01*
X204304284Y-104307587D01*
X204162757Y-104262468D01*
X204025275Y-104203750D01*
X203898394Y-104134120D01*
X203820889Y-104081441D01*
X203693481Y-103973239D01*
X203575178Y-103846671D01*
X203468172Y-103704866D01*
X203374652Y-103550951D01*
X203296810Y-103388053D01*
X203252956Y-103270756D01*
X203202708Y-103087128D01*
X203169209Y-102892581D01*
X203152449Y-102691325D01*
X203152416Y-102487568D01*
X203169101Y-102285521D01*
X203202493Y-102089392D01*
X203252580Y-101903391D01*
X203256397Y-101891803D01*
X203319281Y-101729750D01*
X203396028Y-101581832D01*
X203489242Y-101443865D01*
X203601527Y-101311661D01*
X203645392Y-101266399D01*
X203781534Y-101142457D01*
X203921491Y-101039915D01*
X204067411Y-100957656D01*
X204221442Y-100894564D01*
X204385732Y-100849523D01*
X204481289Y-100832033D01*
X204640023Y-100816466D01*
X204798429Y-100819071D01*
G37*
X210656507Y-102342245D02*
X210656526Y-102576662D01*
X210656552Y-102789603D01*
X210656625Y-102982168D01*
X210656782Y-103155459D01*
X210657064Y-103310576D01*
X210657509Y-103448620D01*
X210658156Y-103570692D01*
X210659045Y-103677894D01*
X210660213Y-103771326D01*
X210661701Y-103852090D01*
X210663546Y-103921286D01*
X210665789Y-103980015D01*
X210668469Y-104029379D01*
X210671623Y-104070478D01*
X210675292Y-104104413D01*
X210679513Y-104132286D01*
X210684327Y-104155198D01*
X210689773Y-104174249D01*
X210695888Y-104190540D01*
X210702712Y-104205173D01*
X210710285Y-104219249D01*
X210718645Y-104233868D01*
X210723839Y-104242974D01*
X210758104Y-104303689D01*
X209899955Y-104303689D01*
X209899955Y-104207733D01*
X209899224Y-104164370D01*
X209897272Y-104131205D01*
X209894463Y-104113424D01*
X209893221Y-104111778D01*
X209881799Y-104118662D01*
X209859084Y-104136505D01*
X209836385Y-104155879D01*
X209781800Y-104196614D01*
X209712321Y-104237617D01*
X209635270Y-104275123D01*
X209557965Y-104305364D01*
X209527113Y-104315012D01*
X209458616Y-104329578D01*
X209375764Y-104339539D01*
X209286371Y-104344583D01*
X209198248Y-104344396D01*
X209119207Y-104338666D01*
X209081511Y-104332858D01*
X208943414Y-104294797D01*
X208816113Y-104237073D01*
X208700292Y-104160211D01*
X208596637Y-104064739D01*
X208505833Y-103951179D01*
X208439031Y-103840381D01*
X208384164Y-103723625D01*
X208342163Y-103604276D01*
X208312167Y-103478283D01*
X208293311Y-103341594D01*
X208284732Y-103190158D01*
X208284006Y-103112711D01*
X208286100Y-103055934D01*
X209115217Y-103055934D01*
X209115424Y-103149002D01*
X209118337Y-103236692D01*
X209124000Y-103313772D01*
X209132455Y-103375009D01*
X209135038Y-103387350D01*
X209166840Y-103494633D01*
X209208498Y-103581658D01*
X209260363Y-103648642D01*
X209322781Y-103695805D01*
X209396100Y-103723365D01*
X209480669Y-103731541D01*
X209576835Y-103720551D01*
X209640311Y-103704829D01*
X209689454Y-103686639D01*
X209743583Y-103660791D01*
X209784244Y-103637089D01*
X209854800Y-103590721D01*
X209854800Y-102440530D01*
X209787392Y-102396962D01*
X209708867Y-102356040D01*
X209624681Y-102329389D01*
X209539557Y-102317465D01*
X209458216Y-102320722D01*
X209385380Y-102339615D01*
X209353426Y-102355184D01*
X209295501Y-102398181D01*
X209246544Y-102454953D01*
X209205390Y-102527575D01*
X209170874Y-102618121D01*
X209141833Y-102728666D01*
X209140552Y-102734533D01*
X209130381Y-102796788D01*
X209122739Y-102874594D01*
X209117670Y-102962720D01*
X209115217Y-103055934D01*
X208286100Y-103055934D01*
X208291857Y-102899895D01*
X208313802Y-102704059D01*
X208349786Y-102525332D01*
X208399759Y-102363845D01*
X208463668Y-102219726D01*
X208541462Y-102093106D01*
X208633089Y-101984115D01*
X208738497Y-101892883D01*
X208783662Y-101861932D01*
X208884611Y-101805785D01*
X208987901Y-101766174D01*
X209097989Y-101742014D01*
X209219330Y-101732219D01*
X209311836Y-101733265D01*
X209441490Y-101744231D01*
X209554084Y-101766046D01*
X209652875Y-101799714D01*
X209741121Y-101846236D01*
X209789986Y-101880448D01*
X209819353Y-101902362D01*
X209841043Y-101917333D01*
X209849253Y-101921733D01*
X209850868Y-101910904D01*
X209852159Y-101880251D01*
X209853138Y-101832526D01*
X209853817Y-101770479D01*
X209854210Y-101696862D01*
X209854330Y-101614427D01*
X209854188Y-101525925D01*
X209853797Y-101434107D01*
X209853171Y-101341724D01*
X209852320Y-101251528D01*
X209851260Y-101166271D01*
X209850001Y-101088703D01*
X209848556Y-101021576D01*
X209846938Y-100967641D01*
X209845161Y-100929650D01*
X209844669Y-100922667D01*
X209837092Y-100852251D01*
X209825531Y-100797102D01*
X209807792Y-100749981D01*
X209781682Y-100703647D01*
X209775415Y-100694067D01*
X209750983Y-100657378D01*
X210656311Y-100657378D01*
X210656507Y-102342245D01*
G36*
X210656507Y-102342245D02*
G01*
X210656526Y-102576662D01*
X210656552Y-102789603D01*
X210656625Y-102982168D01*
X210656782Y-103155459D01*
X210657064Y-103310576D01*
X210657509Y-103448620D01*
X210658156Y-103570692D01*
X210659045Y-103677894D01*
X210660213Y-103771326D01*
X210661701Y-103852090D01*
X210663546Y-103921286D01*
X210665789Y-103980015D01*
X210668469Y-104029379D01*
X210671623Y-104070478D01*
X210675292Y-104104413D01*
X210679513Y-104132286D01*
X210684327Y-104155198D01*
X210689773Y-104174249D01*
X210695888Y-104190540D01*
X210702712Y-104205173D01*
X210710285Y-104219249D01*
X210718645Y-104233868D01*
X210723839Y-104242974D01*
X210758104Y-104303689D01*
X209899955Y-104303689D01*
X209899955Y-104207733D01*
X209899224Y-104164370D01*
X209897272Y-104131205D01*
X209894463Y-104113424D01*
X209893221Y-104111778D01*
X209881799Y-104118662D01*
X209859084Y-104136505D01*
X209836385Y-104155879D01*
X209781800Y-104196614D01*
X209712321Y-104237617D01*
X209635270Y-104275123D01*
X209557965Y-104305364D01*
X209527113Y-104315012D01*
X209458616Y-104329578D01*
X209375764Y-104339539D01*
X209286371Y-104344583D01*
X209198248Y-104344396D01*
X209119207Y-104338666D01*
X209081511Y-104332858D01*
X208943414Y-104294797D01*
X208816113Y-104237073D01*
X208700292Y-104160211D01*
X208596637Y-104064739D01*
X208505833Y-103951179D01*
X208439031Y-103840381D01*
X208384164Y-103723625D01*
X208342163Y-103604276D01*
X208312167Y-103478283D01*
X208293311Y-103341594D01*
X208284732Y-103190158D01*
X208284006Y-103112711D01*
X208286100Y-103055934D01*
X209115217Y-103055934D01*
X209115424Y-103149002D01*
X209118337Y-103236692D01*
X209124000Y-103313772D01*
X209132455Y-103375009D01*
X209135038Y-103387350D01*
X209166840Y-103494633D01*
X209208498Y-103581658D01*
X209260363Y-103648642D01*
X209322781Y-103695805D01*
X209396100Y-103723365D01*
X209480669Y-103731541D01*
X209576835Y-103720551D01*
X209640311Y-103704829D01*
X209689454Y-103686639D01*
X209743583Y-103660791D01*
X209784244Y-103637089D01*
X209854800Y-103590721D01*
X209854800Y-102440530D01*
X209787392Y-102396962D01*
X209708867Y-102356040D01*
X209624681Y-102329389D01*
X209539557Y-102317465D01*
X209458216Y-102320722D01*
X209385380Y-102339615D01*
X209353426Y-102355184D01*
X209295501Y-102398181D01*
X209246544Y-102454953D01*
X209205390Y-102527575D01*
X209170874Y-102618121D01*
X209141833Y-102728666D01*
X209140552Y-102734533D01*
X209130381Y-102796788D01*
X209122739Y-102874594D01*
X209117670Y-102962720D01*
X209115217Y-103055934D01*
X208286100Y-103055934D01*
X208291857Y-102899895D01*
X208313802Y-102704059D01*
X208349786Y-102525332D01*
X208399759Y-102363845D01*
X208463668Y-102219726D01*
X208541462Y-102093106D01*
X208633089Y-101984115D01*
X208738497Y-101892883D01*
X208783662Y-101861932D01*
X208884611Y-101805785D01*
X208987901Y-101766174D01*
X209097989Y-101742014D01*
X209219330Y-101732219D01*
X209311836Y-101733265D01*
X209441490Y-101744231D01*
X209554084Y-101766046D01*
X209652875Y-101799714D01*
X209741121Y-101846236D01*
X209789986Y-101880448D01*
X209819353Y-101902362D01*
X209841043Y-101917333D01*
X209849253Y-101921733D01*
X209850868Y-101910904D01*
X209852159Y-101880251D01*
X209853138Y-101832526D01*
X209853817Y-101770479D01*
X209854210Y-101696862D01*
X209854330Y-101614427D01*
X209854188Y-101525925D01*
X209853797Y-101434107D01*
X209853171Y-101341724D01*
X209852320Y-101251528D01*
X209851260Y-101166271D01*
X209850001Y-101088703D01*
X209848556Y-101021576D01*
X209846938Y-100967641D01*
X209845161Y-100929650D01*
X209844669Y-100922667D01*
X209837092Y-100852251D01*
X209825531Y-100797102D01*
X209807792Y-100749981D01*
X209781682Y-100703647D01*
X209775415Y-100694067D01*
X209750983Y-100657378D01*
X210656311Y-100657378D01*
X210656507Y-102342245D01*
G37*
X207143574Y-101736552D02*
X207295492Y-101756567D01*
X207430756Y-101790202D01*
X207550239Y-101837725D01*
X207654815Y-101899405D01*
X207732424Y-101962965D01*
X207801265Y-102037099D01*
X207855006Y-102116871D01*
X207897910Y-102209091D01*
X207913384Y-102252161D01*
X207926244Y-102291142D01*
X207937446Y-102327289D01*
X207947120Y-102362434D01*
X207955396Y-102398410D01*
X207962403Y-102437050D01*
X207968272Y-102480185D01*
X207973131Y-102529649D01*
X207977110Y-102587273D01*
X207980340Y-102654891D01*
X207982949Y-102734334D01*
X207985067Y-102827436D01*
X207986824Y-102936027D01*
X207988349Y-103061942D01*
X207989772Y-103207012D01*
X207991025Y-103349778D01*
X207992351Y-103505968D01*
X207993556Y-103641239D01*
X207994766Y-103757246D01*
X207996106Y-103855645D01*
X207997700Y-103938093D01*
X207999675Y-104006246D01*
X208002156Y-104061760D01*
X208005269Y-104106292D01*
X208009138Y-104141498D01*
X208013889Y-104169034D01*
X208019648Y-104190556D01*
X208026539Y-104207722D01*
X208034689Y-104222186D01*
X208044223Y-104235606D01*
X208055266Y-104249638D01*
X208059566Y-104255071D01*
X208075386Y-104277910D01*
X208082422Y-104293463D01*
X208082444Y-104293922D01*
X208071567Y-104296121D01*
X208040582Y-104298147D01*
X207991957Y-104299942D01*
X207928163Y-104301451D01*
X207851669Y-104302616D01*
X207764944Y-104303380D01*
X207670457Y-104303686D01*
X207659550Y-104303689D01*
X207236657Y-104303689D01*
X207233395Y-104207622D01*
X207230133Y-104111556D01*
X207168044Y-104162543D01*
X207070714Y-104230057D01*
X206960813Y-104284749D01*
X206874349Y-104314978D01*
X206805278Y-104329666D01*
X206721925Y-104339659D01*
X206632159Y-104344646D01*
X206543845Y-104344313D01*
X206464851Y-104338351D01*
X206428622Y-104332638D01*
X206288603Y-104294776D01*
X206162178Y-104239932D01*
X206050260Y-104168924D01*
X205953762Y-104082568D01*
X205873600Y-103981679D01*
X205810687Y-103867076D01*
X205766312Y-103740984D01*
X205753978Y-103684401D01*
X205746368Y-103622202D01*
X205742739Y-103547363D01*
X205742245Y-103513467D01*
X205742310Y-103510282D01*
X206502248Y-103510282D01*
X206511541Y-103585333D01*
X206539728Y-103649160D01*
X206588197Y-103704798D01*
X206593254Y-103709211D01*
X206641548Y-103744037D01*
X206693257Y-103766620D01*
X206753989Y-103778540D01*
X206829352Y-103781383D01*
X206847459Y-103780978D01*
X206901278Y-103778325D01*
X206941308Y-103772909D01*
X206976324Y-103762745D01*
X207015103Y-103745850D01*
X207025745Y-103740672D01*
X207086396Y-103704844D01*
X207133215Y-103662212D01*
X207145952Y-103646973D01*
X207190622Y-103590462D01*
X207190622Y-103394586D01*
X207190086Y-103315939D01*
X207188396Y-103257988D01*
X207185428Y-103218875D01*
X207181057Y-103196741D01*
X207176972Y-103190274D01*
X207161047Y-103187111D01*
X207127264Y-103184488D01*
X207080340Y-103182655D01*
X207024993Y-103181857D01*
X207016106Y-103181842D01*
X206895330Y-103187096D01*
X206792660Y-103203263D01*
X206706106Y-103230961D01*
X206633681Y-103270808D01*
X206578751Y-103317758D01*
X206534204Y-103375645D01*
X206509480Y-103438693D01*
X206502248Y-103510282D01*
X205742310Y-103510282D01*
X205744178Y-103419712D01*
X205752522Y-103340812D01*
X205768768Y-103269590D01*
X205794405Y-103198864D01*
X205818401Y-103146493D01*
X205877020Y-103051196D01*
X205955117Y-102963170D01*
X206050315Y-102884017D01*
X206160238Y-102815340D01*
X206282510Y-102758741D01*
X206414755Y-102715821D01*
X206479422Y-102700882D01*
X206615604Y-102678777D01*
X206764049Y-102664194D01*
X206915505Y-102657813D01*
X207042064Y-102659445D01*
X207203950Y-102666224D01*
X207196530Y-102607245D01*
X207177238Y-102508092D01*
X207146104Y-102427372D01*
X207102269Y-102364466D01*
X207044871Y-102318756D01*
X206973048Y-102289622D01*
X206885941Y-102276447D01*
X206782686Y-102278611D01*
X206744711Y-102282612D01*
X206603520Y-102307780D01*
X206466707Y-102348814D01*
X206372178Y-102386815D01*
X206327018Y-102406190D01*
X206288585Y-102421760D01*
X206262234Y-102431405D01*
X206254546Y-102433452D01*
X206244802Y-102424374D01*
X206228083Y-102395405D01*
X206204232Y-102346217D01*
X206173093Y-102276484D01*
X206134507Y-102185879D01*
X206127910Y-102170089D01*
X206097853Y-102097772D01*
X206070874Y-102032425D01*
X206048136Y-101976906D01*
X206030806Y-101934072D01*
X206020048Y-101906781D01*
X206016941Y-101897942D01*
X206026940Y-101893187D01*
X206053217Y-101887910D01*
X206081489Y-101884231D01*
X206111646Y-101879474D01*
X206159433Y-101870028D01*
X206220612Y-101856820D01*
X206290946Y-101840776D01*
X206366194Y-101822820D01*
X206394755Y-101815797D01*
X206499816Y-101790209D01*
X206587480Y-101770147D01*
X206662068Y-101754969D01*
X206727903Y-101744035D01*
X206789307Y-101736704D01*
X206850602Y-101732335D01*
X206916110Y-101730287D01*
X206974128Y-101729889D01*
X207143574Y-101736552D01*
G36*
X207143574Y-101736552D02*
G01*
X207295492Y-101756567D01*
X207430756Y-101790202D01*
X207550239Y-101837725D01*
X207654815Y-101899405D01*
X207732424Y-101962965D01*
X207801265Y-102037099D01*
X207855006Y-102116871D01*
X207897910Y-102209091D01*
X207913384Y-102252161D01*
X207926244Y-102291142D01*
X207937446Y-102327289D01*
X207947120Y-102362434D01*
X207955396Y-102398410D01*
X207962403Y-102437050D01*
X207968272Y-102480185D01*
X207973131Y-102529649D01*
X207977110Y-102587273D01*
X207980340Y-102654891D01*
X207982949Y-102734334D01*
X207985067Y-102827436D01*
X207986824Y-102936027D01*
X207988349Y-103061942D01*
X207989772Y-103207012D01*
X207991025Y-103349778D01*
X207992351Y-103505968D01*
X207993556Y-103641239D01*
X207994766Y-103757246D01*
X207996106Y-103855645D01*
X207997700Y-103938093D01*
X207999675Y-104006246D01*
X208002156Y-104061760D01*
X208005269Y-104106292D01*
X208009138Y-104141498D01*
X208013889Y-104169034D01*
X208019648Y-104190556D01*
X208026539Y-104207722D01*
X208034689Y-104222186D01*
X208044223Y-104235606D01*
X208055266Y-104249638D01*
X208059566Y-104255071D01*
X208075386Y-104277910D01*
X208082422Y-104293463D01*
X208082444Y-104293922D01*
X208071567Y-104296121D01*
X208040582Y-104298147D01*
X207991957Y-104299942D01*
X207928163Y-104301451D01*
X207851669Y-104302616D01*
X207764944Y-104303380D01*
X207670457Y-104303686D01*
X207659550Y-104303689D01*
X207236657Y-104303689D01*
X207233395Y-104207622D01*
X207230133Y-104111556D01*
X207168044Y-104162543D01*
X207070714Y-104230057D01*
X206960813Y-104284749D01*
X206874349Y-104314978D01*
X206805278Y-104329666D01*
X206721925Y-104339659D01*
X206632159Y-104344646D01*
X206543845Y-104344313D01*
X206464851Y-104338351D01*
X206428622Y-104332638D01*
X206288603Y-104294776D01*
X206162178Y-104239932D01*
X206050260Y-104168924D01*
X205953762Y-104082568D01*
X205873600Y-103981679D01*
X205810687Y-103867076D01*
X205766312Y-103740984D01*
X205753978Y-103684401D01*
X205746368Y-103622202D01*
X205742739Y-103547363D01*
X205742245Y-103513467D01*
X205742310Y-103510282D01*
X206502248Y-103510282D01*
X206511541Y-103585333D01*
X206539728Y-103649160D01*
X206588197Y-103704798D01*
X206593254Y-103709211D01*
X206641548Y-103744037D01*
X206693257Y-103766620D01*
X206753989Y-103778540D01*
X206829352Y-103781383D01*
X206847459Y-103780978D01*
X206901278Y-103778325D01*
X206941308Y-103772909D01*
X206976324Y-103762745D01*
X207015103Y-103745850D01*
X207025745Y-103740672D01*
X207086396Y-103704844D01*
X207133215Y-103662212D01*
X207145952Y-103646973D01*
X207190622Y-103590462D01*
X207190622Y-103394586D01*
X207190086Y-103315939D01*
X207188396Y-103257988D01*
X207185428Y-103218875D01*
X207181057Y-103196741D01*
X207176972Y-103190274D01*
X207161047Y-103187111D01*
X207127264Y-103184488D01*
X207080340Y-103182655D01*
X207024993Y-103181857D01*
X207016106Y-103181842D01*
X206895330Y-103187096D01*
X206792660Y-103203263D01*
X206706106Y-103230961D01*
X206633681Y-103270808D01*
X206578751Y-103317758D01*
X206534204Y-103375645D01*
X206509480Y-103438693D01*
X206502248Y-103510282D01*
X205742310Y-103510282D01*
X205744178Y-103419712D01*
X205752522Y-103340812D01*
X205768768Y-103269590D01*
X205794405Y-103198864D01*
X205818401Y-103146493D01*
X205877020Y-103051196D01*
X205955117Y-102963170D01*
X206050315Y-102884017D01*
X206160238Y-102815340D01*
X206282510Y-102758741D01*
X206414755Y-102715821D01*
X206479422Y-102700882D01*
X206615604Y-102678777D01*
X206764049Y-102664194D01*
X206915505Y-102657813D01*
X207042064Y-102659445D01*
X207203950Y-102666224D01*
X207196530Y-102607245D01*
X207177238Y-102508092D01*
X207146104Y-102427372D01*
X207102269Y-102364466D01*
X207044871Y-102318756D01*
X206973048Y-102289622D01*
X206885941Y-102276447D01*
X206782686Y-102278611D01*
X206744711Y-102282612D01*
X206603520Y-102307780D01*
X206466707Y-102348814D01*
X206372178Y-102386815D01*
X206327018Y-102406190D01*
X206288585Y-102421760D01*
X206262234Y-102431405D01*
X206254546Y-102433452D01*
X206244802Y-102424374D01*
X206228083Y-102395405D01*
X206204232Y-102346217D01*
X206173093Y-102276484D01*
X206134507Y-102185879D01*
X206127910Y-102170089D01*
X206097853Y-102097772D01*
X206070874Y-102032425D01*
X206048136Y-101976906D01*
X206030806Y-101934072D01*
X206020048Y-101906781D01*
X206016941Y-101897942D01*
X206026940Y-101893187D01*
X206053217Y-101887910D01*
X206081489Y-101884231D01*
X206111646Y-101879474D01*
X206159433Y-101870028D01*
X206220612Y-101856820D01*
X206290946Y-101840776D01*
X206366194Y-101822820D01*
X206394755Y-101815797D01*
X206499816Y-101790209D01*
X206587480Y-101770147D01*
X206662068Y-101754969D01*
X206727903Y-101744035D01*
X206789307Y-101736704D01*
X206850602Y-101732335D01*
X206916110Y-101730287D01*
X206974128Y-101729889D01*
X207143574Y-101736552D01*
G37*
X201523600Y-100359054D02*
X201534465Y-100472993D01*
X201566082Y-100580616D01*
X201616985Y-100679615D01*
X201685707Y-100767684D01*
X201770781Y-100842516D01*
X201867768Y-100900384D01*
X201974036Y-100940005D01*
X202081050Y-100958573D01*
X202186700Y-100957434D01*
X202288875Y-100937930D01*
X202385466Y-100901406D01*
X202474362Y-100849205D01*
X202553454Y-100782673D01*
X202620631Y-100703152D01*
X202673783Y-100611987D01*
X202710801Y-100510523D01*
X202729573Y-100400102D01*
X202731511Y-100350206D01*
X202731511Y-100262267D01*
X202783440Y-100262267D01*
X202819747Y-100265111D01*
X202846645Y-100276911D01*
X202873751Y-100300649D01*
X202912133Y-100339031D01*
X202912133Y-102530602D01*
X202912124Y-102792739D01*
X202912092Y-103033241D01*
X202912028Y-103253048D01*
X202911924Y-103453101D01*
X202911773Y-103634344D01*
X202911566Y-103797716D01*
X202911294Y-103944160D01*
X202910950Y-104074617D01*
X202910526Y-104190029D01*
X202910013Y-104291338D01*
X202909403Y-104379484D01*
X202908688Y-104455410D01*
X202907860Y-104520057D01*
X202906911Y-104574367D01*
X202905833Y-104619280D01*
X202904617Y-104655740D01*
X202903255Y-104684687D01*
X202901739Y-104707063D01*
X202900062Y-104723809D01*
X202898214Y-104735868D01*
X202896187Y-104744180D01*
X202893975Y-104749687D01*
X202892892Y-104751537D01*
X202888729Y-104758549D01*
X202885195Y-104764996D01*
X202881365Y-104770900D01*
X202876318Y-104776286D01*
X202869129Y-104781178D01*
X202858877Y-104785598D01*
X202844636Y-104789572D01*
X202825486Y-104793121D01*
X202800501Y-104796270D01*
X202768760Y-104799042D01*
X202729338Y-104801461D01*
X202681314Y-104803551D01*
X202623763Y-104805335D01*
X202555763Y-104806837D01*
X202476390Y-104808080D01*
X202384721Y-104809089D01*
X202279834Y-104809885D01*
X202160804Y-104810494D01*
X202026710Y-104810939D01*
X201876627Y-104811243D01*
X201709633Y-104811430D01*
X201524804Y-104811524D01*
X201321217Y-104811548D01*
X201097950Y-104811525D01*
X200854078Y-104811480D01*
X200588679Y-104811437D01*
X200550296Y-104811432D01*
X200283318Y-104811389D01*
X200037998Y-104811318D01*
X199813417Y-104811213D01*
X199608655Y-104811066D01*
X199422794Y-104810869D01*
X199254912Y-104810616D01*
X199104092Y-104810300D01*
X198969413Y-104809913D01*
X198849956Y-104809447D01*
X198744801Y-104808897D01*
X198653029Y-104808253D01*
X198573721Y-104807511D01*
X198505957Y-104806661D01*
X198448818Y-104805697D01*
X198401383Y-104804611D01*
X198362734Y-104803397D01*
X198331951Y-104802047D01*
X198308115Y-104800555D01*
X198290306Y-104798911D01*
X198277605Y-104797111D01*
X198269092Y-104795145D01*
X198264734Y-104793477D01*
X198256272Y-104789906D01*
X198248503Y-104787270D01*
X198241398Y-104784634D01*
X198234927Y-104781062D01*
X198229061Y-104775621D01*
X198223771Y-104767375D01*
X198219026Y-104755390D01*
X198214798Y-104738731D01*
X198211057Y-104716463D01*
X198207773Y-104687652D01*
X198204917Y-104651363D01*
X198202460Y-104606661D01*
X198200371Y-104552611D01*
X198198622Y-104488279D01*
X198197183Y-104412730D01*
X198196024Y-104325030D01*
X198195117Y-104224243D01*
X198194431Y-104109434D01*
X198193937Y-103979670D01*
X198193605Y-103834015D01*
X198193407Y-103671535D01*
X198193313Y-103491295D01*
X198193292Y-103292360D01*
X198193315Y-103073796D01*
X198193354Y-102834668D01*
X198193378Y-102574040D01*
X198193378Y-102531889D01*
X198193364Y-102268992D01*
X198193339Y-102027732D01*
X198193329Y-101807165D01*
X198193358Y-101606352D01*
X198193452Y-101424349D01*
X198193638Y-101260216D01*
X198193941Y-101113011D01*
X198194386Y-100981792D01*
X198194966Y-100871867D01*
X198497803Y-100871867D01*
X198537593Y-100929711D01*
X198548764Y-100945479D01*
X198558834Y-100959441D01*
X198567862Y-100972784D01*
X198575903Y-100986693D01*
X198583014Y-101002356D01*
X198589253Y-101020958D01*
X198594675Y-101043686D01*
X198599338Y-101071727D01*
X198603299Y-101106267D01*
X198606615Y-101148492D01*
X198609341Y-101199589D01*
X198611536Y-101260744D01*
X198613255Y-101333144D01*
X198614556Y-101417975D01*
X198615495Y-101516422D01*
X198616130Y-101629674D01*
X198616516Y-101758916D01*
X198616712Y-101905334D01*
X198616773Y-102070116D01*
X198616757Y-102254447D01*
X198616720Y-102459513D01*
X198616711Y-102582133D01*
X198616735Y-102799082D01*
X198616769Y-102994642D01*
X198616757Y-103169999D01*
X198616642Y-103326341D01*
X198616370Y-103464857D01*
X198615882Y-103586734D01*
X198615124Y-103693160D01*
X198614038Y-103785322D01*
X198612569Y-103864409D01*
X198610660Y-103931608D01*
X198608256Y-103988107D01*
X198605299Y-104035093D01*
X198601734Y-104073755D01*
X198597505Y-104105280D01*
X198592554Y-104130855D01*
X198586827Y-104151670D01*
X198580267Y-104168911D01*
X198572817Y-104183765D01*
X198564421Y-104197422D01*
X198555024Y-104211069D01*
X198544568Y-104225893D01*
X198538477Y-104234783D01*
X198499704Y-104292400D01*
X199031268Y-104292400D01*
X199154517Y-104292365D01*
X199257013Y-104292215D01*
X199340580Y-104291878D01*
X199407044Y-104291286D01*
X199458229Y-104290367D01*
X199495959Y-104289051D01*
X199522060Y-104287269D01*
X199538356Y-104284951D01*
X199546672Y-104282026D01*
X199548832Y-104278424D01*
X199546661Y-104274075D01*
X199545465Y-104272645D01*
X199520315Y-104235573D01*
X199494417Y-104182772D01*
X199470808Y-104120770D01*
X199462539Y-104094357D01*
X199457922Y-104076416D01*
X199454021Y-104055355D01*
X199450752Y-104029089D01*
X199448034Y-103995532D01*
X199445785Y-103952599D01*
X199443923Y-103898204D01*
X199442364Y-103830262D01*
X199441028Y-103746688D01*
X199439831Y-103645395D01*
X199438692Y-103524300D01*
X199438315Y-103479600D01*
X199437298Y-103354449D01*
X199436540Y-103250082D01*
X199436097Y-103164707D01*
X199436030Y-103096533D01*
X199436395Y-103043765D01*
X199437252Y-103004614D01*
X199438659Y-102977285D01*
X199440675Y-102959986D01*
X199443357Y-102950926D01*
X199446764Y-102948312D01*
X199450956Y-102950351D01*
X199455429Y-102954667D01*
X199465784Y-102967602D01*
X199487842Y-102996676D01*
X199520043Y-103039759D01*
X199560826Y-103094718D01*
X199608630Y-103159423D01*
X199661895Y-103231742D01*
X199719060Y-103309544D01*
X199778563Y-103390698D01*
X199838845Y-103473072D01*
X199898345Y-103554536D01*
X199955502Y-103632957D01*
X200008755Y-103706204D01*
X200056543Y-103772147D01*
X200097307Y-103828654D01*
X200129484Y-103873593D01*
X200151515Y-103904834D01*
X200156083Y-103911466D01*
X200179004Y-103948369D01*
X200205812Y-103996359D01*
X200231211Y-104045897D01*
X200234432Y-104052577D01*
X200256110Y-104100772D01*
X200268696Y-104138334D01*
X200274426Y-104174160D01*
X200275544Y-104216200D01*
X200274910Y-104292400D01*
X201429349Y-104292400D01*
X201424347Y-104287257D01*
X201636489Y-104287257D01*
X201647396Y-104288334D01*
X201678589Y-104289335D01*
X201727777Y-104290235D01*
X201792667Y-104291010D01*
X201870970Y-104291637D01*
X201960393Y-104292091D01*
X202058644Y-104292349D01*
X202127555Y-104292400D01*
X202232548Y-104292180D01*
X202329390Y-104291548D01*
X202415893Y-104290549D01*
X202489868Y-104289227D01*
X202549126Y-104287626D01*
X202591480Y-104285791D01*
X202614740Y-104283765D01*
X202618622Y-104282493D01*
X202610924Y-104267591D01*
X202602926Y-104259560D01*
X202589754Y-104242434D01*
X202572515Y-104212183D01*
X202560593Y-104187622D01*
X202533955Y-104128711D01*
X202530880Y-102951845D01*
X202527805Y-101774978D01*
X202082147Y-101774978D01*
X201984330Y-101775142D01*
X201893936Y-101775611D01*
X201813370Y-101776347D01*
X201745038Y-101777316D01*
X201691344Y-101778480D01*
X201654695Y-101779803D01*
X201637496Y-101781249D01*
X201636489Y-101781702D01*
X201642398Y-101794659D01*
X201656728Y-101816908D01*
X201657775Y-101818391D01*
X201676562Y-101848544D01*
X201696209Y-101885375D01*
X201700108Y-101893511D01*
X201703644Y-101901940D01*
X201706770Y-101912059D01*
X201709514Y-101925260D01*
X201711908Y-101942938D01*
X201713981Y-101966484D01*
X201715765Y-101997293D01*
X201717288Y-102036757D01*
X201718581Y-102086269D01*
X201719674Y-102147223D01*
X201720597Y-102221011D01*
X201721381Y-102309028D01*
X201722055Y-102412665D01*
X201722650Y-102533316D01*
X201723195Y-102672374D01*
X201723721Y-102831232D01*
X201724255Y-103010089D01*
X201724794Y-103195207D01*
X201725228Y-103359145D01*
X201725491Y-103503303D01*
X201725516Y-103629079D01*
X201725235Y-103737871D01*
X201724581Y-103831077D01*
X201723486Y-103910097D01*
X201721882Y-103976328D01*
X201719703Y-104031170D01*
X201716881Y-104076021D01*
X201713349Y-104112278D01*
X201709039Y-104141341D01*
X201703883Y-104164609D01*
X201697815Y-104183479D01*
X201690767Y-104199351D01*
X201682671Y-104213622D01*
X201673460Y-104227691D01*
X201664960Y-104240158D01*
X201647824Y-104266452D01*
X201637678Y-104284037D01*
X201636489Y-104287257D01*
X201424347Y-104287257D01*
X201338185Y-104198669D01*
X201291388Y-104148775D01*
X201241101Y-104092295D01*
X201195056Y-104038026D01*
X201174631Y-104012673D01*
X201144193Y-103973128D01*
X201104138Y-103919916D01*
X201055639Y-103854667D01*
X200999865Y-103779011D01*
X200937989Y-103694577D01*
X200871181Y-103602994D01*
X200800613Y-103505892D01*
X200727455Y-103404901D01*
X200652879Y-103301650D01*
X200578056Y-103197768D01*
X200504157Y-103094885D01*
X200432354Y-102994631D01*
X200363816Y-102898636D01*
X200299716Y-102808527D01*
X200241225Y-102725936D01*
X200189514Y-102652492D01*
X200145753Y-102589824D01*
X200111115Y-102539561D01*
X200086770Y-102503334D01*
X200073889Y-102482771D01*
X200072131Y-102478668D01*
X200080090Y-102467342D01*
X200100885Y-102440162D01*
X200133153Y-102398829D01*
X200175530Y-102345044D01*
X200226653Y-102280506D01*
X200285159Y-102206918D01*
X200349686Y-102125978D01*
X200418869Y-102039388D01*
X200491347Y-101948848D01*
X200565754Y-101856060D01*
X200625483Y-101781702D01*
X200640730Y-101762722D01*
X200714910Y-101670537D01*
X200786931Y-101581204D01*
X200855431Y-101496424D01*
X200919045Y-101417898D01*
X200976412Y-101347326D01*
X201026167Y-101286409D01*
X201066948Y-101236847D01*
X201084112Y-101216178D01*
X201170404Y-101115516D01*
X201247003Y-101032259D01*
X201315817Y-100964438D01*
X201378752Y-100910089D01*
X201388133Y-100902722D01*
X201427644Y-100872117D01*
X200295884Y-100871867D01*
X200301173Y-100919844D01*
X200297870Y-100977188D01*
X200276339Y-101045463D01*
X200236365Y-101125212D01*
X200191057Y-101197495D01*
X200174839Y-101220140D01*
X200146786Y-101257696D01*
X200108570Y-101308021D01*
X200061863Y-101368973D01*
X200008339Y-101438411D01*
X199949669Y-101514194D01*
X199887525Y-101594180D01*
X199823579Y-101676228D01*
X199759505Y-101758196D01*
X199696973Y-101837943D01*
X199637657Y-101913327D01*
X199583229Y-101982207D01*
X199535361Y-102042442D01*
X199495725Y-102091889D01*
X199465994Y-102128408D01*
X199447839Y-102149858D01*
X199444780Y-102153156D01*
X199441921Y-102145149D01*
X199439707Y-102114855D01*
X199438143Y-102062556D01*
X199437233Y-101988531D01*
X199436980Y-101893063D01*
X199437387Y-101776434D01*
X199438296Y-101656445D01*
X199439618Y-101524333D01*
X199441143Y-101412594D01*
X199443119Y-101319025D01*
X199445794Y-101241419D01*
X199449418Y-101177574D01*
X199454239Y-101125283D01*
X199460506Y-101082344D01*
X199468468Y-101046551D01*
X199478373Y-101015700D01*
X199490469Y-100987586D01*
X199505007Y-100960005D01*
X199519689Y-100934966D01*
X199557686Y-100871867D01*
X198497803Y-100871867D01*
X198194966Y-100871867D01*
X198194999Y-100865617D01*
X198195805Y-100763544D01*
X198196830Y-100674633D01*
X198198100Y-100597941D01*
X198199640Y-100532527D01*
X198201476Y-100477449D01*
X198203633Y-100431765D01*
X198206137Y-100394534D01*
X198209013Y-100364813D01*
X198212287Y-100341662D01*
X198215985Y-100324139D01*
X198220131Y-100311301D01*
X198224753Y-100302208D01*
X198229874Y-100295918D01*
X198235522Y-100291488D01*
X198241721Y-100287978D01*
X198248496Y-100284445D01*
X198254492Y-100280876D01*
X198259725Y-100278300D01*
X198267901Y-100275972D01*
X198280114Y-100273878D01*
X198297459Y-100272007D01*
X198321031Y-100270347D01*
X198351923Y-100268884D01*
X198391232Y-100267608D01*
X198440050Y-100266504D01*
X198499473Y-100265561D01*
X198570596Y-100264767D01*
X198654512Y-100264109D01*
X198752317Y-100263575D01*
X198865106Y-100263153D01*
X198993971Y-100262829D01*
X199140009Y-100262592D01*
X199304314Y-100262430D01*
X199487980Y-100262330D01*
X199692103Y-100262280D01*
X199903247Y-100262267D01*
X201523600Y-100262267D01*
X201523600Y-100359054D01*
G36*
X201523600Y-100359054D02*
G01*
X201534465Y-100472993D01*
X201566082Y-100580616D01*
X201616985Y-100679615D01*
X201685707Y-100767684D01*
X201770781Y-100842516D01*
X201867768Y-100900384D01*
X201974036Y-100940005D01*
X202081050Y-100958573D01*
X202186700Y-100957434D01*
X202288875Y-100937930D01*
X202385466Y-100901406D01*
X202474362Y-100849205D01*
X202553454Y-100782673D01*
X202620631Y-100703152D01*
X202673783Y-100611987D01*
X202710801Y-100510523D01*
X202729573Y-100400102D01*
X202731511Y-100350206D01*
X202731511Y-100262267D01*
X202783440Y-100262267D01*
X202819747Y-100265111D01*
X202846645Y-100276911D01*
X202873751Y-100300649D01*
X202912133Y-100339031D01*
X202912133Y-102530602D01*
X202912124Y-102792739D01*
X202912092Y-103033241D01*
X202912028Y-103253048D01*
X202911924Y-103453101D01*
X202911773Y-103634344D01*
X202911566Y-103797716D01*
X202911294Y-103944160D01*
X202910950Y-104074617D01*
X202910526Y-104190029D01*
X202910013Y-104291338D01*
X202909403Y-104379484D01*
X202908688Y-104455410D01*
X202907860Y-104520057D01*
X202906911Y-104574367D01*
X202905833Y-104619280D01*
X202904617Y-104655740D01*
X202903255Y-104684687D01*
X202901739Y-104707063D01*
X202900062Y-104723809D01*
X202898214Y-104735868D01*
X202896187Y-104744180D01*
X202893975Y-104749687D01*
X202892892Y-104751537D01*
X202888729Y-104758549D01*
X202885195Y-104764996D01*
X202881365Y-104770900D01*
X202876318Y-104776286D01*
X202869129Y-104781178D01*
X202858877Y-104785598D01*
X202844636Y-104789572D01*
X202825486Y-104793121D01*
X202800501Y-104796270D01*
X202768760Y-104799042D01*
X202729338Y-104801461D01*
X202681314Y-104803551D01*
X202623763Y-104805335D01*
X202555763Y-104806837D01*
X202476390Y-104808080D01*
X202384721Y-104809089D01*
X202279834Y-104809885D01*
X202160804Y-104810494D01*
X202026710Y-104810939D01*
X201876627Y-104811243D01*
X201709633Y-104811430D01*
X201524804Y-104811524D01*
X201321217Y-104811548D01*
X201097950Y-104811525D01*
X200854078Y-104811480D01*
X200588679Y-104811437D01*
X200550296Y-104811432D01*
X200283318Y-104811389D01*
X200037998Y-104811318D01*
X199813417Y-104811213D01*
X199608655Y-104811066D01*
X199422794Y-104810869D01*
X199254912Y-104810616D01*
X199104092Y-104810300D01*
X198969413Y-104809913D01*
X198849956Y-104809447D01*
X198744801Y-104808897D01*
X198653029Y-104808253D01*
X198573721Y-104807511D01*
X198505957Y-104806661D01*
X198448818Y-104805697D01*
X198401383Y-104804611D01*
X198362734Y-104803397D01*
X198331951Y-104802047D01*
X198308115Y-104800555D01*
X198290306Y-104798911D01*
X198277605Y-104797111D01*
X198269092Y-104795145D01*
X198264734Y-104793477D01*
X198256272Y-104789906D01*
X198248503Y-104787270D01*
X198241398Y-104784634D01*
X198234927Y-104781062D01*
X198229061Y-104775621D01*
X198223771Y-104767375D01*
X198219026Y-104755390D01*
X198214798Y-104738731D01*
X198211057Y-104716463D01*
X198207773Y-104687652D01*
X198204917Y-104651363D01*
X198202460Y-104606661D01*
X198200371Y-104552611D01*
X198198622Y-104488279D01*
X198197183Y-104412730D01*
X198196024Y-104325030D01*
X198195117Y-104224243D01*
X198194431Y-104109434D01*
X198193937Y-103979670D01*
X198193605Y-103834015D01*
X198193407Y-103671535D01*
X198193313Y-103491295D01*
X198193292Y-103292360D01*
X198193315Y-103073796D01*
X198193354Y-102834668D01*
X198193378Y-102574040D01*
X198193378Y-102531889D01*
X198193364Y-102268992D01*
X198193339Y-102027732D01*
X198193329Y-101807165D01*
X198193358Y-101606352D01*
X198193452Y-101424349D01*
X198193638Y-101260216D01*
X198193941Y-101113011D01*
X198194386Y-100981792D01*
X198194966Y-100871867D01*
X198497803Y-100871867D01*
X198537593Y-100929711D01*
X198548764Y-100945479D01*
X198558834Y-100959441D01*
X198567862Y-100972784D01*
X198575903Y-100986693D01*
X198583014Y-101002356D01*
X198589253Y-101020958D01*
X198594675Y-101043686D01*
X198599338Y-101071727D01*
X198603299Y-101106267D01*
X198606615Y-101148492D01*
X198609341Y-101199589D01*
X198611536Y-101260744D01*
X198613255Y-101333144D01*
X198614556Y-101417975D01*
X198615495Y-101516422D01*
X198616130Y-101629674D01*
X198616516Y-101758916D01*
X198616712Y-101905334D01*
X198616773Y-102070116D01*
X198616757Y-102254447D01*
X198616720Y-102459513D01*
X198616711Y-102582133D01*
X198616735Y-102799082D01*
X198616769Y-102994642D01*
X198616757Y-103169999D01*
X198616642Y-103326341D01*
X198616370Y-103464857D01*
X198615882Y-103586734D01*
X198615124Y-103693160D01*
X198614038Y-103785322D01*
X198612569Y-103864409D01*
X198610660Y-103931608D01*
X198608256Y-103988107D01*
X198605299Y-104035093D01*
X198601734Y-104073755D01*
X198597505Y-104105280D01*
X198592554Y-104130855D01*
X198586827Y-104151670D01*
X198580267Y-104168911D01*
X198572817Y-104183765D01*
X198564421Y-104197422D01*
X198555024Y-104211069D01*
X198544568Y-104225893D01*
X198538477Y-104234783D01*
X198499704Y-104292400D01*
X199031268Y-104292400D01*
X199154517Y-104292365D01*
X199257013Y-104292215D01*
X199340580Y-104291878D01*
X199407044Y-104291286D01*
X199458229Y-104290367D01*
X199495959Y-104289051D01*
X199522060Y-104287269D01*
X199538356Y-104284951D01*
X199546672Y-104282026D01*
X199548832Y-104278424D01*
X199546661Y-104274075D01*
X199545465Y-104272645D01*
X199520315Y-104235573D01*
X199494417Y-104182772D01*
X199470808Y-104120770D01*
X199462539Y-104094357D01*
X199457922Y-104076416D01*
X199454021Y-104055355D01*
X199450752Y-104029089D01*
X199448034Y-103995532D01*
X199445785Y-103952599D01*
X199443923Y-103898204D01*
X199442364Y-103830262D01*
X199441028Y-103746688D01*
X199439831Y-103645395D01*
X199438692Y-103524300D01*
X199438315Y-103479600D01*
X199437298Y-103354449D01*
X199436540Y-103250082D01*
X199436097Y-103164707D01*
X199436030Y-103096533D01*
X199436395Y-103043765D01*
X199437252Y-103004614D01*
X199438659Y-102977285D01*
X199440675Y-102959986D01*
X199443357Y-102950926D01*
X199446764Y-102948312D01*
X199450956Y-102950351D01*
X199455429Y-102954667D01*
X199465784Y-102967602D01*
X199487842Y-102996676D01*
X199520043Y-103039759D01*
X199560826Y-103094718D01*
X199608630Y-103159423D01*
X199661895Y-103231742D01*
X199719060Y-103309544D01*
X199778563Y-103390698D01*
X199838845Y-103473072D01*
X199898345Y-103554536D01*
X199955502Y-103632957D01*
X200008755Y-103706204D01*
X200056543Y-103772147D01*
X200097307Y-103828654D01*
X200129484Y-103873593D01*
X200151515Y-103904834D01*
X200156083Y-103911466D01*
X200179004Y-103948369D01*
X200205812Y-103996359D01*
X200231211Y-104045897D01*
X200234432Y-104052577D01*
X200256110Y-104100772D01*
X200268696Y-104138334D01*
X200274426Y-104174160D01*
X200275544Y-104216200D01*
X200274910Y-104292400D01*
X201429349Y-104292400D01*
X201424347Y-104287257D01*
X201636489Y-104287257D01*
X201647396Y-104288334D01*
X201678589Y-104289335D01*
X201727777Y-104290235D01*
X201792667Y-104291010D01*
X201870970Y-104291637D01*
X201960393Y-104292091D01*
X202058644Y-104292349D01*
X202127555Y-104292400D01*
X202232548Y-104292180D01*
X202329390Y-104291548D01*
X202415893Y-104290549D01*
X202489868Y-104289227D01*
X202549126Y-104287626D01*
X202591480Y-104285791D01*
X202614740Y-104283765D01*
X202618622Y-104282493D01*
X202610924Y-104267591D01*
X202602926Y-104259560D01*
X202589754Y-104242434D01*
X202572515Y-104212183D01*
X202560593Y-104187622D01*
X202533955Y-104128711D01*
X202530880Y-102951845D01*
X202527805Y-101774978D01*
X202082147Y-101774978D01*
X201984330Y-101775142D01*
X201893936Y-101775611D01*
X201813370Y-101776347D01*
X201745038Y-101777316D01*
X201691344Y-101778480D01*
X201654695Y-101779803D01*
X201637496Y-101781249D01*
X201636489Y-101781702D01*
X201642398Y-101794659D01*
X201656728Y-101816908D01*
X201657775Y-101818391D01*
X201676562Y-101848544D01*
X201696209Y-101885375D01*
X201700108Y-101893511D01*
X201703644Y-101901940D01*
X201706770Y-101912059D01*
X201709514Y-101925260D01*
X201711908Y-101942938D01*
X201713981Y-101966484D01*
X201715765Y-101997293D01*
X201717288Y-102036757D01*
X201718581Y-102086269D01*
X201719674Y-102147223D01*
X201720597Y-102221011D01*
X201721381Y-102309028D01*
X201722055Y-102412665D01*
X201722650Y-102533316D01*
X201723195Y-102672374D01*
X201723721Y-102831232D01*
X201724255Y-103010089D01*
X201724794Y-103195207D01*
X201725228Y-103359145D01*
X201725491Y-103503303D01*
X201725516Y-103629079D01*
X201725235Y-103737871D01*
X201724581Y-103831077D01*
X201723486Y-103910097D01*
X201721882Y-103976328D01*
X201719703Y-104031170D01*
X201716881Y-104076021D01*
X201713349Y-104112278D01*
X201709039Y-104141341D01*
X201703883Y-104164609D01*
X201697815Y-104183479D01*
X201690767Y-104199351D01*
X201682671Y-104213622D01*
X201673460Y-104227691D01*
X201664960Y-104240158D01*
X201647824Y-104266452D01*
X201637678Y-104284037D01*
X201636489Y-104287257D01*
X201424347Y-104287257D01*
X201338185Y-104198669D01*
X201291388Y-104148775D01*
X201241101Y-104092295D01*
X201195056Y-104038026D01*
X201174631Y-104012673D01*
X201144193Y-103973128D01*
X201104138Y-103919916D01*
X201055639Y-103854667D01*
X200999865Y-103779011D01*
X200937989Y-103694577D01*
X200871181Y-103602994D01*
X200800613Y-103505892D01*
X200727455Y-103404901D01*
X200652879Y-103301650D01*
X200578056Y-103197768D01*
X200504157Y-103094885D01*
X200432354Y-102994631D01*
X200363816Y-102898636D01*
X200299716Y-102808527D01*
X200241225Y-102725936D01*
X200189514Y-102652492D01*
X200145753Y-102589824D01*
X200111115Y-102539561D01*
X200086770Y-102503334D01*
X200073889Y-102482771D01*
X200072131Y-102478668D01*
X200080090Y-102467342D01*
X200100885Y-102440162D01*
X200133153Y-102398829D01*
X200175530Y-102345044D01*
X200226653Y-102280506D01*
X200285159Y-102206918D01*
X200349686Y-102125978D01*
X200418869Y-102039388D01*
X200491347Y-101948848D01*
X200565754Y-101856060D01*
X200625483Y-101781702D01*
X200640730Y-101762722D01*
X200714910Y-101670537D01*
X200786931Y-101581204D01*
X200855431Y-101496424D01*
X200919045Y-101417898D01*
X200976412Y-101347326D01*
X201026167Y-101286409D01*
X201066948Y-101236847D01*
X201084112Y-101216178D01*
X201170404Y-101115516D01*
X201247003Y-101032259D01*
X201315817Y-100964438D01*
X201378752Y-100910089D01*
X201388133Y-100902722D01*
X201427644Y-100872117D01*
X200295884Y-100871867D01*
X200301173Y-100919844D01*
X200297870Y-100977188D01*
X200276339Y-101045463D01*
X200236365Y-101125212D01*
X200191057Y-101197495D01*
X200174839Y-101220140D01*
X200146786Y-101257696D01*
X200108570Y-101308021D01*
X200061863Y-101368973D01*
X200008339Y-101438411D01*
X199949669Y-101514194D01*
X199887525Y-101594180D01*
X199823579Y-101676228D01*
X199759505Y-101758196D01*
X199696973Y-101837943D01*
X199637657Y-101913327D01*
X199583229Y-101982207D01*
X199535361Y-102042442D01*
X199495725Y-102091889D01*
X199465994Y-102128408D01*
X199447839Y-102149858D01*
X199444780Y-102153156D01*
X199441921Y-102145149D01*
X199439707Y-102114855D01*
X199438143Y-102062556D01*
X199437233Y-101988531D01*
X199436980Y-101893063D01*
X199437387Y-101776434D01*
X199438296Y-101656445D01*
X199439618Y-101524333D01*
X199441143Y-101412594D01*
X199443119Y-101319025D01*
X199445794Y-101241419D01*
X199449418Y-101177574D01*
X199454239Y-101125283D01*
X199460506Y-101082344D01*
X199468468Y-101046551D01*
X199478373Y-101015700D01*
X199490469Y-100987586D01*
X199505007Y-100960005D01*
X199519689Y-100934966D01*
X199557686Y-100871867D01*
X198497803Y-100871867D01*
X198194966Y-100871867D01*
X198194999Y-100865617D01*
X198195805Y-100763544D01*
X198196830Y-100674633D01*
X198198100Y-100597941D01*
X198199640Y-100532527D01*
X198201476Y-100477449D01*
X198203633Y-100431765D01*
X198206137Y-100394534D01*
X198209013Y-100364813D01*
X198212287Y-100341662D01*
X198215985Y-100324139D01*
X198220131Y-100311301D01*
X198224753Y-100302208D01*
X198229874Y-100295918D01*
X198235522Y-100291488D01*
X198241721Y-100287978D01*
X198248496Y-100284445D01*
X198254492Y-100280876D01*
X198259725Y-100278300D01*
X198267901Y-100275972D01*
X198280114Y-100273878D01*
X198297459Y-100272007D01*
X198321031Y-100270347D01*
X198351923Y-100268884D01*
X198391232Y-100267608D01*
X198440050Y-100266504D01*
X198499473Y-100265561D01*
X198570596Y-100264767D01*
X198654512Y-100264109D01*
X198752317Y-100263575D01*
X198865106Y-100263153D01*
X198993971Y-100262829D01*
X199140009Y-100262592D01*
X199304314Y-100262430D01*
X199487980Y-100262330D01*
X199692103Y-100262280D01*
X199903247Y-100262267D01*
X201523600Y-100262267D01*
X201523600Y-100359054D01*
G37*
%TD*%
%LPC*%
D14*
%TO.C,C1*%
X203397800Y-93965000D03*
X205897800Y-93965000D03*
%TD*%
%TO.C,C2*%
X169545000Y-99675000D03*
X169545000Y-97175000D03*
%TD*%
D15*
%TO.C,DS1*%
X177800000Y-72517000D03*
X180340000Y-72517000D03*
X182880000Y-72517000D03*
X185420000Y-72517000D03*
X187960000Y-72517000D03*
X190500000Y-72517000D03*
X190500000Y-82677000D03*
X187960000Y-82677000D03*
X185420000Y-82677000D03*
X182880000Y-82677000D03*
X180340000Y-82677000D03*
X177800000Y-82677000D03*
%TD*%
D16*
%TO.C,U1*%
X210982800Y-69850000D03*
X210982800Y-72390000D03*
X210982800Y-74930000D03*
X210982800Y-77470000D03*
X210982800Y-80010000D03*
X210982800Y-82550000D03*
X210982800Y-85090000D03*
X210982800Y-87630000D03*
X203362800Y-87630000D03*
X203362800Y-85090000D03*
X203362800Y-82550000D03*
X203362800Y-80010000D03*
X203362800Y-77470000D03*
X203362800Y-74930000D03*
X203362800Y-72390000D03*
D17*
X203362800Y-69850000D03*
%TD*%
D18*
%TO.C,U2*%
X193025000Y-92695000D03*
D19*
X190485000Y-92695000D03*
X187945000Y-92695000D03*
X185405000Y-92695000D03*
X182865000Y-92695000D03*
X180325000Y-92695000D03*
X177785000Y-92695000D03*
X175245000Y-92695000D03*
X175245000Y-100315000D03*
X177785000Y-100315000D03*
X180325000Y-100315000D03*
X182865000Y-100315000D03*
X185405000Y-100315000D03*
X187945000Y-100315000D03*
X190485000Y-100315000D03*
X193025000Y-100315000D03*
%TD*%
D20*
%TO.C,A1*%
X210963184Y-60843385D03*
X209693184Y-109103385D03*
D15*
X196993184Y-60843385D03*
D20*
X158893184Y-93863385D03*
X158893184Y-65923385D03*
D15*
X189373184Y-60843385D03*
X186833184Y-60843385D03*
X158766184Y-88783385D03*
X174133184Y-60843385D03*
X171593184Y-60843385D03*
X169053184Y-60843385D03*
X166513184Y-60843385D03*
X163973184Y-60843385D03*
X161433184Y-60843385D03*
X201057184Y-109103385D03*
X161433184Y-109103385D03*
X163973184Y-109103385D03*
X166513184Y-109103385D03*
X169053184Y-109103385D03*
X171593184Y-109103385D03*
X174133184Y-109103385D03*
X176673184Y-109103385D03*
X179213184Y-109103385D03*
X183277184Y-109103385D03*
X185817184Y-109103385D03*
X188357184Y-109103385D03*
X190897184Y-109103385D03*
X193437184Y-109103385D03*
X195977184Y-109103385D03*
D21*
X198517184Y-109103385D03*
X184293184Y-60843385D03*
X181753184Y-60843385D03*
X158766184Y-83703385D03*
D15*
X194453184Y-60843385D03*
X161306184Y-88783385D03*
X158766184Y-86243385D03*
X191913184Y-60843385D03*
X161306184Y-83703385D03*
X161306184Y-86243385D03*
X206137184Y-109103385D03*
X203597184Y-109103385D03*
X179213184Y-60843385D03*
%TD*%
%LPD*%
M02*
