%TF.GenerationSoftware,KiCad,Pcbnew,8.0.8-8.0.8-0~ubuntu24.04.1*%
%TF.CreationDate,2025-02-15T20:19:33-08:00*%
%TF.ProjectId,simple-counter,73696d70-6c65-42d6-936f-756e7465722e,V1.0*%
%TF.SameCoordinates,Original*%
%TF.FileFunction,Profile,NP*%
%FSLAX46Y46*%
G04 Gerber Fmt 4.6, Leading zero omitted, Abs format (unit mm)*
G04 Created by KiCad (PCBNEW 8.0.8-8.0.8-0~ubuntu24.04.1) date 2025-02-15 20:19:33*
%MOMM*%
%LPD*%
G01*
G04 APERTURE LIST*
%TA.AperFunction,Profile*%
%ADD10C,0.050000*%
%TD*%
G04 APERTURE END LIST*
D10*
X214757000Y-90170000D02*
X215138000Y-90170000D01*
X222250000Y-70485000D02*
X222250000Y-71120000D01*
X223012000Y-71120000D02*
X222250000Y-71120000D01*
X223012000Y-61341000D02*
X222250000Y-61341000D01*
X225044000Y-61341000D02*
X224790000Y-61341000D01*
X160401000Y-111760000D02*
X158750000Y-110109000D01*
X215138000Y-90170000D02*
X215265000Y-90170000D01*
X214757000Y-90170000D02*
X214757000Y-111760000D01*
X225044000Y-90170000D02*
X215265000Y-90170000D01*
X225044000Y-71120000D02*
X225044000Y-90170000D01*
X223012000Y-71120000D02*
X225044000Y-71120000D01*
X222250000Y-61341000D02*
X222250000Y-70485000D01*
X224790000Y-61341000D02*
X223012000Y-61341000D01*
X225044000Y-58166000D02*
X225044000Y-61341000D01*
X158750000Y-58166000D02*
X225044000Y-58166000D01*
X156210000Y-63373000D02*
X158750000Y-60706000D01*
X156210000Y-96139000D02*
X156210000Y-63373000D01*
X158750000Y-98679000D02*
X156210000Y-96139000D01*
X158750000Y-60706000D02*
X158750000Y-58166000D01*
X158750000Y-110109000D02*
X158750000Y-98679000D01*
X213995000Y-111760000D02*
X160401000Y-111760000D01*
X213995000Y-111760000D02*
X214757000Y-111760000D01*
M02*
